<svg width="258" height="112" viewBox="0 0 258 112" fill="none" xmlns="http://www.w3.org/2000/svg">
<path d="M5.25194 41.5884C5.25194 35.9304 6.64594 30.8054 9.43394 26.2134C12.2219 21.6214 15.9939 18.0134 20.7499 15.3894C25.5879 12.6834 30.9589 11.3304 36.8629 11.3304C43.3409 11.3304 48.9169 12.8884 53.5909 16.0044C58.3469 19.0384 62.0369 23.4254 64.6609 29.1654C67.3669 34.9054 68.7199 41.8344 68.7199 49.9524C68.7199 61.1044 67.3259 70.4114 64.5379 77.8734C61.8319 85.3354 57.9779 90.9934 52.9759 94.8474C48.0559 98.6194 42.2339 100.505 35.5099 100.505C29.9339 100.505 24.8089 99.2344 20.1349 96.6924C15.4609 94.0684 11.6889 90.4194 8.81894 85.7454L16.8139 77.3814C18.6999 80.7434 21.3239 83.4494 24.6859 85.4994C28.0479 87.5494 31.6969 88.5744 35.6329 88.5744C39.7329 88.5744 43.2999 87.4264 46.3339 85.1304C49.3679 82.8344 51.7459 79.4724 53.4679 75.0444C55.1899 70.5344 56.0509 65.1634 56.0509 58.9314C54.9029 61.3094 53.3039 63.4004 51.2539 65.2044C49.2039 67.0084 46.8259 68.4024 44.1199 69.3864C41.4959 70.3704 38.6259 70.8624 35.5099 70.8624C29.9339 70.8624 24.8089 69.5504 20.1349 66.9264C15.5429 64.3024 11.8939 60.7764 9.18794 56.3484C6.56394 51.9204 5.25194 47.0004 5.25194 41.5884ZM36.7399 22.7694C33.3779 22.7694 30.3029 23.6304 27.5149 25.3524C24.7269 26.9924 22.4719 29.2474 20.7499 32.1174C19.1099 34.9874 18.2899 38.1034 18.2899 41.4654C18.2899 44.8274 19.1099 47.9024 20.7499 50.6904C22.4719 53.4784 24.7269 55.7334 27.5149 57.4554C30.3849 59.0954 33.5009 59.9154 36.8629 59.9154C40.2249 59.9154 43.2999 59.0954 46.0879 57.4554C48.9579 55.7334 51.2129 53.4784 52.8529 50.6904C54.5749 47.9024 55.4359 44.8684 55.4359 41.5884C55.4359 38.1444 54.5749 35.0284 52.8529 32.2404C51.1309 29.3704 48.8349 27.0744 45.9649 25.3524C43.1769 23.6304 40.1019 22.7694 36.7399 22.7694ZM144.051 70.2474C144.051 75.8234 142.657 80.9074 139.869 85.4994C137.163 90.0914 133.391 93.7404 128.553 96.4464C123.797 99.1524 118.467 100.505 112.563 100.505C106.167 100.505 100.55 98.9884 95.7117 95.9544C90.9557 92.8384 87.2247 88.3694 84.5187 82.5474C81.8947 76.7254 80.5827 69.7964 80.5827 61.7604C80.5827 50.6084 81.9357 41.3014 84.6417 33.8394C87.4297 26.3774 91.3247 20.7604 96.3267 16.9884C101.329 13.2164 107.192 11.3304 113.916 11.3304C119.492 11.3304 124.576 12.6424 129.168 15.2664C133.842 17.8084 137.614 21.3754 140.484 25.9674L132.489 34.3314C130.603 30.8874 127.979 28.1814 124.617 26.2134C121.337 24.1634 117.688 23.1384 113.67 23.1384C109.652 23.1384 106.085 24.3274 102.969 26.7054C99.9347 29.0014 97.5567 32.3634 95.8347 36.7914C94.1947 41.2194 93.3337 46.5904 93.2517 52.9044C94.4817 50.4444 96.0807 48.3534 98.0487 46.6314C100.099 44.8274 102.477 43.4334 105.183 42.4494C107.889 41.4654 110.759 40.9734 113.793 40.9734C119.533 40.9734 124.658 42.2854 129.168 44.9094C133.76 47.5334 137.368 51.0594 139.992 55.4874C142.698 59.8334 144.051 64.7534 144.051 70.2474ZM112.563 88.9434C115.925 88.9434 119 88.1234 121.788 86.4834C124.658 84.7614 126.913 82.4654 128.553 79.5954C130.275 76.7254 131.136 73.6094 131.136 70.2474C131.136 66.8854 130.275 63.8104 128.553 61.0224C126.913 58.2344 124.699 56.0204 121.911 54.3804C119.123 52.6584 116.007 51.7974 112.563 51.7974C109.283 51.7974 106.208 52.6584 103.338 54.3804C100.468 56.0204 98.1717 58.2344 96.4497 61.0224C94.8097 63.8104 93.9897 66.8854 93.9897 70.2474C93.9897 73.6094 94.8507 76.7254 96.5727 79.5954C98.2947 82.3834 100.55 84.6384 103.338 86.3604C106.208 88.0824 109.283 88.9434 112.563 88.9434Z" fill="url(#paint0_linear_488_55953)"/>
<circle cx="147.735" cy="70.3131" r="26.5006" fill="#F9F9F9"/>
<path d="M137.175 68.4872C135.704 68.4872 134.377 68.1675 133.194 67.5279C132.011 66.8564 131.051 65.9771 130.316 64.8899C129.613 63.7707 129.261 62.5397 129.261 61.1967C129.261 59.8537 129.613 58.6386 130.316 57.5514C131.051 56.4322 132.011 55.5529 133.194 54.9134C134.377 54.2738 135.704 53.9541 137.175 53.9541C138.646 53.9541 139.973 54.2738 141.156 54.9134C142.371 55.5529 143.33 56.4322 144.034 57.5514C144.737 58.6386 145.089 59.8537 145.089 61.1967C145.089 62.5397 144.737 63.7707 144.034 64.8899C143.33 65.9771 142.371 66.8564 141.156 67.5279C139.973 68.1675 138.646 68.4872 137.175 68.4872ZM137.175 65.2736C137.814 65.2736 138.39 65.0818 138.902 64.698C139.413 64.3143 139.813 63.8187 140.101 63.2112C140.42 62.6036 140.58 61.9481 140.58 61.2446C140.58 60.4772 140.42 59.7897 140.101 59.1822C139.781 58.5746 139.365 58.095 138.854 57.7432C138.342 57.3595 137.782 57.1677 137.175 57.1677C136.535 57.1677 135.96 57.3595 135.448 57.7432C134.937 58.095 134.521 58.5746 134.201 59.1822C133.913 59.7897 133.769 60.4612 133.769 61.1967C133.769 61.9321 133.929 62.6196 134.249 63.2591C134.569 63.8667 134.985 64.3623 135.496 64.746C136.008 65.0977 136.567 65.2736 137.175 65.2736ZM155.689 88.9679C154.218 88.9679 152.891 88.6482 151.708 88.0086C150.525 87.3691 149.566 86.5058 148.83 85.4186C148.127 84.2994 147.775 83.0683 147.775 81.7253C147.775 80.3504 148.127 79.1193 148.83 78.0321C149.566 76.9449 150.525 76.0815 151.708 75.442C152.891 74.7705 154.218 74.4348 155.689 74.4348C157.16 74.4348 158.487 74.7705 159.67 75.442C160.885 76.0815 161.844 76.9449 162.548 78.0321C163.251 79.1193 163.603 80.3344 163.603 81.6774C163.603 83.0204 163.251 84.2514 162.548 85.3706C161.844 86.4578 160.885 87.3371 159.67 88.0086C158.487 88.6482 157.16 88.9679 155.689 88.9679ZM155.689 85.7543C156.329 85.7543 156.904 85.5625 157.416 85.1788C157.927 84.795 158.327 84.2994 158.615 83.6919C158.935 83.0843 159.094 82.4288 159.094 81.7253C159.094 80.9579 158.935 80.2704 158.615 79.6629C158.327 79.0553 157.911 78.5757 157.368 78.2239C156.856 77.8402 156.297 77.6484 155.689 77.6484C155.081 77.6484 154.506 77.8402 153.962 78.2239C153.451 78.5757 153.035 79.0713 152.715 79.7108C152.427 80.3184 152.284 80.9739 152.284 81.6774C152.284 82.4448 152.443 83.1323 152.763 83.7398C153.083 84.3474 153.499 84.843 154.01 85.2267C154.522 85.5785 155.081 85.7543 155.689 85.7543ZM131.995 86.234L145.473 70.4538L157.943 54.05L160.869 56.6401L147.727 72.1805L134.873 88.824L131.995 86.234Z" fill="url(#paint1_linear_488_55953)"/>
<defs>
<linearGradient id="paint0_linear_488_55953" x1="0.0859375" y1="55.3714" x2="257.52" y2="55.3714" gradientUnits="userSpaceOnUse">
<stop stop-color="#58A4C3"/>
<stop offset="0.539583" stop-color="#97CCE1"/>
<stop offset="1" stop-color="#5CA5C5"/>
</linearGradient>
<linearGradient id="paint1_linear_488_55953" x1="127.582" y1="70.9664" x2="165.953" y2="70.9664" gradientUnits="userSpaceOnUse">
<stop stop-color="#58A4C3"/>
<stop offset="0.539583" stop-color="#97CCE1"/>
<stop offset="1" stop-color="#5CA5C5"/>
</linearGradient>
</defs>
</svg>
