<svg xmlns="http://www.w3.org/2000/svg" width="55" height="55" viewBox="0 0 55 55" fill="none">
  <path d="M26.5119 1.25858C27.0629 0.725633 27.9371 0.725633 28.4881 1.25858L33.6755 6.27692C33.9905 6.58168 34.4286 6.72401 34.8626 6.66263L42.009 5.65181C42.768 5.54446 43.4753 6.05836 43.6077 6.81333L44.8548 13.9224C44.9305 14.3541 45.2012 14.7267 45.5884 14.9321L51.9641 18.315C52.6412 18.6742 52.9114 19.5057 52.5748 20.1943L49.4051 26.6787C49.2126 27.0724 49.2126 27.533 49.4051 27.9268L52.5748 34.4111C52.9114 35.0998 52.6412 35.9313 51.9641 36.2905L45.5884 39.6733C45.2012 39.8788 44.9305 40.2514 44.8548 40.6831L43.6077 47.7921C43.4753 48.5471 42.768 49.061 42.009 48.9537L34.8626 47.9428C34.4286 47.8815 33.9905 48.0238 33.6755 48.3285L28.4881 53.3469C27.9371 53.8798 27.0629 53.8798 26.5119 53.3469L21.3245 48.3285C21.0095 48.0238 20.5714 47.8815 20.1374 47.9428L12.991 48.9537C12.232 49.061 11.5247 48.5471 11.3923 47.7921L10.1453 40.6831C10.0695 40.2514 9.7988 39.8788 9.4116 39.6733L3.03586 36.2905C2.35876 35.9313 2.08859 35.0998 2.42521 34.4111L5.59493 27.9268C5.78743 27.533 5.78743 27.0724 5.59493 26.6787L2.42521 20.1943C2.08859 19.5057 2.35876 18.6742 3.03586 18.315L9.4116 14.9321C9.7988 14.7267 10.0695 14.3541 10.1453 13.9224L11.3923 6.81333C11.5247 6.05836 12.232 5.54446 12.991 5.65181L20.1374 6.66263C20.5714 6.72401 21.0095 6.58169 21.3245 6.27692L26.5119 1.25858Z" fill="url(#paint0_linear_488_55958)"/>
  <path d="M38.8031 28.8779C38.8031 28.1295 38.2792 27.5058 37.5807 27.3063C37.5558 27.3063 37.5558 27.2564 37.5807 27.2564C38.4788 27.2564 39.2023 26.5329 39.2023 25.6348C39.2023 24.7368 38.4788 24.0133 37.5807 24.0133C36.6826 24.0133 35.3854 24.0133 34.2878 24.0382C33.6142 24.0632 32.2671 24.0632 31.344 24.0382C30.8451 24.0382 30.4958 23.5393 30.6455 23.0903C31.1195 21.6683 31.9677 19.0489 32.1174 18.2256C32.4916 16.2299 29.3982 15.6312 28.7745 17.1779C28.2007 18.6747 25.9306 23.1402 23.2363 24.7866C22.912 24.9862 22.7124 25.3355 22.7124 25.7097L22.6875 34.8152C22.6875 35.3391 24.8329 36.9108 27.8764 36.9108H34.7867H36.3833C37.2814 36.9108 38.0048 36.1873 38.0048 35.2892C38.0048 34.5408 37.4809 33.9172 36.7824 33.7176C36.7575 33.7176 36.7575 33.6677 36.7824 33.6677C37.6805 33.6677 38.404 32.9442 38.404 32.0462C38.404 31.2978 37.8801 30.6741 37.1816 30.4745C37.1566 30.4745 37.1566 30.4246 37.1816 30.4246C38.0797 30.4745 38.8031 29.7511 38.8031 28.8779Z" fill="white"/>
  <path d="M20.165 24.5625H16.6974C16.0239 24.5625 15.5 25.1113 15.5 25.7599V34.9404C15.5 35.6139 16.0488 36.1378 16.6974 36.1378H20.165C20.8386 36.1378 21.3625 35.589 21.3625 34.9404V25.7599C21.3625 25.1113 20.8386 24.5625 20.165 24.5625ZM18.4437 34.4165C17.9198 34.4165 17.5207 33.9924 17.5207 33.4934C17.5207 32.9696 17.9448 32.5704 18.4437 32.5704C18.9427 32.5704 19.3667 32.9945 19.3667 33.4934C19.3667 33.9924 18.9427 34.4165 18.4437 34.4165Z" fill="white"/>
  <defs>
    <linearGradient id="paint0_linear_488_55958" x1="0.5" y1="26.9427" x2="54.5" y2="26.9427" gradientUnits="userSpaceOnUse">
      <stop stop-color="#58A4C3"/>
      <stop offset="0.539583" stop-color="#97CCE1"/>
      <stop offset="1" stop-color="#5CA5C5"/>
    </linearGradient>
  </defs>
</svg>