<svg width="43" height="43" viewBox="0 0 43 43" fill="none" xmlns="http://www.w3.org/2000/svg">
<path d="M20.7315 1.04617C21.16 0.631656 21.84 0.631655 22.2685 1.04617L26.3032 4.94933C26.5482 5.18636 26.8889 5.29706 27.2264 5.24932L32.7848 4.46312C33.3751 4.37963 33.9252 4.77933 34.0282 5.36653L34.9981 10.8958C35.057 11.2316 35.2676 11.5214 35.5688 11.6812L40.5277 14.3122C41.0543 14.5917 41.2644 15.2384 41.0026 15.774L38.5373 20.8173C38.3876 21.1236 38.3876 21.4818 38.5373 21.7881L41.0026 26.8315C41.2644 27.3671 41.0543 28.0138 40.5277 28.2932L35.5688 30.9243C35.2676 31.0841 35.057 31.3739 34.9981 31.7097L34.0282 37.2389C33.9252 37.8261 33.3751 38.2258 32.7848 38.1423L27.2264 37.3562C26.8889 37.3084 26.5482 37.4191 26.3032 37.6561L22.2685 41.5593C21.84 41.9738 21.16 41.9738 20.7315 41.5593L16.6968 37.6561C16.4518 37.4191 16.1111 37.3084 15.7736 37.3562L10.2152 38.1423C9.62491 38.2258 9.07477 37.8261 8.97177 37.2389L8.00186 31.7097C7.94296 31.3739 7.7324 31.0841 7.43125 30.9243L2.47233 28.2932C1.9457 28.0138 1.73557 27.3671 1.99738 26.8315L4.46272 21.7881C4.61244 21.4818 4.61244 21.1236 4.46272 20.8173L1.99738 15.774C1.73557 15.2384 1.9457 14.5917 2.47233 14.3122L7.43125 11.6812C7.7324 11.5214 7.94296 11.2316 8.00186 10.8958L8.97177 5.36653C9.07477 4.77933 9.62491 4.37963 10.2152 4.46312L15.7736 5.24932C16.1111 5.29706 16.4518 5.18636 16.6968 4.94933L20.7315 1.04617Z" fill="url(#paint0_linear_488_55533)"/>
<path d="M17.7606 19.2261C17.1666 19.2261 16.6308 19.097 16.153 18.8387C15.6753 18.5676 15.2879 18.2125 14.9909 17.7735C14.7069 17.3215 14.5648 16.8244 14.5648 16.2821C14.5648 15.7398 14.7069 15.2491 14.9909 14.8101C15.2879 14.3582 15.6753 14.0031 16.153 13.7448C16.6308 13.4866 17.1666 13.3575 17.7606 13.3575C18.3546 13.3575 18.8904 13.4866 19.3682 13.7448C19.8589 14.0031 20.2462 14.3582 20.5303 14.8101C20.8144 15.2491 20.9564 15.7398 20.9564 16.2821C20.9564 16.8244 20.8144 17.3215 20.5303 17.7735C20.2462 18.2125 19.8589 18.5676 19.3682 18.8387C18.8904 19.097 18.3546 19.2261 17.7606 19.2261ZM17.7606 17.9284C18.0189 17.9284 18.2513 17.8509 18.4579 17.696C18.6645 17.541 18.8259 17.3409 18.9421 17.0956C19.0712 16.8502 19.1358 16.5855 19.1358 16.3015C19.1358 15.9916 19.0712 15.714 18.9421 15.4686C18.813 15.2233 18.6451 15.0296 18.4385 14.8876C18.2319 14.7326 18.0059 14.6552 17.7606 14.6552C17.5024 14.6552 17.2699 14.7326 17.0633 14.8876C16.8567 15.0296 16.6889 15.2233 16.5598 15.4686C16.4436 15.714 16.3855 15.9851 16.3855 16.2821C16.3855 16.5791 16.45 16.8567 16.5791 17.1149C16.7083 17.3603 16.8761 17.5604 17.0827 17.7154C17.2893 17.8574 17.5153 17.9284 17.7606 17.9284ZM25.2368 27.4964C24.6429 27.4964 24.107 27.3673 23.6292 27.1091C23.1515 26.8508 22.7641 26.5022 22.4671 26.0632C22.1831 25.6112 22.041 25.1141 22.041 24.5718C22.041 24.0166 22.1831 23.5194 22.4671 23.0804C22.7641 22.6414 23.1515 22.2928 23.6292 22.0345C24.107 21.7634 24.6429 21.6278 25.2368 21.6278C25.8308 21.6278 26.3666 21.7634 26.8444 22.0345C27.3351 22.2928 27.7224 22.6414 28.0065 23.0804C28.2906 23.5194 28.4326 24.0101 28.4326 24.5524C28.4326 25.0947 28.2906 25.5919 28.0065 26.0438C27.7224 26.4828 27.3351 26.8379 26.8444 27.1091C26.3666 27.3673 25.8308 27.4964 25.2368 27.4964ZM25.2368 26.1987C25.4951 26.1987 25.7275 26.1213 25.9341 25.9663C26.1407 25.8114 26.3021 25.6112 26.4183 25.3659C26.5474 25.1206 26.612 24.8559 26.612 24.5718C26.612 24.2619 26.5474 23.9843 26.4183 23.7389C26.3021 23.4936 26.1342 23.2999 25.9147 23.1579C25.7081 23.0029 25.4822 22.9255 25.2368 22.9255C24.9915 22.9255 24.7591 23.0029 24.5396 23.1579C24.333 23.2999 24.1651 23.5001 24.036 23.7583C23.9198 24.0036 23.8617 24.2683 23.8617 24.5524C23.8617 24.8623 23.9262 25.1399 24.0553 25.3853C24.1845 25.6306 24.3523 25.8307 24.5589 25.9857C24.7655 26.1277 24.9915 26.1987 25.2368 26.1987ZM15.6688 26.3924L21.1113 20.0202L26.1471 13.3962L27.3286 14.4421L22.0217 20.7175L16.8309 27.4383L15.6688 26.3924Z" fill="white"/>
<defs>
<linearGradient id="paint0_linear_488_55533" x1="0.5" y1="21.0227" x2="42.5" y2="21.0227" gradientUnits="userSpaceOnUse">
<stop stop-color="#58A4C3"/>
<stop offset="0.539583" stop-color="#97CCE1"/>
<stop offset="1" stop-color="#5CA5C5"/>
</linearGradient>
</defs>
</svg>
