<svg xmlns="http://www.w3.org/2000/svg" width="30" height="30" viewBox="0 0 30 30" fill="none">
  <circle cx="15" cy="14.8027" r="14.5" fill="url(#paint0_linear_488_55788)"/>
  <path d="M12.5808 15.8759H17.8046C18.2229 15.8759 18.5651 15.5446 18.5651 15.1371V15.0705C18.5651 14.1927 18.2132 13.3683 17.5778 12.7476C16.9189 12.1078 16.047 11.7651 15.1125 11.7861C13.2983 11.828 11.8203 13.3283 11.8203 15.1371C11.8203 15.5446 12.1624 15.8759 12.5808 15.8759Z" fill="white"/>
  <path d="M15.1951 11.4839C16.2215 11.4839 17.0563 10.5453 17.0563 9.39334C17.0563 8.24141 16.2215 7.30273 15.1951 7.30273C14.1688 7.30273 13.332 8.24141 13.332 9.39334C13.332 10.5453 14.1688 11.4839 15.1951 11.4839Z" fill="white"/>
  <path d="M18.1516 18.4444H15.9072L15.2132 16.3652C15.1819 16.2738 15.0959 16.2129 14.9982 16.2129C14.8984 16.2129 14.8124 16.2738 14.7811 16.3652L14.0891 18.4444H11.8447C11.745 18.4444 11.659 18.5053 11.6277 18.5967C11.5984 18.6881 11.6316 18.7871 11.7098 18.8442L13.526 20.1294L12.832 22.2067C12.8027 22.2981 12.8359 22.3971 12.9161 22.4542C12.9943 22.5114 13.1018 22.5114 13.182 22.4542L14.9982 21.169L16.8124 22.4542C16.8534 22.4828 16.9004 22.4961 16.9473 22.4961C16.9922 22.4961 17.0392 22.4828 17.0802 22.4542C17.1584 22.3971 17.1917 22.2981 17.1623 22.2067L16.4683 20.1294L18.2845 18.8442C18.3647 18.7871 18.3979 18.6881 18.3666 18.5967C18.3353 18.5053 18.2493 18.4444 18.1516 18.4444Z" fill="white"/>
  <path d="M24.265 16.8936C24.2357 16.8022 24.1477 16.7413 24.05 16.7413H21.8056L21.1116 14.6621C21.0823 14.5707 20.9943 14.5098 20.8966 14.5098C20.7969 14.5098 20.7108 14.5707 20.6796 14.6621L19.9875 16.7413H17.7432C17.6454 16.7413 17.5574 16.8022 17.5261 16.8936C17.4968 16.985 17.5301 17.084 17.6102 17.1411L19.4244 18.4244L18.7324 20.5036C18.7011 20.595 18.7343 20.694 18.8145 20.7511C18.8927 20.8063 19.0002 20.8063 19.0804 20.7511L20.8966 19.4659L22.7108 20.7511C22.7519 20.7797 22.7988 20.793 22.8457 20.793C22.8926 20.793 22.9395 20.7797 22.9786 20.7511C23.0588 20.694 23.092 20.595 23.0607 20.5036L22.3667 18.4244L24.1829 17.1411C24.2631 17.084 24.2963 16.985 24.265 16.8936Z" fill="white"/>
  <path d="M10.5699 18.4244L12.3861 17.1411C12.4643 17.084 12.4975 16.985 12.4682 16.8936C12.4369 16.8022 12.3509 16.7413 12.2531 16.7413H10.0088L9.31476 14.6621C9.28348 14.5707 9.19746 14.5098 9.09971 14.5098C9.00001 14.5098 8.91399 14.5707 8.88271 14.6621L8.18868 16.7413H5.9463C5.8466 16.7413 5.76058 16.8022 5.7293 16.8936C5.69997 16.985 5.73321 17.084 5.81141 17.1411L7.6276 18.4244L6.93358 20.5036C6.90425 20.595 6.93749 20.694 7.01569 20.7511C7.09584 20.8063 7.20337 20.8063 7.28352 20.7511L9.09971 19.4659L10.914 20.7511C10.955 20.7797 11 20.793 11.0469 20.793C11.0938 20.793 11.1407 20.7797 11.1818 20.7511C11.26 20.694 11.2932 20.595 11.2639 20.5036L10.5699 18.4244Z" fill="white"/>
  <defs>
    <linearGradient id="paint0_linear_488_55788" x1="29.5" y1="29.3027" x2="-2.9196" y2="24.7721" gradientUnits="userSpaceOnUse">
      <stop stop-color="#6C9165"/>
      <stop offset="0.461458" stop-color="#90B589"/>
      <stop offset="1" stop-color="#6C9165"/>
    </linearGradient>
  </defs>
</svg>