<svg xmlns="http://www.w3.org/2000/svg" width="30" height="30" viewBox="0 0 30 30" fill="none">
  <circle cx="15" cy="14.8447" r="14.5" fill="url(#paint0_linear_488_55306)"/>
  <path d="M20.3216 7.64195V14.4597C20.3214 14.5242 20.2957 14.586 20.2501 14.6316C20.2045 14.6772 20.1427 14.703 20.0781 14.7031C20.0461 14.7035 20.0143 14.6974 19.9846 14.6853C19.9549 14.6731 19.9279 14.6552 19.9053 14.6325C19.8826 14.6099 19.8647 14.5829 19.8525 14.5532C19.8404 14.5235 19.8343 14.4917 19.8347 14.4597V7.88544H11.556V9.58986C11.5563 9.62193 11.5502 9.65373 11.5381 9.68342C11.526 9.7131 11.5081 9.74007 11.4854 9.76274C11.4627 9.78541 11.4358 9.80334 11.4061 9.81546C11.3764 9.82759 11.3446 9.83367 11.3125 9.83335H9.60809V21.0339H15.2084C15.2729 21.0339 15.3349 21.0595 15.3805 21.1052C15.4262 21.1509 15.4518 21.2128 15.4518 21.2774C15.4518 21.3419 15.4262 21.4039 15.3805 21.4495C15.3349 21.4952 15.2729 21.5209 15.2084 21.5209H9.3646C9.33254 21.5212 9.30073 21.5151 9.27105 21.503C9.24137 21.4908 9.2144 21.4729 9.19172 21.4502C9.16905 21.4276 9.15113 21.4006 9.139 21.3709C9.12688 21.3412 9.1208 21.3094 9.12111 21.2774V9.58986C9.1207 9.55792 9.12698 9.52625 9.13957 9.4969C9.15215 9.46754 9.17075 9.44115 9.19416 9.41942L11.1421 7.4715C11.1638 7.44809 11.1902 7.42949 11.2196 7.41691C11.2489 7.40432 11.2806 7.39804 11.3125 7.39846H20.0781C20.1101 7.39804 20.1418 7.40432 20.1711 7.41691C20.2005 7.42949 20.2269 7.44809 20.2486 7.4715C20.272 7.49323 20.2906 7.51962 20.3032 7.54898C20.3158 7.57834 20.322 7.61001 20.3216 7.64195Z" fill="white"/>
  <path d="M12.7734 10.8067H10.8255C10.7935 10.8063 10.7617 10.8124 10.732 10.8245C10.7023 10.8367 10.6753 10.8546 10.6527 10.8773C10.63 10.8999 10.6121 10.9269 10.5999 10.9566C10.5878 10.9863 10.5817 11.0181 10.582 11.0501V12.9981C10.5817 13.0301 10.5878 13.0619 10.5999 13.0916C10.6121 13.1213 10.63 13.1483 10.6527 13.1709C10.6753 13.1936 10.7023 13.2115 10.732 13.2237C10.7617 13.2358 10.7935 13.2419 10.8255 13.2415H12.7734C12.8055 13.2419 12.8373 13.2358 12.867 13.2237C12.8967 13.2115 12.9237 13.1936 12.9463 13.1709C12.969 13.1483 12.9869 13.1213 12.999 13.0916C13.0112 13.0619 13.0173 13.0301 13.0169 12.9981V11.0501C13.0173 11.0181 13.0112 10.9863 12.9991 10.9566C12.9869 10.9269 12.969 10.8999 12.9463 10.8773C12.9237 10.8546 12.8967 10.8367 12.867 10.8245C12.8373 10.8124 12.8055 10.8063 12.7734 10.8067ZM12.53 12.7546H11.069V11.2936H12.53V12.7546Z" fill="white"/>
  <path d="M18.6172 11.7809H13.7474C13.6828 11.7809 13.6209 11.7553 13.5752 11.7096C13.5296 11.6639 13.5039 11.602 13.5039 11.5374C13.5039 11.4729 13.5296 11.4109 13.5752 11.3653C13.6209 11.3196 13.6828 11.2939 13.7474 11.2939H18.6172C18.6818 11.2939 18.7437 11.3196 18.7894 11.3653C18.835 11.4109 18.8607 11.4729 18.8607 11.5374C18.8607 11.602 18.835 11.6639 18.7894 11.7096C18.7437 11.7553 18.6818 11.7809 18.6172 11.7809Z" fill="white"/>
  <path d="M17.6432 12.7546H13.7474C13.6828 12.7546 13.6209 12.7289 13.5752 12.6832C13.5296 12.6376 13.5039 12.5756 13.5039 12.5111C13.5039 12.4465 13.5296 12.3846 13.5752 12.3389C13.6209 12.2932 13.6828 12.2676 13.7474 12.2676H17.6432C17.7078 12.2676 17.7697 12.2932 17.8154 12.3389C17.8611 12.3846 17.8867 12.4465 17.8867 12.5111C17.8867 12.5756 17.8611 12.6376 17.8154 12.6832C17.7697 12.7289 17.7078 12.7546 17.6432 12.7546Z" fill="white"/>
  <path d="M12.7734 14.2158H10.8255C10.7935 14.2155 10.7617 14.2216 10.732 14.2337C10.7023 14.2458 10.6753 14.2638 10.6527 14.2864C10.63 14.3091 10.6121 14.3361 10.5999 14.3658C10.5878 14.3955 10.5817 14.4273 10.582 14.4593V16.4072C10.5817 16.4393 10.5878 16.4711 10.5999 16.5008C10.6121 16.5305 10.63 16.5574 10.6527 16.5801C10.6753 16.6028 10.7023 16.6207 10.732 16.6328C10.7617 16.645 10.7935 16.651 10.8255 16.6507H12.7734C12.8055 16.651 12.8373 16.645 12.867 16.6328C12.8967 16.6207 12.9237 16.6028 12.9463 16.5801C12.969 16.5574 12.9869 16.5305 12.999 16.5008C13.0112 16.4711 13.0173 16.4393 13.0169 16.4072V14.4593C13.0173 14.4273 13.0112 14.3955 12.9991 14.3658C12.9869 14.3361 12.969 14.3091 12.9463 14.2864C12.9237 14.2638 12.8967 14.2458 12.867 14.2337C12.8373 14.2216 12.8055 14.2155 12.7734 14.2158ZM12.53 16.1637H11.069V14.7028H12.53V16.1637Z" fill="white"/>
  <path d="M18.6172 15.1901H13.7474C13.6828 15.1901 13.6209 15.1645 13.5752 15.1188C13.5296 15.0731 13.5039 15.0112 13.5039 14.9466C13.5039 14.882 13.5296 14.8201 13.5752 14.7744C13.6209 14.7288 13.6828 14.7031 13.7474 14.7031H18.6172C18.6818 14.7031 18.7437 14.7288 18.7894 14.7744C18.835 14.8201 18.8607 14.882 18.8607 14.9466C18.8607 15.0112 18.835 15.0731 18.7894 15.1188C18.7437 15.1645 18.6818 15.1901 18.6172 15.1901Z" fill="white"/>
  <path d="M17.6432 16.1637H13.7474C13.6828 16.1637 13.6209 16.1381 13.5752 16.0924C13.5296 16.0468 13.5039 15.9848 13.5039 15.9202C13.5039 15.8557 13.5296 15.7937 13.5752 15.7481C13.6209 15.7024 13.6828 15.6768 13.7474 15.6768H17.6432C17.7078 15.6768 17.7697 15.7024 17.8154 15.7481C17.8611 15.7937 17.8867 15.8557 17.8867 15.9202C17.8867 15.9848 17.8611 16.0468 17.8154 16.0924C17.7697 16.1381 17.7078 16.1637 17.6432 16.1637Z" fill="white"/>
  <path d="M12.7734 17.625H10.8255C10.7935 17.6247 10.7617 17.6308 10.732 17.6429C10.7023 17.655 10.6753 17.6729 10.6527 17.6956C10.63 17.7183 10.6121 17.7453 10.5999 17.7749C10.5878 17.8046 10.5817 17.8364 10.582 17.8685V19.8164C10.5817 19.8485 10.5878 19.8803 10.5999 19.91C10.6121 19.9397 10.63 19.9666 10.6527 19.9893C10.6753 20.012 10.7023 20.0299 10.732 20.042C10.7617 20.0541 10.7935 20.0602 10.8255 20.0599H12.7734C12.8055 20.0602 12.8373 20.0541 12.867 20.042C12.8967 20.0299 12.9237 20.012 12.9463 19.9893C12.969 19.9666 12.9869 19.9397 12.999 19.91C13.0112 19.8803 13.0173 19.8485 13.0169 19.8164V17.8685C13.0173 17.8364 13.0112 17.8046 12.9991 17.7749C12.9869 17.7453 12.969 17.7183 12.9463 17.6956C12.9237 17.6729 12.8967 17.655 12.867 17.6429C12.8373 17.6308 12.8055 17.6247 12.7734 17.625ZM12.53 19.5729H11.069V18.112H12.53V19.5729Z" fill="white"/>
  <path d="M15.6953 18.5983H13.7474C13.6828 18.5983 13.6209 18.5727 13.5752 18.527C13.5296 18.4813 13.5039 18.4194 13.5039 18.3548C13.5039 18.2902 13.5296 18.2283 13.5752 18.1826C13.6209 18.137 13.6828 18.1113 13.7474 18.1113H15.6953C15.7599 18.1113 15.8218 18.137 15.8675 18.1826C15.9131 18.2283 15.9388 18.2902 15.9388 18.3548C15.9388 18.4194 15.9131 18.4813 15.8675 18.527C15.8218 18.5727 15.7599 18.5983 15.6953 18.5983Z" fill="white"/>
  <path d="M14.7214 19.5729H13.7474C13.6828 19.5729 13.6209 19.5473 13.5752 19.5016C13.5296 19.4559 13.5039 19.394 13.5039 19.3294C13.5039 19.2648 13.5296 19.2029 13.5752 19.1573C13.6209 19.1116 13.6828 19.0859 13.7474 19.0859H14.7214C14.7859 19.0859 14.8479 19.1116 14.8935 19.1573C14.9392 19.2029 14.9648 19.2648 14.9648 19.3294C14.9648 19.394 14.9392 19.4559 14.8935 19.5016C14.8479 19.5473 14.7859 19.5729 14.7214 19.5729Z" fill="white"/>
  <path d="M21.9663 17.2989L17.8124 21.448C17.7907 21.4714 17.7643 21.49 17.7349 21.5026C17.7056 21.5151 17.6739 21.5214 17.6419 21.521H16.181C16.1489 21.5213 16.1171 21.5152 16.0875 21.5031C16.0578 21.491 16.0308 21.4731 16.0081 21.4504C15.9855 21.4277 15.9675 21.4007 15.9554 21.3711C15.9433 21.3414 15.9372 21.3096 15.9375 21.2775V19.8166C15.9371 19.7846 15.9434 19.753 15.956 19.7236C15.9686 19.6943 15.9872 19.6679 16.0106 19.6461L20.1645 15.4971L20.5054 15.838L20.895 16.2275L16.9845 20.1331C16.9614 20.1551 16.9431 20.1815 16.9305 20.2108C16.918 20.2401 16.9115 20.2717 16.9115 20.3036C16.9115 20.3354 16.918 20.367 16.9305 20.3963C16.9431 20.4256 16.9614 20.452 16.9845 20.474C17.0065 20.4971 17.0329 20.5155 17.0622 20.528C17.0915 20.5406 17.1231 20.5471 17.155 20.5471C17.1868 20.5471 17.2184 20.5406 17.2477 20.528C17.277 20.5155 17.3034 20.4971 17.3254 20.474L21.2359 16.5684L21.6206 16.9531L21.9663 17.2989Z" fill="white"/>
  <path d="M22.8697 16.3928L22.3096 16.9528L20.5078 15.151L21.0678 14.5909C21.1861 14.4726 21.3266 14.3788 21.4812 14.3148C21.6358 14.2507 21.8014 14.2178 21.9687 14.2178C22.1361 14.2178 22.3017 14.2507 22.4563 14.3148C22.6109 14.3788 22.7514 14.4726 22.8697 14.5909C22.988 14.7093 23.0818 14.8497 23.1458 15.0043C23.2099 15.1589 23.2428 15.3245 23.2428 15.4919C23.2428 15.6592 23.2099 15.8248 23.1458 15.9794C23.0818 16.134 22.988 16.2745 22.8697 16.3928Z" fill="white"/>
  <defs>
    <linearGradient id="paint0_linear_488_55306" x1="29.5" y1="29.3447" x2="-2.9196" y2="24.8141" gradientUnits="userSpaceOnUse">
      <stop stop-color="#6C9165"/>
      <stop offset="0.461458" stop-color="#90B589"/>
      <stop offset="1" stop-color="#6C9165"/>
    </linearGradient>
  </defs>
</svg>