<svg xmlns="http://www.w3.org/2000/svg" width="30" height="30" viewBox="0 0 30 30" fill="none">
  <circle cx="15" cy="14.8027" r="14.5" fill="url(#paint0_linear_488_55796)"/>
  <path d="M20.7894 20.6504C20.8978 20.7261 20.9918 20.8245 21.0583 20.9491C21.2099 21.234 21.2099 21.5868 21.0583 21.8707C20.9223 22.1281 20.6777 22.2998 20.4165 22.2984C19.2744 22.2984 18.1165 22.3021 16.9693 22.2998C16.7064 22.2897 16.4607 22.1307 16.3235 21.8722C16.1734 21.5868 16.1734 21.234 16.3235 20.9482C16.3902 20.8247 16.4841 20.7264 16.5929 20.6504H20.7894Z" fill="white"/>
  <path d="M20.8859 18.0549C21.2168 18.0549 21.5262 18.2497 21.696 18.5611C21.8749 18.8883 21.8749 19.2939 21.696 19.6196C21.5259 19.932 21.2151 20.1254 20.8844 20.1254H16.4927C16.1605 20.1254 15.8509 19.9334 15.681 19.6208C15.5022 19.2936 15.5022 18.8881 15.681 18.5618C15.8512 18.2495 16.1618 18.0547 16.4927 18.0547L20.8859 18.0549Z" fill="white"/>
  <path d="M20.8859 15.459C21.2168 15.459 21.5262 15.6528 21.696 15.9638C21.8749 16.291 21.8749 16.6965 21.696 17.0237C21.5259 17.3361 21.2151 17.5294 20.8844 17.5294H16.4927C16.1618 17.5294 15.8509 17.3347 15.681 17.0237C15.5022 16.6965 15.5022 16.291 15.681 15.9652C15.8512 15.6528 16.1618 15.459 16.4927 15.459H20.8859Z" fill="white"/>
  <path d="M10.0886 13.7129V20.7755H9.28771C7.88389 20.7755 7.5 20.3074 7.5 18.5997V15.8887C7.5 14.1805 7.88389 13.7129 9.28771 13.7129H10.0886Z" fill="white"/>
  <path d="M20.8859 12.8633C21.2168 12.8633 21.5262 13.0566 21.696 13.3678C21.8749 13.695 21.8749 14.1001 21.696 14.4273C21.5259 14.7397 21.2151 14.9335 20.8844 14.9335H16.4927C16.1618 14.9335 15.8509 14.7397 15.681 14.4273C15.5022 14.1001 15.5022 13.695 15.681 13.3678C15.8512 13.0569 16.1618 12.8633 16.4927 12.8633H20.8859Z" fill="white"/>
  <path d="M15.9802 8.11417C16.2063 8.51758 16.3985 9.19385 16.0392 10.127C15.8327 10.6605 15.8382 11.1161 15.8432 11.5181C15.8472 11.8387 15.8302 12.1264 15.9739 12.4369C15.6435 12.5628 15.3585 12.8046 15.1808 13.1301C14.9219 13.6039 14.9219 14.1936 15.1808 14.6664C15.2998 14.8842 15.4669 15.062 15.6616 15.197C15.4654 15.3302 15.2982 15.508 15.1808 15.7263C15.0554 15.9542 14.9911 16.2102 14.9874 16.4673C14.4396 17.3444 13.2556 17.467 12.0575 17.467C11.9017 17.467 11.7753 17.5832 11.7753 17.7292C11.7753 17.8734 11.902 17.9911 12.0575 17.9911C13.1708 17.9911 14.3719 17.8798 15.1296 17.1529C15.1454 17.1896 15.161 17.2266 15.1808 17.2619C15.2998 17.4801 15.4654 17.658 15.6616 17.7916C15.4654 17.9261 15.2982 18.104 15.1808 18.3218C14.9204 18.796 14.9204 19.3845 15.1808 19.8585C15.3494 20.1709 15.6169 20.4061 15.9308 20.5371C15.8889 20.5922 15.85 20.6524 15.8171 20.715C15.5896 21.1431 15.5896 21.6766 15.8171 22.1042C15.8535 22.175 15.8994 22.2388 15.9466 22.3013L14.2239 22.3027C13.4566 22.3027 12.8843 21.8824 12.3932 21.5218C11.9017 21.1607 11.4549 20.8401 10.6484 20.7858V13.5309C10.6484 13.0802 11.2273 12.5569 11.8977 11.9519C12.8504 11.0919 14.0357 10.0209 14.4956 8.41479C14.5478 8.23343 14.5897 8.0643 14.6286 7.90999C14.6943 7.64537 14.7856 7.28288 15.0132 7.30358C15.2405 7.32546 15.6914 7.59644 15.9802 8.11417Z" fill="white"/>
  <defs>
    <linearGradient id="paint0_linear_488_55796" x1="29.5" y1="29.3027" x2="-2.9196" y2="24.7721" gradientUnits="userSpaceOnUse">
      <stop stop-color="#6C9165"/>
      <stop offset="0.461458" stop-color="#90B589"/>
      <stop offset="1" stop-color="#6C9165"/>
    </linearGradient>
  </defs>
</svg>