<svg width="354" height="66" viewBox="0 0 354 66" fill="none" xmlns="http://www.w3.org/2000/svg">
<path d="M151.796 39.3027V27.9427H158.564V29.5267H153.588V39.3027H151.796ZM164.777 39.4627C164.105 39.4627 163.513 39.3027 163.001 38.9827C162.489 38.6627 162.083 38.2467 161.785 37.7347V42.7107H160.025V30.9347H161.577V32.4387C161.897 31.9374 162.313 31.5374 162.825 31.2387C163.337 30.9401 163.907 30.7907 164.537 30.7907C165.113 30.7907 165.641 30.9081 166.121 31.1427C166.601 31.3667 167.017 31.6814 167.369 32.0867C167.721 32.4921 167.993 32.9561 168.185 33.4787C168.387 33.9907 168.489 34.5347 168.489 35.1107C168.489 35.9107 168.329 36.6414 168.009 37.3027C167.699 37.9641 167.262 38.4921 166.697 38.8867C166.142 39.2707 165.502 39.4627 164.777 39.4627ZM164.201 37.9587C164.574 37.9587 164.91 37.8787 165.209 37.7187C165.518 37.5587 165.779 37.3454 165.993 37.0787C166.217 36.8121 166.387 36.5081 166.505 36.1667C166.622 35.8254 166.681 35.4734 166.681 35.1107C166.681 34.7267 166.617 34.3641 166.489 34.0227C166.361 33.6814 166.174 33.3827 165.929 33.1267C165.694 32.8707 165.417 32.6681 165.097 32.5187C164.787 32.3694 164.446 32.2947 164.073 32.2947C163.849 32.2947 163.614 32.3374 163.369 32.4227C163.123 32.5081 162.894 32.6254 162.681 32.7747C162.467 32.9241 162.281 33.1001 162.121 33.3027C161.961 33.5054 161.849 33.7187 161.785 33.9427V36.1347C161.934 36.4761 162.131 36.7854 162.377 37.0627C162.622 37.3294 162.905 37.5481 163.225 37.7187C163.545 37.8787 163.87 37.9587 164.201 37.9587ZM169.464 36.8547C169.464 36.3214 169.613 35.8574 169.912 35.4627C170.221 35.0574 170.642 34.7481 171.176 34.5347C171.709 34.3107 172.328 34.1987 173.032 34.1987C173.405 34.1987 173.784 34.2254 174.168 34.2787C174.562 34.3321 174.909 34.4174 175.208 34.5347V34.0067C175.208 33.4201 175.032 32.9614 174.68 32.6307C174.328 32.3001 173.821 32.1347 173.16 32.1347C172.69 32.1347 172.248 32.2201 171.832 32.3907C171.416 32.5507 170.973 32.7801 170.504 33.0787L169.912 31.8947C170.466 31.5214 171.021 31.2441 171.576 31.0627C172.141 30.8814 172.733 30.7907 173.352 30.7907C174.472 30.7907 175.352 31.0894 175.992 31.6867C176.642 32.2734 176.968 33.1107 176.968 34.1987V37.3187C176.968 37.5214 177 37.6654 177.064 37.7507C177.138 37.8361 177.261 37.8841 177.432 37.8947V39.3027C177.272 39.3347 177.128 39.3561 177 39.3667C176.872 39.3774 176.765 39.3827 176.68 39.3827C176.306 39.3827 176.024 39.2921 175.832 39.1107C175.64 38.9294 175.528 38.7161 175.496 38.4707L175.448 37.9907C175.085 38.4601 174.621 38.8227 174.056 39.0787C173.49 39.3347 172.92 39.4627 172.344 39.4627C171.789 39.4627 171.293 39.3507 170.856 39.1267C170.418 38.8921 170.077 38.5774 169.832 38.1827C169.586 37.7881 169.464 37.3454 169.464 36.8547ZM174.792 37.3667C174.92 37.2281 175.021 37.0894 175.096 36.9507C175.17 36.8121 175.208 36.6894 175.208 36.5827V35.6227C174.909 35.5054 174.594 35.4201 174.264 35.3667C173.933 35.3027 173.608 35.2707 173.288 35.2707C172.648 35.2707 172.125 35.3987 171.72 35.6547C171.325 35.9107 171.128 36.2627 171.128 36.7107C171.128 36.9561 171.192 37.1907 171.32 37.4147C171.458 37.6387 171.65 37.8201 171.896 37.9587C172.152 38.0974 172.466 38.1667 172.84 38.1667C173.224 38.1667 173.592 38.0921 173.944 37.9427C174.296 37.7934 174.578 37.6014 174.792 37.3667ZM182.991 42.7107V39.3027H182.703C181.839 39.3027 181.098 39.1107 180.479 38.7267C179.86 38.3427 179.386 37.8361 179.055 37.2067C178.724 36.5667 178.559 35.8734 178.559 35.1267C178.559 34.3801 178.724 33.6921 179.055 33.0627C179.396 32.4227 179.876 31.9107 180.495 31.5267C181.114 31.1427 181.85 30.9507 182.703 30.9507H182.991V27.6227H184.751V30.9507H185.039C185.892 30.9507 186.628 31.1427 187.247 31.5267C187.866 31.9107 188.34 32.4227 188.671 33.0627C189.012 33.6921 189.183 34.3801 189.183 35.1267C189.183 35.8734 189.018 36.5667 188.687 37.2067C188.356 37.8361 187.882 38.3427 187.263 38.7267C186.644 39.1107 185.903 39.3027 185.039 39.3027H184.751V42.7107H182.991ZM182.703 37.8787H183.071V32.3747H182.703C182.234 32.3747 181.818 32.4974 181.455 32.7427C181.092 32.9881 180.804 33.3187 180.591 33.7347C180.388 34.1507 180.287 34.6201 180.287 35.1427C180.287 35.6654 180.388 36.1347 180.591 36.5507C180.794 36.9667 181.076 37.2921 181.439 37.5267C181.802 37.7614 182.223 37.8787 182.703 37.8787ZM184.655 37.8787H185.039C185.519 37.8787 185.94 37.7614 186.303 37.5267C186.666 37.2921 186.948 36.9667 187.151 36.5507C187.364 36.1347 187.471 35.6654 187.471 35.1427C187.471 34.6201 187.364 34.1507 187.151 33.7347C186.948 33.3187 186.666 32.9881 186.303 32.7427C185.94 32.4974 185.519 32.3747 185.039 32.3747H184.655V37.8787ZM190.743 39.3027V30.9507H192.504V36.9507L196.744 30.9347H198.344V39.3027H196.584V33.4307L192.392 39.3027H190.743ZM200.447 39.3027V30.9347H202.191V34.2467H203.023L205.487 30.9347H207.439L204.383 34.9827L207.791 39.3027H205.759L203.007 35.8307H202.191V39.3027H200.447ZM217.839 39.4627C217.167 39.4627 216.575 39.3027 216.063 38.9827C215.551 38.6627 215.146 38.2467 214.847 37.7347V42.7107H213.087V30.9347H214.639V32.4387C214.959 31.9374 215.375 31.5374 215.887 31.2387C216.399 30.9401 216.97 30.7907 217.599 30.7907C218.175 30.7907 218.703 30.9081 219.183 31.1427C219.663 31.3667 220.079 31.6814 220.431 32.0867C220.783 32.4921 221.055 32.9561 221.247 33.4787C221.45 33.9907 221.551 34.5347 221.551 35.1107C221.551 35.9107 221.391 36.6414 221.071 37.3027C220.762 37.9641 220.325 38.4921 219.759 38.8867C219.205 39.2707 218.565 39.4627 217.839 39.4627ZM217.263 37.9587C217.637 37.9587 217.973 37.8787 218.271 37.7187C218.581 37.5587 218.842 37.3454 219.055 37.0787C219.279 36.8121 219.45 36.5081 219.567 36.1667C219.685 35.8254 219.743 35.4734 219.743 35.1107C219.743 34.7267 219.679 34.3641 219.551 34.0227C219.423 33.6814 219.237 33.3827 218.991 33.1267C218.757 32.8707 218.479 32.6681 218.159 32.5187C217.85 32.3694 217.509 32.2947 217.135 32.2947C216.911 32.2947 216.677 32.3374 216.431 32.4227C216.186 32.5081 215.957 32.6254 215.743 32.7747C215.53 32.9241 215.343 33.1001 215.183 33.3027C215.023 33.5054 214.911 33.7187 214.847 33.9427V36.1347C214.997 36.4761 215.194 36.7854 215.439 37.0627C215.685 37.3294 215.967 37.5481 216.287 37.7187C216.607 37.8787 216.933 37.9587 217.263 37.9587ZM222.526 36.8547C222.526 36.3214 222.675 35.8574 222.974 35.4627C223.283 35.0574 223.705 34.7481 224.238 34.5347C224.771 34.3107 225.39 34.1987 226.094 34.1987C226.467 34.1987 226.846 34.2254 227.23 34.2787C227.625 34.3321 227.971 34.4174 228.27 34.5347V34.0067C228.27 33.4201 228.094 32.9614 227.742 32.6307C227.39 32.3001 226.883 32.1347 226.222 32.1347C225.753 32.1347 225.31 32.2201 224.894 32.3907C224.478 32.5507 224.035 32.7801 223.566 33.0787L222.974 31.8947C223.529 31.5214 224.083 31.2441 224.638 31.0627C225.203 30.8814 225.795 30.7907 226.414 30.7907C227.534 30.7907 228.414 31.0894 229.054 31.6867C229.705 32.2734 230.03 33.1107 230.03 34.1987V37.3187C230.03 37.5214 230.062 37.6654 230.126 37.7507C230.201 37.8361 230.323 37.8841 230.494 37.8947V39.3027C230.334 39.3347 230.19 39.3561 230.062 39.3667C229.934 39.3774 229.827 39.3827 229.742 39.3827C229.369 39.3827 229.086 39.2921 228.894 39.1107C228.702 38.9294 228.59 38.7161 228.558 38.4707L228.51 37.9907C228.147 38.4601 227.683 38.8227 227.118 39.0787C226.553 39.3347 225.982 39.4627 225.406 39.4627C224.851 39.4627 224.355 39.3507 223.918 39.1267C223.481 38.8921 223.139 38.5774 222.894 38.1827C222.649 37.7881 222.526 37.3454 222.526 36.8547ZM227.854 37.3667C227.982 37.2281 228.083 37.0894 228.158 36.9507C228.233 36.8121 228.27 36.6894 228.27 36.5827V35.6227C227.971 35.5054 227.657 35.4201 227.326 35.3667C226.995 35.3027 226.67 35.2707 226.35 35.2707C225.71 35.2707 225.187 35.3987 224.782 35.6547C224.387 35.9107 224.19 36.2627 224.19 36.7107C224.19 36.9561 224.254 37.1907 224.382 37.4147C224.521 37.6387 224.713 37.8201 224.958 37.9587C225.214 38.0974 225.529 38.1667 225.902 38.1667C226.286 38.1667 226.654 38.0921 227.006 37.9427C227.358 37.7934 227.641 37.6014 227.854 37.3667ZM236.213 39.4627C234.816 39.4627 233.755 39.0414 233.029 38.1987C232.304 37.3561 231.941 36.1507 231.941 34.5827C231.941 33.5587 232.027 32.6947 232.197 31.9907C232.379 31.2761 232.64 30.6894 232.981 30.2307C233.333 29.7721 233.765 29.3987 234.277 29.1107C234.8 28.8121 235.403 28.5721 236.085 28.3907L239.653 27.3987L239.717 28.8707L236.213 29.8627C235.659 30.0334 235.184 30.2574 234.789 30.5347C234.405 30.8121 234.101 31.1747 233.877 31.6227C233.653 32.0601 233.504 32.6147 233.429 33.2867C233.728 32.7427 234.155 32.3161 234.709 32.0067C235.264 31.6974 235.92 31.5427 236.677 31.5427C237.456 31.5427 238.128 31.7081 238.693 32.0387C239.259 32.3587 239.696 32.8067 240.005 33.3827C240.315 33.9587 240.469 34.6201 240.469 35.3667C240.469 36.1774 240.304 36.8921 239.973 37.5107C239.653 38.1187 239.173 38.5987 238.533 38.9507C237.904 39.2921 237.131 39.4627 236.213 39.4627ZM236.213 37.9587C236.992 37.9587 237.595 37.7294 238.021 37.2707C238.459 36.8121 238.677 36.2041 238.677 35.4467C238.677 34.7214 238.459 34.1294 238.021 33.6707C237.595 33.2014 236.992 32.9667 236.213 32.9667C235.755 32.9667 235.339 33.0681 234.965 33.2707C234.592 33.4627 234.299 33.7454 234.085 34.1187C233.872 34.4814 233.765 34.9241 233.765 35.4467C233.765 35.9374 233.861 36.3747 234.053 36.7587C234.245 37.1321 234.523 37.4254 234.885 37.6387C235.248 37.8521 235.691 37.9587 236.213 37.9587ZM245.816 39.4627C245.155 39.4627 244.563 39.3507 244.04 39.1267C243.517 38.8921 243.064 38.5721 242.68 38.1667C242.307 37.7614 242.019 37.3027 241.816 36.7907C241.613 36.2681 241.512 35.7134 241.512 35.1267C241.512 34.5401 241.613 33.9854 241.816 33.4627C242.019 32.9401 242.307 32.4814 242.68 32.0867C243.064 31.6814 243.517 31.3667 244.04 31.1427C244.573 30.9081 245.165 30.7907 245.816 30.7907C246.467 30.7907 247.053 30.9081 247.576 31.1427C248.109 31.3667 248.563 31.6814 248.936 32.0867C249.32 32.4814 249.613 32.9401 249.816 33.4627C250.019 33.9854 250.12 34.5401 250.12 35.1267C250.12 35.7134 250.019 36.2681 249.816 36.7907C249.613 37.3027 249.32 37.7614 248.936 38.1667C248.563 38.5721 248.109 38.8921 247.576 39.1267C247.053 39.3507 246.467 39.4627 245.816 39.4627ZM243.32 35.1427C243.32 35.6761 243.432 36.1561 243.656 36.5827C243.88 37.0094 244.179 37.3454 244.552 37.5907C244.925 37.8361 245.347 37.9587 245.816 37.9587C246.275 37.9587 246.691 37.8361 247.064 37.5907C247.448 37.3347 247.752 36.9934 247.976 36.5667C248.2 36.1294 248.312 35.6494 248.312 35.1267C248.312 34.5934 248.2 34.1134 247.976 33.6867C247.752 33.2601 247.448 32.9241 247.064 32.6787C246.691 32.4227 246.275 32.2947 245.816 32.2947C245.347 32.2947 244.925 32.4227 244.552 32.6787C244.179 32.9347 243.88 33.2761 243.656 33.7027C243.432 34.1187 243.32 34.5987 243.32 35.1427ZM253.665 39.3027V32.4867H250.897V30.9347H258.209V32.4867H255.425V39.3027H253.665ZM259.525 39.3027V30.9347H261.285V33.6867H262.869C263.861 33.6867 264.618 33.9374 265.141 34.4387C265.663 34.9401 265.925 35.6014 265.925 36.4227C265.925 36.9774 265.813 37.4734 265.589 37.9107C265.365 38.3481 265.034 38.6894 264.597 38.9347C264.17 39.1801 263.637 39.3027 262.997 39.3027H259.525ZM261.285 37.9427H262.725C263.077 37.9427 263.359 37.8787 263.573 37.7507C263.786 37.6121 263.941 37.4307 264.037 37.2067C264.143 36.9721 264.197 36.7214 264.197 36.4547C264.197 36.1881 264.149 35.9481 264.053 35.7347C263.957 35.5107 263.797 35.3347 263.573 35.2067C263.359 35.0681 263.071 34.9987 262.709 34.9987H261.285V37.9427ZM267.301 39.3027V30.9507H269.061V39.3027H267.301ZM278.926 39.4627C278.275 39.4627 277.683 39.3507 277.15 39.1267C276.627 38.8921 276.174 38.5721 275.79 38.1667C275.406 37.7614 275.107 37.2974 274.894 36.7747C274.691 36.2521 274.59 35.6974 274.59 35.1107C274.59 34.3214 274.766 33.6014 275.118 32.9507C275.481 32.3001 275.982 31.7774 276.622 31.3827C277.273 30.9881 278.041 30.7907 278.926 30.7907C279.779 30.7907 280.521 30.9827 281.15 31.3667C281.79 31.7401 282.259 32.2414 282.558 32.8707L280.846 33.4147C280.654 33.0627 280.382 32.7907 280.03 32.5987C279.689 32.3961 279.31 32.2947 278.894 32.2947C278.425 32.2947 277.998 32.4174 277.614 32.6627C277.241 32.8974 276.942 33.2281 276.718 33.6547C276.505 34.0707 276.398 34.5561 276.398 35.1107C276.398 35.6441 276.51 36.1294 276.734 36.5667C276.958 36.9934 277.257 37.3347 277.63 37.5907C278.014 37.8361 278.441 37.9587 278.91 37.9587C279.198 37.9587 279.475 37.9107 279.742 37.8147C280.019 37.7081 280.259 37.5694 280.462 37.3987C280.665 37.2174 280.809 37.0201 280.894 36.8067L282.622 37.3187C282.441 37.7347 282.169 38.1027 281.806 38.4227C281.454 38.7427 281.033 38.9987 280.542 39.1907C280.062 39.3721 279.523 39.4627 278.926 39.4627ZM283.4 39.3827V37.8147C283.666 37.8147 283.906 37.7507 284.12 37.6227C284.333 37.4841 284.52 37.2601 284.68 36.9507C284.84 36.6307 284.968 36.1881 285.064 35.6227C285.16 35.0574 285.224 34.3374 285.256 33.4627L285.368 30.9347H291.336V39.3027H289.576V32.4867H286.92L286.888 33.6227C286.845 34.7427 286.744 35.6761 286.584 36.4227C286.424 37.1587 286.2 37.7454 285.912 38.1827C285.634 38.6094 285.282 38.9187 284.856 39.1107C284.44 39.2921 283.954 39.3827 283.4 39.3827ZM294.567 42.8547C294.375 42.8547 294.172 42.8281 293.959 42.7747C293.746 42.7214 293.522 42.6414 293.287 42.5347L293.735 41.2227C293.863 41.2867 293.986 41.3347 294.103 41.3667C294.22 41.3987 294.327 41.4147 294.423 41.4147C294.69 41.4147 294.93 41.3027 295.143 41.0787C295.367 40.8654 295.564 40.5401 295.735 40.1027L296.055 39.2387L292.519 30.9347H294.359L296.919 37.5107L299.191 30.9347H300.887L297.207 40.5827C297.026 41.0841 296.796 41.5001 296.519 41.8307C296.252 42.1614 295.954 42.4121 295.623 42.5827C295.292 42.7641 294.94 42.8547 294.567 42.8547ZM301.589 39.3027L304.597 34.9827L301.829 30.9347H303.797L306.069 34.2627H306.853V30.9347H308.661V34.2627H309.477L311.717 30.9347H313.685L310.917 34.9827L313.941 39.3027H311.941L309.477 35.7987H308.661V39.3027H306.853V35.7987H306.069L303.589 39.3027H301.589ZM319.385 39.4627C317.988 39.4627 316.927 39.0414 316.201 38.1987C315.476 37.3561 315.113 36.1507 315.113 34.5827C315.113 33.5587 315.199 32.6947 315.369 31.9907C315.551 31.2761 315.812 30.6894 316.153 30.2307C316.505 29.7721 316.937 29.3987 317.449 29.1107C317.972 28.8121 318.575 28.5721 319.257 28.3907L322.825 27.3987L322.889 28.8707L319.385 29.8627C318.831 30.0334 318.356 30.2574 317.961 30.5347C317.577 30.8121 317.273 31.1747 317.049 31.6227C316.825 32.0601 316.676 32.6147 316.601 33.2867C316.9 32.7427 317.327 32.3161 317.881 32.0067C318.436 31.6974 319.092 31.5427 319.849 31.5427C320.628 31.5427 321.3 31.7081 321.865 32.0387C322.431 32.3587 322.868 32.8067 323.177 33.3827C323.487 33.9587 323.641 34.6201 323.641 35.3667C323.641 36.1774 323.476 36.8921 323.145 37.5107C322.825 38.1187 322.345 38.5987 321.705 38.9507C321.076 39.2921 320.303 39.4627 319.385 39.4627ZM319.385 37.9587C320.164 37.9587 320.767 37.7294 321.193 37.2707C321.631 36.8121 321.849 36.2041 321.849 35.4467C321.849 34.7214 321.631 34.1294 321.193 33.6707C320.767 33.2014 320.164 32.9667 319.385 32.9667C318.927 32.9667 318.511 33.0681 318.137 33.2707C317.764 33.4627 317.471 33.7454 317.257 34.1187C317.044 34.4814 316.937 34.9241 316.937 35.4467C316.937 35.9374 317.033 36.3747 317.225 36.7587C317.417 37.1321 317.695 37.4254 318.057 37.6387C318.42 37.8521 318.863 37.9587 319.385 37.9587ZM325.228 39.3027V30.9347H326.988V33.6867H328.572C329.564 33.6867 330.321 33.9374 330.844 34.4387C331.367 34.9401 331.628 35.6014 331.628 36.4227C331.628 36.9774 331.516 37.4734 331.292 37.9107C331.068 38.3481 330.737 38.6894 330.3 38.9347C329.873 39.1801 329.34 39.3027 328.7 39.3027H325.228ZM326.988 37.9427H328.428C328.78 37.9427 329.063 37.8787 329.276 37.7507C329.489 37.6121 329.644 37.4307 329.74 37.2067C329.847 36.9721 329.9 36.7214 329.9 36.4547C329.9 36.1881 329.852 35.9481 329.756 35.7347C329.66 35.5107 329.5 35.3347 329.276 35.2067C329.063 35.0681 328.775 34.9987 328.412 34.9987H326.988V37.9427ZM333.004 39.3027V30.9507H334.764V39.3027H333.004ZM151.556 60.3027V51.9347H158.756V60.3027H156.996V53.4867H153.316V60.3027H151.556ZM164.644 60.4627C163.983 60.4627 163.391 60.3507 162.868 60.1267C162.345 59.8921 161.892 59.5721 161.508 59.1667C161.135 58.7614 160.847 58.3027 160.644 57.7907C160.441 57.2681 160.34 56.7134 160.34 56.1267C160.34 55.5401 160.441 54.9854 160.644 54.4627C160.847 53.9401 161.135 53.4814 161.508 53.0867C161.892 52.6814 162.345 52.3667 162.868 52.1427C163.401 51.9081 163.993 51.7907 164.644 51.7907C165.295 51.7907 165.881 51.9081 166.404 52.1427C166.937 52.3667 167.391 52.6814 167.764 53.0867C168.148 53.4814 168.441 53.9401 168.644 54.4627C168.847 54.9854 168.948 55.5401 168.948 56.1267C168.948 56.7134 168.847 57.2681 168.644 57.7907C168.441 58.3027 168.148 58.7614 167.764 59.1667C167.391 59.5721 166.937 59.8921 166.404 60.1267C165.881 60.3507 165.295 60.4627 164.644 60.4627ZM162.148 56.1427C162.148 56.6761 162.26 57.1561 162.484 57.5827C162.708 58.0094 163.007 58.3454 163.38 58.5907C163.753 58.8361 164.175 58.9587 164.644 58.9587C165.103 58.9587 165.519 58.8361 165.892 58.5907C166.276 58.3347 166.58 57.9934 166.804 57.5667C167.028 57.1294 167.14 56.6494 167.14 56.1267C167.14 55.5934 167.028 55.1134 166.804 54.6867C166.58 54.2601 166.276 53.9241 165.892 53.6787C165.519 53.4227 165.103 53.2947 164.644 53.2947C164.175 53.2947 163.753 53.4227 163.38 53.6787C163.007 53.9347 162.708 54.2761 162.484 54.7027C162.26 55.1187 162.148 55.5987 162.148 56.1427ZM169.709 62.3027V58.7507H169.901C170.125 58.7507 170.333 58.6867 170.525 58.5587C170.717 58.4307 170.888 58.2121 171.037 57.9027C171.186 57.5827 171.309 57.1454 171.405 56.5907C171.501 56.0254 171.56 55.3161 171.581 54.4627L171.677 51.9347H177.645V58.7507H178.797V62.3027H177.245V60.3027H171.245V62.3027H169.709ZM172.221 58.7507H175.885V53.4547H173.229L173.181 54.6227C173.149 55.4334 173.09 56.1161 173.005 56.6707C172.93 57.2254 172.824 57.6681 172.685 57.9987C172.557 58.3294 172.402 58.5801 172.221 58.7507ZM179.49 62.3027V58.7507H179.682C179.906 58.7507 180.114 58.6867 180.306 58.5587C180.498 58.4307 180.669 58.2121 180.818 57.9027C180.968 57.5827 181.09 57.1454 181.186 56.5907C181.282 56.0254 181.341 55.3161 181.362 54.4627L181.458 51.9347H187.426V58.7507H188.578V62.3027H187.026V60.3027H181.026V62.3027H179.49ZM182.002 58.7507H185.666V53.4547H183.01L182.962 54.6227C182.93 55.4334 182.872 56.1161 182.786 56.6707C182.712 57.2254 182.605 57.6681 182.466 57.9987C182.338 58.3294 182.184 58.5801 182.002 58.7507ZM193.864 60.4627C193.213 60.4627 192.621 60.3507 192.088 60.1267C191.565 59.8921 191.112 59.5774 190.728 59.1827C190.344 58.7774 190.045 58.3187 189.832 57.8067C189.629 57.2841 189.528 56.7294 189.528 56.1427C189.528 55.3534 189.709 54.6334 190.072 53.9827C190.434 53.3214 190.941 52.7934 191.592 52.3987C192.242 51.9934 193.005 51.7907 193.88 51.7907C194.754 51.7907 195.506 51.9934 196.136 52.3987C196.776 52.7934 197.272 53.3161 197.624 53.9667C197.976 54.6174 198.152 55.3161 198.152 56.0627C198.152 56.1907 198.146 56.3134 198.136 56.4307C198.125 56.5374 198.114 56.6281 198.104 56.7027H191.4C191.432 57.1934 191.565 57.6254 191.8 57.9987C192.045 58.3614 192.354 58.6494 192.728 58.8627C193.101 59.0654 193.501 59.1667 193.928 59.1667C194.397 59.1667 194.84 59.0494 195.256 58.8147C195.682 58.5801 195.97 58.2707 196.12 57.8867L197.624 58.3187C197.442 58.7241 197.165 59.0921 196.792 59.4227C196.429 59.7427 195.997 59.9987 195.496 60.1907C194.994 60.3721 194.45 60.4627 193.864 60.4627ZM191.352 55.5347H196.408C196.376 55.0547 196.237 54.6334 195.992 54.2707C195.757 53.8974 195.453 53.6094 195.08 53.4067C194.717 53.1934 194.312 53.0867 193.864 53.0867C193.426 53.0867 193.021 53.1934 192.648 53.4067C192.285 53.6094 191.986 53.8974 191.752 54.2707C191.517 54.6334 191.384 55.0547 191.352 55.5347ZM204.339 60.4627C203.667 60.4627 203.075 60.3027 202.563 59.9827C202.051 59.6627 201.646 59.2467 201.347 58.7347V63.7107H199.587V51.9347H201.139V53.4387C201.459 52.9374 201.875 52.5374 202.387 52.2387C202.899 51.9401 203.47 51.7907 204.099 51.7907C204.675 51.7907 205.203 51.9081 205.683 52.1427C206.163 52.3667 206.579 52.6814 206.931 53.0867C207.283 53.4921 207.555 53.9561 207.747 54.4787C207.95 54.9907 208.051 55.5347 208.051 56.1107C208.051 56.9107 207.891 57.6414 207.571 58.3027C207.262 58.9641 206.825 59.4921 206.259 59.8867C205.705 60.2707 205.065 60.4627 204.339 60.4627ZM203.763 58.9587C204.137 58.9587 204.473 58.8787 204.771 58.7187C205.081 58.5587 205.342 58.3454 205.555 58.0787C205.779 57.8121 205.95 57.5081 206.067 57.1667C206.185 56.8254 206.243 56.4734 206.243 56.1107C206.243 55.7267 206.179 55.3641 206.051 55.0227C205.923 54.6814 205.737 54.3827 205.491 54.1267C205.257 53.8707 204.979 53.6681 204.659 53.5187C204.35 53.3694 204.009 53.2947 203.635 53.2947C203.411 53.2947 203.177 53.3374 202.931 53.4227C202.686 53.5081 202.457 53.6254 202.243 53.7747C202.03 53.9241 201.843 54.1001 201.683 54.3027C201.523 54.5054 201.411 54.7187 201.347 54.9427V57.1347C201.497 57.4761 201.694 57.7854 201.939 58.0627C202.185 58.3294 202.467 58.5481 202.787 58.7187C203.107 58.8787 203.433 58.9587 203.763 58.9587ZM209.042 60.3027L212.05 55.9827L209.282 51.9347H211.25L213.522 55.2627H214.306V51.9347H216.114V55.2627H216.93L219.17 51.9347H221.138L218.37 55.9827L221.394 60.3027H219.394L216.93 56.7987H216.114V60.3027H214.306V56.7987H213.522L211.042 60.3027H209.042ZM222.915 60.3027V51.9347H224.659V55.2467H225.491L227.955 51.9347H229.907L226.851 55.9827L230.259 60.3027H228.227L225.475 56.8307H224.659V60.3027H222.915ZM231.603 60.3027V51.9507H233.363V57.9507L237.603 51.9347H239.203V60.3027H237.443V54.4307L233.251 60.3027H231.603ZM244.907 60.3027C244.907 59.6521 244.955 59.0814 245.051 58.5907C245.147 58.1001 245.296 57.6574 245.499 57.2627C245.702 56.8681 245.958 56.5214 246.267 56.2227C246.576 55.9241 246.934 55.6521 247.339 55.4067C247.734 55.1721 248.139 54.9534 248.555 54.7507C248.982 54.5481 249.376 54.3347 249.739 54.1107C250.102 53.8867 250.39 53.6254 250.603 53.3267C250.827 53.0174 250.939 52.6441 250.939 52.2067C250.939 51.8547 250.864 51.5454 250.715 51.2787C250.576 51.0121 250.363 50.8041 250.075 50.6547C249.798 50.4947 249.44 50.4147 249.003 50.4147C248.555 50.4147 248.139 50.4947 247.755 50.6547C247.382 50.8041 247.051 50.9907 246.763 51.2147C246.486 51.4387 246.262 51.6574 246.091 51.8707L244.971 50.7027C245.078 50.5747 245.248 50.4041 245.483 50.1907C245.728 49.9774 246.027 49.7641 246.379 49.5507C246.742 49.3374 247.158 49.1614 247.627 49.0227C248.096 48.8734 248.624 48.7987 249.211 48.7987C250.022 48.7987 250.699 48.9481 251.243 49.2467C251.798 49.5347 252.214 49.9347 252.491 50.4467C252.779 50.9481 252.923 51.5134 252.923 52.1427C252.923 52.6547 252.832 53.1027 252.651 53.4867C252.47 53.8601 252.23 54.1854 251.931 54.4627C251.643 54.7294 251.318 54.9694 250.955 55.1827C250.603 55.3961 250.251 55.5987 249.899 55.7907C249.291 56.1001 248.8 56.3774 248.427 56.6227C248.064 56.8681 247.776 57.1027 247.563 57.3267C247.36 57.5507 247.216 57.7747 247.131 57.9987C247.046 58.2227 246.987 58.4627 246.955 58.7187H252.939V60.3027H244.907ZM259.16 60.3027V57.5507H254.088V55.9827L259.704 48.9427H260.92V55.9667H262.328V57.5507H260.92V60.3027H259.16ZM255.88 55.9667H259.352V51.6147L255.88 55.9667ZM273.129 48.9427L265.337 60.3027H263.385L271.177 48.9427H273.129ZM279.61 50.5587H274.106V48.9427H282.394L276.698 60.3027H274.714L279.61 50.5587Z" fill="#4E869F"/>
<path d="M106.765 47.0059V46.0369L109.861 43.0964C110.121 42.8514 110.314 42.6361 110.44 42.4504C110.566 42.2648 110.648 42.094 110.685 41.9381C110.73 41.7747 110.752 41.6225 110.752 41.4814C110.752 41.125 110.63 40.8503 110.385 40.6572C110.139 40.4567 109.779 40.3565 109.304 40.3565C108.925 40.3565 108.58 40.4233 108.268 40.557C107.964 40.6906 107.7 40.8948 107.478 41.1696L106.464 40.3899C106.768 39.9815 107.177 39.6659 107.689 39.4432C108.209 39.213 108.788 39.0979 109.427 39.0979C109.991 39.0979 110.481 39.1907 110.897 39.3763C111.32 39.5546 111.643 39.8107 111.866 40.1449C112.096 40.479 112.211 40.8763 112.211 41.3366C112.211 41.5891 112.178 41.8415 112.111 42.094C112.044 42.339 111.918 42.5989 111.732 42.8737C111.547 43.1484 111.276 43.4566 110.919 43.7981L108.257 46.3264L107.956 45.7807H112.512V47.0059H106.765ZM113.073 45.2349V44.2325L116.916 39.2093H118.464L114.677 44.2325L113.953 44.0097H120.135V45.2349H113.073ZM117.35 47.0059V45.2349L117.395 44.0097V42.4393H118.753V47.0059H117.35ZM120.202 48.1197L123.878 37.6277H125.125L121.45 48.1197H120.202ZM126.561 47.0059L129.78 39.7884L130.159 40.4345H125.737L126.427 39.7328V41.7599H125.08V39.2093H131.139V40.1783L128.109 47.0059H126.561Z" fill="#4E869F"/>
<path d="M120.717 24.8205C120.45 24.7852 120.206 24.9725 120.171 25.2389C120.135 25.5052 120.323 25.7497 120.589 25.785L120.717 24.8205ZM120.27 61.0024C120.104 61.2138 120.141 61.5196 120.353 61.6855L123.797 64.3882C124.009 64.5541 124.314 64.5172 124.48 64.3058C124.646 64.0944 124.609 63.7886 124.398 63.6227L121.336 61.2203L123.738 58.1584C123.904 57.947 123.867 57.6412 123.656 57.4754C123.445 57.3095 123.139 57.3464 122.973 57.5578L120.27 61.0024ZM120.589 25.785C132.283 27.3339 137.64 35.4543 137.434 43.4727C137.227 51.5097 131.433 59.5118 120.595 60.8198L120.711 61.7857C132.045 60.418 138.187 52.0011 138.406 43.4977C138.626 34.9755 132.897 26.4338 120.717 24.8205L120.589 25.785Z" fill="#4E869F"/>
<path d="M117.905 61.7823C118.17 61.8274 118.421 61.6491 118.466 61.3843C118.511 61.1194 118.333 60.8682 118.068 60.8231L117.905 61.7823ZM118.359 25.6153C118.532 25.4094 118.505 25.1025 118.299 24.9299L114.944 22.117C114.738 21.9444 114.431 21.9713 114.259 22.1772C114.086 22.3831 114.113 22.69 114.319 22.8626L117.301 25.363L114.801 28.3454C114.628 28.5513 114.655 28.8581 114.861 29.0307C115.067 29.2034 115.374 29.1764 115.547 28.9705L118.359 25.6153ZM118.068 60.8231C106.134 58.7943 100.785 50.4827 101.051 42.4979C101.316 34.4983 107.212 26.7383 118.029 25.7874L117.944 24.8181C106.626 25.8131 100.36 33.9856 100.078 42.4656C99.796 50.9606 105.515 59.676 117.905 61.7823L118.068 60.8231Z" fill="#4E869F"/>
<path d="M85.8778 43.6302C86.0587 43.4215 86.0361 43.1057 85.8275 42.9249L82.4269 39.9777C82.2182 39.7968 81.9024 39.8194 81.7216 40.0281C81.5407 40.2368 81.5633 40.5525 81.7719 40.7334L84.7947 43.3531L82.175 46.3759C81.9941 46.5845 82.0167 46.9003 82.2254 47.0812C82.434 47.262 82.7498 47.2395 82.9307 47.0308L85.8778 43.6302ZM8.04801 1.51651C8.54741 2.57239 9.0469 3.60491 9.54706 4.61446L10.4431 4.17053C9.94579 3.16669 9.44894 2.13964 8.95199 1.08895L8.04801 1.51651ZM12.732 10.7108C13.8859 12.7978 15.0496 14.77 16.2301 16.6321L17.0747 16.0966C15.906 14.2532 14.7524 12.2983 13.6072 10.2269L12.732 10.7108ZM20.1397 22.3094C21.5757 24.2191 23.0451 25.9848 24.559 27.6139L25.2915 26.9332C23.8033 25.3316 22.3559 23.5929 20.9389 21.7084L20.1397 22.3094ZM29.5684 32.3701C31.371 33.8671 33.2422 35.2043 35.1969 36.3924L35.7163 35.5379C33.8045 34.3759 31.9731 33.0672 30.2073 31.6008L29.5684 32.3701ZM41.36 39.5342C43.4431 40.4103 45.6178 41.1541 47.8975 41.7762L48.1608 40.8115C45.9207 40.2002 43.7878 39.4704 41.7477 38.6124L41.36 39.5342ZM54.647 43.2218C56.8353 43.5748 59.1143 43.8416 61.4933 44.0294L61.572 43.0325C59.217 42.8466 56.965 42.5829 54.8063 42.2346L54.647 43.2218ZM68.3613 44.3532C70.5701 44.3941 72.8593 44.3817 75.2347 44.3203L75.2089 43.3206C72.8465 43.3817 70.5721 43.394 68.3798 43.3534L68.3613 44.3532ZM82.1026 44.025C83.2287 43.9592 84.3729 43.8845 85.5356 43.8015L85.4644 42.804C84.3057 42.8868 83.1658 42.9611 82.0442 43.0267L82.1026 44.025ZM86.2557 43.9577C86.6174 43.5403 86.5723 42.9088 86.1549 42.547L79.3537 36.6527C78.9364 36.291 78.3048 36.3361 77.9431 36.7534C77.5814 37.1708 77.6265 37.8023 78.0439 38.164L84.0894 43.4035L78.8499 49.449C78.4882 49.8664 78.5333 50.4979 78.9507 50.8596C79.3681 51.2213 79.9996 51.1762 80.3613 50.7589L86.2557 43.9577ZM7.59601 1.7303C8.09664 2.78877 8.59746 3.82402 9.09903 4.83643L10.8912 3.94857C10.3952 2.94758 9.89971 1.92327 9.40399 0.875173L7.59601 1.7303ZM12.2945 10.9527C13.4526 13.0476 14.6215 15.0284 15.8078 16.8998L17.497 15.8289C16.3342 13.9948 15.1857 12.0486 14.0448 9.98503L12.2945 10.9527ZM19.74 22.61C21.1856 24.5322 22.666 26.3113 24.1927 27.9542L25.6578 26.5928C24.1824 25.005 22.7461 23.2797 21.3385 21.4079L19.74 22.61ZM29.249 32.7548C31.07 34.267 32.9611 35.6186 34.9372 36.8197L35.976 35.1106C34.0856 33.9616 32.2742 32.6673 30.5267 31.2161L29.249 32.7548ZM41.1662 39.9951C43.2708 40.8802 45.4664 41.6311 47.7659 42.2586L48.2924 40.3291C46.0722 39.7232 43.9601 39.0005 41.9416 38.1515L41.1662 39.9951ZM54.5674 43.7154C56.7704 44.0708 59.063 44.3391 61.4539 44.5278L61.6113 42.534C59.2684 42.3491 57.0299 42.0869 54.886 41.7409L54.5674 43.7154ZM68.352 44.8532C70.5691 44.8942 72.8657 44.8817 75.2476 44.8201L75.196 42.8208C72.84 42.8817 70.5732 42.8939 68.389 42.8535L68.352 44.8532ZM82.1318 44.5242C83.2602 44.4582 84.4065 44.3834 85.5712 44.3002L85.4288 42.3053C84.272 42.3879 83.1343 42.4621 82.0151 42.5276L82.1318 44.5242Z" fill="#4E869F"/>
</svg>
