<svg xmlns="http://www.w3.org/2000/svg" width="15" height="19" viewBox="0 0 15 19" fill="none">
  <path d="M4.84875 17.7298L7.20875 10.7342H1.30078L10.2517 0.895508L7.89198 7.89113H13.7996L4.84875 17.7298Z" fill="white"/>
  <path d="M5.39103 17.8874C5.62456 17.1952 5.85809 16.5029 6.09162 15.8106C6.49619 14.6114 6.90075 13.4123 7.30528 12.213C7.45386 11.7726 7.60245 11.3322 7.75103 10.8918C7.86872 10.5429 7.55927 10.1822 7.21047 10.1822H4.68528H1.45867H1.30251C1.43465 10.5013 1.56678 10.8202 1.69891 11.1392C2.01095 10.7963 2.32299 10.4532 2.63501 10.1103C3.37835 9.29319 4.12181 8.47604 4.86516 7.65908C5.75091 6.6855 6.63656 5.71191 7.52232 4.73837C8.26138 3.92609 9.00041 3.1137 9.73943 2.30131C10.0429 1.96782 10.3463 1.63433 10.6498 1.30071C10.3375 1.11895 10.0252 0.937048 9.71282 0.755306C9.47929 1.44758 9.24576 2.13986 9.01223 2.83214C8.60766 4.03138 8.20324 5.23047 7.79871 6.42971C7.65013 6.87015 7.50155 7.31049 7.35311 7.75093C7.23542 8.09986 7.54488 8.46052 7.89368 8.46052H10.4189H13.6453H13.8015C13.6693 8.14148 13.5372 7.82257 13.4051 7.50352C13.093 7.84645 12.781 8.18951 12.469 8.53242C11.7256 9.34954 10.9822 10.1667 10.2388 10.9837C9.35308 11.9572 8.46744 12.9308 7.58168 13.9044C6.84262 14.7166 6.10359 15.529 5.36456 16.3414C5.06111 16.6749 4.75766 17.0084 4.45421 17.342C4.24871 17.5678 4.23055 17.9112 4.45421 18.1348C4.66256 18.3432 5.04123 18.3609 5.24701 18.1348C5.55904 17.7919 5.87109 17.4489 6.1831 17.1059C6.92645 16.2888 7.66991 15.4717 8.41325 14.6547C9.29901 13.6811 10.1848 12.7075 11.0706 11.734C11.8096 10.9217 12.5486 10.1093 13.2877 9.29693C13.5911 8.96344 13.8946 8.6298 14.198 8.29633C14.3345 8.14646 14.3972 7.95098 14.3422 7.75093C14.276 7.5104 14.0509 7.33937 13.8016 7.33937H11.2764H8.04997H7.89381C8.07399 7.5759 8.25418 7.81243 8.43437 8.04896C8.6679 7.35669 8.90143 6.66441 9.13496 5.97213C9.53953 4.77289 9.94395 3.5738 10.3485 2.37456C10.4971 1.93412 10.6456 1.49378 10.7941 1.05334C10.8739 0.816813 10.744 0.541802 10.5364 0.42026C10.3267 0.297418 10.0254 0.322872 9.85711 0.50792C9.54508 0.850844 9.23303 1.1939 8.92102 1.53682C8.17767 2.35393 7.43421 3.17108 6.69087 3.98805C5.80511 4.96163 4.91946 5.93521 4.03371 6.90876C3.29464 7.72104 2.55562 8.53343 1.81659 9.34582C1.51313 9.67931 1.20969 10.0128 0.906233 10.3464C0.769806 10.4963 0.707028 10.6918 0.762085 10.8918C0.828296 11.1324 1.05338 11.3034 1.30265 11.3034H3.82784H7.05445H7.21061C7.03042 11.0669 6.85024 10.8303 6.67004 10.5938C6.43651 11.2861 6.20298 11.9783 5.96945 12.6706C5.56488 13.8699 5.16032 15.069 4.75579 16.2682C4.60721 16.7086 4.45863 17.149 4.31004 17.5894C4.21236 17.879 4.41958 18.2015 4.70157 18.279C5.00874 18.3635 5.29347 18.1767 5.39099 17.8874L5.39103 17.8874Z" fill="white"/>
</svg>