<svg width="170" height="91" viewBox="0 0 170 91" fill="none" xmlns="http://www.w3.org/2000/svg">
<g filter="url(#filter0_d_488_56247)">
<rect x="19" y="0.344727" width="132" height="72" rx="7" fill="#305F74"/>
</g>
<g filter="url(#filter1_d_488_56247)">
<path d="M14 0.344727H156V61.3447C156 65.2107 152.866 68.3447 149 68.3447H21C17.134 68.3447 14 65.2107 14 61.3447V0.344727Z" fill="white"/>
</g>
<path d="M43.925 25.5947H37.8V41.3447H35.55V25.5947H29.425V23.5947H43.925V25.5947ZM50.1969 23.5947H52.0969L59.3469 41.3447H56.9469L54.8469 36.1447H47.3969L45.3219 41.3447H42.9219L50.1969 23.5947ZM54.3469 34.3947L51.1469 26.1947L47.8469 34.3947H54.3469ZM61.7158 41.3447V23.5947H63.9658V39.3447H73.8658V41.3447H61.7158ZM76.3154 41.3447V23.6197H78.5654V33.4197L87.7154 23.5947H90.1404L83.0154 31.4197L90.5404 41.3447H88.0154L81.5904 32.7697L78.5654 35.9197V41.3447H76.3154ZM91.649 41.3447C91.649 40.3447 91.7324 39.4614 91.899 38.6947C92.0824 37.9114 92.3407 37.2114 92.674 36.5947C93.024 35.9781 93.4407 35.4364 93.924 34.9697C94.4074 34.5031 94.9574 34.0864 95.574 33.7197C96.224 33.3364 96.8907 32.9864 97.574 32.6697C98.2574 32.3531 98.8907 32.0197 99.474 31.6697C100.057 31.3197 100.524 30.9031 100.874 30.4197C101.241 29.9197 101.424 29.3031 101.424 28.5697C101.424 27.9864 101.299 27.4614 101.049 26.9947C100.799 26.5114 100.424 26.1281 99.924 25.8447C99.424 25.5614 98.7824 25.4197 97.999 25.4197C97.2157 25.4197 96.5074 25.5531 95.874 25.8197C95.2574 26.0864 94.724 26.4031 94.274 26.7697C93.824 27.1364 93.4657 27.4864 93.199 27.8197L91.774 26.3947C91.9074 26.2281 92.1407 25.9781 92.474 25.6447C92.824 25.3114 93.2657 24.9697 93.799 24.6197C94.349 24.2697 94.9907 23.9781 95.724 23.7447C96.4574 23.4947 97.2907 23.3697 98.224 23.3697C99.474 23.3697 100.516 23.6031 101.349 24.0697C102.182 24.5364 102.807 25.1614 103.224 25.9447C103.657 26.7281 103.874 27.5947 103.874 28.5447C103.874 29.3947 103.716 30.1281 103.399 30.7447C103.082 31.3447 102.674 31.8531 102.174 32.2697C101.674 32.6864 101.124 33.0531 100.524 33.3697C99.9407 33.6864 99.374 33.9864 98.824 34.2697C97.774 34.7697 96.9407 35.2281 96.324 35.6447C95.7074 36.0614 95.2324 36.4697 94.899 36.8697C94.5824 37.2531 94.3657 37.6447 94.249 38.0447C94.149 38.4447 94.0907 38.8781 94.074 39.3447H103.899V41.3447H91.649ZM122.72 41.3447V27.7947L116.87 38.2197H115.495L109.62 27.7947V41.3447H107.37V23.5947H109.745L116.17 35.1197L122.62 23.5947H124.97V41.3447H122.72ZM141.271 39.3447V41.3447H129.221V23.5947H141.046V25.5947H131.471V31.3447H139.796V33.2197H131.471V39.3447H141.271Z" fill="#305F74"/>
<defs>
<filter id="filter0_d_488_56247" x="5" y="-9.65527" width="160" height="100" filterUnits="userSpaceOnUse" color-interpolation-filters="sRGB">
<feFlood flood-opacity="0" result="BackgroundImageFix"/>
<feColorMatrix in="SourceAlpha" type="matrix" values="0 0 0 0 0 0 0 0 0 0 0 0 0 0 0 0 0 0 127 0" result="hardAlpha"/>
<feOffset dy="4"/>
<feGaussianBlur stdDeviation="7"/>
<feComposite in2="hardAlpha" operator="out"/>
<feColorMatrix type="matrix" values="0 0 0 0 0 0 0 0 0 0 0 0 0 0 0 0 0 0 0.1 0"/>
<feBlend mode="normal" in2="BackgroundImageFix" result="effect1_dropShadow_488_56247"/>
<feBlend mode="normal" in="SourceGraphic" in2="effect1_dropShadow_488_56247" result="shape"/>
</filter>
<filter id="filter1_d_488_56247" x="0" y="-9.65527" width="170" height="96" filterUnits="userSpaceOnUse" color-interpolation-filters="sRGB">
<feFlood flood-opacity="0" result="BackgroundImageFix"/>
<feColorMatrix in="SourceAlpha" type="matrix" values="0 0 0 0 0 0 0 0 0 0 0 0 0 0 0 0 0 0 127 0" result="hardAlpha"/>
<feOffset dy="4"/>
<feGaussianBlur stdDeviation="7"/>
<feComposite in2="hardAlpha" operator="out"/>
<feColorMatrix type="matrix" values="0 0 0 0 0 0 0 0 0 0 0 0 0 0 0 0 0 0 0.1 0"/>
<feBlend mode="normal" in2="BackgroundImageFix" result="effect1_dropShadow_488_56247"/>
<feBlend mode="normal" in="SourceGraphic" in2="effect1_dropShadow_488_56247" result="shape"/>
</filter>
</defs>
</svg>
