<svg xmlns="http://www.w3.org/2000/svg" width="11" height="15" viewBox="0 0 11 15" fill="none">
  <path d="M5.24744 0.324219C2.35313 0.323355 -0.000863523 2.67734 2.37632e-07 5.57166C0.000863998 8.46597 2.35313 10.8182 5.24744 10.8191C5.77912 10.8193 6.29405 10.7429 6.77794 10.5955L8.59169 13.7211C8.91871 14.2871 9.65013 14.4852 10.2166 14.1584C10.7829 13.8317 10.981 13.0997 10.6539 12.5335L8.84015 9.39792C9.8591 8.44042 10.4953 7.07785 10.4949 5.57166C10.494 2.67734 8.14175 0.325083 5.24744 0.324219ZM5.24744 0.960272C7.79801 0.961036 9.85807 3.02109 9.85883 5.57166C9.85959 8.12222 7.79801 10.1838 5.24744 10.183C2.69687 10.1823 0.636815 8.12222 0.636054 5.57166C0.635292 3.02109 2.69687 0.959511 5.24744 0.960272ZM5.21266 3.02248C5.13361 3.03116 5.06069 3.06914 5.00826 3.12893C4.95583 3.18872 4.9277 3.26597 4.92941 3.34547V5.25363H3.02125C3.00967 5.253 2.99806 5.253 2.98647 5.25363C2.9447 5.25591 2.90379 5.2664 2.86608 5.28449C2.82836 5.30258 2.79458 5.32792 2.76666 5.35907C2.73874 5.39022 2.71723 5.42656 2.70336 5.46602C2.68948 5.50548 2.68352 5.54729 2.6858 5.58905C2.68809 5.63082 2.69858 5.67173 2.71667 5.70944C2.73476 5.74715 2.76011 5.78093 2.79126 5.80885C2.82241 5.83676 2.85875 5.85827 2.89822 5.87214C2.93768 5.88601 2.97949 5.89197 3.02125 5.88969H4.92941V7.79785C4.92882 7.83999 4.9366 7.88183 4.95232 7.92093C4.96803 7.96004 4.99136 7.99564 5.02096 8.02565C5.05055 8.05566 5.08581 8.07949 5.12469 8.09576C5.16357 8.11202 5.20529 8.1204 5.24744 8.1204C5.28959 8.1204 5.33131 8.11202 5.37019 8.09576C5.40907 8.07949 5.44433 8.05566 5.47393 8.02565C5.50352 7.99564 5.52685 7.96004 5.54256 7.92093C5.55828 7.88183 5.56606 7.83999 5.56547 7.79785V5.88969H7.47363C7.51577 5.89028 7.55761 5.88249 7.59672 5.86678C7.63582 5.85107 7.67142 5.82773 7.70143 5.79814C7.73144 5.76855 7.75527 5.73329 7.77154 5.69441C7.7878 5.65553 7.79618 5.6138 7.79618 5.57166C7.79618 5.52951 7.7878 5.48779 7.77154 5.44891C7.75527 5.41002 7.73144 5.37476 7.70143 5.34517C7.67142 5.31558 7.63582 5.29225 7.59672 5.27654C7.55761 5.26082 7.51577 5.25304 7.47363 5.25363H5.56547V3.34547C5.56613 3.30287 5.55823 3.26057 5.54224 3.22108C5.52624 3.18159 5.50247 3.14572 5.47235 3.11559C5.44222 3.08547 5.40635 3.0617 5.36686 3.04571C5.32737 3.02971 5.28507 3.02181 5.24247 3.02248C5.23254 3.02201 5.22259 3.02201 5.21266 3.02248ZM8.34323 9.81036L10.1023 12.8515C10.2583 13.1215 10.1691 13.4507 9.89858 13.6068C9.62827 13.7628 9.2944 13.6732 9.1383 13.4031L7.37921 10.3669C7.72081 10.2147 8.0447 10.0288 8.34323 9.81036Z" fill="#8C8C8C"/>
</svg>