<svg xmlns="http://www.w3.org/2000/svg" width="19" height="20" viewBox="0 0 19 20" fill="none">
  <path d="M14.9938 12.6401C14.9472 12.6291 14.9005 12.6195 14.8528 12.6103C13.6382 11.4877 14.4673 6.80259 14.4673 6.80259C14.4673 0.835075 11.0944 0.344727 9.98506 0.344727C9.76667 0.344727 9.63618 0.363956 9.63618 0.363956C9.57666 0.360751 9.51852 0.358462 9.46083 0.356172C9.40314 0.358004 9.345 0.360293 9.28548 0.363956C9.28548 0.363956 9.15499 0.344727 8.9366 0.344727C7.82771 0.344727 4.45479 0.835075 4.45479 6.80259C4.45479 6.80259 5.28394 11.4877 4.06928 12.6103C4.02167 12.6199 3.97451 12.6291 3.92873 12.6401C3.52812 12.7335 1.66836 12.8525 0.662025 16.3147C0.525588 16.7854 0.574119 17.2968 0.795715 17.7157C1.61937 19.2733 5.94873 19.754 9.45167 19.754C9.45488 19.754 9.45763 19.754 9.46083 19.754C9.46358 19.754 9.46678 19.754 9.46999 19.754C12.9734 19.754 17.3023 19.2733 18.1264 17.7157C18.348 17.2968 18.3956 16.7858 18.2596 16.3147C17.2538 12.8525 15.3945 12.7335 14.9938 12.6401ZM12.7431 12.3759C12.7271 12.5059 12.6689 12.6327 12.5755 12.7513C12.1387 13.3104 10.9094 14.1175 9.46175 14.1175C8.01313 14.1175 6.78475 13.3099 6.34751 12.7513C6.25411 12.6323 6.19642 12.5059 6.18085 12.3754C6.20283 12.3681 6.25273 12.3498 6.31866 12.32C6.34567 12.3077 6.37589 12.293 6.40703 12.277C6.67166 12.1383 7.06082 11.8475 7.06082 11.338C7.47837 11.7519 7.944 12.0801 8.44076 12.277C8.77453 12.4089 9.12249 12.4826 9.48052 12.4826C9.83855 12.4826 10.1865 12.4089 10.5203 12.277C11.012 12.0815 11.473 11.7583 11.8878 11.3494C11.8906 11.3508 11.8933 11.3522 11.8965 11.3535C11.9066 12.0105 12.5659 12.2985 12.7445 12.3645C12.7436 12.3681 12.7436 12.3713 12.7431 12.3759ZM13.5054 7.50675C13.4399 7.87714 13.2948 8.18252 13.1414 8.31301C13.0892 8.35696 13.0361 8.38077 12.9848 8.38077C12.9752 8.38077 12.9661 8.37985 12.9569 8.37848C12.9226 8.37253 12.8919 8.35604 12.8644 8.33041C12.5252 9.38527 11.8764 10.436 11.0582 11.0678C10.5807 11.4364 10.0455 11.6621 9.48006 11.6621C8.91096 11.6621 8.37254 11.4337 7.89272 11.061C7.07868 10.4287 6.43358 9.38161 6.09615 8.33086C6.06822 8.3565 6.03755 8.37299 6.00367 8.37894C5.99405 8.38031 5.9849 8.38123 5.97528 8.38123C5.91393 8.38123 5.85029 8.34643 5.78894 8.28554C5.64609 8.14269 5.51561 7.85379 5.4538 7.50721C5.37185 7.0512 5.43686 6.64875 5.59756 6.53292C5.61908 6.51735 5.64289 6.50682 5.66807 6.5027C5.67723 6.50133 5.68638 6.50041 5.69554 6.50041C5.74499 6.50041 5.79535 6.52239 5.84525 6.56268C5.84525 6.56268 5.84571 6.5581 5.84708 6.54849C5.86677 6.35711 6.11401 4.27576 7.6313 4.27576C7.68395 4.27576 7.73797 4.27805 7.79337 4.28354L12.8786 6.90102L13.2907 6.50316C13.3053 6.50545 13.3195 6.51048 13.3323 6.51644C13.5146 6.60022 13.5924 7.02372 13.5054 7.50675Z" fill="white"/>
</svg>