<svg width="36" height="36" viewBox="0 0 36 36" fill="none" xmlns="http://www.w3.org/2000/svg">
<rect x="0.5" y="0.302734" width="35" height="35" rx="5" fill="url(#paint0_linear_920_4)"/>
<path d="M17.6033 10.1197C17.9701 9.37647 19.0299 9.37647 19.3967 10.1197L21.2063 13.7862C21.3519 14.0814 21.6335 14.2859 21.9592 14.3332L26.0054 14.9212C26.8256 15.0404 27.1531 16.0484 26.5596 16.6269L23.6318 19.4809C23.3961 19.7106 23.2885 20.0416 23.3442 20.366L24.0353 24.3958C24.1754 25.2127 23.318 25.8357 22.5844 25.45L18.9653 23.5474C18.674 23.3942 18.326 23.3942 18.0347 23.5474L14.4156 25.45C13.682 25.8357 12.8246 25.2127 12.9647 24.3958L13.6558 20.366C13.7115 20.0416 13.6039 19.7106 13.3682 19.4809L10.4404 16.6269C9.84687 16.0484 10.1744 15.0404 10.9946 14.9212L15.0408 14.3332C15.3665 14.2859 15.6481 14.0814 15.7937 13.7862L17.6033 10.1197Z" fill="white"/>
<defs>
<linearGradient id="paint0_linear_920_4" x1="35.5" y1="35.3027" x2="-3.6271" y2="29.8347" gradientUnits="userSpaceOnUse">
<stop stop-color="#6C9165"/>
<stop offset="0.461458" stop-color="#90B589"/>
<stop offset="1" stop-color="#6C9165"/>
</linearGradient>
</defs>
</svg>
