<svg xmlns="http://www.w3.org/2000/svg" width="30" height="30" viewBox="0 0 30 30" fill="none">
  <circle cx="15" cy="14.8027" r="14.5" fill="url(#paint0_linear_488_55773)"/>
  <path d="M14.9997 13.9051C17.6197 13.9051 19.6797 11.764 19.7797 11.6693C19.9997 11.4419 19.9997 11.0819 19.7797 10.8545C19.6797 10.7787 17.6197 8.6377 14.9997 8.6377C12.3797 8.6377 10.3197 10.7787 10.2197 10.8735C9.99969 11.1009 9.99969 11.4609 10.2197 11.6882C10.3197 11.764 12.3797 13.9051 14.9997 13.9051ZM14.9997 9.49033C16.0397 9.49033 16.8797 10.2861 16.8797 11.2714C16.8797 12.2566 16.0397 13.0524 14.9997 13.0524C13.9597 13.0524 13.1197 12.2566 13.1197 11.2714C13.1197 10.2861 13.9597 9.49033 14.9997 9.49033Z" fill="white"/>
  <path d="M14.9984 12.2944C15.5984 12.2944 16.0784 11.8396 16.0784 11.2712C16.0784 10.7028 15.5984 10.248 14.9984 10.248C14.9384 10.248 14.8984 10.248 14.8384 10.267C14.8784 10.3428 14.8784 10.4186 14.8784 10.4944C14.8784 10.7975 14.6184 11.0438 14.2984 11.0438C14.1784 11.0438 14.0584 11.0059 13.9584 10.9491C13.9184 11.0438 13.8984 11.1575 13.8984 11.2902C13.9184 11.8396 14.3984 12.2944 14.9984 12.2944Z" fill="white"/>
  <path d="M14.9984 7.65221C15.3384 7.65221 15.5984 7.38694 15.5984 7.08379V5.87116C15.5984 5.54905 15.3184 5.30273 14.9984 5.30273C14.6584 5.30273 14.3984 5.54905 14.3984 5.87116V7.08379C14.3984 7.40589 14.6584 7.65221 14.9984 7.65221Z" fill="white"/>
  <path d="M11.6405 8.16417C11.7605 8.3347 11.9605 8.42944 12.1605 8.42944C12.2605 8.42944 12.3805 8.41049 12.4805 8.3347C12.7605 8.16417 12.8405 7.82312 12.6805 7.53891L12.0005 6.51575C11.8205 6.25049 11.4605 6.1747 11.1605 6.32628C10.8805 6.4968 10.8005 6.83786 10.9605 7.12207L11.6405 8.16417Z" fill="white"/>
  <path d="M17.5198 8.35309C17.6198 8.40993 17.7198 8.44783 17.8398 8.44783C18.0398 8.44783 18.2398 8.35309 18.3598 8.18257L19.0398 7.15941C19.2198 6.89414 19.1398 6.53414 18.8398 6.36362C18.5598 6.19309 18.1798 6.26888 17.9998 6.55309L17.3198 7.57625C17.1598 7.82257 17.2398 8.18257 17.5198 8.35309Z" fill="white"/>
  <path d="M8.83984 18.0541C9.93984 18.0541 10.8398 17.2015 10.8398 16.1594C10.8398 15.1173 9.93984 14.2646 8.83984 14.2646C7.73984 14.2646 6.83984 15.1173 6.83984 16.1594C6.83984 17.2015 7.73984 18.0541 8.83984 18.0541Z" fill="white"/>
  <path d="M10.56 18.5469C10.08 18.869 9.48 19.0395 8.84 19.0395C8.2 19.0395 7.62 18.85 7.12 18.5469C6.16 19.0585 5.5 20.0437 5.5 21.1616V21.5595C5.5 21.9763 5.86 22.3174 6.3 22.3174H10.6V22.1279C10.6 21.1237 11 20.1953 11.64 19.4942C11.38 19.1153 11 18.7932 10.56 18.5469Z" fill="white"/>
  <path d="M19.1602 16.1594C19.1602 17.2015 20.0602 18.0541 21.1602 18.0541C22.2602 18.0541 23.1602 17.2015 23.1602 16.1594C23.1602 15.1173 22.2602 14.2646 21.1602 14.2646C20.0602 14.2646 19.1602 15.1173 19.1602 16.1594Z" fill="white"/>
  <path d="M22.8798 18.5469C22.3998 18.869 21.7998 19.0395 21.1598 19.0395C20.5198 19.0395 19.9398 18.85 19.4398 18.5469C18.9998 18.7742 18.6198 19.1153 18.3398 19.5132C18.9998 20.2142 19.3998 21.1427 19.3998 22.1469V22.3363H23.6998C24.1398 22.3363 24.4998 21.9953 24.4998 21.5785V21.1806C24.4998 20.0437 23.8398 19.0774 22.8798 18.5469Z" fill="white"/>
  <path d="M13 17.1262C13 18.1683 13.9 19.0209 15 19.0209C16.1 19.0209 17 18.1683 17 17.1262C17 16.0841 16.1 15.2314 15 15.2314C13.9 15.2314 13 16.0841 13 17.1262Z" fill="white"/>
  <path d="M16.7202 19.5322C16.2402 19.8543 15.6402 20.0249 15.0002 20.0249C14.3602 20.0249 13.7802 19.8354 13.2802 19.5322C12.3202 20.0438 11.6602 21.0291 11.6602 22.147V22.5449C11.6602 22.9617 12.0202 23.3028 12.4602 23.3028H17.5202C17.9602 23.3028 18.3202 22.9617 18.3202 22.5449V22.147C18.3402 21.0291 17.6802 20.0438 16.7202 19.5322Z" fill="white"/>
  <defs>
    <linearGradient id="paint0_linear_488_55773" x1="29.5" y1="29.3027" x2="-2.9196" y2="24.7721" gradientUnits="userSpaceOnUse">
      <stop stop-color="#6C9165"/>
      <stop offset="0.461458" stop-color="#90B589"/>
      <stop offset="1" stop-color="#6C9165"/>
    </linearGradient>
  </defs>
</svg>