<svg xmlns="http://www.w3.org/2000/svg" width="14" height="14" viewBox="0 0 14 14" fill="none">
  <path d="M7 0.84375C3.4155 0.84375 0.5 3.75925 0.5 7.34375C0.5 10.9282 3.4155 13.8438 7 13.8438C10.5845 13.8438 13.5 10.9282 13.5 7.34375C13.5 3.75925 10.5845 0.84375 7 0.84375ZM6.9933 2.89953C7.11315 2.89778 7.22856 2.94456 7.31326 3.02927C7.39797 3.11397 7.44475 3.22938 7.443 3.34923V6.89785L9.95515 6.90063C10.0737 6.8994 10.1877 6.94566 10.2719 7.02903C10.3561 7.1125 10.4033 7.22606 10.4031 7.34456C10.4029 7.46306 10.3553 7.57652 10.2709 7.65967C10.1865 7.74282 10.0722 7.78868 9.95381 7.78703L6.99926 7.78425C6.88179 7.78414 6.76926 7.73747 6.68621 7.65441C6.60316 7.57135 6.55648 7.45883 6.55637 7.34136V3.34956C6.55472 3.23208 6.59975 3.11873 6.68157 3.03445C6.7635 2.95016 6.8754 2.90183 6.99288 2.90008L6.9933 2.89953Z" fill="url(#paint0_linear_488_56244)"/>
  <defs>
    <linearGradient id="paint0_linear_488_56244" x1="13.5" y1="13.8437" x2="-1.03292" y2="11.8128" gradientUnits="userSpaceOnUse">
      <stop stop-color="#6C9165"/>
      <stop offset="0.461458" stop-color="#90B589"/>
      <stop offset="1" stop-color="#6C9165"/>
    </linearGradient>
  </defs>
</svg>