<svg xmlns="http://www.w3.org/2000/svg" width="140" height="46" viewBox="0 0 140 46" fill="none">
  <path d="M137.124 1.62765C137.082 1.3548 136.826 1.16805 136.553 1.21054L132.107 1.90294C131.834 1.94543 131.647 2.20107 131.69 2.47392C131.732 2.74678 131.988 2.93352 132.261 2.89103L136.213 2.27557L136.829 6.22793C136.871 6.50079 137.127 6.68754 137.4 6.64505C137.672 6.60256 137.859 6.34692 137.817 6.07407L137.124 1.62765ZM1.13737 25.3123C2.08028 25.8548 3.0201 26.3865 3.95683 26.9073L4.44277 26.0333C3.51038 25.5149 2.57482 24.9856 1.63607 24.4455L1.13737 25.3123ZM9.63082 29.9482C11.5675 30.9466 13.4907 31.897 15.4007 32.7989L15.8277 31.8947C13.9286 30.9978 12.0157 30.0526 10.089 29.0594L9.63082 29.9482ZM21.268 35.4348C23.2806 36.2919 25.2782 37.0932 27.261 37.8384L27.6128 36.9023C25.6439 36.1624 23.6596 35.3664 21.6598 34.5148L21.268 35.4348ZM33.3523 39.9656C35.4299 40.6347 37.491 41.2398 39.5357 41.7802L39.7912 40.8134C37.7643 40.2777 35.7202 39.6777 33.6588 39.0137L33.3523 39.9656ZM45.817 43.2468C47.959 43.6796 50.0825 44.0384 52.1878 44.3225L52.3216 43.3315C50.2385 43.0504 48.1364 42.6953 46.0151 42.2666L45.817 43.2468ZM58.6056 44.9601C60.7806 45.0971 62.9356 45.1508 65.0708 45.1204L65.0566 44.1205C62.9477 44.1505 60.8185 44.0975 58.6685 43.9621L58.6056 44.9601ZM71.5203 44.7661C73.6757 44.558 75.8101 44.2602 77.9239 43.8717L77.7432 42.8882C75.6578 43.2714 73.5515 43.5654 71.4242 43.7707L71.5203 44.7661ZM84.2258 42.4275C86.2963 41.857 88.3461 41.1953 90.3755 40.4417L90.0274 39.5042C88.0249 40.2478 86.0026 40.9006 83.9601 41.4635L84.2258 42.4275ZM96.3379 37.935C98.2655 37.0279 100.174 36.034 102.064 34.9527L101.567 34.0847C99.6999 35.1531 97.8151 36.1347 95.9121 37.0302L96.3379 37.935ZM107.547 31.5325C109.304 30.3449 111.043 29.0783 112.766 27.732L112.151 26.9441C110.445 28.2766 108.724 29.5297 106.987 30.7041L107.547 31.5325ZM117.719 23.6025C119.301 22.1981 120.869 20.7236 122.423 19.1785L121.718 18.4693C120.177 20.0015 118.623 21.4631 117.055 22.8546L117.719 23.6025ZM126.881 14.5104C128.297 12.9502 129.702 11.329 131.095 9.64629L130.324 9.00867C128.941 10.68 127.546 12.2897 126.14 13.8382L126.881 14.5104ZM135.096 4.60028C135.745 3.74724 136.391 2.88033 137.034 1.99953L136.227 1.40965C135.587 2.28536 134.945 3.14713 134.3 3.99499L135.096 4.60028ZM137.618 1.55072C137.533 1.00501 137.022 0.631517 136.476 0.716495L127.584 2.1013C127.038 2.18628 126.664 2.69755 126.749 3.24326C126.834 3.78896 127.346 4.16246 127.891 4.07748L135.796 2.84655L137.027 10.7513C137.112 11.297 137.623 11.6705 138.169 11.5855C138.715 11.5005 139.088 10.9893 139.003 10.4435L137.618 1.55072ZM0.888015 25.7457C1.83301 26.2894 2.77495 26.8223 3.71386 27.3443L4.68573 25.5963C3.75552 25.0791 2.82209 24.5511 1.88542 24.0121L0.888015 25.7457ZM9.40171 30.3926C11.3433 31.3936 13.2718 32.3465 15.1872 33.2511L16.0412 31.4426C14.1475 30.5483 12.2399 29.6057 10.3182 28.6149L9.40171 30.3926ZM21.0721 35.8948C23.091 36.7546 25.0953 37.5586 27.0851 38.3064L27.7887 36.4343C25.8268 35.697 23.8492 34.9037 21.8557 34.0547L21.0721 35.8948ZM33.199 40.4415C35.2848 41.1133 37.3544 41.7209 39.4079 42.2636L39.919 40.33C37.901 39.7967 35.8654 39.1991 33.8121 38.5378L33.199 40.4415ZM45.718 43.7369C47.8703 44.1718 50.0045 44.5324 52.121 44.818L52.3884 42.836C50.3165 42.5564 48.2251 42.2031 46.1141 41.7766L45.718 43.7369ZM58.5742 45.4591C60.7617 45.5969 62.9296 45.6509 65.078 45.6203L65.0495 43.6205C62.9538 43.6504 60.8374 43.5977 58.6999 43.4631L58.5742 45.4591ZM71.5683 45.2637C73.7377 45.0544 75.8863 44.7545 78.0143 44.3635L77.6528 42.3964C75.5816 42.7771 73.4895 43.069 71.3762 43.273L71.5683 45.2637ZM84.3586 42.9096C86.4431 42.3352 88.5067 41.669 90.5495 40.9104L89.8533 39.0355C87.8643 39.7741 85.8558 40.4225 83.8273 40.9815L84.3586 42.9096ZM96.5508 38.3874C98.4907 37.4746 100.411 36.4745 102.312 35.3866L101.318 33.6508C99.4629 34.7127 97.59 35.6881 95.6993 36.5778L96.5508 38.3874ZM107.827 31.9467C109.594 30.7525 111.342 29.4791 113.074 28.126L111.843 26.5501C110.146 27.8758 108.434 29.1221 106.707 30.2899L107.827 31.9467ZM118.05 23.9765C119.64 22.5656 121.215 21.0846 122.776 19.533L121.366 18.1147C119.831 19.6405 118.284 21.0956 116.723 22.4806L118.05 23.9765ZM127.251 14.8465C128.673 13.2805 130.082 11.6535 131.48 9.9651L129.939 8.68986C128.561 10.3555 127.171 11.9594 125.77 13.502L127.251 14.8465ZM135.494 4.90292C136.144 4.04729 136.792 3.17781 137.438 2.29447L135.823 1.1147C135.185 1.98788 134.545 2.84708 133.902 3.69234L135.494 4.90292Z" fill="#4E869F"/>
</svg>