<svg width="30" height="16" viewBox="0 0 30 16" fill="none" xmlns="http://www.w3.org/2000/svg">
<path d="M29 7C29.5523 7 30 7.44772 30 8C30 8.55228 29.5523 9 29 9V7ZM0.292892 8.70711C-0.0976315 8.31658 -0.0976315 7.68342 0.292892 7.29289L6.65685 0.928932C7.04738 0.538408 7.68054 0.538408 8.07107 0.928932C8.46159 1.31946 8.46159 1.95262 8.07107 2.34315L2.41421 8L8.07107 13.6569C8.46159 14.0474 8.46159 14.6805 8.07107 15.0711C7.68054 15.4616 7.04738 15.4616 6.65685 15.0711L0.292892 8.70711ZM29 9H1V7H29V9Z" fill="#305F74"/>
</svg>
