<svg xmlns="http://www.w3.org/2000/svg" width="99" height="99" viewBox="0 0 99 99" fill="none">
  <g filter="url(#filter0_d_488_55915)">
    <circle cx="49.261" cy="43.4543" r="34.1516" fill="white"/>
  </g>
  <path fill-rule="evenodd" clip-rule="evenodd" d="M44.0785 53.5601L53.2845 59.5942L52.8548 53.3055H59.8845C60.9689 53.3007 62.0074 52.8727 62.7741 52.1148C63.5408 51.3568 63.9737 50.3301 63.9785 49.2582V36.35C63.9737 35.2781 63.5408 34.2514 62.7741 33.4934C62.0074 32.7355 60.9689 32.3075 59.8845 32.3027H38.2034C37.1191 32.3075 36.0806 32.7355 35.3138 33.4934C34.5471 34.2514 34.1142 35.2781 34.1094 36.35V49.2554C34.1141 50.3274 34.5469 51.3541 35.3137 52.1122C36.0804 52.8702 37.119 53.2981 38.2034 53.3027H43.2326L44.0771 53.5574L44.0785 53.5601ZM40.5411 40.1495C41.072 40.1495 41.5909 40.3051 42.0323 40.5967C42.4737 40.8882 42.8177 41.3027 43.0209 41.7875C43.224 42.2724 43.2772 42.8059 43.1736 43.3206C43.0701 43.8354 42.8144 44.3082 42.439 44.6793C42.0637 45.0504 41.5854 45.3031 41.0647 45.4055C40.5441 45.5078 40.0044 45.4553 39.5139 45.2545C39.0235 45.0536 38.6043 44.7135 38.3093 44.2772C38.0144 43.8408 37.857 43.3278 37.857 42.803C37.8577 42.0994 38.1407 41.4249 38.644 40.9275C39.1472 40.43 39.8295 40.1502 40.5411 40.1495ZM49.0447 40.1495C49.5755 40.1495 50.0945 40.3051 50.5359 40.5967C50.9773 40.8882 51.3213 41.3027 51.5244 41.7875C51.7276 42.2724 51.7807 42.8059 51.6772 43.3206C51.5736 43.8354 51.318 44.3082 50.9426 44.6793C50.5672 45.0504 50.089 45.3031 49.5683 45.4055C49.0476 45.5078 48.5079 45.4553 48.0175 45.2545C47.527 45.0536 47.1078 44.7135 46.8129 44.2772C46.518 43.8408 46.3606 43.3278 46.3606 42.803C46.3613 42.0994 46.6443 41.4249 47.1475 40.9275C47.6507 40.43 48.333 40.1502 49.0447 40.1495ZM57.5482 40.1495C58.0791 40.1495 58.598 40.3051 59.0394 40.5967C59.4808 40.8882 59.8248 41.3027 60.028 41.7875C60.2311 42.2724 60.2843 42.8059 60.1807 43.3206C60.0772 43.8354 59.8215 44.3082 59.4462 44.6793C59.0708 45.0504 58.5925 45.3031 58.0719 45.4055C57.5512 45.5078 57.0115 45.4553 56.5211 45.2545C56.0306 45.0536 55.6114 44.7135 55.3165 44.2772C55.0215 43.8408 54.8641 43.3278 54.8641 42.803C54.865 42.0998 55.1478 41.4256 55.6506 40.9282C56.1533 40.4309 56.8351 40.1508 57.5464 40.1495H57.5482Z" fill="#6C9165"/>
  <defs>
    <filter id="filter0_d_488_55915" x="0.109375" y="0.302734" width="98.3047" height="98.3027" filterUnits="userSpaceOnUse" color-interpolation-filters="sRGB">
      <feFlood flood-opacity="0" result="BackgroundImageFix"/>
      <feColorMatrix in="SourceAlpha" type="matrix" values="0 0 0 0 0 0 0 0 0 0 0 0 0 0 0 0 0 0 127 0" result="hardAlpha"/>
      <feOffset dy="6"/>
      <feGaussianBlur stdDeviation="7.5"/>
      <feComposite in2="hardAlpha" operator="out"/>
      <feColorMatrix type="matrix" values="0 0 0 0 0 0 0 0 0 0 0 0 0 0 0 0 0 0 0.1 0"/>
      <feBlend mode="normal" in2="BackgroundImageFix" result="effect1_dropShadow_488_55915"/>
      <feBlend mode="normal" in="SourceGraphic" in2="effect1_dropShadow_488_55915" result="shape"/>
    </filter>
  </defs>
</svg>