<svg width="14" height="12" viewBox="0 0 14 12" fill="none" xmlns="http://www.w3.org/2000/svg">
<path d="M4.57749 0.101585C4.48196 0.102996 4.40557 0.179437 4.40693 0.272426V0.777894H2.50089C1.63993 0.777894 0.941406 1.45712 0.941406 2.2943V10.3818C0.941406 11.219 1.63993 11.8982 2.50089 11.8982H12.2043C13.0653 11.8982 13.7638 11.219 13.7638 10.3818V2.2943C13.7638 1.45712 13.0653 0.777894 12.2043 0.777894H10.2983V0.272426C10.299 0.226826 10.2806 0.183011 10.2475 0.15076C10.2144 0.118605 10.1692 0.100834 10.1223 0.101585C10.0268 0.102996 9.95041 0.179437 9.95176 0.272426V0.777894H4.75348V0.272426C4.75416 0.226826 4.73578 0.183011 4.70271 0.15076C4.66955 0.118605 4.62439 0.100834 4.57749 0.101585ZM2.50098 1.11488H4.40702V2.29431C4.40644 2.33934 4.42442 2.38278 4.45701 2.41484C4.4895 2.4469 4.53397 2.46496 4.58029 2.46496C4.62661 2.46496 4.67109 2.4469 4.70358 2.41484C4.73616 2.38278 4.75415 2.33934 4.75357 2.29431V1.11488H9.95185V2.29431C9.95127 2.33934 9.96925 2.38278 10.0018 2.41484C10.0343 2.4469 10.0788 2.46496 10.1251 2.46496C10.1714 2.46496 10.2159 2.4469 10.2484 2.41484C10.281 2.38278 10.299 2.33934 10.2984 2.29431V1.11488H12.2044C12.8794 1.11488 13.4174 1.63802 13.4174 2.29431V3.47373H1.28805V2.29431C1.28805 1.63802 1.82604 1.11488 2.50098 1.11488ZM2.50098 6.16956H4.58029C4.67602 6.16956 4.75357 6.24497 4.75357 6.33805V8.35992C4.75357 8.45301 4.67602 8.52841 4.58029 8.52841H2.50098C2.40525 8.52841 2.3277 8.45301 2.3277 8.35992V6.33805C2.3277 6.24497 2.40525 6.16956 2.50098 6.16956ZM6.31305 6.16956H8.39236C8.48809 6.16956 8.56564 6.24497 8.56564 6.33805V8.35992C8.56564 8.45301 8.48809 8.52841 8.39236 8.52841H6.31305C6.21732 8.52841 6.13978 8.45301 6.13978 8.35992V6.33805C6.13978 6.24497 6.21732 6.16956 6.31305 6.16956ZM10.1251 6.16956H12.2044C12.3002 6.16956 12.3777 6.24497 12.3777 6.33805V8.35992C12.3777 8.45301 12.3002 8.52841 12.2044 8.52841H10.1251C10.0294 8.52841 9.95185 8.45301 9.95185 8.35992V6.33805C9.95185 6.24497 10.0294 6.16956 10.1251 6.16956Z" fill="#6C9165"/>
</svg>
