<svg xmlns="http://www.w3.org/2000/svg" width="30" height="30" viewBox="0 0 30 30" fill="none">
  <circle cx="15" cy="14.8027" r="14.5" fill="url(#paint0_linear_488_55768)"/>
  <path d="M5.18269 13.1522L14.4981 17.5824C14.522 17.6063 14.5699 17.6063 14.6179 17.6063C14.6658 17.6063 14.6897 17.6063 14.7377 17.5824L22.4007 13.9424V18.8516C22.2571 18.9473 22.1373 19.115 22.1373 19.3066V21.4379H23.191V19.3066C23.191 19.115 23.0713 18.9475 22.9276 18.8516V13.7029L24.0531 13.1522C24.1488 13.1043 24.1968 13.0324 24.1968 12.9127C24.1968 12.8169 24.1488 12.7211 24.0531 12.6731L15.3364 8.33869C15.2645 8.29075 15.1927 8.29075 15.1209 8.33869L5.20677 12.6731C5.11106 12.7211 5.06312 12.8168 5.03906 12.9127C5.03906 13.0323 5.08698 13.1283 5.18269 13.1522Z" fill="white"/>
  <path d="M14.6181 18.1572C14.4983 18.1572 14.3785 18.1333 14.2828 18.0854L9.22996 15.6668L8.70312 15.4272V18.0374C8.70312 18.3727 8.82289 18.684 9.03838 18.9234C10.5471 20.5517 12.5347 21.4379 14.6181 21.4379C16.7014 21.4379 18.6652 20.5519 20.1977 18.9234C20.4132 18.6839 20.533 18.3727 20.533 18.0374V15.4033L20.0061 15.6429L14.9533 18.0615C14.8576 18.1094 14.7378 18.1572 14.6181 18.1572Z" fill="white"/>
  <defs>
    <linearGradient id="paint0_linear_488_55768" x1="29.5" y1="29.3027" x2="-2.9196" y2="24.7721" gradientUnits="userSpaceOnUse">
      <stop stop-color="#6C9165"/>
      <stop offset="0.461458" stop-color="#90B589"/>
      <stop offset="1" stop-color="#6C9165"/>
    </linearGradient>
  </defs>
</svg>