<svg xmlns="http://www.w3.org/2000/svg" width="31" height="31" viewBox="0 0 31 31" fill="none">
  <rect x="0.5" y="0.759766" width="30" height="30" rx="15" fill="#6C9165"/>
  <path d="M18.3431 10.0785L16.8692 10.0762C15.2134 10.0762 14.1433 11.174 14.1433 12.8732V14.1629H12.6614C12.5334 14.1629 12.4297 14.2667 12.4297 14.3948V16.2633C12.4297 16.3913 12.5335 16.495 12.6614 16.495H14.1433V21.21C14.1433 21.338 14.247 21.4417 14.3751 21.4417H16.3085C16.4366 21.4417 16.5403 21.3379 16.5403 21.21V16.495H18.273C18.401 16.495 18.5047 16.3913 18.5047 16.2633L18.5054 14.3948C18.5054 14.3333 18.481 14.2744 18.4376 14.2309C18.3942 14.1874 18.335 14.1629 18.2736 14.1629H16.5403V13.0696C16.5403 12.5442 16.6655 12.2774 17.35 12.2774L18.3428 12.2771C18.4708 12.2771 18.5745 12.1733 18.5745 12.0453V10.3103C18.5745 10.1825 18.4709 10.0788 18.3431 10.0785Z" fill="white"/>
</svg>