<svg width="55" height="55" viewBox="0 0 55 55" fill="none" xmlns="http://www.w3.org/2000/svg">
<path d="M26.5119 1.25858C27.0629 0.725633 27.9371 0.725633 28.4881 1.25858L33.6755 6.27692C33.9905 6.58168 34.4286 6.72401 34.8626 6.66263L42.009 5.65181C42.768 5.54446 43.4753 6.05836 43.6077 6.81333L44.8548 13.9224C44.9305 14.3541 45.2012 14.7267 45.5884 14.9321L51.9641 18.315C52.6412 18.6742 52.9114 19.5057 52.5748 20.1943L49.4051 26.6787C49.2126 27.0724 49.2126 27.533 49.4051 27.9268L52.5748 34.4111C52.9114 35.0998 52.6412 35.9313 51.9641 36.2905L45.5884 39.6733C45.2012 39.8788 44.9305 40.2514 44.8548 40.6831L43.6077 47.7921C43.4753 48.5471 42.768 49.061 42.009 48.9537L34.8626 47.9428C34.4286 47.8815 33.9905 48.0238 33.6755 48.3285L28.4881 53.3469C27.9371 53.8798 27.0629 53.8798 26.5119 53.3469L21.3245 48.3285C21.0095 48.0238 20.5714 47.8815 20.1374 47.9428L12.991 48.9537C12.232 49.061 11.5247 48.5471 11.3923 47.7921L10.1453 40.6831C10.0695 40.2514 9.7988 39.8788 9.4116 39.6733L3.03586 36.2905C2.35876 35.9313 2.08859 35.0998 2.42521 34.4111L5.59493 27.9268C5.78743 27.533 5.78743 27.0724 5.59493 26.6787L2.42521 20.1943C2.08859 19.5057 2.35876 18.6742 3.03586 18.315L9.4116 14.9321C9.7988 14.7267 10.0695 14.3541 10.1453 13.9224L11.3923 6.81333C11.5247 6.05836 12.232 5.54446 12.991 5.65181L20.1374 6.66263C20.5714 6.72401 21.0095 6.58169 21.3245 6.27692L26.5119 1.25858Z" fill="url(#paint0_linear_488_55833)"/>
<path d="M17.2148 26.0386L26.2551 36.1415L39.2863 19.5879" stroke="white" stroke-width="2.3648" stroke-linecap="round"/>
<defs>
<linearGradient id="paint0_linear_488_55833" x1="0.5" y1="26.9427" x2="54.5" y2="26.9427" gradientUnits="userSpaceOnUse">
<stop stop-color="#58A4C3"/>
<stop offset="0.539583" stop-color="#97CCE1"/>
<stop offset="1" stop-color="#5CA5C5"/>
</linearGradient>
</defs>
</svg>
