<svg xmlns="http://www.w3.org/2000/svg" width="30" height="30" viewBox="0 0 30 30" fill="none">
  <circle cx="15" cy="14.8027" r="14.5" fill="url(#paint0_linear_488_55805)"/>
  <path d="M15 6.30273C10.3126 6.30273 6.5 10.1153 6.5 14.8027C6.5 19.4902 10.3126 23.3027 15 23.3027C19.6874 23.3027 23.5 19.4902 23.5 14.8027C23.5 10.1153 19.6874 6.30273 15 6.30273ZM14.9912 8.99107C15.148 8.98878 15.2989 9.04995 15.4097 9.16072C15.5204 9.27149 15.5816 9.42241 15.5793 9.57913V14.2196L18.8644 14.2233C19.0194 14.2217 19.1686 14.2822 19.2787 14.3912C19.3888 14.5003 19.4505 14.6488 19.4502 14.8038C19.4499 14.9588 19.3877 15.1071 19.2773 15.2159C19.167 15.3246 19.0175 15.3846 18.8627 15.3824L14.999 15.3788C14.8454 15.3786 14.6983 15.3176 14.5897 15.209C14.4811 15.1004 14.42 14.9532 14.4199 14.7996V9.57956C14.4177 9.42594 14.4766 9.27771 14.5836 9.1675C14.6907 9.05727 14.8371 8.99407 14.9907 8.99178L14.9912 8.99107Z" fill="white"/>
  <defs>
    <linearGradient id="paint0_linear_488_55805" x1="29.5" y1="29.3027" x2="-2.9196" y2="24.7721" gradientUnits="userSpaceOnUse">
      <stop stop-color="#6C9165"/>
      <stop offset="0.461458" stop-color="#90B589"/>
      <stop offset="1" stop-color="#6C9165"/>
    </linearGradient>
  </defs>
</svg>