<svg xmlns="http://www.w3.org/2000/svg" width="31" height="31" viewBox="0 0 31 31" fill="none">
  <rect x="0.5" y="0.759766" width="30" height="30" rx="15" fill="#6C9165"/>
  <path fill-rule="evenodd" clip-rule="evenodd" d="M10 12.5407C10 11.1278 11.1454 9.98242 12.5583 9.98242H18.4419C19.8548 9.98242 21.0001 11.1278 21.0001 12.5407V18.9798C21.0001 20.3927 19.8548 21.5381 18.4419 21.5381H12.5583C11.1454 21.5381 10 20.3928 10 18.9799V12.5407ZM12.8556 15.76C12.8556 14.2872 14.0496 13.0933 15.5223 13.0933C16.9951 13.0933 18.189 14.2872 18.189 15.76V15.9173C18.189 17.3901 16.9951 18.584 15.5223 18.584C14.0496 18.584 12.8556 17.3901 12.8556 15.9173V15.76ZM18.6219 11.6492C18.223 11.6492 17.8996 11.9726 17.8996 12.3714C17.8996 12.7703 18.223 13.0937 18.6219 13.0937C19.0207 13.0937 19.3441 12.7703 19.3441 12.3714C19.3441 11.9726 19.0207 11.6492 18.6219 11.6492Z" fill="white"/>
  <path d="M13.8689 15.7603C13.8689 14.8594 14.5992 14.1291 15.5 14.1291C16.4009 14.1291 17.1312 14.8594 17.1312 15.7603C17.1312 16.6611 16.4009 17.3914 15.5 17.3914C14.5992 17.3914 13.8689 16.6611 13.8689 15.7603Z" fill="white"/>
</svg>