<svg width="18" height="15" viewBox="0 0 18 15" fill="none" xmlns="http://www.w3.org/2000/svg">
<path d="M16.9645 9.15214C16.9645 8.6074 16.5831 8.15344 16.0747 8.00818C16.0566 8.00818 16.0566 7.97186 16.0747 7.97186C16.7284 7.97186 17.255 7.44528 17.255 6.79159C17.255 6.1379 16.7284 5.61132 16.0747 5.61132C15.421 5.61132 14.4768 5.61132 13.6779 5.62948C13.1876 5.64763 12.2071 5.64763 11.5352 5.62948C11.1721 5.62948 10.9178 5.26632 11.0268 4.93947C11.3718 3.90446 11.9892 1.99787 12.0981 1.39865C12.3705 -0.0539897 10.1189 -0.489782 9.66494 0.636016C9.2473 1.7255 7.59492 4.97579 5.63385 6.17422C5.3978 6.31948 5.25253 6.57369 5.25253 6.84607L5.23438 13.4738C5.23438 13.8551 6.79597 14.999 9.01125 14.999H14.041H15.2031C15.8568 14.999 16.3834 14.4724 16.3834 13.8188C16.3834 13.274 16.0021 12.8201 15.4937 12.6748C15.4755 12.6748 15.4755 12.6385 15.4937 12.6385C16.1474 12.6385 16.6739 12.1119 16.6739 11.4582C16.6739 10.9135 16.2926 10.4595 15.7842 10.3143C15.766 10.3143 15.766 10.2779 15.7842 10.2779C16.4379 10.3142 16.9645 9.78767 16.9645 9.15214Z" fill="white"/>
<path d="M3.39555 6.01074H0.871586C0.381319 6.01074 0 6.41022 0 6.88233V13.5645C0 14.0548 0.399477 14.4361 0.871586 14.4361H3.39555C3.88582 14.4361 4.26714 14.0366 4.26714 13.5645V6.88233C4.26714 6.41022 3.88582 6.01074 3.39555 6.01074ZM2.14265 13.1832C1.76133 13.1832 1.4708 12.8745 1.4708 12.5113C1.4708 12.13 1.77949 11.8395 2.14265 11.8395C2.50581 11.8395 2.8145 12.1482 2.8145 12.5113C2.8145 12.8745 2.50581 13.1832 2.14265 13.1832Z" fill="white"/>
</svg>
