<svg width="170" height="90" viewBox="0 0 170 90" fill="none" xmlns="http://www.w3.org/2000/svg">
<g filter="url(#filter0_d_569_1006)">
<rect x="19" width="132" height="72" rx="7" fill="#305F74"/>
</g>
<g filter="url(#filter1_d_569_1006)">
<path d="M14 0H156V61C156 64.866 152.866 68 149 68H21C17.134 68 14 64.866 14 61V0Z" fill="white"/>
</g>
<path d="M43.925 25.25H37.8V41H35.55V25.25H29.425V23.25H43.925V25.25ZM50.1969 23.25H52.0969L59.3469 41H56.9469L54.8469 35.8H47.3969L45.3219 41H42.9219L50.1969 23.25ZM54.3469 34.05L51.1469 25.85L47.8469 34.05H54.3469ZM61.7158 41V23.25H63.9658V39H73.8658V41H61.7158ZM76.3154 41V23.275H78.5654V33.075L87.7154 23.25H90.1404L83.0154 31.075L90.5404 41H88.0154L81.5904 32.425L78.5654 35.575V41H76.3154ZM91.649 41C91.649 40 91.7324 39.1167 91.899 38.35C92.0824 37.5667 92.3407 36.8667 92.674 36.25C93.024 35.6333 93.4407 35.0917 93.924 34.625C94.4074 34.1583 94.9574 33.7417 95.574 33.375C96.224 32.9917 96.8907 32.6417 97.574 32.325C98.2574 32.0083 98.8907 31.675 99.474 31.325C100.057 30.975 100.524 30.5583 100.874 30.075C101.241 29.575 101.424 28.9583 101.424 28.225C101.424 27.6417 101.299 27.1167 101.049 26.65C100.799 26.1667 100.424 25.7833 99.924 25.5C99.424 25.2167 98.7824 25.075 97.999 25.075C97.2157 25.075 96.5074 25.2083 95.874 25.475C95.2574 25.7417 94.724 26.0583 94.274 26.425C93.824 26.7917 93.4657 27.1417 93.199 27.475L91.774 26.05C91.9074 25.8833 92.1407 25.6333 92.474 25.3C92.824 24.9667 93.2657 24.625 93.799 24.275C94.349 23.925 94.9907 23.6333 95.724 23.4C96.4574 23.15 97.2907 23.025 98.224 23.025C99.474 23.025 100.516 23.2583 101.349 23.725C102.182 24.1917 102.807 24.8167 103.224 25.6C103.657 26.3833 103.874 27.25 103.874 28.2C103.874 29.05 103.716 29.7833 103.399 30.4C103.082 31 102.674 31.5083 102.174 31.925C101.674 32.3417 101.124 32.7083 100.524 33.025C99.9407 33.3417 99.374 33.6417 98.824 33.925C97.774 34.425 96.9407 34.8833 96.324 35.3C95.7074 35.7167 95.2324 36.125 94.899 36.525C94.5824 36.9083 94.3657 37.3 94.249 37.7C94.149 38.1 94.0907 38.5333 94.074 39H103.899V41H91.649ZM122.72 41V27.45L116.87 37.875H115.495L109.62 27.45V41H107.37V23.25H109.745L116.17 34.775L122.62 23.25H124.97V41H122.72ZM141.271 39V41H129.221V23.25H141.046V25.25H131.471V31H139.796V32.875H131.471V39H141.271Z" fill="#305F74"/>
<defs>
<filter id="filter0_d_569_1006" x="5" y="-10" width="160" height="100" filterUnits="userSpaceOnUse" color-interpolation-filters="sRGB">
<feFlood flood-opacity="0" result="BackgroundImageFix"/>
<feColorMatrix in="SourceAlpha" type="matrix" values="0 0 0 0 0 0 0 0 0 0 0 0 0 0 0 0 0 0 127 0" result="hardAlpha"/>
<feOffset dy="4"/>
<feGaussianBlur stdDeviation="7"/>
<feComposite in2="hardAlpha" operator="out"/>
<feColorMatrix type="matrix" values="0 0 0 0 0 0 0 0 0 0 0 0 0 0 0 0 0 0 0.1 0"/>
<feBlend mode="normal" in2="BackgroundImageFix" result="effect1_dropShadow_569_1006"/>
<feBlend mode="normal" in="SourceGraphic" in2="effect1_dropShadow_569_1006" result="shape"/>
</filter>
<filter id="filter1_d_569_1006" x="0" y="-10" width="170" height="96" filterUnits="userSpaceOnUse" color-interpolation-filters="sRGB">
<feFlood flood-opacity="0" result="BackgroundImageFix"/>
<feColorMatrix in="SourceAlpha" type="matrix" values="0 0 0 0 0 0 0 0 0 0 0 0 0 0 0 0 0 0 127 0" result="hardAlpha"/>
<feOffset dy="4"/>
<feGaussianBlur stdDeviation="7"/>
<feComposite in2="hardAlpha" operator="out"/>
<feColorMatrix type="matrix" values="0 0 0 0 0 0 0 0 0 0 0 0 0 0 0 0 0 0 0.1 0"/>
<feBlend mode="normal" in2="BackgroundImageFix" result="effect1_dropShadow_569_1006"/>
<feBlend mode="normal" in="SourceGraphic" in2="effect1_dropShadow_569_1006" result="shape"/>
</filter>
</defs>
</svg>
