<svg width="28" height="24" viewBox="0 0 28 24" fill="none" xmlns="http://www.w3.org/2000/svg">
<path d="M25.6416 3.83235H19.4832L18.8759 1.28763C18.7881 0.919382 18.5783 0.591691 18.2805 0.357903C17.9828 0.124115 17.6147 -0.00200139 17.2361 8.59431e-05H10.1C9.72278 -0.00373933 9.3554 0.120232 9.05765 0.351816C8.7599 0.583399 8.54931 0.908957 8.46017 1.27548L7.85284 3.8202H1.68843C1.46539 3.82099 1.24471 3.86581 1.03903 3.95208C0.833361 4.03835 0.646742 4.16438 0.489882 4.32293C0.333021 4.48148 0.209005 4.66944 0.124947 4.87603C0.0408895 5.08262 -0.00155661 5.30377 4.36174e-05 5.5268V21.5178C0.00165058 21.9646 0.180242 22.3925 0.496701 22.7078C0.81316 23.0231 1.24169 23.2001 1.68843 23.2001H25.6416C26.0883 23.2001 26.5168 23.0231 26.8333 22.7078C27.1498 22.3925 27.3283 21.9646 27.33 21.5178V5.5268C27.33 5.07845 27.1523 4.64838 26.8358 4.33078C26.5193 4.01319 26.0899 3.83395 25.6416 3.83235ZM25.8116 21.5178C25.8116 21.5359 25.808 21.5538 25.8009 21.5704C25.7938 21.587 25.7834 21.602 25.7704 21.6145C25.7573 21.627 25.7419 21.6367 25.7249 21.6431C25.708 21.6494 25.69 21.6523 25.6719 21.6514H1.68843C1.67037 21.6523 1.65234 21.6494 1.63543 21.6431C1.61851 21.6367 1.60305 21.627 1.59 21.6145C1.57694 21.602 1.56655 21.587 1.55946 21.5704C1.55237 21.5538 1.54872 21.5359 1.54874 21.5178V5.5268C1.54872 5.50873 1.55237 5.49085 1.55946 5.47423C1.56655 5.45761 1.57694 5.4426 1.59 5.43011C1.60305 5.41762 1.61851 5.40791 1.63543 5.40156C1.65234 5.39521 1.67037 5.39237 1.68843 5.39319H8.46017C8.63586 5.39195 8.80594 5.33124 8.9427 5.22095C9.07946 5.11066 9.17483 4.95729 9.21326 4.78586L9.96635 1.64595C9.97333 1.61599 9.99044 1.58936 10.0148 1.57055C10.0391 1.55174 10.0692 1.5419 10.1 1.54271H17.224C17.2547 1.5419 17.2848 1.55174 17.3091 1.57055C17.3335 1.58936 17.3506 1.61599 17.3576 1.64595L18.1167 4.78586C18.1552 4.95729 18.2505 5.11066 18.3873 5.22095C18.5241 5.33124 18.6941 5.39195 18.8698 5.39319H25.6416C25.6619 5.38742 25.6832 5.38654 25.7039 5.39062C25.7246 5.39469 25.7441 5.40361 25.7607 5.41665C25.7773 5.42968 25.7905 5.44646 25.7994 5.4656C25.8082 5.48475 25.8124 5.50572 25.8116 5.5268V21.5178Z" fill="#DBDBDB"/>
<path d="M13.6646 6.56543C12.3829 6.56543 11.13 6.94549 10.0643 7.65755C8.99867 8.3696 8.16808 9.38167 7.67761 10.5658C7.18713 11.7499 7.0588 13.0528 7.30885 14.3099C7.55889 15.5669 8.17607 16.7216 9.08234 17.6279C9.98862 18.5341 11.1433 19.1513 12.4003 19.4014C13.6574 19.6514 14.9603 19.5231 16.1444 19.0326C17.3285 18.5421 18.3406 17.7115 19.0527 16.6459C19.7647 15.5802 20.1448 14.3273 20.1448 13.0457C20.1416 11.328 19.4578 9.68157 18.2432 8.46699C17.0286 7.25241 15.3822 6.56864 13.6646 6.56543ZM13.6646 18.1047C12.664 18.1047 11.6858 17.808 10.8539 17.2521C10.0219 16.6962 9.37349 15.9061 8.99058 14.9817C8.60767 14.0573 8.50749 13.04 8.70269 12.0587C8.8979 11.0773 9.37973 10.1759 10.0873 9.46835C10.7948 8.76083 11.6962 8.279 12.6776 8.08379C13.6589 7.88859 14.6762 7.98877 15.6006 8.37168C16.525 8.75459 17.3151 9.40303 17.871 10.235C18.4269 11.0669 18.7236 12.0451 18.7236 13.0457C18.722 14.3869 18.1885 15.6728 17.2401 16.6212C16.2917 17.5696 15.0058 18.1031 13.6646 18.1047Z" fill="#DBDBDB"/>
</svg>
