<svg width="24" height="34" viewBox="0 0 24 34" fill="none" xmlns="http://www.w3.org/2000/svg">
<path d="M8.03156 33.0643C8.87068 32.8727 9.66223 32.513 10.3584 32.0067C11.0545 31.5005 11.6408 30.8583 12.0818 30.119C15.3107 24.9575 18.5382 19.7951 21.7643 14.6318C21.9979 14.2582 22.2434 13.8919 22.4697 13.5141C22.5397 13.4306 22.5909 13.333 22.6198 13.228C22.6486 13.1229 22.6545 13.0128 22.637 12.9053C22.6195 12.7977 22.579 12.6952 22.5183 12.6047C22.4576 12.5142 22.3781 12.4379 22.2852 12.3809C22.1923 12.324 22.0882 12.2877 21.9801 12.2746C21.8719 12.2615 21.7622 12.2719 21.6585 12.3051C21.5547 12.3383 21.4593 12.3934 21.3788 12.4668C21.2983 12.5402 21.2346 12.6301 21.192 12.7304C18.5513 16.9467 15.9119 21.1638 13.2736 25.3816C12.4182 26.7479 11.5821 28.127 10.6947 29.4721C10.2208 30.2605 9.52533 30.8918 8.69504 31.2873C7.86476 31.6828 6.93641 31.825 6.02578 31.6961C4.03424 31.4789 2.64583 30.3694 1.93461 28.484C1.33336 26.8901 1.61449 25.3864 2.50267 23.9675C6.16426 18.1176 9.82519 12.2673 13.4855 6.41666C14.2116 5.25686 14.9086 4.07563 15.6933 2.95647C16.059 2.40325 16.584 1.97417 17.1988 1.72599C17.8137 1.47782 18.4894 1.42226 19.1366 1.56666C19.804 1.66453 20.4263 1.96175 20.9221 2.4194C21.4178 2.87704 21.7639 3.47377 21.9149 4.13142C22.0457 4.62761 22.067 5.14631 21.9772 5.6515C21.8875 6.1567 21.6889 6.63629 21.3953 7.05699C19.1752 10.5934 16.9596 14.1327 14.7486 17.6748C13.4812 19.7004 12.2069 21.7216 10.95 23.7537C10.4967 24.4865 9.89204 24.9561 9.01111 24.9675C8.67053 24.9709 8.33442 24.8897 8.03279 24.7314C7.73117 24.5731 7.47343 24.3425 7.28261 24.0603C7.09179 23.7781 6.97382 23.4529 6.93925 23.114C6.90468 22.775 6.95457 22.4328 7.08448 22.1179C7.18022 21.894 7.2946 21.6785 7.42641 21.4738C10.0015 17.3522 12.5787 13.2319 15.158 9.11285C15.2502 9.0009 15.3168 8.87022 15.3533 8.72988C15.3898 8.58955 15.3953 8.44294 15.3694 8.30025C15.3431 8.18092 15.2864 8.07038 15.205 7.97926C15.1236 7.88815 15.0201 7.81952 14.9045 7.77999C14.7889 7.74046 14.665 7.73136 14.5449 7.75355C14.4248 7.77574 14.3124 7.82849 14.2185 7.90672C14.0951 8.01266 13.991 8.13918 13.9108 8.28068C11.2901 12.4695 8.66961 16.6586 6.0494 20.8478C5.65286 21.4202 5.43267 22.0963 5.41604 22.7926C5.39941 23.4888 5.58706 24.1748 5.9558 24.7656C6.36901 25.429 6.98594 25.9406 7.7142 26.2239C8.44245 26.5071 9.24281 26.5467 9.99537 26.3367C10.9034 26.0619 11.6754 25.4564 12.1589 24.6399C15.6616 19.0463 19.162 13.4514 22.6603 7.85503C24.0459 5.63853 23.7523 3.03926 21.9322 1.3453C21.3869 0.837327 20.7353 0.457245 20.0248 0.232671C19.3144 0.00809769 18.5628 -0.0553242 17.8248 0.0470149C17.0868 0.149354 16.3809 0.414882 15.7584 0.824304C15.1358 1.23373 14.6123 1.77676 14.2259 2.41394C11.3308 7.01931 8.44437 11.6302 5.56673 16.2466C4.10861 18.5768 2.65055 20.9071 1.19256 23.2375C0.479353 24.3129 0.10578 25.5781 0.120322 26.8687C0.134863 28.1593 0.536845 29.4158 1.2741 30.4752C2.01136 31.5345 3.04986 32.3478 4.25484 32.8095C5.45982 33.2712 6.77564 33.3599 8.03156 33.0643Z" fill="#353535"/>
</svg>
