<svg width="327" height="90" viewBox="0 0 327 90" fill="none" xmlns="http://www.w3.org/2000/svg">
<path d="M85.875 68.067C85.225 68.067 84.6357 67.937 84.107 67.677C83.5783 67.417 83.1233 67.066 82.742 66.624C82.3607 66.1733 82.066 65.6706 81.858 65.116C81.65 64.5526 81.546 63.9763 81.546 63.387C81.546 62.7716 81.6543 62.1866 81.871 61.632C82.0877 61.0686 82.391 60.5703 82.781 60.137C83.1797 59.695 83.6433 59.3483 84.172 59.097C84.7007 58.837 85.2727 58.707 85.888 58.707C86.538 58.707 87.1273 58.8413 87.656 59.11C88.1847 59.3786 88.6353 59.7383 89.008 60.189C89.3893 60.6396 89.684 61.1423 89.892 61.697C90.1 62.2516 90.204 62.8193 90.204 63.4C90.204 64.0153 90.0957 64.6046 89.879 65.168C89.6623 65.7226 89.359 66.221 88.969 66.663C88.579 67.0963 88.1197 67.4386 87.591 67.69C87.0623 67.9413 86.4903 68.067 85.875 68.067ZM82.456 63.387C82.456 63.8896 82.5383 64.375 82.703 64.843C82.8677 65.3023 83.1017 65.714 83.405 66.078C83.7083 66.4333 84.068 66.7193 84.484 66.936C84.9087 67.144 85.3723 67.248 85.875 67.248C86.4037 67.248 86.876 67.1396 87.292 66.923C87.7167 66.6976 88.0763 66.403 88.371 66.039C88.6743 65.6663 88.904 65.2503 89.06 64.791C89.216 64.3316 89.294 63.8636 89.294 63.387C89.294 62.8843 89.2117 62.4033 89.047 61.944C88.8823 61.4846 88.644 61.073 88.332 60.709C88.0287 60.345 87.669 60.059 87.253 59.851C86.837 59.643 86.3777 59.539 85.875 59.539C85.355 59.539 84.8827 59.6473 84.458 59.864C84.042 60.0806 83.6823 60.3753 83.379 60.748C83.0843 61.112 82.8547 61.5236 82.69 61.983C82.534 62.4423 82.456 62.9103 82.456 63.387ZM93.4277 68.002V62.022H91.0097V61.229H96.7297V62.022H94.3117V68.002H93.4277ZM97.92 68.002V61.229H101.3C101.681 61.229 102.002 61.3113 102.262 61.476C102.522 61.632 102.717 61.8356 102.847 62.087C102.986 62.3383 103.055 62.607 103.055 62.893C103.055 63.257 102.968 63.5863 102.795 63.881C102.622 64.167 102.37 64.3836 102.041 64.531C102.431 64.6436 102.747 64.8473 102.99 65.142C103.233 65.4366 103.354 65.792 103.354 66.208C103.354 66.572 103.263 66.8883 103.081 67.157C102.908 67.4256 102.665 67.6336 102.353 67.781C102.05 67.9283 101.699 68.002 101.3 68.002H97.92ZM98.765 67.365H101.274C101.499 67.365 101.703 67.3086 101.885 67.196C102.076 67.0746 102.223 66.9186 102.327 66.728C102.44 66.5373 102.496 66.338 102.496 66.13C102.496 65.9046 102.444 65.701 102.34 65.519C102.236 65.3283 102.097 65.1766 101.924 65.064C101.751 64.9513 101.551 64.895 101.326 64.895H98.765V67.365ZM98.765 64.284H101.066C101.291 64.284 101.491 64.2233 101.664 64.102C101.837 63.9806 101.972 63.8246 102.067 63.634C102.162 63.4433 102.21 63.244 102.21 63.036C102.21 62.724 102.106 62.451 101.898 62.217C101.699 61.983 101.439 61.866 101.118 61.866H98.765V64.284ZM107.815 68.132C107.33 68.132 106.879 68.041 106.463 67.859C106.047 67.6683 105.687 67.4126 105.384 67.092C105.081 66.7626 104.842 66.3856 104.669 65.961C104.504 65.5363 104.422 65.0813 104.422 64.596C104.422 63.9633 104.565 63.3826 104.851 62.854C105.146 62.3253 105.549 61.905 106.06 61.593C106.571 61.2723 107.152 61.112 107.802 61.112C108.469 61.112 109.05 61.2723 109.544 61.593C110.047 61.9136 110.441 62.3383 110.727 62.867C111.013 63.387 111.156 63.959 111.156 64.583C111.156 64.6523 111.156 64.7216 111.156 64.791C111.156 64.8516 111.152 64.8993 111.143 64.934H105.345C105.388 65.4193 105.523 65.8526 105.748 66.234C105.982 66.6066 106.281 66.9056 106.645 67.131C107.018 67.3476 107.421 67.456 107.854 67.456C108.296 67.456 108.712 67.3433 109.102 67.118C109.501 66.8926 109.778 66.598 109.934 66.234L110.701 66.442C110.562 66.7626 110.35 67.053 110.064 67.313C109.778 67.573 109.44 67.7766 109.05 67.924C108.669 68.0626 108.257 68.132 107.815 68.132ZM105.319 64.297H110.324C110.289 63.803 110.155 63.3696 109.921 62.997C109.696 62.6243 109.397 62.334 109.024 62.126C108.66 61.9093 108.257 61.801 107.815 61.801C107.373 61.801 106.97 61.9093 106.606 62.126C106.242 62.334 105.943 62.6286 105.709 63.01C105.484 63.3826 105.354 63.8116 105.319 64.297ZM114.21 68.002V62.022H111.792V61.229H117.512V62.022H115.094V68.002H114.21ZM118.702 68.002V61.229H119.586V63.621H121.341C122.113 63.621 122.693 63.8203 123.083 64.219C123.482 64.609 123.681 65.1246 123.681 65.766C123.681 66.182 123.595 66.559 123.421 66.897C123.248 67.235 122.992 67.5036 122.654 67.703C122.325 67.9023 121.909 68.002 121.406 68.002H118.702ZM119.586 67.3H121.289C121.645 67.3 121.931 67.2306 122.147 67.092C122.364 66.9446 122.524 66.7583 122.628 66.533C122.732 66.299 122.784 66.0476 122.784 65.779C122.784 65.519 122.737 65.2806 122.641 65.064C122.555 64.8386 122.399 64.661 122.173 64.531C121.957 64.3923 121.653 64.323 121.263 64.323H119.586V67.3ZM126.753 68.002V62.022H124.335V61.229H130.055V62.022H127.637V68.002H126.753ZM134.183 68.132C133.698 68.132 133.247 68.041 132.831 67.859C132.415 67.6683 132.056 67.4126 131.752 67.092C131.449 66.7626 131.211 66.3856 131.037 65.961C130.873 65.5363 130.79 65.0813 130.79 64.596C130.79 63.9633 130.933 63.3826 131.219 62.854C131.514 62.3253 131.917 61.905 132.428 61.593C132.94 61.2723 133.52 61.112 134.17 61.112C134.838 61.112 135.418 61.2723 135.912 61.593C136.415 61.9136 136.809 62.3383 137.095 62.867C137.381 63.387 137.524 63.959 137.524 64.583C137.524 64.6523 137.524 64.7216 137.524 64.791C137.524 64.8516 137.52 64.8993 137.511 64.934H131.713C131.757 65.4193 131.891 65.8526 132.116 66.234C132.35 66.6066 132.649 66.9056 133.013 67.131C133.386 67.3476 133.789 67.456 134.222 67.456C134.664 67.456 135.08 67.3433 135.47 67.118C135.869 66.8926 136.146 66.598 136.302 66.234L137.069 66.442C136.931 66.7626 136.718 67.053 136.432 67.313C136.146 67.573 135.808 67.7766 135.418 67.924C135.037 68.0626 134.625 68.132 134.183 68.132ZM131.687 64.297H136.692C136.658 63.803 136.523 63.3696 136.289 62.997C136.064 62.6243 135.765 62.334 135.392 62.126C135.028 61.9093 134.625 61.801 134.183 61.801C133.741 61.801 133.338 61.9093 132.974 62.126C132.61 62.334 132.311 62.6286 132.077 63.01C131.852 63.3826 131.722 63.8116 131.687 64.297ZM142.189 68.002V61.229H143.073V64.141H146.947V61.229H147.831V68.002H146.947V64.934H143.073V68.002H142.189ZM149.235 66.052C149.235 65.6273 149.356 65.2633 149.599 64.96C149.841 64.648 150.175 64.4096 150.6 64.245C151.033 64.0716 151.531 63.985 152.095 63.985C152.424 63.985 152.766 64.011 153.122 64.063C153.477 64.115 153.793 64.193 154.071 64.297V63.725C154.071 63.153 153.902 62.698 153.564 62.36C153.226 62.022 152.758 61.853 152.16 61.853C151.796 61.853 151.436 61.9223 151.081 62.061C150.734 62.191 150.37 62.386 149.989 62.646L149.651 62.022C150.093 61.7186 150.526 61.4933 150.951 61.346C151.375 61.19 151.809 61.112 152.251 61.112C153.083 61.112 153.741 61.3503 154.227 61.827C154.712 62.3036 154.955 62.9623 154.955 63.803V66.936C154.955 67.0573 154.981 67.1483 155.033 67.209C155.085 67.261 155.167 67.2913 155.28 67.3V68.002C155.184 68.0106 155.102 68.0193 155.033 68.028C154.963 68.0366 154.911 68.0366 154.877 68.028C154.66 68.0193 154.495 67.95 154.383 67.82C154.27 67.69 154.209 67.5513 154.201 67.404L154.188 66.91C153.884 67.3 153.49 67.6033 153.005 67.82C152.519 68.028 152.025 68.132 151.523 68.132C151.089 68.132 150.695 68.041 150.34 67.859C149.993 67.6683 149.72 67.417 149.521 67.105C149.33 66.7843 149.235 66.4333 149.235 66.052ZM153.772 66.572C153.867 66.4506 153.941 66.3336 153.993 66.221C154.045 66.1083 154.071 66.0086 154.071 65.922V64.934C153.776 64.8213 153.468 64.7346 153.148 64.674C152.836 64.6133 152.519 64.583 152.199 64.583C151.566 64.583 151.055 64.7086 150.665 64.96C150.275 65.2113 150.08 65.5536 150.08 65.987C150.08 66.2383 150.145 66.4766 150.275 66.702C150.405 66.9186 150.595 67.1006 150.847 67.248C151.098 67.3866 151.393 67.456 151.731 67.456C152.155 67.456 152.55 67.3736 152.914 67.209C153.286 67.0443 153.572 66.832 153.772 66.572ZM166.483 65.272C166.483 65.844 166.327 66.3423 166.015 66.767C165.712 67.1916 165.304 67.5253 164.793 67.768C164.282 68.002 163.723 68.119 163.116 68.119C162.501 68.119 161.937 67.9933 161.426 67.742C160.923 67.4906 160.52 67.1483 160.217 66.715C159.922 66.273 159.775 65.7703 159.775 65.207C159.775 64.8603 159.849 64.5483 159.996 64.271C160.143 63.985 160.325 63.7423 160.542 63.543C160.767 63.335 160.993 63.1746 161.218 63.062C161.01 62.958 160.815 62.8193 160.633 62.646C160.46 62.4726 160.321 62.2733 160.217 62.048C160.113 61.8226 160.061 61.5843 160.061 61.333C160.061 60.9256 160.152 60.5616 160.334 60.241C160.516 59.9203 160.759 59.6516 161.062 59.435C161.365 59.2096 161.695 59.045 162.05 58.941C162.414 58.8283 162.774 58.772 163.129 58.772C163.476 58.772 163.831 58.8283 164.195 58.941C164.559 59.045 164.893 59.2053 165.196 59.422C165.499 59.6386 165.742 59.9073 165.924 60.228C166.115 60.54 166.21 60.904 166.21 61.32C166.21 61.5626 166.154 61.801 166.041 62.035C165.937 62.2603 165.794 62.464 165.612 62.646C165.439 62.8193 165.239 62.958 165.014 63.062C165.265 63.192 165.504 63.361 165.729 63.569C165.954 63.777 166.136 64.024 166.275 64.31C166.414 64.596 166.483 64.9166 166.483 65.272ZM164.715 65.168C164.715 64.9426 164.672 64.7476 164.585 64.583C164.498 64.4096 164.377 64.2666 164.221 64.154C164.065 64.0326 163.892 63.9416 163.701 63.881C163.51 63.8203 163.315 63.79 163.116 63.79C162.839 63.79 162.579 63.8463 162.336 63.959C162.102 64.0716 161.911 64.232 161.764 64.44C161.617 64.648 161.543 64.8906 161.543 65.168C161.543 65.376 161.586 65.5666 161.673 65.74C161.768 65.9046 161.89 66.0476 162.037 66.169C162.193 66.2903 162.362 66.3856 162.544 66.455C162.735 66.5156 162.93 66.546 163.129 66.546C163.406 66.546 163.666 66.4853 163.909 66.364C164.152 66.2426 164.347 66.078 164.494 65.87C164.641 65.662 164.715 65.428 164.715 65.168ZM161.829 61.385C161.829 61.619 161.894 61.8183 162.024 61.983C162.154 62.1476 162.319 62.2733 162.518 62.36C162.726 62.438 162.93 62.477 163.129 62.477C163.337 62.477 163.536 62.4336 163.727 62.347C163.926 62.2603 164.091 62.139 164.221 61.983C164.36 61.8183 164.429 61.6146 164.429 61.372C164.429 61.1553 164.368 60.969 164.247 60.813C164.126 60.657 163.965 60.5356 163.766 60.449C163.575 60.3623 163.359 60.319 163.116 60.319C162.891 60.319 162.678 60.3623 162.479 60.449C162.28 60.5356 162.119 60.6613 161.998 60.826C161.885 60.982 161.829 61.1683 161.829 61.385ZM170.965 68.002V61.19H174.761C175.229 61.19 175.606 61.268 175.892 61.424C176.187 61.58 176.403 61.7836 176.542 62.035C176.681 62.2863 176.75 62.555 176.75 62.841C176.75 63.2223 176.663 63.556 176.49 63.842C176.325 64.128 176.065 64.349 175.71 64.505C176.109 64.6176 176.434 64.8126 176.685 65.09C176.936 65.3586 177.062 65.714 177.062 66.156C177.062 66.5806 176.962 66.9316 176.763 67.209C176.564 67.4776 176.278 67.677 175.905 67.807C175.532 67.937 175.09 68.002 174.579 68.002H170.965ZM172.616 66.819H174.527C174.683 66.819 174.826 66.78 174.956 66.702C175.086 66.624 175.186 66.52 175.255 66.39C175.333 66.26 175.372 66.117 175.372 65.961C175.372 65.7963 175.337 65.6533 175.268 65.532C175.199 65.402 175.099 65.3023 174.969 65.233C174.848 65.155 174.705 65.116 174.54 65.116H172.616V66.819ZM172.616 64.024H174.319C174.475 64.024 174.614 63.985 174.735 63.907C174.856 63.829 174.947 63.725 175.008 63.595C175.077 63.465 175.112 63.322 175.112 63.166C175.112 62.9406 175.038 62.7543 174.891 62.607C174.752 62.451 174.566 62.373 174.332 62.373H172.616V64.024ZM181.474 68.132C180.919 68.132 180.421 68.041 179.979 67.859C179.537 67.6683 179.16 67.4083 178.848 67.079C178.545 66.7496 178.311 66.3726 178.146 65.948C177.981 65.5233 177.899 65.077 177.899 64.609C177.899 64.1323 177.981 63.6816 178.146 63.257C178.311 62.8323 178.545 62.4553 178.848 62.126C179.16 61.7966 179.537 61.541 179.979 61.359C180.421 61.1683 180.919 61.073 181.474 61.073C182.029 61.073 182.523 61.1683 182.956 61.359C183.398 61.541 183.775 61.7966 184.087 62.126C184.399 62.4553 184.633 62.8323 184.789 63.257C184.954 63.6816 185.036 64.1323 185.036 64.609C185.036 65.077 184.954 65.5233 184.789 65.948C184.633 66.3726 184.399 66.7496 184.087 67.079C183.784 67.4083 183.411 67.6683 182.969 67.859C182.527 68.041 182.029 68.132 181.474 68.132ZM179.693 64.609C179.693 65.0076 179.771 65.363 179.927 65.675C180.083 65.9783 180.295 66.2166 180.564 66.39C180.833 66.5633 181.136 66.65 181.474 66.65C181.803 66.65 182.102 66.5633 182.371 66.39C182.64 66.208 182.852 65.9653 183.008 65.662C183.173 65.35 183.255 64.9946 183.255 64.596C183.255 64.206 183.173 63.855 183.008 63.543C182.852 63.231 182.64 62.9883 182.371 62.815C182.102 62.6416 181.803 62.555 181.474 62.555C181.136 62.555 180.833 62.646 180.564 62.828C180.295 63.0013 180.083 63.244 179.927 63.556C179.771 63.8593 179.693 64.2103 179.693 64.609ZM186.212 68.002V61.19H192.322V68.002H190.58V62.711H187.954V68.002H186.212ZM197.987 68.132C197.459 68.132 196.991 68.015 196.583 67.781C196.185 67.5383 195.873 67.2133 195.647 66.806V70.771H193.905V61.19H195.426V62.36C195.686 61.9613 196.016 61.6493 196.414 61.424C196.813 61.19 197.268 61.073 197.779 61.073C198.239 61.073 198.659 61.164 199.04 61.346C199.43 61.528 199.768 61.7836 200.054 62.113C200.34 62.4336 200.561 62.8063 200.717 63.231C200.882 63.647 200.964 64.0976 200.964 64.583C200.964 65.2416 200.834 65.8396 200.574 66.377C200.323 66.9143 199.972 67.3433 199.521 67.664C199.079 67.976 198.568 68.132 197.987 68.132ZM197.402 66.65C197.671 66.65 197.914 66.5936 198.13 66.481C198.347 66.3683 198.533 66.2166 198.689 66.026C198.854 65.8266 198.975 65.6056 199.053 65.363C199.14 65.1116 199.183 64.8516 199.183 64.583C199.183 64.297 199.136 64.0326 199.04 63.79C198.954 63.5473 198.824 63.335 198.65 63.153C198.477 62.9623 198.273 62.815 198.039 62.711C197.814 62.607 197.567 62.555 197.298 62.555C197.134 62.555 196.965 62.5853 196.791 62.646C196.627 62.698 196.466 62.776 196.31 62.88C196.154 62.984 196.016 63.1053 195.894 63.244C195.782 63.3826 195.699 63.5343 195.647 63.699V65.298C195.751 65.5493 195.89 65.779 196.063 65.987C196.245 66.195 196.453 66.3596 196.687 66.481C196.921 66.5936 197.16 66.65 197.402 66.65ZM205.291 68.132C204.736 68.132 204.238 68.041 203.796 67.859C203.354 67.6683 202.977 67.4083 202.665 67.079C202.361 66.7496 202.127 66.3726 201.963 65.948C201.798 65.5233 201.716 65.077 201.716 64.609C201.716 64.1323 201.798 63.6816 201.963 63.257C202.127 62.8323 202.361 62.4553 202.665 62.126C202.977 61.7966 203.354 61.541 203.796 61.359C204.238 61.1683 204.736 61.073 205.291 61.073C205.845 61.073 206.339 61.1683 206.773 61.359C207.215 61.541 207.592 61.7966 207.904 62.126C208.216 62.4553 208.45 62.8323 208.606 63.257C208.77 63.6816 208.853 64.1323 208.853 64.609C208.853 65.077 208.77 65.5233 208.606 65.948C208.45 66.3726 208.216 66.7496 207.904 67.079C207.6 67.4083 207.228 67.6683 206.786 67.859C206.344 68.041 205.845 68.132 205.291 68.132ZM203.51 64.609C203.51 65.0076 203.588 65.363 203.744 65.675C203.9 65.9783 204.112 66.2166 204.381 66.39C204.649 66.5633 204.953 66.65 205.291 66.65C205.62 66.65 205.919 66.5633 206.188 66.39C206.456 66.208 206.669 65.9653 206.825 65.662C206.989 65.35 207.072 64.9946 207.072 64.596C207.072 64.206 206.989 63.855 206.825 63.543C206.669 63.231 206.456 62.9883 206.188 62.815C205.919 62.6416 205.62 62.555 205.291 62.555C204.953 62.555 204.649 62.646 204.381 62.828C204.112 63.0013 203.9 63.244 203.744 63.556C203.588 63.8593 203.51 64.2103 203.51 64.609ZM213.2 68.132C212.646 68.132 212.147 68.041 211.705 67.859C211.263 67.6683 210.886 67.4083 210.574 67.079C210.262 66.741 210.02 66.3596 209.846 65.935C209.682 65.5103 209.599 65.064 209.599 64.596C209.599 63.9546 209.742 63.3696 210.028 62.841C210.323 62.3036 210.739 61.8746 211.276 61.554C211.814 61.2333 212.451 61.073 213.187 61.073C213.924 61.073 214.557 61.2333 215.085 61.554C215.614 61.8746 216.008 62.295 216.268 62.815L214.565 63.335C214.418 63.0836 214.223 62.893 213.98 62.763C213.738 62.6243 213.469 62.555 213.174 62.555C212.845 62.555 212.542 62.6416 212.264 62.815C211.996 62.9796 211.783 63.218 211.627 63.53C211.471 63.8333 211.393 64.1886 211.393 64.596C211.393 64.9946 211.471 65.35 211.627 65.662C211.792 65.9653 212.009 66.208 212.277 66.39C212.546 66.5633 212.845 66.65 213.174 66.65C213.382 66.65 213.577 66.6153 213.759 66.546C213.95 66.4766 214.119 66.3813 214.266 66.26C214.414 66.1386 214.522 66 214.591 65.844L216.294 66.364C216.138 66.702 215.909 67.0053 215.605 67.274C215.311 67.5426 214.96 67.755 214.552 67.911C214.154 68.0583 213.703 68.132 213.2 68.132ZM220.449 68.132C219.894 68.132 219.396 68.041 218.954 67.859C218.512 67.6683 218.135 67.4083 217.823 67.079C217.519 66.7496 217.285 66.3726 217.121 65.948C216.956 65.5233 216.874 65.077 216.874 64.609C216.874 64.1323 216.956 63.6816 217.121 63.257C217.285 62.8323 217.519 62.4553 217.823 62.126C218.135 61.7966 218.512 61.541 218.954 61.359C219.396 61.1683 219.894 61.073 220.449 61.073C221.003 61.073 221.497 61.1683 221.931 61.359C222.373 61.541 222.75 61.7966 223.062 62.126C223.374 62.4553 223.608 62.8323 223.764 63.257C223.928 63.6816 224.011 64.1323 224.011 64.609C224.011 65.077 223.928 65.5233 223.764 65.948C223.608 66.3726 223.374 66.7496 223.062 67.079C222.758 67.4083 222.386 67.6683 221.944 67.859C221.502 68.041 221.003 68.132 220.449 68.132ZM218.668 64.609C218.668 65.0076 218.746 65.363 218.902 65.675C219.058 65.9783 219.27 66.2166 219.539 66.39C219.807 66.5633 220.111 66.65 220.449 66.65C220.778 66.65 221.077 66.5633 221.346 66.39C221.614 66.208 221.827 65.9653 221.983 65.662C222.147 65.35 222.23 64.9946 222.23 64.596C222.23 64.206 222.147 63.855 221.983 63.543C221.827 63.231 221.614 62.9883 221.346 62.815C221.077 62.6416 220.778 62.555 220.449 62.555C220.111 62.555 219.807 62.646 219.539 62.828C219.27 63.0013 219.058 63.244 218.902 63.556C218.746 63.8593 218.668 64.2103 218.668 64.609ZM225.187 68.002V61.19H228.983C229.451 61.19 229.828 61.268 230.114 61.424C230.408 61.58 230.625 61.7836 230.764 62.035C230.902 62.2863 230.972 62.555 230.972 62.841C230.972 63.2223 230.885 63.556 230.712 63.842C230.547 64.128 230.287 64.349 229.932 64.505C230.33 64.6176 230.655 64.8126 230.907 65.09C231.158 65.3586 231.284 65.714 231.284 66.156C231.284 66.5806 231.184 66.9316 230.985 67.209C230.785 67.4776 230.499 67.677 230.127 67.807C229.754 67.937 229.312 68.002 228.801 68.002H225.187ZM226.838 66.819H228.749C228.905 66.819 229.048 66.78 229.178 66.702C229.308 66.624 229.407 66.52 229.477 66.39C229.555 66.26 229.594 66.117 229.594 65.961C229.594 65.7963 229.559 65.6533 229.49 65.532C229.42 65.402 229.321 65.3023 229.191 65.233C229.069 65.155 228.926 65.116 228.762 65.116H226.838V66.819ZM226.838 64.024H228.541C228.697 64.024 228.835 63.985 228.957 63.907C229.078 63.829 229.169 63.725 229.23 63.595C229.299 63.465 229.334 63.322 229.334 63.166C229.334 62.9406 229.26 62.7543 229.113 62.607C228.974 62.451 228.788 62.373 228.554 62.373H226.838V64.024ZM236.032 68.002V61.242H236.916V66.806L241.037 61.229H241.83V68.002H240.946V62.529L236.89 68.002H236.032ZM247.065 68.002V61.229H252.512V68.002H251.628V62.022H247.949V68.002H247.065ZM257.352 68.132C256.867 68.132 256.416 68.041 256 67.859C255.593 67.6683 255.238 67.4126 254.934 67.092C254.64 66.7626 254.41 66.39 254.245 65.974C254.081 65.5493 253.998 65.103 253.998 64.635C253.998 64.1496 254.081 63.699 254.245 63.283C254.41 62.8583 254.644 62.4856 254.947 62.165C255.251 61.8356 255.606 61.58 256.013 61.398C256.429 61.2073 256.88 61.112 257.365 61.112C257.851 61.112 258.297 61.2073 258.704 61.398C259.112 61.58 259.467 61.8356 259.77 62.165C260.074 62.4856 260.308 62.8583 260.472 63.283C260.637 63.699 260.719 64.1496 260.719 64.635C260.719 65.103 260.637 65.5493 260.472 65.974C260.308 66.39 260.074 66.7626 259.77 67.092C259.476 67.4126 259.12 67.6683 258.704 67.859C258.297 68.041 257.846 68.132 257.352 68.132ZM254.895 64.648C254.895 65.1506 255.004 65.61 255.22 66.026C255.446 66.4333 255.745 66.7583 256.117 67.001C256.49 67.235 256.902 67.352 257.352 67.352C257.803 67.352 258.215 67.2306 258.587 66.988C258.96 66.7453 259.259 66.416 259.484 66C259.71 65.5753 259.822 65.116 259.822 64.622C259.822 64.1193 259.71 63.66 259.484 63.244C259.259 62.828 258.96 62.4986 258.587 62.256C258.215 62.0133 257.803 61.892 257.352 61.892C256.902 61.892 256.49 62.0176 256.117 62.269C255.753 62.5203 255.459 62.854 255.233 63.27C255.008 63.6773 254.895 64.1366 254.895 64.648ZM261.548 68.041V67.235C261.782 67.235 261.99 67.1743 262.172 67.053C262.354 66.923 262.514 66.7063 262.653 66.403C262.8 66.0996 262.917 65.6836 263.004 65.155C263.09 64.6176 263.147 63.9373 263.173 63.114L263.251 61.229H267.645V68.002H266.761V62.022H264.031L264.005 63.192C263.97 64.128 263.896 64.9123 263.784 65.545C263.671 66.169 263.511 66.663 263.303 67.027C263.103 67.391 262.856 67.651 262.562 67.807C262.267 67.963 261.929 68.041 261.548 68.041ZM270.34 70.836C270.193 70.836 270.041 70.81 269.885 70.758C269.738 70.7146 269.586 70.6496 269.43 70.563L269.755 69.939C269.85 69.991 269.937 70.0343 270.015 70.069C270.102 70.1036 270.193 70.121 270.288 70.121C270.513 70.121 270.726 70.0083 270.925 69.783C271.124 69.5576 271.315 69.2283 271.497 68.795L271.835 67.95L268.819 61.229H269.755L272.238 67.092L274.526 61.229H275.41L272.186 69.068C272.013 69.4753 271.831 69.809 271.64 70.069C271.449 70.329 271.246 70.5196 271.029 70.641C270.812 70.771 270.583 70.836 270.34 70.836ZM280.519 68.002V65.168C280.242 65.298 279.951 65.3976 279.648 65.467C279.345 65.5276 279.02 65.558 278.673 65.558C277.928 65.558 277.364 65.3673 276.983 64.986C276.61 64.6046 276.424 64.0196 276.424 63.231V61.229H277.308V63.114C277.308 63.7206 277.429 64.1626 277.672 64.44C277.923 64.7173 278.322 64.856 278.868 64.856C279.171 64.856 279.475 64.8213 279.778 64.752C280.081 64.6826 280.328 64.5916 280.519 64.479V61.229H281.403V68.002H280.519ZM283.335 68.002V61.242H284.219V66.806L288.34 61.229H289.133V68.002H288.249V62.529L284.193 68.002H283.335ZM292.757 68.002V62.022H290.339V61.229H296.059V62.022H293.641V68.002H292.757ZM300.187 68.132C299.702 68.132 299.251 68.041 298.835 67.859C298.419 67.6683 298.059 67.4126 297.756 67.092C297.453 66.7626 297.214 66.3856 297.041 65.961C296.876 65.5363 296.794 65.0813 296.794 64.596C296.794 63.9633 296.937 63.3826 297.223 62.854C297.518 62.3253 297.921 61.905 298.432 61.593C298.943 61.2723 299.524 61.112 300.174 61.112C300.841 61.112 301.422 61.2723 301.916 61.593C302.419 61.9136 302.813 62.3383 303.099 62.867C303.385 63.387 303.528 63.959 303.528 64.583C303.528 64.6523 303.528 64.7216 303.528 64.791C303.528 64.8516 303.524 64.8993 303.515 64.934H297.717C297.76 65.4193 297.895 65.8526 298.12 66.234C298.354 66.6066 298.653 66.9056 299.017 67.131C299.39 67.3476 299.793 67.456 300.226 67.456C300.668 67.456 301.084 67.3433 301.474 67.118C301.873 66.8926 302.15 66.598 302.306 66.234L303.073 66.442C302.934 66.7626 302.722 67.053 302.436 67.313C302.15 67.573 301.812 67.7766 301.422 67.924C301.041 68.0626 300.629 68.132 300.187 68.132ZM297.691 64.297H302.696C302.661 63.803 302.527 63.3696 302.293 62.997C302.068 62.6243 301.769 62.334 301.396 62.126C301.032 61.9093 300.629 61.801 300.187 61.801C299.745 61.801 299.342 61.9093 298.978 62.126C298.614 62.334 298.315 62.6286 298.081 63.01C297.856 63.3826 297.726 63.8116 297.691 64.297ZM160.622 85.002V78.229H161.506V81.141H165.38V78.229H166.264V85.002H165.38V81.934H161.506V85.002H160.622ZM167.668 83.052C167.668 82.6273 167.79 82.2633 168.032 81.96C168.275 81.648 168.609 81.4096 169.033 81.245C169.467 81.0716 169.965 80.985 170.528 80.985C170.858 80.985 171.2 81.011 171.555 81.063C171.911 81.115 172.227 81.193 172.504 81.297V80.725C172.504 80.153 172.335 79.698 171.997 79.36C171.659 79.022 171.191 78.853 170.593 78.853C170.229 78.853 169.87 78.9223 169.514 79.061C169.168 79.191 168.804 79.386 168.422 79.646L168.084 79.022C168.526 78.7186 168.96 78.4933 169.384 78.346C169.809 78.19 170.242 78.112 170.684 78.112C171.516 78.112 172.175 78.3503 172.66 78.827C173.146 79.3036 173.388 79.9623 173.388 80.803V83.936C173.388 84.0573 173.414 84.1483 173.466 84.209C173.518 84.261 173.601 84.2913 173.713 84.3V85.002C173.618 85.0106 173.536 85.0193 173.466 85.028C173.397 85.0366 173.345 85.0366 173.31 85.028C173.094 85.0193 172.929 84.95 172.816 84.82C172.704 84.69 172.643 84.5513 172.634 84.404L172.621 83.91C172.318 84.3 171.924 84.6033 171.438 84.82C170.953 85.028 170.459 85.132 169.956 85.132C169.523 85.132 169.129 85.041 168.773 84.859C168.427 84.6683 168.154 84.417 167.954 84.105C167.764 83.7843 167.668 83.4333 167.668 83.052ZM172.205 83.572C172.301 83.4506 172.374 83.3336 172.426 83.221C172.478 83.1083 172.504 83.0086 172.504 82.922V81.934C172.21 81.8213 171.902 81.7346 171.581 81.674C171.269 81.6133 170.953 81.583 170.632 81.583C170 81.583 169.488 81.7086 169.098 81.96C168.708 82.2113 168.513 82.5536 168.513 82.987C168.513 83.2383 168.578 83.4766 168.708 83.702C168.838 83.9186 169.029 84.1006 169.28 84.248C169.532 84.3866 169.826 84.456 170.164 84.456C170.589 84.456 170.983 84.3736 171.347 84.209C171.72 84.0443 172.006 83.832 172.205 83.572ZM178.599 85.002V78.229H184.046V85.002H183.162V79.022H179.483V85.002H178.599ZM188.925 85.132C188.44 85.132 187.989 85.041 187.573 84.859C187.157 84.6683 186.798 84.4126 186.494 84.092C186.191 83.7626 185.953 83.3856 185.779 82.961C185.615 82.5363 185.532 82.0813 185.532 81.596C185.532 80.9633 185.675 80.3826 185.961 79.854C186.256 79.3253 186.659 78.905 187.17 78.593C187.682 78.2723 188.262 78.112 188.912 78.112C189.58 78.112 190.16 78.2723 190.654 78.593C191.157 78.9136 191.551 79.3383 191.837 79.867C192.123 80.387 192.266 80.959 192.266 81.583C192.266 81.6523 192.266 81.7216 192.266 81.791C192.266 81.8516 192.262 81.8993 192.253 81.934H186.455C186.499 82.4193 186.633 82.8526 186.858 83.234C187.092 83.6066 187.391 83.9056 187.755 84.131C188.128 84.3476 188.531 84.456 188.964 84.456C189.406 84.456 189.822 84.3433 190.212 84.118C190.611 83.8926 190.888 83.598 191.044 83.234L191.811 83.442C191.673 83.7626 191.46 84.053 191.174 84.313C190.888 84.573 190.55 84.7766 190.16 84.924C189.779 85.0626 189.367 85.132 188.925 85.132ZM186.429 81.297H191.434C191.4 80.803 191.265 80.3696 191.031 79.997C190.806 79.6243 190.507 79.334 190.134 79.126C189.77 78.9093 189.367 78.801 188.925 78.801C188.483 78.801 188.08 78.9093 187.716 79.126C187.352 79.334 187.053 79.6286 186.819 80.01C186.594 80.3826 186.464 80.8116 186.429 81.297ZM197.088 85.132C196.525 85.132 196.018 84.9846 195.567 84.69C195.125 84.3953 194.774 84.0313 194.514 83.598V87.771H193.63V78.229H194.423V79.542C194.692 79.1173 195.052 78.775 195.502 78.515C195.953 78.2463 196.434 78.112 196.945 78.112C197.413 78.112 197.842 78.2116 198.232 78.411C198.622 78.6016 198.96 78.8616 199.246 79.191C199.532 79.5203 199.753 79.8973 199.909 80.322C200.074 80.738 200.156 81.1713 200.156 81.622C200.156 82.2546 200.026 82.8396 199.766 83.377C199.515 83.9056 199.16 84.3303 198.7 84.651C198.241 84.9716 197.704 85.132 197.088 85.132ZM196.841 84.352C197.214 84.352 197.548 84.2783 197.842 84.131C198.137 83.975 198.388 83.767 198.596 83.507C198.813 83.247 198.978 82.9566 199.09 82.636C199.203 82.3066 199.259 81.9686 199.259 81.622C199.259 81.258 199.194 80.9113 199.064 80.582C198.943 80.2526 198.765 79.9623 198.531 79.711C198.297 79.4596 198.029 79.2603 197.725 79.113C197.422 78.9656 197.093 78.892 196.737 78.892C196.512 78.892 196.278 78.9353 196.035 79.022C195.793 79.1086 195.559 79.2343 195.333 79.399C195.117 79.555 194.935 79.7326 194.787 79.932C194.64 80.1313 194.549 80.3436 194.514 80.569V82.649C194.653 82.9696 194.839 83.26 195.073 83.52C195.307 83.7713 195.576 83.975 195.879 84.131C196.191 84.2783 196.512 84.352 196.841 84.352ZM201.641 85.002V78.229H205.021C205.402 78.229 205.723 78.3113 205.983 78.476C206.243 78.632 206.438 78.8356 206.568 79.087C206.706 79.3383 206.776 79.607 206.776 79.893C206.776 80.257 206.689 80.5863 206.516 80.881C206.342 81.167 206.091 81.3836 205.762 81.531C206.152 81.6436 206.468 81.8473 206.711 82.142C206.953 82.4366 207.075 82.792 207.075 83.208C207.075 83.572 206.984 83.8883 206.802 84.157C206.628 84.4256 206.386 84.6336 206.074 84.781C205.77 84.9283 205.419 85.002 205.021 85.002H201.641ZM202.486 84.365H204.995C205.22 84.365 205.424 84.3086 205.606 84.196C205.796 84.0746 205.944 83.9186 206.048 83.728C206.16 83.5373 206.217 83.338 206.217 83.13C206.217 82.9046 206.165 82.701 206.061 82.519C205.957 82.3283 205.818 82.1766 205.645 82.064C205.471 81.9513 205.272 81.895 205.047 81.895H202.486V84.365ZM202.486 81.284H204.787C205.012 81.284 205.211 81.2233 205.385 81.102C205.558 80.9806 205.692 80.8246 205.788 80.634C205.883 80.4433 205.931 80.244 205.931 80.036C205.931 79.724 205.827 79.451 205.619 79.217C205.419 78.983 205.159 78.866 204.839 78.866H202.486V81.284ZM209.352 87.836C209.204 87.836 209.053 87.81 208.897 87.758C208.749 87.7146 208.598 87.6496 208.442 87.563L208.767 86.939C208.862 86.991 208.949 87.0343 209.027 87.069C209.113 87.1036 209.204 87.121 209.3 87.121C209.525 87.121 209.737 87.0083 209.937 86.783C210.136 86.5576 210.327 86.2283 210.509 85.795L210.847 84.95L207.831 78.229H208.767L211.25 84.092L213.538 78.229H214.422L211.198 86.068C211.024 86.4753 210.842 86.809 210.652 87.069C210.461 87.329 210.257 87.5196 210.041 87.641C209.824 87.771 209.594 87.836 209.352 87.836ZM221.026 85.132C220.436 85.132 219.912 84.9976 219.453 84.729C219.002 84.4603 218.638 84.092 218.361 83.624C218.092 83.1473 217.936 82.61 217.893 82.012H216.541V85.002H215.657V78.229H216.541V81.232H217.893C217.945 80.608 218.109 80.062 218.387 79.594C218.664 79.126 219.028 78.762 219.479 78.502C219.938 78.242 220.454 78.112 221.026 78.112C221.693 78.112 222.269 78.268 222.755 78.58C223.24 78.892 223.617 79.3123 223.886 79.841C224.154 80.3696 224.289 80.9676 224.289 81.635C224.289 82.3196 224.15 82.9263 223.873 83.455C223.604 83.975 223.223 84.3866 222.729 84.69C222.243 84.9846 221.676 85.132 221.026 85.132ZM221.026 84.352C221.494 84.352 221.905 84.235 222.261 84.001C222.616 83.767 222.889 83.4463 223.08 83.039C223.279 82.6316 223.379 82.1636 223.379 81.635C223.379 81.0716 223.275 80.5863 223.067 80.179C222.867 79.7716 222.59 79.4553 222.235 79.23C221.879 79.0046 221.476 78.892 221.026 78.892C220.584 78.892 220.189 79.009 219.843 79.243C219.496 79.4683 219.227 79.789 219.037 80.205C218.846 80.6123 218.751 81.089 218.751 81.635C218.751 82.181 218.846 82.662 219.037 83.078C219.236 83.4853 219.509 83.8016 219.856 84.027C220.202 84.2436 220.592 84.352 221.026 84.352ZM232.026 85.132C231.532 85.132 231.077 85.041 230.661 84.859C230.254 84.6683 229.894 84.4083 229.582 84.079C229.279 83.7496 229.041 83.3726 228.867 82.948C228.703 82.5233 228.62 82.0726 228.62 81.596C228.62 80.9546 228.763 80.3696 229.049 79.841C229.335 79.3123 229.734 78.892 230.245 78.58C230.757 78.268 231.346 78.112 232.013 78.112C232.646 78.112 233.205 78.2593 233.69 78.554C234.176 78.84 234.535 79.23 234.769 79.724L233.911 79.997C233.721 79.6503 233.452 79.3816 233.105 79.191C232.767 78.9916 232.39 78.892 231.974 78.892C231.524 78.892 231.112 79.009 230.739 79.243C230.367 79.477 230.068 79.7976 229.842 80.205C229.626 80.6123 229.517 81.076 229.517 81.596C229.517 82.1073 229.63 82.571 229.855 82.987C230.081 83.403 230.38 83.7366 230.752 83.988C231.125 84.2306 231.537 84.352 231.987 84.352C232.282 84.352 232.564 84.3 232.832 84.196C233.11 84.092 233.348 83.9533 233.547 83.78C233.755 83.598 233.894 83.403 233.963 83.195L234.834 83.455C234.713 83.7756 234.509 84.066 234.223 84.326C233.946 84.5773 233.617 84.7766 233.235 84.924C232.863 85.0626 232.46 85.132 232.026 85.132ZM239.085 85.132C238.599 85.132 238.149 85.041 237.733 84.859C237.317 84.6683 236.957 84.4126 236.654 84.092C236.35 83.7626 236.112 83.3856 235.939 82.961C235.774 82.5363 235.692 82.0813 235.692 81.596C235.692 80.9633 235.835 80.3826 236.121 79.854C236.415 79.3253 236.818 78.905 237.33 78.593C237.841 78.2723 238.422 78.112 239.072 78.112C239.739 78.112 240.32 78.2723 240.814 78.593C241.316 78.9136 241.711 79.3383 241.997 79.867C242.283 80.387 242.426 80.959 242.426 81.583C242.426 81.6523 242.426 81.7216 242.426 81.791C242.426 81.8516 242.421 81.8993 242.413 81.934H236.615C236.658 82.4193 236.792 82.8526 237.018 83.234C237.252 83.6066 237.551 83.9056 237.915 84.131C238.287 84.3476 238.69 84.456 239.124 84.456C239.566 84.456 239.982 84.3433 240.372 84.118C240.77 83.8926 241.048 83.598 241.204 83.234L241.971 83.442C241.832 83.7626 241.62 84.053 241.334 84.313C241.048 84.573 240.71 84.7766 240.32 84.924C239.938 85.0626 239.527 85.132 239.085 85.132ZM236.589 81.297H241.594C241.559 80.803 241.425 80.3696 241.191 79.997C240.965 79.6243 240.666 79.334 240.294 79.126C239.93 78.9093 239.527 78.801 239.085 78.801C238.643 78.801 238.24 78.9093 237.876 79.126C237.512 79.334 237.213 79.6286 236.979 80.01C236.753 80.3826 236.623 80.8116 236.589 81.297ZM246.727 85.132C246.233 85.132 245.778 85.041 245.362 84.859C244.955 84.6683 244.595 84.4083 244.283 84.079C243.98 83.7496 243.742 83.3726 243.568 82.948C243.404 82.5233 243.321 82.0726 243.321 81.596C243.321 80.9546 243.464 80.3696 243.75 79.841C244.036 79.3123 244.435 78.892 244.946 78.58C245.458 78.268 246.047 78.112 246.714 78.112C247.347 78.112 247.906 78.2593 248.391 78.554C248.877 78.84 249.236 79.23 249.47 79.724L248.612 79.997C248.422 79.6503 248.153 79.3816 247.806 79.191C247.468 78.9916 247.091 78.892 246.675 78.892C246.225 78.892 245.813 79.009 245.44 79.243C245.068 79.477 244.769 79.7976 244.543 80.205C244.327 80.6123 244.218 81.076 244.218 81.596C244.218 82.1073 244.331 82.571 244.556 82.987C244.782 83.403 245.081 83.7366 245.453 83.988C245.826 84.2306 246.238 84.352 246.688 84.352C246.983 84.352 247.265 84.3 247.533 84.196C247.811 84.092 248.049 83.9533 248.248 83.78C248.456 83.598 248.595 83.403 248.664 83.195L249.535 83.455C249.414 83.7756 249.21 84.066 248.924 84.326C248.647 84.5773 248.318 84.7766 247.936 84.924C247.564 85.0626 247.161 85.132 246.727 85.132ZM253.799 85.132C253.305 85.132 252.85 85.041 252.434 84.859C252.026 84.6683 251.667 84.4083 251.355 84.079C251.051 83.7496 250.813 83.3726 250.64 82.948C250.475 82.5233 250.393 82.0726 250.393 81.596C250.393 80.9546 250.536 80.3696 250.822 79.841C251.108 79.3123 251.506 78.892 252.018 78.58C252.529 78.268 253.118 78.112 253.786 78.112C254.418 78.112 254.977 78.2593 255.463 78.554C255.948 78.84 256.308 79.23 256.542 79.724L255.684 79.997C255.493 79.6503 255.224 79.3816 254.878 79.191C254.54 78.9916 254.163 78.892 253.747 78.892C253.296 78.892 252.884 79.009 252.512 79.243C252.139 79.477 251.84 79.7976 251.615 80.205C251.398 80.6123 251.29 81.076 251.29 81.596C251.29 82.1073 251.402 82.571 251.628 82.987C251.853 83.403 252.152 83.7366 252.525 83.988C252.897 84.2306 253.309 84.352 253.76 84.352C254.054 84.352 254.336 84.3 254.605 84.196C254.882 84.092 255.12 83.9533 255.32 83.78C255.528 83.598 255.666 83.403 255.736 83.195L256.607 83.455C256.485 83.7756 256.282 84.066 255.996 84.326C255.718 84.5773 255.389 84.7766 255.008 84.924C254.635 85.0626 254.232 85.132 253.799 85.132ZM257.983 85.002V78.242H258.867V83.806L262.988 78.229H263.781V85.002H262.897V79.529L258.841 85.002H257.983ZM271.083 85.132C270.494 85.132 269.97 84.9976 269.51 84.729C269.06 84.4603 268.696 84.092 268.418 83.624C268.15 83.1473 267.994 82.61 267.95 82.012H266.598V85.002H265.714V78.229H266.598V81.232H267.95C268.002 80.608 268.167 80.062 268.444 79.594C268.722 79.126 269.086 78.762 269.536 78.502C269.996 78.242 270.511 78.112 271.083 78.112C271.751 78.112 272.327 78.268 272.812 78.58C273.298 78.892 273.675 79.3123 273.943 79.841C274.212 80.3696 274.346 80.9676 274.346 81.635C274.346 82.3196 274.208 82.9263 273.93 83.455C273.662 83.975 273.28 84.3866 272.786 84.69C272.301 84.9846 271.733 85.132 271.083 85.132ZM271.083 84.352C271.551 84.352 271.963 84.235 272.318 84.001C272.674 83.767 272.947 83.4463 273.137 83.039C273.337 82.6316 273.436 82.1636 273.436 81.635C273.436 81.0716 273.332 80.5863 273.124 80.179C272.925 79.7716 272.648 79.4553 272.292 79.23C271.937 79.0046 271.534 78.892 271.083 78.892C270.641 78.892 270.247 79.009 269.9 79.243C269.554 79.4683 269.285 79.789 269.094 80.205C268.904 80.6123 268.808 81.089 268.808 81.635C268.808 82.181 268.904 82.662 269.094 83.078C269.294 83.4853 269.567 83.8016 269.913 84.027C270.26 84.2436 270.65 84.352 271.083 84.352Z" fill="#212121"/>
<path d="M84.965 85.132C84.4103 85.132 83.912 85.041 83.47 84.859C83.028 84.6683 82.651 84.4083 82.339 84.079C82.027 83.741 81.7843 83.3596 81.611 82.935C81.4463 82.5103 81.364 82.064 81.364 81.596C81.364 80.9546 81.507 80.3696 81.793 79.841C82.0877 79.3036 82.5037 78.8746 83.041 78.554C83.5783 78.2333 84.2153 78.073 84.952 78.073C85.6887 78.073 86.3213 78.2333 86.85 78.554C87.3787 78.8746 87.773 79.295 88.033 79.815L86.33 80.335C86.1827 80.0836 85.9877 79.893 85.745 79.763C85.5023 79.6243 85.2337 79.555 84.939 79.555C84.6097 79.555 84.3063 79.6416 84.029 79.815C83.7603 79.9796 83.548 80.218 83.392 80.53C83.236 80.8333 83.158 81.1886 83.158 81.596C83.158 81.9946 83.236 82.35 83.392 82.662C83.5567 82.9653 83.7733 83.208 84.042 83.39C84.3107 83.5633 84.6097 83.65 84.939 83.65C85.147 83.65 85.342 83.6153 85.524 83.546C85.7147 83.4766 85.8837 83.3813 86.031 83.26C86.1783 83.1386 86.2867 83 86.356 82.844L88.059 83.364C87.903 83.702 87.6733 84.0053 87.37 84.274C87.0753 84.5426 86.7243 84.755 86.317 84.911C85.9183 85.0583 85.4677 85.132 84.965 85.132ZM89.1309 85.002V78.19H90.8729V80.764H91.4579L93.3039 78.19H95.2019L92.7839 81.479L95.4619 85.002H93.4729L91.4319 82.298H90.8729V85.002H89.1309ZM96.545 85.002V78.203H98.287V82.675L101.342 78.19H102.928V85.002H101.186V80.634L98.17 85.002H96.545ZM103.959 86.653V83.481H104.141C104.314 83.481 104.474 83.4333 104.622 83.338C104.778 83.2426 104.912 83.0823 105.025 82.857C105.146 82.623 105.241 82.3023 105.311 81.895C105.389 81.4876 105.441 80.9676 105.467 80.335L105.545 78.19H110.654V83.481H111.603V86.653H110.082V85.002H105.493V86.653H103.959ZM106.338 83.481H108.912V79.659H107.066L107.027 80.504C107.001 81.076 106.957 81.5613 106.897 81.96C106.845 82.35 106.771 82.6706 106.676 82.922C106.589 83.1646 106.476 83.351 106.338 83.481ZM112.731 85.002V78.19H114.473V80.764H115.058L116.904 78.19H118.802L116.384 81.479L119.062 85.002H117.073L115.032 82.298H114.473V85.002H112.731ZM121.16 87.94C120.978 87.94 120.791 87.9183 120.601 87.875C120.419 87.8316 120.206 87.7666 119.964 87.68L120.302 86.302C120.432 86.3626 120.553 86.406 120.666 86.432C120.787 86.458 120.895 86.471 120.991 86.471C121.207 86.471 121.398 86.393 121.563 86.237C121.736 86.081 121.875 85.8426 121.979 85.522L122.187 84.963L119.431 78.19H121.238L123.071 83.221L124.683 78.19H126.347L123.565 85.977C123.417 86.393 123.222 86.744 122.98 87.03C122.737 87.3246 122.46 87.55 122.148 87.706C121.836 87.862 121.506 87.94 121.16 87.94ZM129.826 85.002C129.826 84.4733 129.861 84.0096 129.93 83.611C129.999 83.2036 130.108 82.844 130.255 82.532C130.411 82.2113 130.61 81.9296 130.853 81.687C131.096 81.4443 131.395 81.2146 131.75 80.998C132.053 80.8246 132.365 80.6556 132.686 80.491C133.015 80.3263 133.319 80.153 133.596 79.971C133.882 79.789 134.112 79.581 134.285 79.347C134.467 79.113 134.558 78.827 134.558 78.489C134.558 78.229 134.502 78.008 134.389 77.826C134.285 77.6353 134.129 77.488 133.921 77.384C133.722 77.28 133.479 77.228 133.193 77.228C132.864 77.228 132.556 77.2886 132.27 77.41C131.993 77.5226 131.741 77.6656 131.516 77.839C131.299 78.0036 131.113 78.1683 130.957 78.333L129.865 77.189C129.986 77.0503 130.151 76.8943 130.359 76.721C130.576 76.5476 130.831 76.3786 131.126 76.214C131.429 76.0493 131.772 75.915 132.153 75.811C132.534 75.707 132.955 75.655 133.414 75.655C134.09 75.655 134.658 75.7763 135.117 76.019C135.576 76.253 135.923 76.578 136.157 76.994C136.4 77.4013 136.521 77.8736 136.521 78.411C136.521 78.801 136.456 79.1476 136.326 79.451C136.205 79.7456 136.036 80.0056 135.819 80.231C135.602 80.4563 135.36 80.66 135.091 80.842C134.822 81.0153 134.545 81.1843 134.259 81.349C133.808 81.5916 133.444 81.804 133.167 81.986C132.89 82.168 132.669 82.337 132.504 82.493C132.348 82.649 132.227 82.805 132.14 82.961C132.062 83.1083 131.993 83.2643 131.932 83.429H136.534V85.002H129.826ZM141.752 85.132C141.102 85.1233 140.526 84.976 140.023 84.69C139.52 84.404 139.1 84.027 138.762 83.559C138.424 83.091 138.168 82.5883 137.995 82.051C137.83 81.505 137.748 80.972 137.748 80.452C137.748 79.8973 137.839 79.3426 138.021 78.788C138.203 78.2333 138.467 77.7306 138.814 77.28C139.169 76.8206 139.594 76.4566 140.088 76.188C140.582 75.9106 141.137 75.772 141.752 75.772C142.419 75.772 143 75.9193 143.494 76.214C143.997 76.5086 144.417 76.89 144.755 77.358C145.093 77.826 145.344 78.333 145.509 78.879C145.682 79.425 145.769 79.9493 145.769 80.452C145.769 81.0153 145.678 81.5743 145.496 82.129C145.314 82.675 145.045 83.1733 144.69 83.624C144.343 84.0746 143.923 84.4386 143.429 84.716C142.935 84.9846 142.376 85.1233 141.752 85.132ZM139.555 80.452C139.564 80.816 139.611 81.18 139.698 81.544C139.793 81.8993 139.928 82.2286 140.101 82.532C140.283 82.8353 140.513 83.0823 140.79 83.273C141.067 83.455 141.388 83.546 141.752 83.546C142.142 83.546 142.476 83.4463 142.753 83.247C143.03 83.0476 143.256 82.792 143.429 82.48C143.611 82.168 143.745 81.8343 143.832 81.479C143.919 81.1236 143.962 80.7813 143.962 80.452C143.962 80.088 143.914 79.7283 143.819 79.373C143.732 79.009 143.594 78.6753 143.403 78.372C143.221 78.0686 142.991 77.826 142.714 77.644C142.445 77.4533 142.125 77.358 141.752 77.358C141.371 77.358 141.041 77.4576 140.764 77.657C140.487 77.8563 140.257 78.112 140.075 78.424C139.902 78.736 139.772 79.0696 139.685 79.425C139.598 79.7803 139.555 80.1226 139.555 80.452ZM148.917 79.581C148.519 79.581 148.159 79.4943 147.838 79.321C147.518 79.139 147.258 78.9006 147.058 78.606C146.868 78.3026 146.772 77.969 146.772 77.605C146.772 77.241 146.868 76.9116 147.058 76.617C147.258 76.3136 147.518 76.0753 147.838 75.902C148.159 75.7286 148.519 75.642 148.917 75.642C149.316 75.642 149.676 75.7286 149.996 75.902C150.326 76.0753 150.586 76.3136 150.776 76.617C150.967 76.9116 151.062 77.241 151.062 77.605C151.062 77.969 150.967 78.3026 150.776 78.606C150.586 78.9006 150.326 79.139 149.996 79.321C149.676 79.4943 149.316 79.581 148.917 79.581ZM148.917 78.71C149.091 78.71 149.247 78.658 149.385 78.554C149.524 78.45 149.632 78.3156 149.71 78.151C149.797 77.9863 149.84 77.8086 149.84 77.618C149.84 77.41 149.797 77.2236 149.71 77.059C149.624 76.8943 149.511 76.7643 149.372 76.669C149.234 76.565 149.082 76.513 148.917 76.513C148.744 76.513 148.588 76.565 148.449 76.669C148.311 76.7643 148.198 76.8943 148.111 77.059C148.033 77.2236 147.994 77.4056 147.994 77.605C147.994 77.8043 148.038 77.9906 148.124 78.164C148.211 78.3286 148.324 78.463 148.462 78.567C148.601 78.6623 148.753 78.71 148.917 78.71ZM153.935 85.132C153.537 85.132 153.177 85.0453 152.856 84.872C152.536 84.6986 152.276 84.4646 152.076 84.17C151.886 83.8666 151.79 83.533 151.79 83.169C151.79 82.7963 151.886 82.4626 152.076 82.168C152.276 81.8733 152.536 81.6393 152.856 81.466C153.177 81.284 153.537 81.193 153.935 81.193C154.334 81.193 154.694 81.284 155.014 81.466C155.344 81.6393 155.604 81.8733 155.794 82.168C155.985 82.4626 156.08 82.792 156.08 83.156C156.08 83.52 155.985 83.8536 155.794 84.157C155.604 84.4516 155.344 84.69 155.014 84.872C154.694 85.0453 154.334 85.132 153.935 85.132ZM153.935 84.261C154.109 84.261 154.265 84.209 154.403 84.105C154.542 84.001 154.65 83.8666 154.728 83.702C154.815 83.5373 154.858 83.3596 154.858 83.169C154.858 82.961 154.815 82.7746 154.728 82.61C154.65 82.4453 154.538 82.3153 154.39 82.22C154.252 82.116 154.1 82.064 153.935 82.064C153.771 82.064 153.615 82.116 153.467 82.22C153.329 82.3153 153.216 82.4496 153.129 82.623C153.051 82.7876 153.012 82.9653 153.012 83.156C153.012 83.364 153.056 83.5503 153.142 83.715C153.229 83.8796 153.342 84.014 153.48 84.118C153.619 84.2133 153.771 84.261 153.935 84.261ZM147.513 84.391L151.166 80.114L154.546 75.668L155.339 76.37L151.777 80.582L148.293 85.093L147.513 84.391Z" fill="#6C9165"/>
<circle cx="56.5" cy="72.502" r="14.5" fill="url(#paint0_linear_1701_360)"/>
<path d="M61.8255 65.3001V72.1179C61.8253 72.1824 61.7996 72.2442 61.754 72.2898C61.7084 72.3354 61.6466 72.3612 61.582 72.3613C61.55 72.3617 61.5182 72.3556 61.4885 72.3435C61.4588 72.3313 61.4318 72.3134 61.4092 72.2907C61.3865 72.2681 61.3686 72.2411 61.3564 72.2114C61.3443 72.1817 61.3382 72.1499 61.3386 72.1179V65.5436H53.0599V67.2481C53.0602 67.2801 53.0541 67.3119 53.042 67.3416C53.0299 67.3713 53.012 67.3983 52.9893 67.4209C52.9666 67.4436 52.9397 67.4615 52.91 67.4737C52.8803 67.4858 52.8485 67.4919 52.8164 67.4916H51.112V78.6921H56.7123C56.7768 78.6921 56.8388 78.7177 56.8844 78.7634C56.9301 78.8091 56.9557 78.871 56.9557 78.9356C56.9557 79.0001 56.9301 79.0621 56.8844 79.1077C56.8388 79.1534 56.7768 79.1791 56.7123 79.1791H50.8685C50.8364 79.1794 50.8046 79.1733 50.775 79.1612C50.7453 79.149 50.7183 79.1311 50.6956 79.1084C50.673 79.0858 50.655 79.0588 50.6429 79.0291C50.6308 78.9994 50.6247 78.9676 50.625 78.9356V67.2481C50.6246 67.2161 50.6309 67.1845 50.6435 67.1551C50.6561 67.1257 50.6747 67.0993 50.6981 67.0776L52.646 65.1297C52.6677 65.1063 52.6941 65.0877 52.7235 65.0751C52.7528 65.0625 52.7845 65.0562 52.8164 65.0567H61.582C61.614 65.0562 61.6457 65.0625 61.675 65.0751C61.7044 65.0877 61.7308 65.1063 61.7525 65.1297C61.7759 65.1514 61.7945 65.1778 61.8071 65.2072C61.8197 65.2365 61.826 65.2682 61.8255 65.3001Z" fill="white"/>
<path d="M54.2774 68.4649H52.3294C52.2974 68.4645 52.2656 68.4706 52.2359 68.4827C52.2062 68.4949 52.1792 68.5128 52.1566 68.5355C52.1339 68.5581 52.116 68.5851 52.1038 68.6148C52.0917 68.6445 52.0856 68.6763 52.0859 68.7083V70.6563C52.0856 70.6883 52.0917 70.7201 52.1038 70.7498C52.116 70.7795 52.1339 70.8065 52.1566 70.8291C52.1792 70.8518 52.2062 70.8697 52.2359 70.8819C52.2656 70.894 52.2974 70.9001 52.3294 70.8998H54.2774C54.3094 70.9001 54.3412 70.894 54.3709 70.8819C54.4006 70.8697 54.4276 70.8518 54.4502 70.8291C54.4729 70.8065 54.4908 70.7795 54.503 70.7498C54.5151 70.7201 54.5212 70.6883 54.5208 70.6563V68.7083C54.5212 68.6763 54.5151 68.6445 54.503 68.6148C54.4908 68.5851 54.4729 68.5581 54.4502 68.5355C54.4276 68.5128 54.4006 68.4949 54.3709 68.4827C54.3412 68.4706 54.3094 68.4645 54.2774 68.4649ZM54.0339 70.4128H52.5729V68.9518H54.0339V70.4128Z" fill="white"/>
<path d="M60.1211 69.4391H55.2513C55.1867 69.4391 55.1248 69.4135 55.0791 69.3678C55.0335 69.3221 55.0078 69.2602 55.0078 69.1956C55.0078 69.1311 55.0335 69.0691 55.0791 69.0235C55.1248 68.9778 55.1867 68.9521 55.2513 68.9521H60.1211C60.1857 68.9521 60.2476 68.9778 60.2933 69.0235C60.3389 69.0691 60.3646 69.1311 60.3646 69.1956C60.3646 69.2602 60.3389 69.3221 60.2933 69.3678C60.2476 69.4135 60.1857 69.4391 60.1211 69.4391Z" fill="white"/>
<path d="M59.1471 70.4128H55.2513C55.1867 70.4128 55.1248 70.3871 55.0791 70.3414C55.0335 70.2958 55.0078 70.2338 55.0078 70.1693C55.0078 70.1047 55.0335 70.0428 55.0791 69.9971C55.1248 69.9514 55.1867 69.9258 55.2513 69.9258H59.1471C59.2117 69.9258 59.2736 69.9514 59.3193 69.9971C59.365 70.0428 59.3906 70.1047 59.3906 70.1693C59.3906 70.2338 59.365 70.2958 59.3193 70.3414C59.2736 70.3871 59.2117 70.4128 59.1471 70.4128Z" fill="white"/>
<path d="M54.2774 71.874H52.3294C52.2974 71.8737 52.2656 71.8798 52.2359 71.8919C52.2062 71.904 52.1792 71.922 52.1566 71.9446C52.1339 71.9673 52.116 71.9943 52.1038 72.024C52.0917 72.0537 52.0856 72.0855 52.0859 72.1175V74.0654C52.0856 74.0975 52.0917 74.1293 52.1038 74.159C52.116 74.1887 52.1339 74.2156 52.1566 74.2383C52.1792 74.261 52.2062 74.2789 52.2359 74.291C52.2656 74.3032 52.2974 74.3092 52.3294 74.3089H54.2774C54.3094 74.3092 54.3412 74.3032 54.3709 74.291C54.4006 74.2789 54.4276 74.261 54.4502 74.2383C54.4729 74.2156 54.4908 74.1887 54.503 74.159C54.5151 74.1293 54.5212 74.0975 54.5208 74.0654V72.1175C54.5212 72.0855 54.5151 72.0537 54.503 72.024C54.4908 71.9943 54.4729 71.9673 54.4502 71.9446C54.4276 71.922 54.4006 71.904 54.3709 71.8919C54.3412 71.8798 54.3094 71.8737 54.2774 71.874ZM54.0339 73.822H52.5729V72.361H54.0339V73.822Z" fill="white"/>
<path d="M60.1211 72.8483H55.2513C55.1867 72.8483 55.1248 72.8227 55.0791 72.777C55.0335 72.7313 55.0078 72.6694 55.0078 72.6048C55.0078 72.5402 55.0335 72.4783 55.0791 72.4326C55.1248 72.387 55.1867 72.3613 55.2513 72.3613H60.1211C60.1857 72.3613 60.2476 72.387 60.2933 72.4326C60.3389 72.4783 60.3646 72.5402 60.3646 72.6048C60.3646 72.6694 60.3389 72.7313 60.2933 72.777C60.2476 72.8227 60.1857 72.8483 60.1211 72.8483Z" fill="white"/>
<path d="M59.1471 73.8219H55.2513C55.1867 73.8219 55.1248 73.7963 55.0791 73.7506C55.0335 73.705 55.0078 73.643 55.0078 73.5785C55.0078 73.5139 55.0335 73.4519 55.0791 73.4063C55.1248 73.3606 55.1867 73.335 55.2513 73.335H59.1471C59.2117 73.335 59.2736 73.3606 59.3193 73.4063C59.365 73.4519 59.3906 73.5139 59.3906 73.5785C59.3906 73.643 59.365 73.705 59.3193 73.7506C59.2736 73.7963 59.2117 73.8219 59.1471 73.8219Z" fill="white"/>
<path d="M54.2774 75.2832H52.3294C52.2974 75.2829 52.2656 75.289 52.2359 75.3011C52.2062 75.3132 52.1792 75.3311 52.1566 75.3538C52.1339 75.3765 52.116 75.4035 52.1038 75.4331C52.0917 75.4628 52.0856 75.4946 52.0859 75.5267V77.4746C52.0856 77.5067 52.0917 77.5385 52.1038 77.5682C52.116 77.5979 52.1339 77.6248 52.1566 77.6475C52.1792 77.6702 52.2062 77.6881 52.2359 77.7002C52.2656 77.7123 52.2974 77.7184 52.3294 77.7181H54.2774C54.3094 77.7184 54.3412 77.7123 54.3709 77.7002C54.4006 77.6881 54.4276 77.6702 54.4502 77.6475C54.4729 77.6248 54.4908 77.5979 54.503 77.5682C54.5151 77.5385 54.5212 77.5067 54.5208 77.4746V75.5267C54.5212 75.4946 54.5151 75.4628 54.503 75.4331C54.4908 75.4035 54.4729 75.3765 54.4502 75.3538C54.4276 75.3311 54.4006 75.3132 54.3709 75.3011C54.3412 75.289 54.3094 75.2829 54.2774 75.2832ZM54.0339 77.2311H52.5729V75.7702H54.0339V77.2311Z" fill="white"/>
<path d="M57.1992 76.2565H55.2513C55.1867 76.2565 55.1248 76.2309 55.0791 76.1852C55.0335 76.1395 55.0078 76.0776 55.0078 76.013C55.0078 75.9484 55.0335 75.8865 55.0791 75.8408C55.1248 75.7952 55.1867 75.7695 55.2513 75.7695H57.1992C57.2638 75.7695 57.3257 75.7952 57.3714 75.8408C57.4171 75.8865 57.4427 75.9484 57.4427 76.013C57.4427 76.0776 57.4171 76.1395 57.3714 76.1852C57.3257 76.2309 57.2638 76.2565 57.1992 76.2565Z" fill="white"/>
<path d="M56.2253 77.2311H55.2513C55.1867 77.2311 55.1248 77.2055 55.0791 77.1598C55.0335 77.1141 55.0078 77.0522 55.0078 76.9876C55.0078 76.9231 55.0335 76.8611 55.0791 76.8155C55.1248 76.7698 55.1867 76.7441 55.2513 76.7441H56.2253C56.2898 76.7441 56.3518 76.7698 56.3974 76.8155C56.4431 76.8611 56.4687 76.9231 56.4687 76.9876C56.4687 77.0522 56.4431 77.1141 56.3974 77.1598C56.3518 77.2055 56.2898 77.2311 56.2253 77.2311Z" fill="white"/>
<path d="M63.4741 74.9571L59.3202 79.1062C59.2985 79.1296 59.2721 79.1482 59.2427 79.1608C59.2134 79.1733 59.1817 79.1796 59.1498 79.1792H57.6888C57.6568 79.1795 57.625 79.1734 57.5953 79.1613C57.5656 79.1492 57.5386 79.1313 57.5159 79.1086C57.4933 79.0859 57.4753 79.059 57.4632 79.0293C57.4511 78.9996 57.445 78.9678 57.4453 78.9357V77.4748C57.4449 77.4428 57.4512 77.4112 57.4638 77.3818C57.4764 77.3525 57.495 77.3261 57.5184 77.3043L61.6723 73.1553L62.0132 73.4962L62.4028 73.8857L58.4923 77.7913C58.4693 77.8133 58.4509 77.8397 58.4383 77.869C58.4258 77.8983 58.4193 77.9299 58.4193 77.9618C58.4193 77.9936 58.4258 78.0252 58.4383 78.0545C58.4509 78.0838 58.4693 78.1102 58.4923 78.1322C58.5143 78.1553 58.5408 78.1737 58.5701 78.1862C58.5994 78.1988 58.6309 78.2053 58.6628 78.2053C58.6947 78.2053 58.7262 78.1988 58.7555 78.1862C58.7848 78.1737 58.8112 78.1553 58.8332 78.1322L62.7437 74.2266L63.1284 74.6113L63.4741 74.9571Z" fill="white"/>
<path d="M64.3775 74.051L63.8174 74.611L62.0156 72.8092L62.5757 72.2491C62.694 72.1308 62.8344 72.037 62.989 71.973C63.1436 71.9089 63.3092 71.876 63.4766 71.876C63.6439 71.876 63.8096 71.9089 63.9641 71.973C64.1187 72.037 64.2592 72.1308 64.3775 72.2491C64.4958 72.3675 64.5896 72.5079 64.6537 72.6625C64.7177 72.8171 64.7506 72.9827 64.7506 73.1501C64.7506 73.3174 64.7177 73.483 64.6537 73.6376C64.5896 73.7922 64.4958 73.9327 64.3775 74.051Z" fill="white"/>
<path d="M29.155 72.8104C29.2994 72.7895 29.3994 72.6556 29.3785 72.5113L29.0382 70.1594C29.0173 70.0151 28.8834 69.915 28.739 69.9359C28.5947 69.9568 28.4947 70.0907 28.5155 70.235L28.8181 72.3256L26.7275 72.6281C26.5832 72.649 26.4832 72.7829 26.504 72.9273C26.5249 73.0716 26.6589 73.1716 26.8032 73.1508L29.155 72.8104ZM17.421 0.86782C17.1292 1.36264 16.8431 1.85589 16.5627 2.34758L17.0215 2.60914C17.3005 2.11974 17.5853 1.62872 17.8759 1.13609L17.421 0.86782ZM14.9248 5.32646C14.3865 6.34342 13.8738 7.3536 13.3866 8.35704L13.8617 8.58767C14.3461 7.58993 14.8561 6.58522 15.3915 5.57347L14.9248 5.32646ZM11.9614 11.4403C11.4974 12.4982 11.0629 13.5485 10.6581 14.5912L11.1504 14.7823C11.5524 13.7469 11.984 12.7036 12.445 11.6524L11.9614 11.4403ZM9.50029 17.7957C9.13513 18.889 8.8039 19.9739 8.50692 21.0505L9.01599 21.1909C9.31039 20.1237 9.63887 19.0477 10.0012 17.963L9.50029 17.7957ZM7.69679 24.3591C7.4561 25.4877 7.25458 26.6069 7.0926 27.717L7.61515 27.7933C7.77542 26.6949 7.97488 25.5869 8.21325 24.4692L7.69679 24.3591ZM6.71944 31.1023C6.63473 32.2501 6.59414 33.3877 6.59808 34.5154L7.12616 34.5136C7.12227 33.3998 7.16235 32.2757 7.24609 31.1412L6.71944 31.1023ZM6.74853 37.9231C6.84613 39.0624 6.99128 40.1912 7.1844 41.3096L7.70478 41.2197C7.51425 40.1163 7.37101 39.0025 7.27468 37.878L6.74853 37.9231ZM7.91118 44.6455C8.20071 45.742 8.53848 46.8282 8.92489 47.9041L9.42189 47.7256C9.04062 46.664 8.70738 45.5924 8.42177 44.5107L7.91118 44.6455ZM10.2147 51.0668C10.6827 52.0898 11.1967 53.1032 11.7569 54.1072L12.2181 53.8498C11.6645 52.8579 11.1569 51.8571 10.6949 50.8471L10.2147 51.0668ZM13.5318 57.0224C14.1489 57.9566 14.8079 58.8823 15.509 59.7998L15.9286 59.4792C15.2346 58.571 14.5827 57.6551 13.9724 56.7313L13.5318 57.0224ZM17.6614 62.4383C18.3941 63.282 19.1638 64.1184 19.9708 64.9478L20.3493 64.5796C19.549 63.7571 18.786 62.9279 18.0602 62.0921L17.6614 62.4383ZM22.4105 67.3281C23.2263 68.085 24.0744 68.8359 24.955 69.5809L25.2961 69.1778C24.4214 68.4378 23.5793 67.6922 22.7697 66.941L22.4105 67.3281ZM27.5969 71.7224C28.0436 72.0698 28.4977 72.4158 28.9592 72.7606L29.2753 72.3376C28.8165 71.9948 28.3651 71.6508 27.921 71.3055L27.5969 71.7224ZM29.1929 73.0717C29.4815 73.03 29.6816 72.7621 29.6399 72.4734L28.9591 67.7697C28.9174 67.4811 28.6495 67.2809 28.3609 67.3227C28.0722 67.3645 27.8721 67.6323 27.9139 67.921L28.5189 72.1021L24.3379 72.7072C24.0492 72.7489 23.8491 73.0168 23.8909 73.3054C23.9326 73.5941 24.2005 73.7942 24.4891 73.7524L29.1929 73.0717ZM17.1936 0.733688C16.9011 1.2296 16.6144 1.72397 16.3334 2.2168L17.2509 2.73992C17.5293 2.25166 17.8134 1.76176 18.1033 1.27022L17.1936 0.733688ZM14.6914 5.20295C14.1518 6.22252 13.6376 7.23543 13.1491 8.24173L14.0992 8.70298C14.5822 7.7081 15.0908 6.70612 15.6249 5.69698L14.6914 5.20295ZM11.7196 11.3342C11.2541 12.3955 10.8182 13.4492 10.412 14.4957L11.3966 14.8779C11.7971 13.8461 12.2272 12.8063 12.6868 11.7585L11.7196 11.3342ZM9.24985 17.712C8.88326 18.8096 8.55066 19.899 8.25239 20.9803L9.27052 21.2612C9.56364 20.1986 9.89073 19.1271 10.2516 18.0466L9.24985 17.712ZM7.43855 24.304C7.1967 25.438 6.99416 26.5629 6.83132 27.6789L7.87642 27.8314C8.03583 26.7389 8.23427 25.6366 8.47149 24.5243L7.43855 24.304ZM6.45612 31.0829C6.37092 32.2372 6.33007 33.3817 6.33404 34.5163L7.3902 34.5126C7.38633 33.4058 7.42616 32.2886 7.50941 31.1607L6.45612 31.0829ZM6.48545 37.9456C6.58369 39.0923 6.7298 40.2286 6.92421 41.3545L7.96497 41.1748C7.77574 40.0789 7.63345 38.9725 7.53776 37.8554L6.48545 37.9456ZM7.65589 44.7129C7.94737 45.8169 8.28742 46.9103 8.67639 47.9934L9.67039 47.6364C9.29168 46.5819 8.96071 45.5176 8.67706 44.4433L7.65589 44.7129ZM9.97455 51.1767C10.4455 52.2062 10.9627 53.2259 11.5264 54.2359L12.4486 53.7211C11.8984 52.7353 11.394 51.7407 10.935 50.7373L9.97455 51.1767ZM13.3115 57.1679C13.932 58.1073 14.5945 59.038 15.2992 59.9601L16.1384 59.3188C15.448 58.4154 14.7996 57.5044 14.1927 56.5858L13.3115 57.1679ZM17.4621 62.6114C18.1981 63.459 18.9712 64.2991 19.7816 65.132L20.5385 64.3954C19.7416 63.5764 18.982 62.7509 18.2595 61.9189L17.4621 62.6114ZM22.2309 67.5216C23.0497 68.2814 23.9009 69.035 24.7845 69.7825L25.4667 68.9762C24.5949 68.2387 23.7559 67.4958 22.9493 66.7474L22.2309 67.5216ZM27.4348 71.9308C27.8829 72.2793 28.3384 72.6264 28.8011 72.9721L29.4333 72.126C28.9758 71.7842 28.5258 71.4412 28.0831 71.097L27.4348 71.9308Z" fill="#4E869F"/>
<defs>
<linearGradient id="paint0_linear_1701_360" x1="71" y1="87.002" x2="38.5804" y2="82.4713" gradientUnits="userSpaceOnUse">
<stop stop-color="#6C9165"/>
<stop offset="0.461458" stop-color="#90B589"/>
<stop offset="1" stop-color="#6C9165"/>
</linearGradient>
</defs>
</svg>
