<svg width="327" height="90" viewBox="0 0 327 90" fill="none" xmlns="http://www.w3.org/2000/svg">
<path d="M85.875 68.065C85.225 68.065 84.6357 67.935 84.107 67.675C83.5783 67.415 83.1233 67.064 82.742 66.622C82.3607 66.1713 82.066 65.6687 81.858 65.114C81.65 64.5507 81.546 63.9743 81.546 63.385C81.546 62.7697 81.6543 62.1847 81.871 61.63C82.0877 61.0667 82.391 60.5683 82.781 60.135C83.1797 59.693 83.6433 59.3463 84.172 59.095C84.7007 58.835 85.2727 58.705 85.888 58.705C86.538 58.705 87.1273 58.8393 87.656 59.108C88.1847 59.3767 88.6353 59.7363 89.008 60.187C89.3893 60.6377 89.684 61.1403 89.892 61.695C90.1 62.2497 90.204 62.8173 90.204 63.398C90.204 64.0133 90.0957 64.6027 89.879 65.166C89.6623 65.7207 89.359 66.219 88.969 66.661C88.579 67.0943 88.1197 67.4367 87.591 67.688C87.0623 67.9393 86.4903 68.065 85.875 68.065ZM82.456 63.385C82.456 63.8877 82.5383 64.373 82.703 64.841C82.8677 65.3003 83.1017 65.712 83.405 66.076C83.7083 66.4313 84.068 66.7173 84.484 66.934C84.9087 67.142 85.3723 67.246 85.875 67.246C86.4037 67.246 86.876 67.1377 87.292 66.921C87.7167 66.6957 88.0763 66.401 88.371 66.037C88.6743 65.6643 88.904 65.2483 89.06 64.789C89.216 64.3297 89.294 63.8617 89.294 63.385C89.294 62.8823 89.2117 62.4013 89.047 61.942C88.8823 61.4827 88.644 61.071 88.332 60.707C88.0287 60.343 87.669 60.057 87.253 59.849C86.837 59.641 86.3777 59.537 85.875 59.537C85.355 59.537 84.8827 59.6453 84.458 59.862C84.042 60.0787 83.6823 60.3733 83.379 60.746C83.0843 61.11 82.8547 61.5217 82.69 61.981C82.534 62.4403 82.456 62.9083 82.456 63.385ZM93.4277 68V62.02H91.0097V61.227H96.7297V62.02H94.3117V68H93.4277ZM97.92 68V61.227H101.3C101.681 61.227 102.002 61.3093 102.262 61.474C102.522 61.63 102.717 61.8337 102.847 62.085C102.986 62.3363 103.055 62.605 103.055 62.891C103.055 63.255 102.968 63.5843 102.795 63.879C102.622 64.165 102.37 64.3817 102.041 64.529C102.431 64.6417 102.747 64.8453 102.99 65.14C103.233 65.4347 103.354 65.79 103.354 66.206C103.354 66.57 103.263 66.8863 103.081 67.155C102.908 67.4237 102.665 67.6317 102.353 67.779C102.05 67.9263 101.699 68 101.3 68H97.92ZM98.765 67.363H101.274C101.499 67.363 101.703 67.3067 101.885 67.194C102.076 67.0727 102.223 66.9167 102.327 66.726C102.44 66.5353 102.496 66.336 102.496 66.128C102.496 65.9027 102.444 65.699 102.34 65.517C102.236 65.3263 102.097 65.1747 101.924 65.062C101.751 64.9493 101.551 64.893 101.326 64.893H98.765V67.363ZM98.765 64.282H101.066C101.291 64.282 101.491 64.2213 101.664 64.1C101.837 63.9787 101.972 63.8227 102.067 63.632C102.162 63.4413 102.21 63.242 102.21 63.034C102.21 62.722 102.106 62.449 101.898 62.215C101.699 61.981 101.439 61.864 101.118 61.864H98.765V64.282ZM107.815 68.13C107.33 68.13 106.879 68.039 106.463 67.857C106.047 67.6663 105.687 67.4107 105.384 67.09C105.081 66.7607 104.842 66.3837 104.669 65.959C104.504 65.5343 104.422 65.0793 104.422 64.594C104.422 63.9613 104.565 63.3807 104.851 62.852C105.146 62.3233 105.549 61.903 106.06 61.591C106.571 61.2703 107.152 61.11 107.802 61.11C108.469 61.11 109.05 61.2703 109.544 61.591C110.047 61.9117 110.441 62.3363 110.727 62.865C111.013 63.385 111.156 63.957 111.156 64.581C111.156 64.6503 111.156 64.7197 111.156 64.789C111.156 64.8497 111.152 64.8973 111.143 64.932H105.345C105.388 65.4173 105.523 65.8507 105.748 66.232C105.982 66.6047 106.281 66.9037 106.645 67.129C107.018 67.3457 107.421 67.454 107.854 67.454C108.296 67.454 108.712 67.3413 109.102 67.116C109.501 66.8907 109.778 66.596 109.934 66.232L110.701 66.44C110.562 66.7607 110.35 67.051 110.064 67.311C109.778 67.571 109.44 67.7747 109.05 67.922C108.669 68.0607 108.257 68.13 107.815 68.13ZM105.319 64.295H110.324C110.289 63.801 110.155 63.3677 109.921 62.995C109.696 62.6223 109.397 62.332 109.024 62.124C108.66 61.9073 108.257 61.799 107.815 61.799C107.373 61.799 106.97 61.9073 106.606 62.124C106.242 62.332 105.943 62.6267 105.709 63.008C105.484 63.3807 105.354 63.8097 105.319 64.295ZM114.21 68V62.02H111.792V61.227H117.512V62.02H115.094V68H114.21ZM118.702 68V61.227H119.586V63.619H121.341C122.113 63.619 122.693 63.8183 123.083 64.217C123.482 64.607 123.681 65.1227 123.681 65.764C123.681 66.18 123.595 66.557 123.421 66.895C123.248 67.233 122.992 67.5017 122.654 67.701C122.325 67.9003 121.909 68 121.406 68H118.702ZM119.586 67.298H121.289C121.645 67.298 121.931 67.2287 122.147 67.09C122.364 66.9427 122.524 66.7563 122.628 66.531C122.732 66.297 122.784 66.0457 122.784 65.777C122.784 65.517 122.737 65.2787 122.641 65.062C122.555 64.8367 122.399 64.659 122.173 64.529C121.957 64.3903 121.653 64.321 121.263 64.321H119.586V67.298ZM126.753 68V62.02H124.335V61.227H130.055V62.02H127.637V68H126.753ZM134.183 68.13C133.698 68.13 133.247 68.039 132.831 67.857C132.415 67.6663 132.056 67.4107 131.752 67.09C131.449 66.7607 131.211 66.3837 131.037 65.959C130.873 65.5343 130.79 65.0793 130.79 64.594C130.79 63.9613 130.933 63.3807 131.219 62.852C131.514 62.3233 131.917 61.903 132.428 61.591C132.94 61.2703 133.52 61.11 134.17 61.11C134.838 61.11 135.418 61.2703 135.912 61.591C136.415 61.9117 136.809 62.3363 137.095 62.865C137.381 63.385 137.524 63.957 137.524 64.581C137.524 64.6503 137.524 64.7197 137.524 64.789C137.524 64.8497 137.52 64.8973 137.511 64.932H131.713C131.757 65.4173 131.891 65.8507 132.116 66.232C132.35 66.6047 132.649 66.9037 133.013 67.129C133.386 67.3457 133.789 67.454 134.222 67.454C134.664 67.454 135.08 67.3413 135.47 67.116C135.869 66.8907 136.146 66.596 136.302 66.232L137.069 66.44C136.931 66.7607 136.718 67.051 136.432 67.311C136.146 67.571 135.808 67.7747 135.418 67.922C135.037 68.0607 134.625 68.13 134.183 68.13ZM131.687 64.295H136.692C136.658 63.801 136.523 63.3677 136.289 62.995C136.064 62.6223 135.765 62.332 135.392 62.124C135.028 61.9073 134.625 61.799 134.183 61.799C133.741 61.799 133.338 61.9073 132.974 62.124C132.61 62.332 132.311 62.6267 132.077 63.008C131.852 63.3807 131.722 63.8097 131.687 64.295ZM142.189 68V61.227H143.073V64.139H146.947V61.227H147.831V68H146.947V64.932H143.073V68H142.189ZM149.235 66.05C149.235 65.6253 149.356 65.2613 149.599 64.958C149.841 64.646 150.175 64.4077 150.6 64.243C151.033 64.0697 151.531 63.983 152.095 63.983C152.424 63.983 152.766 64.009 153.122 64.061C153.477 64.113 153.793 64.191 154.071 64.295V63.723C154.071 63.151 153.902 62.696 153.564 62.358C153.226 62.02 152.758 61.851 152.16 61.851C151.796 61.851 151.436 61.9203 151.081 62.059C150.734 62.189 150.37 62.384 149.989 62.644L149.651 62.02C150.093 61.7167 150.526 61.4913 150.951 61.344C151.375 61.188 151.809 61.11 152.251 61.11C153.083 61.11 153.741 61.3483 154.227 61.825C154.712 62.3017 154.955 62.9603 154.955 63.801V66.934C154.955 67.0553 154.981 67.1463 155.033 67.207C155.085 67.259 155.167 67.2893 155.28 67.298V68C155.184 68.0087 155.102 68.0173 155.033 68.026C154.963 68.0347 154.911 68.0347 154.877 68.026C154.66 68.0173 154.495 67.948 154.383 67.818C154.27 67.688 154.209 67.5493 154.201 67.402L154.188 66.908C153.884 67.298 153.49 67.6013 153.005 67.818C152.519 68.026 152.025 68.13 151.523 68.13C151.089 68.13 150.695 68.039 150.34 67.857C149.993 67.6663 149.72 67.415 149.521 67.103C149.33 66.7823 149.235 66.4313 149.235 66.05ZM153.772 66.57C153.867 66.4487 153.941 66.3317 153.993 66.219C154.045 66.1063 154.071 66.0067 154.071 65.92V64.932C153.776 64.8193 153.468 64.7327 153.148 64.672C152.836 64.6113 152.519 64.581 152.199 64.581C151.566 64.581 151.055 64.7067 150.665 64.958C150.275 65.2093 150.08 65.5517 150.08 65.985C150.08 66.2363 150.145 66.4747 150.275 66.7C150.405 66.9167 150.595 67.0987 150.847 67.246C151.098 67.3847 151.393 67.454 151.731 67.454C152.155 67.454 152.55 67.3717 152.914 67.207C153.286 67.0423 153.572 66.83 153.772 66.57ZM159.723 61.916C159.723 61.3093 159.87 60.7633 160.165 60.278C160.468 59.7927 160.876 59.4113 161.387 59.134C161.898 58.848 162.47 58.705 163.103 58.705C163.796 58.705 164.394 58.874 164.897 59.212C165.408 59.5413 165.803 60.0223 166.08 60.655C166.357 61.279 166.496 62.0373 166.496 62.93C166.496 64.048 166.349 64.997 166.054 65.777C165.768 66.5483 165.356 67.1333 164.819 67.532C164.282 67.9307 163.649 68.13 162.921 68.13C162.349 68.13 161.816 68.0043 161.322 67.753C160.828 67.493 160.412 67.129 160.074 66.661L161.075 65.569C161.283 65.8897 161.552 66.1453 161.881 66.336C162.21 66.518 162.566 66.609 162.947 66.609C163.337 66.609 163.675 66.505 163.961 66.297C164.247 66.089 164.468 65.79 164.624 65.4C164.789 65.0013 164.875 64.5247 164.884 63.97C164.763 64.178 164.607 64.36 164.416 64.516C164.225 64.672 164.004 64.789 163.753 64.867C163.51 64.945 163.242 64.984 162.947 64.984C162.34 64.984 161.79 64.8497 161.296 64.581C160.811 64.3037 160.425 63.9353 160.139 63.476C159.862 63.008 159.723 62.488 159.723 61.916ZM163.09 60.161C162.787 60.161 162.505 60.2433 162.245 60.408C161.994 60.564 161.79 60.7763 161.634 61.045C161.478 61.305 161.4 61.591 161.4 61.903C161.4 62.215 161.474 62.501 161.621 62.761C161.777 63.0123 161.985 63.216 162.245 63.372C162.505 63.5193 162.791 63.593 163.103 63.593C163.415 63.593 163.697 63.5193 163.948 63.372C164.208 63.216 164.416 63.0123 164.572 62.761C164.728 62.501 164.806 62.2193 164.806 61.916C164.806 61.5953 164.724 61.305 164.559 61.045C164.403 60.785 164.195 60.5727 163.935 60.408C163.684 60.2433 163.402 60.161 163.09 60.161ZM171.016 68V61.188H174.812C175.28 61.188 175.657 61.266 175.943 61.422C176.237 61.578 176.454 61.7817 176.593 62.033C176.731 62.2843 176.801 62.553 176.801 62.839C176.801 63.2203 176.714 63.554 176.541 63.84C176.376 64.126 176.116 64.347 175.761 64.503C176.159 64.6157 176.484 64.8107 176.736 65.088C176.987 65.3567 177.113 65.712 177.113 66.154C177.113 66.5787 177.013 66.9297 176.814 67.207C176.614 67.4757 176.328 67.675 175.956 67.805C175.583 67.935 175.141 68 174.63 68H171.016ZM172.667 66.817H174.578C174.734 66.817 174.877 66.778 175.007 66.7C175.137 66.622 175.236 66.518 175.306 66.388C175.384 66.258 175.423 66.115 175.423 65.959C175.423 65.7943 175.388 65.6513 175.319 65.53C175.249 65.4 175.15 65.3003 175.02 65.231C174.898 65.153 174.755 65.114 174.591 65.114H172.667V66.817ZM172.667 64.022H174.37C174.526 64.022 174.664 63.983 174.786 63.905C174.907 63.827 174.998 63.723 175.059 63.593C175.128 63.463 175.163 63.32 175.163 63.164C175.163 62.9387 175.089 62.7523 174.942 62.605C174.803 62.449 174.617 62.371 174.383 62.371H172.667V64.022ZM181.525 68.13C180.97 68.13 180.472 68.039 180.03 67.857C179.588 67.6663 179.211 67.4063 178.899 67.077C178.596 66.7477 178.362 66.3707 178.197 65.946C178.032 65.5213 177.95 65.075 177.95 64.607C177.95 64.1303 178.032 63.6797 178.197 63.255C178.362 62.8303 178.596 62.4533 178.899 62.124C179.211 61.7947 179.588 61.539 180.03 61.357C180.472 61.1663 180.97 61.071 181.525 61.071C182.08 61.071 182.574 61.1663 183.007 61.357C183.449 61.539 183.826 61.7947 184.138 62.124C184.45 62.4533 184.684 62.8303 184.84 63.255C185.005 63.6797 185.087 64.1303 185.087 64.607C185.087 65.075 185.005 65.5213 184.84 65.946C184.684 66.3707 184.45 66.7477 184.138 67.077C183.835 67.4063 183.462 67.6663 183.02 67.857C182.578 68.039 182.08 68.13 181.525 68.13ZM179.744 64.607C179.744 65.0057 179.822 65.361 179.978 65.673C180.134 65.9763 180.346 66.2147 180.615 66.388C180.884 66.5613 181.187 66.648 181.525 66.648C181.854 66.648 182.153 66.5613 182.422 66.388C182.691 66.206 182.903 65.9633 183.059 65.66C183.224 65.348 183.306 64.9927 183.306 64.594C183.306 64.204 183.224 63.853 183.059 63.541C182.903 63.229 182.691 62.9863 182.422 62.813C182.153 62.6397 181.854 62.553 181.525 62.553C181.187 62.553 180.884 62.644 180.615 62.826C180.346 62.9993 180.134 63.242 179.978 63.554C179.822 63.8573 179.744 64.2083 179.744 64.607ZM186.263 68V61.188H192.373V68H190.631V62.709H188.005V68H186.263ZM198.038 68.13C197.509 68.13 197.041 68.013 196.634 67.779C196.235 67.5363 195.923 67.2113 195.698 66.804V70.769H193.956V61.188H195.477V62.358C195.737 61.9593 196.066 61.6473 196.465 61.422C196.864 61.188 197.319 61.071 197.83 61.071C198.289 61.071 198.71 61.162 199.091 61.344C199.481 61.526 199.819 61.7817 200.105 62.111C200.391 62.4317 200.612 62.8043 200.768 63.229C200.933 63.645 201.015 64.0957 201.015 64.581C201.015 65.2397 200.885 65.8377 200.625 66.375C200.374 66.9123 200.023 67.3413 199.572 67.662C199.13 67.974 198.619 68.13 198.038 68.13ZM197.453 66.648C197.722 66.648 197.964 66.5917 198.181 66.479C198.398 66.3663 198.584 66.2147 198.74 66.024C198.905 65.8247 199.026 65.6037 199.104 65.361C199.191 65.1097 199.234 64.8497 199.234 64.581C199.234 64.295 199.186 64.0307 199.091 63.788C199.004 63.5453 198.874 63.333 198.701 63.151C198.528 62.9603 198.324 62.813 198.09 62.709C197.865 62.605 197.618 62.553 197.349 62.553C197.184 62.553 197.015 62.5833 196.842 62.644C196.677 62.696 196.517 62.774 196.361 62.878C196.205 62.982 196.066 63.1033 195.945 63.242C195.832 63.3807 195.75 63.5323 195.698 63.697V65.296C195.802 65.5473 195.941 65.777 196.114 65.985C196.296 66.193 196.504 66.3577 196.738 66.479C196.972 66.5917 197.21 66.648 197.453 66.648ZM205.341 68.13C204.787 68.13 204.288 68.039 203.846 67.857C203.404 67.6663 203.027 67.4063 202.715 67.077C202.412 66.7477 202.178 66.3707 202.013 65.946C201.849 65.5213 201.766 65.075 201.766 64.607C201.766 64.1303 201.849 63.6797 202.013 63.255C202.178 62.8303 202.412 62.4533 202.715 62.124C203.027 61.7947 203.404 61.539 203.846 61.357C204.288 61.1663 204.787 61.071 205.341 61.071C205.896 61.071 206.39 61.1663 206.823 61.357C207.265 61.539 207.642 61.7947 207.954 62.124C208.266 62.4533 208.5 62.8303 208.656 63.255C208.821 63.6797 208.903 64.1303 208.903 64.607C208.903 65.075 208.821 65.5213 208.656 65.946C208.5 66.3707 208.266 66.7477 207.954 67.077C207.651 67.4063 207.278 67.6663 206.836 67.857C206.394 68.039 205.896 68.13 205.341 68.13ZM203.56 64.607C203.56 65.0057 203.638 65.361 203.794 65.673C203.95 65.9763 204.163 66.2147 204.431 66.388C204.7 66.5613 205.003 66.648 205.341 66.648C205.671 66.648 205.97 66.5613 206.238 66.388C206.507 66.206 206.719 65.9633 206.875 65.66C207.04 65.348 207.122 64.9927 207.122 64.594C207.122 64.204 207.04 63.853 206.875 63.541C206.719 63.229 206.507 62.9863 206.238 62.813C205.97 62.6397 205.671 62.553 205.341 62.553C205.003 62.553 204.7 62.644 204.431 62.826C204.163 62.9993 203.95 63.242 203.794 63.554C203.638 63.8573 203.56 64.2083 203.56 64.607ZM213.251 68.13C212.696 68.13 212.198 68.039 211.756 67.857C211.314 67.6663 210.937 67.4063 210.625 67.077C210.313 66.739 210.07 66.3577 209.897 65.933C209.732 65.5083 209.65 65.062 209.65 64.594C209.65 63.9527 209.793 63.3677 210.079 62.839C210.374 62.3017 210.79 61.8727 211.327 61.552C211.864 61.2313 212.501 61.071 213.238 61.071C213.975 61.071 214.607 61.2313 215.136 61.552C215.665 61.8727 216.059 62.293 216.319 62.813L214.616 63.333C214.469 63.0817 214.274 62.891 214.031 62.761C213.788 62.6223 213.52 62.553 213.225 62.553C212.896 62.553 212.592 62.6397 212.315 62.813C212.046 62.9777 211.834 63.216 211.678 63.528C211.522 63.8313 211.444 64.1867 211.444 64.594C211.444 64.9927 211.522 65.348 211.678 65.66C211.843 65.9633 212.059 66.206 212.328 66.388C212.597 66.5613 212.896 66.648 213.225 66.648C213.433 66.648 213.628 66.6133 213.81 66.544C214.001 66.4747 214.17 66.3793 214.317 66.258C214.464 66.1367 214.573 65.998 214.642 65.842L216.345 66.362C216.189 66.7 215.959 67.0033 215.656 67.272C215.361 67.5407 215.01 67.753 214.603 67.909C214.204 68.0563 213.754 68.13 213.251 68.13ZM220.5 68.13C219.945 68.13 219.447 68.039 219.005 67.857C218.563 67.6663 218.186 67.4063 217.874 67.077C217.57 66.7477 217.336 66.3707 217.172 65.946C217.007 65.5213 216.925 65.075 216.925 64.607C216.925 64.1303 217.007 63.6797 217.172 63.255C217.336 62.8303 217.57 62.4533 217.874 62.124C218.186 61.7947 218.563 61.539 219.005 61.357C219.447 61.1663 219.945 61.071 220.5 61.071C221.054 61.071 221.548 61.1663 221.982 61.357C222.424 61.539 222.801 61.7947 223.113 62.124C223.425 62.4533 223.659 62.8303 223.815 63.255C223.979 63.6797 224.062 64.1303 224.062 64.607C224.062 65.075 223.979 65.5213 223.815 65.946C223.659 66.3707 223.425 66.7477 223.113 67.077C222.809 67.4063 222.437 67.6663 221.995 67.857C221.553 68.039 221.054 68.13 220.5 68.13ZM218.719 64.607C218.719 65.0057 218.797 65.361 218.953 65.673C219.109 65.9763 219.321 66.2147 219.59 66.388C219.858 66.5613 220.162 66.648 220.5 66.648C220.829 66.648 221.128 66.5613 221.397 66.388C221.665 66.206 221.878 65.9633 222.034 65.66C222.198 65.348 222.281 64.9927 222.281 64.594C222.281 64.204 222.198 63.853 222.034 63.541C221.878 63.229 221.665 62.9863 221.397 62.813C221.128 62.6397 220.829 62.553 220.5 62.553C220.162 62.553 219.858 62.644 219.59 62.826C219.321 62.9993 219.109 63.242 218.953 63.554C218.797 63.8573 218.719 64.2083 218.719 64.607ZM225.237 68V61.188H229.033C229.501 61.188 229.878 61.266 230.164 61.422C230.459 61.578 230.676 61.7817 230.814 62.033C230.953 62.2843 231.022 62.553 231.022 62.839C231.022 63.2203 230.936 63.554 230.762 63.84C230.598 64.126 230.338 64.347 229.982 64.503C230.381 64.6157 230.706 64.8107 230.957 65.088C231.209 65.3567 231.334 65.712 231.334 66.154C231.334 66.5787 231.235 66.9297 231.035 67.207C230.836 67.4757 230.55 67.675 230.177 67.805C229.805 67.935 229.363 68 228.851 68H225.237ZM226.888 66.817H228.799C228.955 66.817 229.098 66.778 229.228 66.7C229.358 66.622 229.458 66.518 229.527 66.388C229.605 66.258 229.644 66.115 229.644 65.959C229.644 65.7943 229.61 65.6513 229.54 65.53C229.471 65.4 229.371 65.3003 229.241 65.231C229.12 65.153 228.977 65.114 228.812 65.114H226.888V66.817ZM226.888 64.022H228.591C228.747 64.022 228.886 63.983 229.007 63.905C229.129 63.827 229.22 63.723 229.28 63.593C229.35 63.463 229.384 63.32 229.384 63.164C229.384 62.9387 229.311 62.7523 229.163 62.605C229.025 62.449 228.838 62.371 228.604 62.371H226.888V64.022ZM236.083 68V61.24H236.967V66.804L241.088 61.227H241.881V68H240.997V62.527L236.941 68H236.083ZM247.115 68V61.227H252.562V68H251.678V62.02H247.999V68H247.115ZM257.403 68.13C256.918 68.13 256.467 68.039 256.051 67.857C255.644 67.6663 255.288 67.4107 254.985 67.09C254.69 66.7607 254.461 66.388 254.296 65.972C254.131 65.5473 254.049 65.101 254.049 64.633C254.049 64.1477 254.131 63.697 254.296 63.281C254.461 62.8563 254.695 62.4837 254.998 62.163C255.301 61.8337 255.657 61.578 256.064 61.396C256.48 61.2053 256.931 61.11 257.416 61.11C257.901 61.11 258.348 61.2053 258.755 61.396C259.162 61.578 259.518 61.8337 259.821 62.163C260.124 62.4837 260.358 62.8563 260.523 63.281C260.688 63.697 260.77 64.1477 260.77 64.633C260.77 65.101 260.688 65.5473 260.523 65.972C260.358 66.388 260.124 66.7607 259.821 67.09C259.526 67.4107 259.171 67.6663 258.755 67.857C258.348 68.039 257.897 68.13 257.403 68.13ZM254.946 64.646C254.946 65.1487 255.054 65.608 255.271 66.024C255.496 66.4313 255.795 66.7563 256.168 66.999C256.541 67.233 256.952 67.35 257.403 67.35C257.854 67.35 258.265 67.2287 258.638 66.986C259.011 66.7433 259.31 66.414 259.535 65.998C259.76 65.5733 259.873 65.114 259.873 64.62C259.873 64.1173 259.76 63.658 259.535 63.242C259.31 62.826 259.011 62.4967 258.638 62.254C258.265 62.0113 257.854 61.89 257.403 61.89C256.952 61.89 256.541 62.0157 256.168 62.267C255.804 62.5183 255.509 62.852 255.284 63.268C255.059 63.6753 254.946 64.1347 254.946 64.646ZM261.598 68.039V67.233C261.832 67.233 262.04 67.1723 262.222 67.051C262.404 66.921 262.565 66.7043 262.703 66.401C262.851 66.0977 262.968 65.6817 263.054 65.153C263.141 64.6157 263.197 63.9353 263.223 63.112L263.301 61.227H267.695V68H266.811V62.02H264.081L264.055 63.19C264.021 64.126 263.947 64.9103 263.834 65.543C263.722 66.167 263.561 66.661 263.353 67.025C263.154 67.389 262.907 67.649 262.612 67.805C262.318 67.961 261.98 68.039 261.598 68.039ZM270.391 70.834C270.243 70.834 270.092 70.808 269.936 70.756C269.788 70.7127 269.637 70.6477 269.481 70.561L269.806 69.937C269.901 69.989 269.988 70.0323 270.066 70.067C270.152 70.1017 270.243 70.119 270.339 70.119C270.564 70.119 270.776 70.0063 270.976 69.781C271.175 69.5557 271.366 69.2263 271.548 68.793L271.886 67.948L268.87 61.227H269.806L272.289 67.09L274.577 61.227H275.461L272.237 69.066C272.063 69.4733 271.881 69.807 271.691 70.067C271.5 70.327 271.296 70.5177 271.08 70.639C270.863 70.769 270.633 70.834 270.391 70.834ZM280.57 68V65.166C280.292 65.296 280.002 65.3957 279.699 65.465C279.395 65.5257 279.07 65.556 278.724 65.556C277.978 65.556 277.415 65.3653 277.034 64.984C276.661 64.6027 276.475 64.0177 276.475 63.229V61.227H277.359V63.112C277.359 63.7187 277.48 64.1607 277.723 64.438C277.974 64.7153 278.373 64.854 278.919 64.854C279.222 64.854 279.525 64.8193 279.829 64.75C280.132 64.6807 280.379 64.5897 280.57 64.477V61.227H281.454V68H280.57ZM283.386 68V61.24H284.27V66.804L288.391 61.227H289.184V68H288.3V62.527L284.244 68H283.386ZM292.808 68V62.02H290.39V61.227H296.11V62.02H293.692V68H292.808ZM300.238 68.13C299.753 68.13 299.302 68.039 298.886 67.857C298.47 67.6663 298.11 67.4107 297.807 67.09C297.504 66.7607 297.265 66.3837 297.092 65.959C296.927 65.5343 296.845 65.0793 296.845 64.594C296.845 63.9613 296.988 63.3807 297.274 62.852C297.569 62.3233 297.972 61.903 298.483 61.591C298.994 61.2703 299.575 61.11 300.225 61.11C300.892 61.11 301.473 61.2703 301.967 61.591C302.47 61.9117 302.864 62.3363 303.15 62.865C303.436 63.385 303.579 63.957 303.579 64.581C303.579 64.6503 303.579 64.7197 303.579 64.789C303.579 64.8497 303.575 64.8973 303.566 64.932H297.768C297.811 65.4173 297.946 65.8507 298.171 66.232C298.405 66.6047 298.704 66.9037 299.068 67.129C299.441 67.3457 299.844 67.454 300.277 67.454C300.719 67.454 301.135 67.3413 301.525 67.116C301.924 66.8907 302.201 66.596 302.357 66.232L303.124 66.44C302.985 66.7607 302.773 67.051 302.487 67.311C302.201 67.571 301.863 67.7747 301.473 67.922C301.092 68.0607 300.68 68.13 300.238 68.13ZM297.742 64.295H302.747C302.712 63.801 302.578 63.3677 302.344 62.995C302.119 62.6223 301.82 62.332 301.447 62.124C301.083 61.9073 300.68 61.799 300.238 61.799C299.796 61.799 299.393 61.9073 299.029 62.124C298.665 62.332 298.366 62.6267 298.132 63.008C297.907 63.3807 297.777 63.8097 297.742 64.295ZM160.622 85V78.227H161.506V81.139H165.38V78.227H166.264V85H165.38V81.932H161.506V85H160.622ZM167.668 83.05C167.668 82.6253 167.79 82.2613 168.032 81.958C168.275 81.646 168.609 81.4077 169.033 81.243C169.467 81.0697 169.965 80.983 170.528 80.983C170.858 80.983 171.2 81.009 171.555 81.061C171.911 81.113 172.227 81.191 172.504 81.295V80.723C172.504 80.151 172.335 79.696 171.997 79.358C171.659 79.02 171.191 78.851 170.593 78.851C170.229 78.851 169.87 78.9203 169.514 79.059C169.168 79.189 168.804 79.384 168.422 79.644L168.084 79.02C168.526 78.7167 168.96 78.4913 169.384 78.344C169.809 78.188 170.242 78.11 170.684 78.11C171.516 78.11 172.175 78.3483 172.66 78.825C173.146 79.3017 173.388 79.9603 173.388 80.801V83.934C173.388 84.0553 173.414 84.1463 173.466 84.207C173.518 84.259 173.601 84.2893 173.713 84.298V85C173.618 85.0087 173.536 85.0173 173.466 85.026C173.397 85.0347 173.345 85.0347 173.31 85.026C173.094 85.0173 172.929 84.948 172.816 84.818C172.704 84.688 172.643 84.5493 172.634 84.402L172.621 83.908C172.318 84.298 171.924 84.6013 171.438 84.818C170.953 85.026 170.459 85.13 169.956 85.13C169.523 85.13 169.129 85.039 168.773 84.857C168.427 84.6663 168.154 84.415 167.954 84.103C167.764 83.7823 167.668 83.4313 167.668 83.05ZM172.205 83.57C172.301 83.4487 172.374 83.3317 172.426 83.219C172.478 83.1063 172.504 83.0067 172.504 82.92V81.932C172.21 81.8193 171.902 81.7327 171.581 81.672C171.269 81.6113 170.953 81.581 170.632 81.581C170 81.581 169.488 81.7067 169.098 81.958C168.708 82.2093 168.513 82.5517 168.513 82.985C168.513 83.2363 168.578 83.4747 168.708 83.7C168.838 83.9167 169.029 84.0987 169.28 84.246C169.532 84.3847 169.826 84.454 170.164 84.454C170.589 84.454 170.983 84.3717 171.347 84.207C171.72 84.0423 172.006 83.83 172.205 83.57ZM178.599 85V78.227H184.046V85H183.162V79.02H179.483V85H178.599ZM188.925 85.13C188.44 85.13 187.989 85.039 187.573 84.857C187.157 84.6663 186.798 84.4107 186.494 84.09C186.191 83.7607 185.953 83.3837 185.779 82.959C185.615 82.5343 185.532 82.0793 185.532 81.594C185.532 80.9613 185.675 80.3807 185.961 79.852C186.256 79.3233 186.659 78.903 187.17 78.591C187.682 78.2703 188.262 78.11 188.912 78.11C189.58 78.11 190.16 78.2703 190.654 78.591C191.157 78.9117 191.551 79.3363 191.837 79.865C192.123 80.385 192.266 80.957 192.266 81.581C192.266 81.6503 192.266 81.7197 192.266 81.789C192.266 81.8497 192.262 81.8973 192.253 81.932H186.455C186.499 82.4173 186.633 82.8507 186.858 83.232C187.092 83.6047 187.391 83.9037 187.755 84.129C188.128 84.3457 188.531 84.454 188.964 84.454C189.406 84.454 189.822 84.3413 190.212 84.116C190.611 83.8907 190.888 83.596 191.044 83.232L191.811 83.44C191.673 83.7607 191.46 84.051 191.174 84.311C190.888 84.571 190.55 84.7747 190.16 84.922C189.779 85.0607 189.367 85.13 188.925 85.13ZM186.429 81.295H191.434C191.4 80.801 191.265 80.3677 191.031 79.995C190.806 79.6223 190.507 79.332 190.134 79.124C189.77 78.9073 189.367 78.799 188.925 78.799C188.483 78.799 188.08 78.9073 187.716 79.124C187.352 79.332 187.053 79.6267 186.819 80.008C186.594 80.3807 186.464 80.8097 186.429 81.295ZM197.088 85.13C196.525 85.13 196.018 84.9827 195.567 84.688C195.125 84.3933 194.774 84.0293 194.514 83.596V87.769H193.63V78.227H194.423V79.54C194.692 79.1153 195.052 78.773 195.502 78.513C195.953 78.2443 196.434 78.11 196.945 78.11C197.413 78.11 197.842 78.2097 198.232 78.409C198.622 78.5997 198.96 78.8597 199.246 79.189C199.532 79.5183 199.753 79.8953 199.909 80.32C200.074 80.736 200.156 81.1693 200.156 81.62C200.156 82.2527 200.026 82.8377 199.766 83.375C199.515 83.9037 199.16 84.3283 198.7 84.649C198.241 84.9697 197.704 85.13 197.088 85.13ZM196.841 84.35C197.214 84.35 197.548 84.2763 197.842 84.129C198.137 83.973 198.388 83.765 198.596 83.505C198.813 83.245 198.978 82.9547 199.09 82.634C199.203 82.3047 199.259 81.9667 199.259 81.62C199.259 81.256 199.194 80.9093 199.064 80.58C198.943 80.2507 198.765 79.9603 198.531 79.709C198.297 79.4577 198.029 79.2583 197.725 79.111C197.422 78.9637 197.093 78.89 196.737 78.89C196.512 78.89 196.278 78.9333 196.035 79.02C195.793 79.1067 195.559 79.2323 195.333 79.397C195.117 79.553 194.935 79.7307 194.787 79.93C194.64 80.1293 194.549 80.3417 194.514 80.567V82.647C194.653 82.9677 194.839 83.258 195.073 83.518C195.307 83.7693 195.576 83.973 195.879 84.129C196.191 84.2763 196.512 84.35 196.841 84.35ZM201.641 85V78.227H205.021C205.402 78.227 205.723 78.3093 205.983 78.474C206.243 78.63 206.438 78.8337 206.568 79.085C206.706 79.3363 206.776 79.605 206.776 79.891C206.776 80.255 206.689 80.5843 206.516 80.879C206.342 81.165 206.091 81.3817 205.762 81.529C206.152 81.6417 206.468 81.8453 206.711 82.14C206.953 82.4347 207.075 82.79 207.075 83.206C207.075 83.57 206.984 83.8863 206.802 84.155C206.628 84.4237 206.386 84.6317 206.074 84.779C205.77 84.9263 205.419 85 205.021 85H201.641ZM202.486 84.363H204.995C205.22 84.363 205.424 84.3067 205.606 84.194C205.796 84.0727 205.944 83.9167 206.048 83.726C206.16 83.5353 206.217 83.336 206.217 83.128C206.217 82.9027 206.165 82.699 206.061 82.517C205.957 82.3263 205.818 82.1747 205.645 82.062C205.471 81.9493 205.272 81.893 205.047 81.893H202.486V84.363ZM202.486 81.282H204.787C205.012 81.282 205.211 81.2213 205.385 81.1C205.558 80.9787 205.692 80.8227 205.788 80.632C205.883 80.4413 205.931 80.242 205.931 80.034C205.931 79.722 205.827 79.449 205.619 79.215C205.419 78.981 205.159 78.864 204.839 78.864H202.486V81.282ZM209.352 87.834C209.204 87.834 209.053 87.808 208.897 87.756C208.749 87.7127 208.598 87.6477 208.442 87.561L208.767 86.937C208.862 86.989 208.949 87.0323 209.027 87.067C209.113 87.1017 209.204 87.119 209.3 87.119C209.525 87.119 209.737 87.0063 209.937 86.781C210.136 86.5557 210.327 86.2263 210.509 85.793L210.847 84.948L207.831 78.227H208.767L211.25 84.09L213.538 78.227H214.422L211.198 86.066C211.024 86.4733 210.842 86.807 210.652 87.067C210.461 87.327 210.257 87.5177 210.041 87.639C209.824 87.769 209.594 87.834 209.352 87.834ZM221.026 85.13C220.436 85.13 219.912 84.9957 219.453 84.727C219.002 84.4583 218.638 84.09 218.361 83.622C218.092 83.1453 217.936 82.608 217.893 82.01H216.541V85H215.657V78.227H216.541V81.23H217.893C217.945 80.606 218.109 80.06 218.387 79.592C218.664 79.124 219.028 78.76 219.479 78.5C219.938 78.24 220.454 78.11 221.026 78.11C221.693 78.11 222.269 78.266 222.755 78.578C223.24 78.89 223.617 79.3103 223.886 79.839C224.154 80.3677 224.289 80.9657 224.289 81.633C224.289 82.3177 224.15 82.9243 223.873 83.453C223.604 83.973 223.223 84.3847 222.729 84.688C222.243 84.9827 221.676 85.13 221.026 85.13ZM221.026 84.35C221.494 84.35 221.905 84.233 222.261 83.999C222.616 83.765 222.889 83.4443 223.08 83.037C223.279 82.6297 223.379 82.1617 223.379 81.633C223.379 81.0697 223.275 80.5843 223.067 80.177C222.867 79.7697 222.59 79.4533 222.235 79.228C221.879 79.0027 221.476 78.89 221.026 78.89C220.584 78.89 220.189 79.007 219.843 79.241C219.496 79.4663 219.227 79.787 219.037 80.203C218.846 80.6103 218.751 81.087 218.751 81.633C218.751 82.179 218.846 82.66 219.037 83.076C219.236 83.4833 219.509 83.7997 219.856 84.025C220.202 84.2417 220.592 84.35 221.026 84.35ZM232.026 85.13C231.532 85.13 231.077 85.039 230.661 84.857C230.254 84.6663 229.894 84.4063 229.582 84.077C229.279 83.7477 229.041 83.3707 228.867 82.946C228.703 82.5213 228.62 82.0707 228.62 81.594C228.62 80.9527 228.763 80.3677 229.049 79.839C229.335 79.3103 229.734 78.89 230.245 78.578C230.757 78.266 231.346 78.11 232.013 78.11C232.646 78.11 233.205 78.2573 233.69 78.552C234.176 78.838 234.535 79.228 234.769 79.722L233.911 79.995C233.721 79.6483 233.452 79.3797 233.105 79.189C232.767 78.9897 232.39 78.89 231.974 78.89C231.524 78.89 231.112 79.007 230.739 79.241C230.367 79.475 230.068 79.7957 229.842 80.203C229.626 80.6103 229.517 81.074 229.517 81.594C229.517 82.1053 229.63 82.569 229.855 82.985C230.081 83.401 230.38 83.7347 230.752 83.986C231.125 84.2287 231.537 84.35 231.987 84.35C232.282 84.35 232.564 84.298 232.832 84.194C233.11 84.09 233.348 83.9513 233.547 83.778C233.755 83.596 233.894 83.401 233.963 83.193L234.834 83.453C234.713 83.7737 234.509 84.064 234.223 84.324C233.946 84.5753 233.617 84.7747 233.235 84.922C232.863 85.0607 232.46 85.13 232.026 85.13ZM239.085 85.13C238.599 85.13 238.149 85.039 237.733 84.857C237.317 84.6663 236.957 84.4107 236.654 84.09C236.35 83.7607 236.112 83.3837 235.939 82.959C235.774 82.5343 235.692 82.0793 235.692 81.594C235.692 80.9613 235.835 80.3807 236.121 79.852C236.415 79.3233 236.818 78.903 237.33 78.591C237.841 78.2703 238.422 78.11 239.072 78.11C239.739 78.11 240.32 78.2703 240.814 78.591C241.316 78.9117 241.711 79.3363 241.997 79.865C242.283 80.385 242.426 80.957 242.426 81.581C242.426 81.6503 242.426 81.7197 242.426 81.789C242.426 81.8497 242.421 81.8973 242.413 81.932H236.615C236.658 82.4173 236.792 82.8507 237.018 83.232C237.252 83.6047 237.551 83.9037 237.915 84.129C238.287 84.3457 238.69 84.454 239.124 84.454C239.566 84.454 239.982 84.3413 240.372 84.116C240.77 83.8907 241.048 83.596 241.204 83.232L241.971 83.44C241.832 83.7607 241.62 84.051 241.334 84.311C241.048 84.571 240.71 84.7747 240.32 84.922C239.938 85.0607 239.527 85.13 239.085 85.13ZM236.589 81.295H241.594C241.559 80.801 241.425 80.3677 241.191 79.995C240.965 79.6223 240.666 79.332 240.294 79.124C239.93 78.9073 239.527 78.799 239.085 78.799C238.643 78.799 238.24 78.9073 237.876 79.124C237.512 79.332 237.213 79.6267 236.979 80.008C236.753 80.3807 236.623 80.8097 236.589 81.295ZM246.727 85.13C246.233 85.13 245.778 85.039 245.362 84.857C244.955 84.6663 244.595 84.4063 244.283 84.077C243.98 83.7477 243.742 83.3707 243.568 82.946C243.404 82.5213 243.321 82.0707 243.321 81.594C243.321 80.9527 243.464 80.3677 243.75 79.839C244.036 79.3103 244.435 78.89 244.946 78.578C245.458 78.266 246.047 78.11 246.714 78.11C247.347 78.11 247.906 78.2573 248.391 78.552C248.877 78.838 249.236 79.228 249.47 79.722L248.612 79.995C248.422 79.6483 248.153 79.3797 247.806 79.189C247.468 78.9897 247.091 78.89 246.675 78.89C246.225 78.89 245.813 79.007 245.44 79.241C245.068 79.475 244.769 79.7957 244.543 80.203C244.327 80.6103 244.218 81.074 244.218 81.594C244.218 82.1053 244.331 82.569 244.556 82.985C244.782 83.401 245.081 83.7347 245.453 83.986C245.826 84.2287 246.238 84.35 246.688 84.35C246.983 84.35 247.265 84.298 247.533 84.194C247.811 84.09 248.049 83.9513 248.248 83.778C248.456 83.596 248.595 83.401 248.664 83.193L249.535 83.453C249.414 83.7737 249.21 84.064 248.924 84.324C248.647 84.5753 248.318 84.7747 247.936 84.922C247.564 85.0607 247.161 85.13 246.727 85.13ZM253.799 85.13C253.305 85.13 252.85 85.039 252.434 84.857C252.026 84.6663 251.667 84.4063 251.355 84.077C251.051 83.7477 250.813 83.3707 250.64 82.946C250.475 82.5213 250.393 82.0707 250.393 81.594C250.393 80.9527 250.536 80.3677 250.822 79.839C251.108 79.3103 251.506 78.89 252.018 78.578C252.529 78.266 253.118 78.11 253.786 78.11C254.418 78.11 254.977 78.2573 255.463 78.552C255.948 78.838 256.308 79.228 256.542 79.722L255.684 79.995C255.493 79.6483 255.224 79.3797 254.878 79.189C254.54 78.9897 254.163 78.89 253.747 78.89C253.296 78.89 252.884 79.007 252.512 79.241C252.139 79.475 251.84 79.7957 251.615 80.203C251.398 80.6103 251.29 81.074 251.29 81.594C251.29 82.1053 251.402 82.569 251.628 82.985C251.853 83.401 252.152 83.7347 252.525 83.986C252.897 84.2287 253.309 84.35 253.76 84.35C254.054 84.35 254.336 84.298 254.605 84.194C254.882 84.09 255.12 83.9513 255.32 83.778C255.528 83.596 255.666 83.401 255.736 83.193L256.607 83.453C256.485 83.7737 256.282 84.064 255.996 84.324C255.718 84.5753 255.389 84.7747 255.008 84.922C254.635 85.0607 254.232 85.13 253.799 85.13ZM257.983 85V78.24H258.867V83.804L262.988 78.227H263.781V85H262.897V79.527L258.841 85H257.983ZM271.083 85.13C270.494 85.13 269.97 84.9957 269.51 84.727C269.06 84.4583 268.696 84.09 268.418 83.622C268.15 83.1453 267.994 82.608 267.95 82.01H266.598V85H265.714V78.227H266.598V81.23H267.95C268.002 80.606 268.167 80.06 268.444 79.592C268.722 79.124 269.086 78.76 269.536 78.5C269.996 78.24 270.511 78.11 271.083 78.11C271.751 78.11 272.327 78.266 272.812 78.578C273.298 78.89 273.675 79.3103 273.943 79.839C274.212 80.3677 274.346 80.9657 274.346 81.633C274.346 82.3177 274.208 82.9243 273.93 83.453C273.662 83.973 273.28 84.3847 272.786 84.688C272.301 84.9827 271.733 85.13 271.083 85.13ZM271.083 84.35C271.551 84.35 271.963 84.233 272.318 83.999C272.674 83.765 272.947 83.4443 273.137 83.037C273.337 82.6297 273.436 82.1617 273.436 81.633C273.436 81.0697 273.332 80.5843 273.124 80.177C272.925 79.7697 272.648 79.4533 272.292 79.228C271.937 79.0027 271.534 78.89 271.083 78.89C270.641 78.89 270.247 79.007 269.9 79.241C269.554 79.4663 269.285 79.787 269.094 80.203C268.904 80.6103 268.808 81.087 268.808 81.633C268.808 82.179 268.904 82.66 269.094 83.076C269.294 83.4833 269.567 83.7997 269.913 84.025C270.26 84.2417 270.65 84.35 271.083 84.35Z" fill="#212121"/>
<path d="M84.965 85.13C84.4103 85.13 83.912 85.039 83.47 84.857C83.028 84.6663 82.651 84.4063 82.339 84.077C82.027 83.739 81.7843 83.3577 81.611 82.933C81.4463 82.5083 81.364 82.062 81.364 81.594C81.364 80.9527 81.507 80.3677 81.793 79.839C82.0877 79.3017 82.5037 78.8727 83.041 78.552C83.5783 78.2313 84.2153 78.071 84.952 78.071C85.6887 78.071 86.3213 78.2313 86.85 78.552C87.3787 78.8727 87.773 79.293 88.033 79.813L86.33 80.333C86.1827 80.0817 85.9877 79.891 85.745 79.761C85.5023 79.6223 85.2337 79.553 84.939 79.553C84.6097 79.553 84.3063 79.6397 84.029 79.813C83.7603 79.9777 83.548 80.216 83.392 80.528C83.236 80.8313 83.158 81.1867 83.158 81.594C83.158 81.9927 83.236 82.348 83.392 82.66C83.5567 82.9633 83.7733 83.206 84.042 83.388C84.3107 83.5613 84.6097 83.648 84.939 83.648C85.147 83.648 85.342 83.6133 85.524 83.544C85.7147 83.4747 85.8837 83.3793 86.031 83.258C86.1783 83.1367 86.2867 82.998 86.356 82.842L88.059 83.362C87.903 83.7 87.6733 84.0033 87.37 84.272C87.0753 84.5407 86.7243 84.753 86.317 84.909C85.9183 85.0563 85.4677 85.13 84.965 85.13ZM89.1309 85V78.188H90.8729V80.762H91.4579L93.3039 78.188H95.2019L92.7839 81.477L95.4619 85H93.4729L91.4319 82.296H90.8729V85H89.1309ZM96.545 85V78.201H98.287V82.673L101.342 78.188H102.928V85H101.186V80.632L98.17 85H96.545ZM103.959 86.651V83.479H104.141C104.314 83.479 104.474 83.4313 104.622 83.336C104.778 83.2407 104.912 83.0803 105.025 82.855C105.146 82.621 105.241 82.3003 105.311 81.893C105.389 81.4857 105.441 80.9657 105.467 80.333L105.545 78.188H110.654V83.479H111.603V86.651H110.082V85H105.493V86.651H103.959ZM106.338 83.479H108.912V79.657H107.066L107.027 80.502C107.001 81.074 106.957 81.5593 106.897 81.958C106.845 82.348 106.771 82.6687 106.676 82.92C106.589 83.1627 106.476 83.349 106.338 83.479ZM112.731 85V78.188H114.473V80.762H115.058L116.904 78.188H118.802L116.384 81.477L119.062 85H117.073L115.032 82.296H114.473V85H112.731ZM121.16 87.938C120.978 87.938 120.791 87.9163 120.601 87.873C120.419 87.8297 120.206 87.7647 119.964 87.678L120.302 86.3C120.432 86.3607 120.553 86.404 120.666 86.43C120.787 86.456 120.895 86.469 120.991 86.469C121.207 86.469 121.398 86.391 121.563 86.235C121.736 86.079 121.875 85.8407 121.979 85.52L122.187 84.961L119.431 78.188H121.238L123.071 83.219L124.683 78.188H126.347L123.565 85.975C123.417 86.391 123.222 86.742 122.98 87.028C122.737 87.3227 122.46 87.548 122.148 87.704C121.836 87.86 121.506 87.938 121.16 87.938ZM129.826 85C129.826 84.4713 129.861 84.0077 129.93 83.609C129.999 83.2017 130.108 82.842 130.255 82.53C130.411 82.2093 130.61 81.9277 130.853 81.685C131.096 81.4423 131.395 81.2127 131.75 80.996C132.053 80.8227 132.365 80.6537 132.686 80.489C133.015 80.3243 133.319 80.151 133.596 79.969C133.882 79.787 134.112 79.579 134.285 79.345C134.467 79.111 134.558 78.825 134.558 78.487C134.558 78.227 134.502 78.006 134.389 77.824C134.285 77.6333 134.129 77.486 133.921 77.382C133.722 77.278 133.479 77.226 133.193 77.226C132.864 77.226 132.556 77.2867 132.27 77.408C131.993 77.5207 131.741 77.6637 131.516 77.837C131.299 78.0017 131.113 78.1663 130.957 78.331L129.865 77.187C129.986 77.0483 130.151 76.8923 130.359 76.719C130.576 76.5457 130.831 76.3767 131.126 76.212C131.429 76.0473 131.772 75.913 132.153 75.809C132.534 75.705 132.955 75.653 133.414 75.653C134.09 75.653 134.658 75.7743 135.117 76.017C135.576 76.251 135.923 76.576 136.157 76.992C136.4 77.3993 136.521 77.8717 136.521 78.409C136.521 78.799 136.456 79.1457 136.326 79.449C136.205 79.7437 136.036 80.0037 135.819 80.229C135.602 80.4543 135.36 80.658 135.091 80.84C134.822 81.0133 134.545 81.1823 134.259 81.347C133.808 81.5897 133.444 81.802 133.167 81.984C132.89 82.166 132.669 82.335 132.504 82.491C132.348 82.647 132.227 82.803 132.14 82.959C132.062 83.1063 131.993 83.2623 131.932 83.427H136.534V85H129.826ZM141.752 85.13C141.102 85.1213 140.526 84.974 140.023 84.688C139.52 84.402 139.1 84.025 138.762 83.557C138.424 83.089 138.168 82.5863 137.995 82.049C137.83 81.503 137.748 80.97 137.748 80.45C137.748 79.8953 137.839 79.3407 138.021 78.786C138.203 78.2313 138.467 77.7287 138.814 77.278C139.169 76.8187 139.594 76.4547 140.088 76.186C140.582 75.9087 141.137 75.77 141.752 75.77C142.419 75.77 143 75.9173 143.494 76.212C143.997 76.5067 144.417 76.888 144.755 77.356C145.093 77.824 145.344 78.331 145.509 78.877C145.682 79.423 145.769 79.9473 145.769 80.45C145.769 81.0133 145.678 81.5723 145.496 82.127C145.314 82.673 145.045 83.1713 144.69 83.622C144.343 84.0727 143.923 84.4367 143.429 84.714C142.935 84.9827 142.376 85.1213 141.752 85.13ZM139.555 80.45C139.564 80.814 139.611 81.178 139.698 81.542C139.793 81.8973 139.928 82.2267 140.101 82.53C140.283 82.8333 140.513 83.0803 140.79 83.271C141.067 83.453 141.388 83.544 141.752 83.544C142.142 83.544 142.476 83.4443 142.753 83.245C143.03 83.0457 143.256 82.79 143.429 82.478C143.611 82.166 143.745 81.8323 143.832 81.477C143.919 81.1217 143.962 80.7793 143.962 80.45C143.962 80.086 143.914 79.7263 143.819 79.371C143.732 79.007 143.594 78.6733 143.403 78.37C143.221 78.0667 142.991 77.824 142.714 77.642C142.445 77.4513 142.125 77.356 141.752 77.356C141.371 77.356 141.041 77.4557 140.764 77.655C140.487 77.8543 140.257 78.11 140.075 78.422C139.902 78.734 139.772 79.0677 139.685 79.423C139.598 79.7783 139.555 80.1207 139.555 80.45ZM148.917 79.579C148.519 79.579 148.159 79.4923 147.838 79.319C147.518 79.137 147.258 78.8987 147.058 78.604C146.868 78.3007 146.772 77.967 146.772 77.603C146.772 77.239 146.868 76.9097 147.058 76.615C147.258 76.3117 147.518 76.0733 147.838 75.9C148.159 75.7267 148.519 75.64 148.917 75.64C149.316 75.64 149.676 75.7267 149.996 75.9C150.326 76.0733 150.586 76.3117 150.776 76.615C150.967 76.9097 151.062 77.239 151.062 77.603C151.062 77.967 150.967 78.3007 150.776 78.604C150.586 78.8987 150.326 79.137 149.996 79.319C149.676 79.4923 149.316 79.579 148.917 79.579ZM148.917 78.708C149.091 78.708 149.247 78.656 149.385 78.552C149.524 78.448 149.632 78.3137 149.71 78.149C149.797 77.9843 149.84 77.8067 149.84 77.616C149.84 77.408 149.797 77.2217 149.71 77.057C149.624 76.8923 149.511 76.7623 149.372 76.667C149.234 76.563 149.082 76.511 148.917 76.511C148.744 76.511 148.588 76.563 148.449 76.667C148.311 76.7623 148.198 76.8923 148.111 77.057C148.033 77.2217 147.994 77.4037 147.994 77.603C147.994 77.8023 148.038 77.9887 148.124 78.162C148.211 78.3267 148.324 78.461 148.462 78.565C148.601 78.6603 148.753 78.708 148.917 78.708ZM153.935 85.13C153.537 85.13 153.177 85.0433 152.856 84.87C152.536 84.6967 152.276 84.4627 152.076 84.168C151.886 83.8647 151.79 83.531 151.79 83.167C151.79 82.7943 151.886 82.4607 152.076 82.166C152.276 81.8713 152.536 81.6373 152.856 81.464C153.177 81.282 153.537 81.191 153.935 81.191C154.334 81.191 154.694 81.282 155.014 81.464C155.344 81.6373 155.604 81.8713 155.794 82.166C155.985 82.4607 156.08 82.79 156.08 83.154C156.08 83.518 155.985 83.8517 155.794 84.155C155.604 84.4497 155.344 84.688 155.014 84.87C154.694 85.0433 154.334 85.13 153.935 85.13ZM153.935 84.259C154.109 84.259 154.265 84.207 154.403 84.103C154.542 83.999 154.65 83.8647 154.728 83.7C154.815 83.5353 154.858 83.3577 154.858 83.167C154.858 82.959 154.815 82.7727 154.728 82.608C154.65 82.4433 154.538 82.3133 154.39 82.218C154.252 82.114 154.1 82.062 153.935 82.062C153.771 82.062 153.615 82.114 153.467 82.218C153.329 82.3133 153.216 82.4477 153.129 82.621C153.051 82.7857 153.012 82.9633 153.012 83.154C153.012 83.362 153.056 83.5483 153.142 83.713C153.229 83.8777 153.342 84.012 153.48 84.116C153.619 84.2113 153.771 84.259 153.935 84.259ZM147.513 84.389L151.166 80.112L154.546 75.666L155.339 76.368L151.777 80.58L148.293 85.091L147.513 84.389Z" fill="#6C9165"/>
<circle cx="56.5" cy="72.5" r="14.5" fill="url(#paint0_linear_923_2)"/>
<path d="M61.8216 65.2982V72.1159C61.8214 72.1804 61.7957 72.2422 61.7501 72.2879C61.7045 72.3335 61.6427 72.3592 61.5781 72.3594C61.5461 72.3597 61.5143 72.3536 61.4846 72.3415C61.4549 72.3294 61.4279 72.3115 61.4053 72.2888C61.3826 72.2661 61.3647 72.2391 61.3525 72.2095C61.3404 72.1798 61.3343 72.148 61.3347 72.1159V65.5417H53.056V67.2461C53.0563 67.2782 53.0502 67.31 53.0381 67.3397C53.026 67.3693 53.0081 67.3963 52.9854 67.419C52.9627 67.4417 52.9358 67.4596 52.9061 67.4717C52.8764 67.4838 52.8446 67.4899 52.8125 67.4896H51.1081V78.6901H56.7084C56.7729 78.6901 56.8349 78.7158 56.8805 78.7614C56.9262 78.8071 56.9518 78.869 56.9518 78.9336C56.9518 78.9982 56.9262 79.0601 56.8805 79.1058C56.8349 79.1514 56.7729 79.1771 56.7084 79.1771H50.8646C50.8325 79.1774 50.8007 79.1713 50.7711 79.1592C50.7414 79.1471 50.7144 79.1292 50.6917 79.1065C50.6691 79.0838 50.6511 79.0568 50.639 79.0272C50.6269 78.9975 50.6208 78.9657 50.6211 78.9336V67.2461C50.6207 67.2142 50.627 67.1825 50.6396 67.1531C50.6521 67.1238 50.6707 67.0974 50.6942 67.0757L52.6421 65.1278C52.6638 65.1043 52.6902 65.0857 52.7196 65.0732C52.7489 65.0606 52.7806 65.0543 52.8125 65.0547H61.5781C61.6101 65.0543 61.6418 65.0606 61.6711 65.0732C61.7005 65.0857 61.7269 65.1043 61.7486 65.1278C61.772 65.1495 61.7906 65.1759 61.8032 65.2052C61.8158 65.2346 61.822 65.2663 61.8216 65.2982Z" fill="white"/>
<path d="M54.2734 68.4629H52.3255C52.2935 68.4626 52.2617 68.4687 52.232 68.4808C52.2023 68.4929 52.1753 68.5108 52.1527 68.5335C52.13 68.5562 52.1121 68.5832 52.0999 68.6128C52.0878 68.6425 52.0817 68.6743 52.082 68.7064V70.6543C52.0817 70.6864 52.0878 70.7182 52.0999 70.7479C52.1121 70.7775 52.13 70.8045 52.1527 70.8272C52.1753 70.8499 52.2023 70.8678 52.232 70.8799C52.2617 70.892 52.2935 70.8981 52.3255 70.8978H54.2734C54.3055 70.8981 54.3373 70.892 54.367 70.8799C54.3967 70.8678 54.4237 70.8499 54.4463 70.8272C54.469 70.8045 54.4869 70.7775 54.499 70.7479C54.5112 70.7182 54.5173 70.6864 54.5169 70.6543V68.7064C54.5173 68.6743 54.5112 68.6425 54.4991 68.6128C54.4869 68.5832 54.469 68.5562 54.4463 68.5335C54.4237 68.5108 54.3967 68.4929 54.367 68.4808C54.3373 68.4687 54.3055 68.4626 54.2734 68.4629ZM54.03 70.4108H52.569V68.9499H54.03V70.4108Z" fill="white"/>
<path d="M60.1172 69.4372H55.2474C55.1828 69.4372 55.1209 69.4115 55.0752 69.3659C55.0296 69.3202 55.0039 69.2583 55.0039 69.1937C55.0039 69.1291 55.0296 69.0672 55.0752 69.0215C55.1209 68.9758 55.1828 68.9502 55.2474 68.9502H60.1172C60.1818 68.9502 60.2437 68.9758 60.2894 69.0215C60.335 69.0672 60.3607 69.1291 60.3607 69.1937C60.3607 69.2583 60.335 69.3202 60.2894 69.3659C60.2437 69.4115 60.1818 69.4372 60.1172 69.4372Z" fill="white"/>
<path d="M59.1432 70.4108H55.2474C55.1828 70.4108 55.1209 70.3852 55.0752 70.3395C55.0296 70.2938 55.0039 70.2319 55.0039 70.1673C55.0039 70.1027 55.0296 70.0408 55.0752 69.9951C55.1209 69.9495 55.1828 69.9238 55.2474 69.9238H59.1432C59.2078 69.9238 59.2697 69.9495 59.3154 69.9951C59.3611 70.0408 59.3867 70.1027 59.3867 70.1673C59.3867 70.2319 59.3611 70.2938 59.3154 70.3395C59.2697 70.3852 59.2078 70.4108 59.1432 70.4108Z" fill="white"/>
<path d="M54.2734 71.8721H52.3255C52.2935 71.8718 52.2617 71.8778 52.232 71.89C52.2023 71.9021 52.1753 71.92 52.1527 71.9427C52.13 71.9654 52.1121 71.9923 52.0999 72.022C52.0878 72.0517 52.0817 72.0835 52.082 72.1156V74.0635C52.0817 74.0956 52.0878 74.1274 52.0999 74.157C52.1121 74.1867 52.13 74.2137 52.1527 74.2364C52.1753 74.259 52.2023 74.277 52.232 74.2891C52.2617 74.3012 52.2935 74.3073 52.3255 74.307H54.2734C54.3055 74.3073 54.3373 74.3012 54.367 74.2891C54.3967 74.277 54.4237 74.259 54.4463 74.2364C54.469 74.2137 54.4869 74.1867 54.499 74.157C54.5112 74.1274 54.5173 74.0956 54.5169 74.0635V72.1156C54.5173 72.0835 54.5112 72.0517 54.4991 72.022C54.4869 71.9923 54.469 71.9654 54.4463 71.9427C54.4237 71.92 54.3967 71.9021 54.367 71.89C54.3373 71.8778 54.3055 71.8718 54.2734 71.8721ZM54.03 73.82H52.569V72.3591H54.03V73.82Z" fill="white"/>
<path d="M60.1172 72.8464H55.2474C55.1828 72.8464 55.1209 72.8207 55.0752 72.775C55.0296 72.7294 55.0039 72.6674 55.0039 72.6029C55.0039 72.5383 55.0296 72.4764 55.0752 72.4307C55.1209 72.385 55.1828 72.3594 55.2474 72.3594H60.1172C60.1818 72.3594 60.2437 72.385 60.2894 72.4307C60.335 72.4764 60.3607 72.5383 60.3607 72.6029C60.3607 72.6674 60.335 72.7294 60.2894 72.775C60.2437 72.8207 60.1818 72.8464 60.1172 72.8464Z" fill="white"/>
<path d="M59.1432 73.82H55.2474C55.1828 73.82 55.1209 73.7943 55.0752 73.7487C55.0296 73.703 55.0039 73.6411 55.0039 73.5765C55.0039 73.5119 55.0296 73.45 55.0752 73.4043C55.1209 73.3587 55.1828 73.333 55.2474 73.333H59.1432C59.2078 73.333 59.2697 73.3587 59.3154 73.4043C59.3611 73.45 59.3867 73.5119 59.3867 73.5765C59.3867 73.6411 59.3611 73.703 59.3154 73.7487C59.2697 73.7943 59.2078 73.82 59.1432 73.82Z" fill="white"/>
<path d="M54.2734 75.2813H52.3255C52.2935 75.2809 52.2617 75.287 52.232 75.2991C52.2023 75.3113 52.1753 75.3292 52.1527 75.3519C52.13 75.3745 52.1121 75.4015 52.0999 75.4312C52.0878 75.4609 52.0817 75.4927 52.082 75.5248V77.4727C52.0817 77.5047 52.0878 77.5365 52.0999 77.5662C52.1121 77.5959 52.13 77.6229 52.1527 77.6455C52.1753 77.6682 52.2023 77.6861 52.232 77.6983C52.2617 77.7104 52.2935 77.7165 52.3255 77.7162H54.2734C54.3055 77.7165 54.3373 77.7104 54.367 77.6983C54.3967 77.6861 54.4237 77.6682 54.4463 77.6455C54.469 77.6229 54.4869 77.5959 54.499 77.5662C54.5112 77.5365 54.5173 77.5047 54.5169 77.4727V75.5248C54.5173 75.4927 54.5112 75.4609 54.4991 75.4312C54.4869 75.4015 54.469 75.3745 54.4463 75.3519C54.4237 75.3292 54.3967 75.3113 54.367 75.2991C54.3373 75.287 54.3055 75.2809 54.2734 75.2813ZM54.03 77.2292H52.569V75.7682H54.03V77.2292Z" fill="white"/>
<path d="M57.1953 76.2546H55.2474C55.1828 76.2546 55.1209 76.2289 55.0752 76.1832C55.0296 76.1376 55.0039 76.0756 55.0039 76.0111C55.0039 75.9465 55.0296 75.8846 55.0752 75.8389C55.1209 75.7932 55.1828 75.7676 55.2474 75.7676H57.1953C57.2599 75.7676 57.3218 75.7932 57.3675 75.8389C57.4131 75.8846 57.4388 75.9465 57.4388 76.0111C57.4388 76.0756 57.4131 76.1376 57.3675 76.1832C57.3218 76.2289 57.2599 76.2546 57.1953 76.2546Z" fill="white"/>
<path d="M56.2214 77.2292H55.2474C55.1828 77.2292 55.1209 77.2035 55.0752 77.1579C55.0296 77.1122 55.0039 77.0503 55.0039 76.9857C55.0039 76.9211 55.0296 76.8592 55.0752 76.8135C55.1209 76.7678 55.1828 76.7422 55.2474 76.7422H56.2214C56.2859 76.7422 56.3479 76.7678 56.3935 76.8135C56.4392 76.8592 56.4648 76.9211 56.4648 76.9857C56.4648 77.0503 56.4392 77.1122 56.3935 77.1579C56.3479 77.2035 56.2859 77.2292 56.2214 77.2292Z" fill="white"/>
<path d="M63.4663 74.9551L59.3124 79.1042C59.2907 79.1276 59.2643 79.1462 59.2349 79.1588C59.2056 79.1714 59.1739 79.1777 59.1419 79.1773H57.681C57.6489 79.1776 57.6171 79.1715 57.5875 79.1594C57.5578 79.1472 57.5308 79.1293 57.5081 79.1066C57.4855 79.084 57.4675 79.057 57.4554 79.0273C57.4433 78.9976 57.4372 78.9658 57.4375 78.9338V77.4728C57.4371 77.4409 57.4434 77.4092 57.456 77.3799C57.4686 77.3505 57.4872 77.3241 57.5106 77.3024L61.6645 73.1533L62.0054 73.4942L62.395 73.8838L58.4845 77.7894C58.4614 77.8113 58.4431 77.8378 58.4305 77.8671C58.418 77.8964 58.4115 77.9279 58.4115 77.9598C58.4115 77.9917 58.418 78.0232 58.4305 78.0525C58.4431 78.0818 58.4614 78.1083 58.4845 78.1302C58.5065 78.1533 58.5329 78.1717 58.5622 78.1843C58.5915 78.1968 58.6231 78.2033 58.655 78.2033C58.6868 78.2033 58.7184 78.1968 58.7477 78.1843C58.777 78.1717 58.8034 78.1533 58.8254 78.1302L62.7359 74.2247L63.1206 74.6094L63.4663 74.9551Z" fill="white"/>
<path d="M64.3697 74.049L63.8096 74.609L62.0078 72.8072L62.5678 72.2472C62.6861 72.1289 62.8266 72.035 62.9812 71.971C63.1358 71.907 63.3014 71.874 63.4687 71.874C63.6361 71.874 63.8017 71.907 63.9563 71.971C64.1109 72.035 64.2514 72.1289 64.3697 72.2472C64.488 72.3655 64.5818 72.506 64.6458 72.6605C64.7099 72.8151 64.7428 72.9808 64.7428 73.1481C64.7428 73.3154 64.7099 73.4811 64.6458 73.6357C64.5818 73.7903 64.488 73.9307 64.3697 74.049Z" fill="white"/>
<path d="M29.1511 72.8084C29.2955 72.7876 29.3955 72.6536 29.3746 72.5093L29.0343 70.1575C29.0134 70.0131 28.8795 69.9131 28.7351 69.9339C28.5908 69.9548 28.4908 70.0888 28.5116 70.2331L28.8142 72.3236L26.7236 72.6262C26.5793 72.6471 26.4792 72.781 26.5001 72.9253C26.521 73.0696 26.6549 73.1697 26.7993 73.1488L29.1511 72.8084ZM17.4171 0.865867C17.1253 1.36069 16.8392 1.85394 16.5588 2.34562L17.0176 2.60719C17.2966 2.11779 17.5814 1.62677 17.872 1.13413L17.4171 0.865867ZM14.9209 5.3245C14.3826 6.34147 13.8699 7.35164 13.3827 8.35509L13.8578 8.58571C14.3422 7.58798 14.8521 6.58327 15.3876 5.57152L14.9209 5.3245ZM11.9575 11.4383C11.4935 12.4962 11.059 13.5465 10.6542 14.5893L11.1465 14.7804C11.5485 13.7449 11.98 12.7017 12.4411 11.6505L11.9575 11.4383ZM9.49639 17.7937C9.13122 18.887 8.8 19.9719 8.50301 21.0486L9.01208 21.189C9.30649 20.1217 9.63496 19.0458 9.99727 17.961L9.49639 17.7937ZM7.69288 24.3571C7.45219 25.4857 7.25067 26.605 7.08869 27.7151L7.61124 27.7913C7.77151 26.693 7.97097 25.585 8.20935 24.4673L7.69288 24.3571ZM6.71554 31.1004C6.63082 32.2481 6.59023 33.3858 6.59417 34.5134L7.12225 34.5116C7.11836 33.3978 7.15845 32.2738 7.24218 31.1393L6.71554 31.1004ZM6.74462 37.9211C6.84222 39.0604 6.98738 40.1892 7.1805 41.3076L7.70088 41.2178C7.51035 40.1144 7.36711 39.0005 7.27077 37.876L6.74462 37.9211ZM7.90728 44.6435C8.1968 45.7401 8.53458 46.8263 8.92099 47.9022L9.41799 47.7237C9.03671 46.662 8.70347 45.5905 8.41786 44.5087L7.90728 44.6435ZM10.2107 51.0649C10.6788 52.0879 11.1928 53.1013 11.753 54.1052L12.2142 53.8479C11.6606 52.856 11.153 51.8551 10.691 50.8452L10.2107 51.0649ZM13.5279 57.0204C14.145 57.9546 14.804 58.8804 15.5051 59.7978L15.9247 59.4772C15.2307 58.5691 14.5788 57.6532 13.9685 56.7294L13.5279 57.0204ZM17.6575 62.4363C18.3901 63.28 19.1599 64.1165 19.9669 64.9459L20.3454 64.5776C19.5451 63.7551 18.7821 62.926 18.0563 62.0901L17.6575 62.4363ZM22.4066 67.3261C23.2224 68.083 24.0705 68.834 24.9511 69.579L25.2922 69.1758C24.4175 68.4358 23.5754 67.6903 22.7658 66.939L22.4066 67.3261ZM27.593 71.7204C28.0397 72.0678 28.4938 72.4139 28.9553 72.7586L29.2714 72.3356C28.8126 71.9928 28.3612 71.6488 27.9171 71.3035L27.593 71.7204ZM29.189 73.0698C29.4776 73.028 29.6777 72.7601 29.636 72.4715L28.9552 67.7678C28.9135 67.4791 28.6456 67.279 28.357 67.3208C28.0683 67.3625 27.8682 67.6304 27.91 67.919L28.515 72.1001L24.3339 72.7052C24.0453 72.747 23.8452 73.0148 23.8869 73.3035C23.9287 73.5921 24.1966 73.7923 24.4852 73.7505L29.189 73.0698ZM17.1897 0.731734C16.8972 1.22765 16.6104 1.72202 16.3295 2.21484L17.247 2.73797C17.5253 2.24971 17.8095 1.75981 18.0994 1.26827L17.1897 0.731734ZM14.6875 5.20099C14.1479 6.22057 13.6337 7.23348 13.1452 8.23977L14.0953 8.70103C14.5783 7.70615 15.0869 6.70417 15.621 5.69503L14.6875 5.20099ZM11.7157 11.3323C11.2502 12.3935 10.8143 13.4473 10.4081 14.4937L11.3927 14.8759C11.7932 13.8441 12.2233 12.8044 12.6829 11.7565L11.7157 11.3323ZM9.24595 17.7101C8.87935 18.8077 8.54675 19.8971 8.24848 20.9784L9.26662 21.2592C9.55973 20.1966 9.88683 19.1251 10.2477 18.0447L9.24595 17.7101ZM7.43465 24.302C7.1928 25.4361 6.99026 26.561 6.82742 27.677L7.87251 27.8295C8.03193 26.737 8.23036 25.6346 8.46758 24.5223L7.43465 24.302ZM6.45221 31.081C6.36701 32.2353 6.32617 33.3797 6.33014 34.5144L7.38629 34.5107C7.38242 33.4039 7.42226 32.2866 7.50551 31.1587L6.45221 31.081ZM6.48154 37.9436C6.57978 39.0904 6.72589 40.2266 6.92031 41.3526L7.96107 41.1729C7.77183 40.077 7.62955 38.9706 7.53385 37.8535L6.48154 37.9436ZM7.65199 44.7109C7.94346 45.8149 8.28351 46.9084 8.67249 47.9914L9.66649 47.6344C9.28778 46.5799 8.95681 45.5156 8.67315 44.4413L7.65199 44.7109ZM9.97064 51.1747C10.4416 52.2043 10.9588 53.2239 11.5225 54.2339L12.4447 53.7192C11.8945 52.7333 11.3901 51.7388 10.9311 50.7353L9.97064 51.1747ZM13.3076 57.166C13.9281 58.1054 14.5906 59.036 15.2953 59.9582L16.1345 59.3169C15.4441 58.4134 14.7957 57.5024 14.1888 56.5838L13.3076 57.166ZM17.4582 62.6095C18.1942 63.457 18.9673 64.2972 19.7777 65.13L20.5346 64.3935C19.7377 63.5744 18.9781 62.749 18.2556 61.917L17.4582 62.6095ZM22.227 67.5197C23.0458 68.2794 23.897 69.033 24.7806 69.7806L25.4627 68.9742C24.591 68.2368 23.752 67.4939 22.9454 66.7454L22.227 67.5197ZM27.4309 71.9289C27.879 72.2773 28.3345 72.6244 28.7972 72.9702L29.4294 72.1241C28.9719 71.7823 28.5219 71.4393 28.0792 71.0951L27.4309 71.9289Z" fill="#4E869F"/>
<defs>
<linearGradient id="paint0_linear_923_2" x1="71" y1="87" x2="38.5804" y2="82.4694" gradientUnits="userSpaceOnUse">
<stop stop-color="#6C9165"/>
<stop offset="0.461458" stop-color="#90B589"/>
<stop offset="1" stop-color="#6C9165"/>
</linearGradient>
</defs>
</svg>
