<svg width="16" height="17" viewBox="0 0 16 17" fill="none" xmlns="http://www.w3.org/2000/svg">
<path d="M8.01689 4.54395C7.84046 4.54395 7.67125 4.61403 7.54649 4.73879C7.42173 4.86355 7.35164 5.03276 7.35164 5.2092V5.80127C6.89197 5.89102 6.48217 6.14871 6.20213 6.52412C5.92209 6.89954 5.79187 7.36577 5.83684 7.83197C5.88181 8.29816 6.09875 8.7309 6.44539 9.04586C6.79203 9.36083 7.24352 9.53543 7.71188 9.53566H8.32191C8.46658 9.53921 8.60412 9.59916 8.70519 9.70273C8.80625 9.8063 8.86282 9.94527 8.86282 10.09C8.86282 10.2347 8.80625 10.3737 8.70519 10.4772C8.60412 10.5808 8.46658 10.6408 8.32191 10.6443H8.03951C8.03186 10.6443 8.02454 10.642 8.01689 10.642C8.00924 10.642 8.00193 10.6443 7.99428 10.6443H6.79682C6.62039 10.6443 6.45118 10.7144 6.32642 10.8392C6.20166 10.9639 6.13157 11.1331 6.13157 11.3096C6.13157 11.486 6.20166 11.6552 6.32642 11.78C6.45118 11.9047 6.62039 11.9748 6.79682 11.9748H7.35164V12.527C7.35164 12.7034 7.42173 12.8726 7.54649 12.9974C7.67125 13.1221 7.84046 13.1922 8.01689 13.1922C8.19333 13.1922 8.36254 13.1221 8.4873 12.9974C8.61206 12.8726 8.68215 12.7034 8.68215 12.527V11.9395C9.14182 11.8498 9.55161 11.5921 9.83166 11.2167C10.1117 10.8413 10.2419 10.375 10.197 9.90885C10.152 9.44266 9.93504 9.00991 9.5884 8.69495C9.24176 8.37999 8.79027 8.20538 8.32191 8.20516H7.71188C7.56721 8.20161 7.42967 8.14166 7.3286 8.03809C7.22754 7.93452 7.17097 7.79554 7.17097 7.65084C7.17097 7.50613 7.22754 7.36716 7.3286 7.26359C7.42967 7.16002 7.56721 7.10006 7.71188 7.09652H9.23663C9.41307 7.09652 9.58228 7.02643 9.70704 6.90167C9.8318 6.77691 9.90188 6.6077 9.90188 6.43126C9.90188 6.25483 9.8318 6.08562 9.70704 5.96086C9.58228 5.8361 9.41307 5.76601 9.23663 5.76601H8.68215V5.2092C8.68215 5.03276 8.61206 4.86355 8.4873 4.73879C8.36254 4.61403 8.19333 4.54395 8.01689 4.54395Z" fill="white"/>
<path d="M10.8377 1.37482L11.0706 1.25475C11.2272 1.17341 11.345 1.0332 11.3982 0.864962C11.4514 0.696725 11.4356 0.514241 11.3543 0.357654C11.273 0.201067 11.1328 0.0832049 10.9645 0.0299952C10.7963 -0.0232145 10.6138 -0.00741286 10.4572 0.073924L8.69495 0.988313C8.61732 1.02861 8.54839 1.08382 8.49211 1.15079C8.43583 1.21775 8.39332 1.29516 8.36699 1.37858C8.34067 1.462 8.33106 1.54979 8.33871 1.63693C8.34635 1.72407 8.37111 1.80884 8.41156 1.8864L9.32595 3.64599C9.36457 3.72627 9.41891 3.79796 9.48576 3.85684C9.55262 3.91571 9.63061 3.96056 9.71512 3.98872C9.79963 4.01688 9.88894 4.02778 9.97774 4.02077C10.0665 4.01377 10.153 3.989 10.2321 3.94794C10.3111 3.90688 10.3811 3.85036 10.4379 3.78173C10.4947 3.7131 10.5372 3.63377 10.5627 3.54844C10.5883 3.4631 10.5964 3.3735 10.5867 3.28496C10.577 3.19641 10.5496 3.11072 10.5061 3.03296L10.2733 2.58159C11.7606 3.12189 13.0062 4.17562 13.7854 5.55293C14.5647 6.93024 14.8265 8.54057 14.5236 10.0938C14.2207 11.647 13.373 13.041 12.1333 14.0246C10.8937 15.0081 9.34347 15.5167 7.76206 15.4585C6.18066 15.4003 4.67201 14.7793 3.50794 13.7073C2.34387 12.6353 1.60092 11.1828 1.41293 9.61158C1.22495 8.04031 1.6043 6.45356 2.48263 5.13721C3.36097 3.82087 4.68053 2.86148 6.20359 2.43191C6.37341 2.38374 6.51714 2.27009 6.60316 2.11595C6.68918 1.96181 6.71045 1.77981 6.66228 1.60999C6.61411 1.44017 6.50046 1.29644 6.34632 1.21042C6.19218 1.1244 6.01018 1.10313 5.84036 1.1513C4.00879 1.66481 2.42013 2.81414 1.35938 4.39311C0.298628 5.97209 -0.164786 7.87736 0.0522696 9.76713C0.269326 11.6569 1.15265 13.4075 2.54377 14.7048C3.93489 16.0022 5.74276 16.7614 7.64306 16.8463C9.54336 16.9312 11.4117 16.3361 12.913 15.168C14.4142 13.9998 15.4501 12.3349 15.8347 10.472C16.2194 8.60911 15.9276 6.67011 15.0119 5.00286C14.0961 3.33561 12.6162 2.04923 10.8377 1.37449V1.37482Z" fill="white"/>
</svg>
