<svg width="14" height="18" viewBox="0 0 14 18" fill="none" xmlns="http://www.w3.org/2000/svg">
<path d="M12.9027 7.33613H12.7514V5.7479C12.7514 2.57143 10.1784 0 7 0C3.82162 0 1.24865 2.57143 1.24865 5.7479V7.33613H1.0973C0.491892 7.33613 0 7.82773 0 8.43277V16.9034C0 17.5084 0.491892 18 1.0973 18H12.9027C13.5081 18 14 17.5084 14 16.9034V8.43277C14 7.82773 13.5081 7.33613 12.9027 7.33613ZM7.98378 12.5168V15.1639C7.98378 15.3529 7.83243 15.542 7.6054 15.542H6.35676C6.16757 15.542 5.97838 15.3908 5.97838 15.1639V12.5168C5.67568 12.2521 5.48649 11.8361 5.48649 11.3824C5.48649 10.626 6.12973 9.98319 6.88649 9.94538C7.75676 9.90756 8.43784 10.5882 8.43784 11.4202C8.47568 11.8361 8.28649 12.2521 7.98378 12.5168ZM10.5189 7.33613H3.48108V5.7479C3.48108 3.78151 5.07027 2.23109 7 2.23109C8.96757 2.23109 10.5189 3.81933 10.5189 5.7479V7.33613Z" fill="#BFBFBF"/>
</svg>
