<svg width="15" height="19" viewBox="0 0 15 19" fill="none" xmlns="http://www.w3.org/2000/svg">
<path d="M13.0248 7.48457H12.8734V5.89634C12.8734 2.71987 10.3004 0.148438 7.12207 0.148438C3.94369 0.148438 1.37072 2.71987 1.37072 5.89634V7.48457H1.21937C0.613963 7.48457 0.12207 7.97617 0.12207 8.58121V17.0518C0.12207 17.6568 0.613963 18.1484 1.21937 18.1484H13.0248C13.6302 18.1484 14.1221 17.6568 14.1221 17.0518V8.58121C14.1221 7.97617 13.6302 7.48457 13.0248 7.48457ZM8.10585 12.6652V15.3123C8.10585 15.5014 7.9545 15.6905 7.72748 15.6905H6.47883C6.28964 15.6905 6.10045 15.5392 6.10045 15.3123V12.6652C5.79775 12.4005 5.60856 11.9846 5.60856 11.5308C5.60856 10.7745 6.2518 10.1316 7.00856 10.0938C7.87883 10.056 8.55991 10.7367 8.55991 11.5686C8.59775 11.9846 8.40856 12.4005 8.10585 12.6652ZM10.641 7.48457H3.60315V5.89634C3.60315 3.92995 5.19234 2.37953 7.12207 2.37953C9.08964 2.37953 10.641 3.96777 10.641 5.89634V7.48457Z" fill="#6C9165"/>
</svg>
