<svg xmlns="http://www.w3.org/2000/svg" width="17" height="18" viewBox="0 0 17 18" fill="none">
  <path d="M16.5542 12.821L14.1768 10.4486C13.3278 9.60131 11.8843 9.94026 11.5447 11.0417C11.29 11.8043 10.4409 12.2279 9.67676 12.0584C7.97862 11.6348 5.68613 9.43186 5.2616 7.65256C5.00688 6.88997 5.51632 6.04269 6.28048 5.78853C7.38427 5.44962 7.7239 4.00923 6.87483 3.16195L4.49744 0.789551C3.81818 0.196452 2.7993 0.196452 2.20495 0.789551L0.591722 2.39939C-1.02151 4.09396 0.761536 8.58457 4.75216 12.5668C8.74278 16.5491 13.2428 18.4131 14.941 16.7185L16.5542 15.1087C17.1486 14.4308 17.1486 13.4141 16.5542 12.821Z" fill="#58A4C3"/>
</svg>