<svg width="248" height="69" viewBox="0 0 248 69" fill="none" xmlns="http://www.w3.org/2000/svg">
<path d="M91.053 44V34.77H96.552V36.057H92.509V44H91.053ZM101.6 44.13C101.054 44.13 100.573 44 100.157 43.74C99.7409 43.48 99.4115 43.142 99.1689 42.726V46.769H97.7389V37.201H98.9999V38.423C99.2599 38.0157 99.5979 37.6907 100.014 37.448C100.43 37.2053 100.894 37.084 101.405 37.084C101.873 37.084 102.302 37.1793 102.692 37.37C103.082 37.552 103.42 37.8077 103.706 38.137C103.992 38.4663 104.213 38.8433 104.369 39.268C104.534 39.684 104.616 40.126 104.616 40.594C104.616 41.244 104.486 41.8377 104.226 42.375C103.975 42.9123 103.619 43.3413 103.16 43.662C102.709 43.974 102.189 44.13 101.6 44.13ZM101.132 42.908C101.435 42.908 101.708 42.843 101.951 42.713C102.202 42.583 102.415 42.4097 102.588 42.193C102.77 41.9763 102.909 41.7293 103.004 41.452C103.099 41.1747 103.147 40.8887 103.147 40.594C103.147 40.282 103.095 39.9873 102.991 39.71C102.887 39.4327 102.735 39.19 102.536 38.982C102.345 38.774 102.12 38.6093 101.86 38.488C101.609 38.3667 101.331 38.306 101.028 38.306C100.846 38.306 100.655 38.3407 100.456 38.41C100.257 38.4793 100.07 38.5747 99.8969 38.696C99.7235 38.8173 99.5719 38.9603 99.4419 39.125C99.3119 39.2897 99.2209 39.463 99.1689 39.645V41.426C99.2902 41.7033 99.4505 41.9547 99.6499 42.18C99.8492 42.3967 100.079 42.5743 100.339 42.713C100.599 42.843 100.863 42.908 101.132 42.908ZM105.408 42.011C105.408 41.5777 105.529 41.2007 105.772 40.88C106.023 40.5507 106.366 40.2993 106.799 40.126C107.232 39.944 107.735 39.853 108.307 39.853C108.61 39.853 108.918 39.8747 109.23 39.918C109.551 39.9613 109.832 40.0307 110.075 40.126V39.697C110.075 39.2203 109.932 38.8477 109.646 38.579C109.36 38.3103 108.948 38.176 108.411 38.176C108.03 38.176 107.67 38.2453 107.332 38.384C106.994 38.514 106.634 38.7003 106.253 38.943L105.772 37.981C106.223 37.6777 106.673 37.4523 107.124 37.305C107.583 37.1577 108.064 37.084 108.567 37.084C109.477 37.084 110.192 37.3267 110.712 37.812C111.241 38.2887 111.505 38.969 111.505 39.853V42.388C111.505 42.5527 111.531 42.6697 111.583 42.739C111.644 42.8083 111.743 42.8473 111.882 42.856V44C111.752 44.026 111.635 44.0433 111.531 44.052C111.427 44.0607 111.34 44.065 111.271 44.065C110.968 44.065 110.738 43.9913 110.582 43.844C110.426 43.6967 110.335 43.5233 110.309 43.324L110.27 42.934C109.975 43.3153 109.598 43.61 109.139 43.818C108.68 44.026 108.216 44.13 107.748 44.13C107.297 44.13 106.894 44.039 106.539 43.857C106.184 43.6663 105.906 43.4107 105.707 43.09C105.508 42.7693 105.408 42.4097 105.408 42.011ZM109.737 42.427C109.841 42.3143 109.923 42.2017 109.984 42.089C110.045 41.9763 110.075 41.8767 110.075 41.79V41.01C109.832 40.9147 109.577 40.8453 109.308 40.802C109.039 40.75 108.775 40.724 108.515 40.724C107.995 40.724 107.57 40.828 107.241 41.036C106.92 41.244 106.76 41.53 106.76 41.894C106.76 42.0933 106.812 42.284 106.916 42.466C107.029 42.648 107.185 42.7953 107.384 42.908C107.592 43.0207 107.848 43.077 108.151 43.077C108.463 43.077 108.762 43.0163 109.048 42.895C109.334 42.7737 109.564 42.6177 109.737 42.427ZM116.399 46.769V44H116.165C115.463 44 114.861 43.844 114.358 43.532C113.855 43.22 113.47 42.8083 113.201 42.297C112.932 41.777 112.798 41.2137 112.798 40.607C112.798 40.0003 112.932 39.4413 113.201 38.93C113.478 38.41 113.868 37.994 114.371 37.682C114.874 37.37 115.472 37.214 116.165 37.214H116.399V34.51H117.829V37.214H118.063C118.756 37.214 119.354 37.37 119.857 37.682C120.36 37.994 120.745 38.41 121.014 38.93C121.291 39.4413 121.43 40.0003 121.43 40.607C121.43 41.2137 121.296 41.777 121.027 42.297C120.758 42.8083 120.373 43.22 119.87 43.532C119.367 43.844 118.765 44 118.063 44H117.829V46.769H116.399ZM116.165 42.843H116.464V38.371H116.165C115.784 38.371 115.446 38.4707 115.151 38.67C114.856 38.8693 114.622 39.138 114.449 39.476C114.284 39.814 114.202 40.1953 114.202 40.62C114.202 41.0447 114.284 41.426 114.449 41.764C114.614 42.102 114.843 42.3663 115.138 42.557C115.433 42.7477 115.775 42.843 116.165 42.843ZM117.751 42.843H118.063C118.453 42.843 118.795 42.7477 119.09 42.557C119.385 42.3663 119.614 42.102 119.779 41.764C119.952 41.426 120.039 41.0447 120.039 40.62C120.039 40.1953 119.952 39.814 119.779 39.476C119.614 39.138 119.385 38.8693 119.09 38.67C118.795 38.4707 118.453 38.371 118.063 38.371H117.751V42.843ZM122.698 44V37.214H124.128V42.089L127.573 37.201H128.873V44H127.443V39.229L124.037 44H122.698ZM130.582 44V37.201H131.999V39.892H132.675L134.677 37.201H136.263L133.78 40.49L136.549 44H134.898L132.662 41.179H131.999V44H130.582ZM144.713 44.13C144.167 44.13 143.686 44 143.27 43.74C142.854 43.48 142.525 43.142 142.282 42.726V46.769H140.852V37.201H142.113V38.423C142.373 38.0157 142.711 37.6907 143.127 37.448C143.543 37.2053 144.007 37.084 144.518 37.084C144.986 37.084 145.415 37.1793 145.805 37.37C146.195 37.552 146.533 37.8077 146.819 38.137C147.105 38.4663 147.326 38.8433 147.482 39.268C147.647 39.684 147.729 40.126 147.729 40.594C147.729 41.244 147.599 41.8377 147.339 42.375C147.088 42.9123 146.732 43.3413 146.273 43.662C145.822 43.974 145.302 44.13 144.713 44.13ZM144.245 42.908C144.548 42.908 144.821 42.843 145.064 42.713C145.315 42.583 145.528 42.4097 145.701 42.193C145.883 41.9763 146.022 41.7293 146.117 41.452C146.212 41.1747 146.26 40.8887 146.26 40.594C146.26 40.282 146.208 39.9873 146.104 39.71C146 39.4327 145.848 39.19 145.649 38.982C145.458 38.774 145.233 38.6093 144.973 38.488C144.722 38.3667 144.444 38.306 144.141 38.306C143.959 38.306 143.768 38.3407 143.569 38.41C143.37 38.4793 143.183 38.5747 143.01 38.696C142.837 38.8173 142.685 38.9603 142.555 39.125C142.425 39.2897 142.334 39.463 142.282 39.645V41.426C142.403 41.7033 142.564 41.9547 142.763 42.18C142.962 42.3967 143.192 42.5743 143.452 42.713C143.712 42.843 143.976 42.908 144.245 42.908ZM148.521 42.011C148.521 41.5777 148.643 41.2007 148.885 40.88C149.137 40.5507 149.479 40.2993 149.912 40.126C150.346 39.944 150.848 39.853 151.42 39.853C151.724 39.853 152.031 39.8747 152.343 39.918C152.664 39.9613 152.946 40.0307 153.188 40.126V39.697C153.188 39.2203 153.045 38.8477 152.759 38.579C152.473 38.3103 152.062 38.176 151.524 38.176C151.143 38.176 150.783 38.2453 150.445 38.384C150.107 38.514 149.748 38.7003 149.366 38.943L148.885 37.981C149.336 37.6777 149.787 37.4523 150.237 37.305C150.697 37.1577 151.178 37.084 151.68 37.084C152.59 37.084 153.305 37.3267 153.825 37.812C154.354 38.2887 154.618 38.969 154.618 39.853V42.388C154.618 42.5527 154.644 42.6697 154.696 42.739C154.757 42.8083 154.857 42.8473 154.995 42.856V44C154.865 44.026 154.748 44.0433 154.644 44.052C154.54 44.0607 154.454 44.065 154.384 44.065C154.081 44.065 153.851 43.9913 153.695 43.844C153.539 43.6967 153.448 43.5233 153.422 43.324L153.383 42.934C153.089 43.3153 152.712 43.61 152.252 43.818C151.793 44.026 151.329 44.13 150.861 44.13C150.411 44.13 150.008 44.039 149.652 43.857C149.297 43.6663 149.02 43.4107 148.82 43.09C148.621 42.7693 148.521 42.4097 148.521 42.011ZM152.85 42.427C152.954 42.3143 153.037 42.2017 153.097 42.089C153.158 41.9763 153.188 41.8767 153.188 41.79V41.01C152.946 40.9147 152.69 40.8453 152.421 40.802C152.153 40.75 151.888 40.724 151.628 40.724C151.108 40.724 150.684 40.828 150.354 41.036C150.034 41.244 149.873 41.53 149.873 41.894C149.873 42.0933 149.925 42.284 150.029 42.466C150.142 42.648 150.298 42.7953 150.497 42.908C150.705 43.0207 150.961 43.077 151.264 43.077C151.576 43.077 151.875 43.0163 152.161 42.895C152.447 42.7737 152.677 42.6177 152.85 42.427ZM159.642 44.13C158.507 44.13 157.644 43.7877 157.055 43.103C156.466 42.4183 156.171 41.439 156.171 40.165C156.171 39.333 156.24 38.631 156.379 38.059C156.526 37.4783 156.739 37.0017 157.016 36.629C157.302 36.2563 157.653 35.953 158.069 35.719C158.494 35.4763 158.983 35.2813 159.538 35.134L162.437 34.328L162.489 35.524L159.642 36.33C159.191 36.4687 158.806 36.6507 158.485 36.876C158.173 37.1013 157.926 37.396 157.744 37.76C157.562 38.1153 157.441 38.566 157.38 39.112C157.623 38.67 157.969 38.3233 158.42 38.072C158.871 37.8207 159.404 37.695 160.019 37.695C160.652 37.695 161.198 37.8293 161.657 38.098C162.116 38.358 162.472 38.722 162.723 39.19C162.974 39.658 163.1 40.1953 163.1 40.802C163.1 41.4607 162.966 42.0413 162.697 42.544C162.437 43.038 162.047 43.428 161.527 43.714C161.016 43.9913 160.387 44.13 159.642 44.13ZM159.642 42.908C160.275 42.908 160.764 42.7217 161.111 42.349C161.466 41.9763 161.644 41.4823 161.644 40.867C161.644 40.2777 161.466 39.7967 161.111 39.424C160.764 39.0427 160.275 38.852 159.642 38.852C159.269 38.852 158.931 38.9343 158.628 39.099C158.325 39.255 158.086 39.4847 157.913 39.788C157.74 40.0827 157.653 40.4423 157.653 40.867C157.653 41.2657 157.731 41.621 157.887 41.933C158.043 42.2363 158.268 42.4747 158.563 42.648C158.858 42.8213 159.217 42.908 159.642 42.908ZM167.444 44.13C166.907 44.13 166.426 44.039 166.001 43.857C165.577 43.6663 165.208 43.4063 164.896 43.077C164.593 42.7477 164.359 42.375 164.194 41.959C164.03 41.5343 163.947 41.0837 163.947 40.607C163.947 40.1303 164.03 39.6797 164.194 39.255C164.359 38.8303 164.593 38.4577 164.896 38.137C165.208 37.8077 165.577 37.552 166.001 37.37C166.435 37.1793 166.916 37.084 167.444 37.084C167.973 37.084 168.45 37.1793 168.874 37.37C169.308 37.552 169.676 37.8077 169.979 38.137C170.291 38.4577 170.53 38.8303 170.694 39.255C170.859 39.6797 170.941 40.1303 170.941 40.607C170.941 41.0837 170.859 41.5343 170.694 41.959C170.53 42.375 170.291 42.7477 169.979 43.077C169.676 43.4063 169.308 43.6663 168.874 43.857C168.45 44.039 167.973 44.13 167.444 44.13ZM165.416 40.62C165.416 41.0533 165.507 41.4433 165.689 41.79C165.871 42.1367 166.114 42.4097 166.417 42.609C166.721 42.8083 167.063 42.908 167.444 42.908C167.817 42.908 168.155 42.8083 168.458 42.609C168.77 42.401 169.017 42.1237 169.199 41.777C169.381 41.4217 169.472 41.0317 169.472 40.607C169.472 40.1737 169.381 39.7837 169.199 39.437C169.017 39.0903 168.77 38.8173 168.458 38.618C168.155 38.41 167.817 38.306 167.444 38.306C167.063 38.306 166.721 38.41 166.417 38.618C166.114 38.826 165.871 39.1033 165.689 39.45C165.507 39.788 165.416 40.178 165.416 40.62ZM173.822 44V38.462H171.573V37.201H177.514V38.462H175.252V44H173.822ZM178.583 44V37.201H180.013V39.437H181.3C182.106 39.437 182.721 39.6407 183.146 40.048C183.57 40.4553 183.783 40.9927 183.783 41.66C183.783 42.1107 183.692 42.5137 183.51 42.869C183.328 43.2243 183.059 43.5017 182.704 43.701C182.357 43.9003 181.924 44 181.404 44H178.583ZM180.013 42.895H181.183C181.469 42.895 181.698 42.843 181.872 42.739C182.045 42.6263 182.171 42.479 182.249 42.297C182.335 42.1063 182.379 41.9027 182.379 41.686C182.379 41.4693 182.34 41.2743 182.262 41.101C182.184 40.919 182.054 40.776 181.872 40.672C181.698 40.5593 181.464 40.503 181.17 40.503H180.013V42.895ZM184.901 44V37.214H186.331V44H184.901ZM194.346 44.13C193.818 44.13 193.337 44.039 192.903 43.857C192.479 43.6663 192.11 43.4063 191.798 43.077C191.486 42.7477 191.244 42.3707 191.07 41.946C190.906 41.5213 190.823 41.0707 190.823 40.594C190.823 39.9527 190.966 39.3677 191.252 38.839C191.547 38.3103 191.954 37.8857 192.474 37.565C193.003 37.2443 193.627 37.084 194.346 37.084C195.04 37.084 195.642 37.24 196.153 37.552C196.673 37.8553 197.055 38.2627 197.297 38.774L195.906 39.216C195.75 38.93 195.529 38.709 195.243 38.553C194.966 38.3883 194.658 38.306 194.32 38.306C193.939 38.306 193.592 38.4057 193.28 38.605C192.977 38.7957 192.734 39.0643 192.552 39.411C192.379 39.749 192.292 40.1433 192.292 40.594C192.292 41.0273 192.383 41.4217 192.565 41.777C192.747 42.1237 192.99 42.401 193.293 42.609C193.605 42.8083 193.952 42.908 194.333 42.908C194.567 42.908 194.793 42.869 195.009 42.791C195.235 42.7043 195.43 42.5917 195.594 42.453C195.759 42.3057 195.876 42.1453 195.945 41.972L197.349 42.388C197.202 42.726 196.981 43.025 196.686 43.285C196.4 43.545 196.058 43.753 195.659 43.909C195.269 44.0563 194.832 44.13 194.346 44.13ZM197.981 44.065V42.791C198.198 42.791 198.393 42.739 198.566 42.635C198.739 42.5223 198.891 42.3403 199.021 42.089C199.151 41.829 199.255 41.4693 199.333 41.01C199.411 40.5507 199.463 39.9657 199.489 39.255L199.58 37.201H204.429V44H202.999V38.462H200.841L200.815 39.385C200.78 40.295 200.698 41.0533 200.568 41.66C200.438 42.258 200.256 42.7347 200.022 43.09C199.797 43.4367 199.511 43.688 199.164 43.844C198.826 43.9913 198.432 44.065 197.981 44.065ZM207.054 46.886C206.898 46.886 206.734 46.8643 206.56 46.821C206.387 46.7777 206.205 46.7127 206.014 46.626L206.378 45.56C206.482 45.612 206.582 45.651 206.677 45.677C206.773 45.703 206.859 45.716 206.937 45.716C207.154 45.716 207.349 45.625 207.522 45.443C207.704 45.2697 207.865 45.0053 208.003 44.65L208.263 43.948L205.39 37.201H206.885L208.965 42.544L210.811 37.201H212.189L209.199 45.04C209.052 45.4473 208.866 45.7853 208.64 46.054C208.424 46.3227 208.181 46.5263 207.912 46.665C207.644 46.8123 207.358 46.886 207.054 46.886ZM212.76 44L215.204 40.49L212.955 37.201H214.554L216.4 39.905H217.037V37.201H218.506V39.905H219.169L220.989 37.201H222.588L220.339 40.49L222.796 44H221.171L219.169 41.153H218.506V44H217.037V41.153H216.4L214.385 44H212.76ZM227.219 44.13C226.084 44.13 225.222 43.7877 224.632 43.103C224.043 42.4183 223.748 41.439 223.748 40.165C223.748 39.333 223.818 38.631 223.956 38.059C224.104 37.4783 224.316 37.0017 224.593 36.629C224.879 36.2563 225.23 35.953 225.646 35.719C226.071 35.4763 226.561 35.2813 227.115 35.134L230.014 34.328L230.066 35.524L227.219 36.33C226.769 36.4687 226.383 36.6507 226.062 36.876C225.75 37.1013 225.503 37.396 225.321 37.76C225.139 38.1153 225.018 38.566 224.957 39.112C225.2 38.67 225.547 38.3233 225.997 38.072C226.448 37.8207 226.981 37.695 227.596 37.695C228.229 37.695 228.775 37.8293 229.234 38.098C229.694 38.358 230.049 38.722 230.3 39.19C230.552 39.658 230.677 40.1953 230.677 40.802C230.677 41.4607 230.543 42.0413 230.274 42.544C230.014 43.038 229.624 43.428 229.104 43.714C228.593 43.9913 227.965 44.13 227.219 44.13ZM227.219 42.908C227.852 42.908 228.342 42.7217 228.688 42.349C229.044 41.9763 229.221 41.4823 229.221 40.867C229.221 40.2777 229.044 39.7967 228.688 39.424C228.342 39.0427 227.852 38.852 227.219 38.852C226.847 38.852 226.509 38.9343 226.205 39.099C225.902 39.255 225.664 39.4847 225.49 39.788C225.317 40.0827 225.23 40.4423 225.23 40.867C225.23 41.2657 225.308 41.621 225.464 41.933C225.62 42.2363 225.846 42.4747 226.14 42.648C226.435 42.8213 226.795 42.908 227.219 42.908ZM231.966 44V37.201H233.396V39.437H234.683C235.489 39.437 236.105 39.6407 236.529 40.048C236.954 40.4553 237.166 40.9927 237.166 41.66C237.166 42.1107 237.075 42.5137 236.893 42.869C236.711 43.2243 236.443 43.5017 236.087 43.701C235.741 43.9003 235.307 44 234.787 44H231.966ZM233.396 42.895H234.566C234.852 42.895 235.082 42.843 235.255 42.739C235.429 42.6263 235.554 42.479 235.632 42.297C235.719 42.1063 235.762 41.9027 235.762 41.686C235.762 41.4693 235.723 41.2743 235.645 41.101C235.567 40.919 235.437 40.776 235.255 40.672C235.082 40.5593 234.848 40.503 234.553 40.503H233.396V42.895ZM238.284 44V37.214H239.714V44H238.284ZM90.858 61V54.201H96.708V61H95.278V55.462H92.288V61H90.858ZM101.492 61.13C100.955 61.13 100.474 61.039 100.049 60.857C99.6244 60.6663 99.2561 60.4063 98.9441 60.077C98.6408 59.7477 98.4068 59.375 98.2421 58.959C98.0774 58.5343 97.9951 58.0837 97.9951 57.607C97.9951 57.1303 98.0774 56.6797 98.2421 56.255C98.4068 55.8303 98.6408 55.4577 98.9441 55.137C99.2561 54.8077 99.6244 54.552 100.049 54.37C100.482 54.1793 100.963 54.084 101.492 54.084C102.021 54.084 102.497 54.1793 102.922 54.37C103.355 54.552 103.724 54.8077 104.027 55.137C104.339 55.4577 104.577 55.8303 104.742 56.255C104.907 56.6797 104.989 57.1303 104.989 57.607C104.989 58.0837 104.907 58.5343 104.742 58.959C104.577 59.375 104.339 59.7477 104.027 60.077C103.724 60.4063 103.355 60.6663 102.922 60.857C102.497 61.039 102.021 61.13 101.492 61.13ZM99.4641 57.62C99.4641 58.0533 99.5551 58.4433 99.7371 58.79C99.9191 59.1367 100.162 59.4097 100.465 59.609C100.768 59.8083 101.111 59.908 101.492 59.908C101.865 59.908 102.203 59.8083 102.506 59.609C102.818 59.401 103.065 59.1237 103.247 58.777C103.429 58.4217 103.52 58.0317 103.52 57.607C103.52 57.1737 103.429 56.7837 103.247 56.437C103.065 56.0903 102.818 55.8173 102.506 55.618C102.203 55.41 101.865 55.306 101.492 55.306C101.111 55.306 100.768 55.41 100.465 55.618C100.162 55.826 99.9191 56.1033 99.7371 56.45C99.5551 56.788 99.4641 57.178 99.4641 57.62ZM105.607 62.625V59.739H105.763C105.945 59.739 106.114 59.687 106.27 59.583C106.426 59.479 106.565 59.3013 106.686 59.05C106.808 58.79 106.907 58.4347 106.985 57.984C107.063 57.5247 107.111 56.9483 107.128 56.255L107.206 54.201H112.055V59.739H112.991V62.625H111.73V61H106.855V62.625H105.607ZM107.648 59.739H110.625V55.436H108.467L108.428 56.385C108.402 57.0437 108.355 57.5983 108.285 58.049C108.225 58.4997 108.138 58.8593 108.025 59.128C107.921 59.3967 107.796 59.6003 107.648 59.739ZM113.555 62.625V59.739H113.711C113.893 59.739 114.062 59.687 114.218 59.583C114.374 59.479 114.512 59.3013 114.634 59.05C114.755 58.79 114.855 58.4347 114.933 57.984C115.011 57.5247 115.058 56.9483 115.076 56.255L115.154 54.201H120.003V59.739H120.939V62.625H119.678V61H114.803V62.625H113.555ZM115.596 59.739H118.573V55.436H116.415L116.376 56.385C116.35 57.0437 116.302 57.5983 116.233 58.049C116.172 58.4997 116.085 58.8593 115.973 59.128C115.869 59.3967 115.743 59.6003 115.596 59.739ZM125.233 61.13C124.704 61.13 124.223 61.039 123.79 60.857C123.365 60.6663 122.997 60.4107 122.685 60.09C122.373 59.7607 122.13 59.388 121.957 58.972C121.792 58.5473 121.71 58.0967 121.71 57.62C121.71 56.9787 121.857 56.3937 122.152 55.865C122.447 55.3277 122.858 54.8987 123.387 54.578C123.916 54.2487 124.535 54.084 125.246 54.084C125.957 54.084 126.568 54.2487 127.079 54.578C127.599 54.8987 128.002 55.3233 128.288 55.852C128.574 56.3807 128.717 56.9483 128.717 57.555C128.717 57.659 128.713 57.7587 128.704 57.854C128.695 57.9407 128.687 58.0143 128.678 58.075H123.231C123.257 58.4737 123.365 58.8247 123.556 59.128C123.755 59.4227 124.007 59.6567 124.31 59.83C124.613 59.9947 124.938 60.077 125.285 60.077C125.666 60.077 126.026 59.9817 126.364 59.791C126.711 59.6003 126.945 59.349 127.066 59.037L128.288 59.388C128.141 59.7173 127.915 60.0163 127.612 60.285C127.317 60.545 126.966 60.753 126.559 60.909C126.152 61.0563 125.71 61.13 125.233 61.13ZM123.192 57.126H127.3C127.274 56.736 127.161 56.3937 126.962 56.099C126.771 55.7957 126.524 55.5617 126.221 55.397C125.926 55.2237 125.597 55.137 125.233 55.137C124.878 55.137 124.548 55.2237 124.245 55.397C123.95 55.5617 123.708 55.7957 123.517 56.099C123.326 56.3937 123.218 56.736 123.192 57.126ZM133.744 61.13C133.198 61.13 132.717 61 132.301 60.74C131.885 60.48 131.556 60.142 131.313 59.726V63.769H129.883V54.201H131.144V55.423C131.404 55.0157 131.742 54.6907 132.158 54.448C132.574 54.2053 133.038 54.084 133.549 54.084C134.017 54.084 134.446 54.1793 134.836 54.37C135.226 54.552 135.564 54.8077 135.85 55.137C136.136 55.4663 136.357 55.8433 136.513 56.268C136.678 56.684 136.76 57.126 136.76 57.594C136.76 58.244 136.63 58.8377 136.37 59.375C136.119 59.9123 135.764 60.3413 135.304 60.662C134.854 60.974 134.334 61.13 133.744 61.13ZM133.276 59.908C133.58 59.908 133.853 59.843 134.095 59.713C134.347 59.583 134.559 59.4097 134.732 59.193C134.914 58.9763 135.053 58.7293 135.148 58.452C135.244 58.1747 135.291 57.8887 135.291 57.594C135.291 57.282 135.239 56.9873 135.135 56.71C135.031 56.4327 134.88 56.19 134.68 55.982C134.49 55.774 134.264 55.6093 134.004 55.488C133.753 55.3667 133.476 55.306 133.172 55.306C132.99 55.306 132.8 55.3407 132.6 55.41C132.401 55.4793 132.215 55.5747 132.041 55.696C131.868 55.8173 131.716 55.9603 131.586 56.125C131.456 56.2897 131.365 56.463 131.313 56.645V58.426C131.435 58.7033 131.595 58.9547 131.794 59.18C131.994 59.3967 132.223 59.5743 132.483 59.713C132.743 59.843 133.008 59.908 133.276 59.908ZM137.565 61L140.009 57.49L137.76 54.201H139.359L141.205 56.905H141.842V54.201H143.311V56.905H143.974L145.794 54.201H147.393L145.144 57.49L147.601 61H145.976L143.974 58.153H143.311V61H141.842V58.153H141.205L139.19 61H137.565ZM148.837 61V54.201H150.254V56.892H150.93L152.932 54.201H154.518L152.035 57.49L154.804 61H153.153L150.917 58.179H150.254V61H148.837ZM155.896 61V54.214H157.326V59.089L160.771 54.201H162.071V61H160.641V56.229L157.235 61H155.896ZM166.706 61C166.706 60.4713 166.745 60.0077 166.823 59.609C166.901 59.2103 167.022 58.8507 167.187 58.53C167.351 58.2093 167.559 57.9277 167.811 57.685C168.062 57.4423 168.352 57.2213 168.682 57.022C169.002 56.8313 169.332 56.6537 169.67 56.489C170.016 56.3243 170.337 56.151 170.632 55.969C170.926 55.787 171.16 55.5747 171.334 55.332C171.516 55.0807 171.607 54.7773 171.607 54.422C171.607 54.136 171.546 53.8847 171.425 53.668C171.312 53.4513 171.139 53.2823 170.905 53.161C170.679 53.031 170.389 52.966 170.034 52.966C169.67 52.966 169.332 53.031 169.02 53.161C168.716 53.2823 168.448 53.434 168.214 53.616C167.988 53.798 167.806 53.9757 167.668 54.149L166.758 53.2C166.844 53.096 166.983 52.9573 167.174 52.784C167.373 52.6107 167.616 52.4373 167.902 52.264C168.196 52.0907 168.534 51.9477 168.916 51.835C169.297 51.7137 169.726 51.653 170.203 51.653C170.861 51.653 171.412 51.7743 171.854 52.017C172.304 52.251 172.642 52.576 172.868 52.992C173.102 53.3993 173.219 53.8587 173.219 54.37C173.219 54.786 173.145 55.15 172.998 55.462C172.85 55.7653 172.655 56.0297 172.413 56.255C172.179 56.4717 171.914 56.6667 171.62 56.84C171.334 57.0133 171.048 57.178 170.762 57.334C170.268 57.5853 169.869 57.8107 169.566 58.01C169.271 58.2093 169.037 58.4 168.864 58.582C168.699 58.764 168.582 58.946 168.513 59.128C168.443 59.31 168.396 59.505 168.37 59.713H173.232V61H166.706ZM178.286 61V58.764H174.165V57.49L178.728 51.77H179.716V57.477H180.86V58.764H179.716V61H178.286ZM175.621 57.477H178.442V53.941L175.621 57.477ZM189.636 51.77L183.305 61H181.719L188.05 51.77H189.636ZM194.902 53.083H190.43V51.77H197.164L192.536 61H190.924L194.902 53.083Z" fill="#4E869F"/>
<path d="M50.0539 53.918V53.1105L52.6342 50.6601C52.8508 50.4559 53.0117 50.2765 53.1168 50.1218C53.222 49.9671 53.2901 49.8248 53.321 49.6948C53.3582 49.5587 53.3767 49.4318 53.3767 49.3143C53.3767 49.0173 53.2746 48.7883 53.0704 48.6274C52.8662 48.4604 52.5661 48.3768 52.1701 48.3768C51.8545 48.3768 51.5668 48.4325 51.3069 48.5439C51.0532 48.6553 50.8336 48.8254 50.6479 49.0544L49.8033 48.4047C50.057 48.0643 50.3973 47.8014 50.8243 47.6157C51.2574 47.4239 51.7401 47.328 52.2722 47.328C52.7425 47.328 53.1509 47.4053 53.4974 47.56C53.8501 47.7085 54.1193 47.922 54.3049 48.2005C54.4967 48.4789 54.5926 48.81 54.5926 49.1936C54.5926 49.404 54.5648 49.6144 54.5091 49.8248C54.4534 50.029 54.3482 50.2455 54.1935 50.4745C54.0388 50.7034 53.813 50.9602 53.516 51.2449L51.2976 53.3518L51.047 52.897H54.8432V53.918H50.0539ZM55.3109 52.4422V51.6068L58.513 47.4208H59.8032L56.6474 51.6068L56.0441 51.4212H61.1954V52.4422H55.3109ZM58.875 53.918V52.4422L58.9121 51.4212V50.1125H60.0445V53.918H58.875ZM61.2521 54.8461L64.315 46.1028H65.3546L62.2916 54.8461H61.2521ZM66.5508 53.918L69.2332 47.9035L69.5488 48.4418H65.864L66.4394 47.8571V49.5463H65.3163V47.4208H70.3656V48.2283L67.8409 53.918H66.5508Z" fill="#4E869F"/>
<path d="M61.6826 35.5981C61.4607 35.5687 61.2569 35.7248 61.2275 35.9468C61.1981 36.1687 61.3542 36.3725 61.5762 36.4019L61.6826 35.5981ZM61.3105 65.7497C61.1723 65.9259 61.203 66.1807 61.3792 66.3189L64.2497 68.5712C64.4258 68.7094 64.6807 68.6787 64.8189 68.5025C64.9571 68.3264 64.9263 68.0716 64.7502 67.9333L62.1986 65.9313L64.2006 63.3797C64.3389 63.2036 64.3081 62.9488 64.132 62.8105C63.9558 62.6723 63.701 62.7031 63.5628 62.8792L61.3105 65.7497ZM61.5762 36.4019C71.3208 37.6926 75.7852 44.4597 75.6133 51.1416C75.441 57.8392 70.6126 64.5076 61.5808 65.5975L61.678 66.4025C71.1224 65.2627 76.2415 58.2487 76.4238 51.1625C76.6066 44.0606 71.8329 36.9425 61.6826 35.5981L61.5762 36.4019Z" fill="#4E869F"/>
<path d="M59.3376 66.3997C59.5584 66.4372 59.7677 66.2887 59.8052 66.0679C59.8428 65.8472 59.6942 65.6379 59.4735 65.6003L59.3376 66.3997ZM59.7162 36.2605C59.8601 36.0889 59.8376 35.8332 59.666 35.6893L56.87 33.3452C56.6984 33.2014 56.4427 33.2238 56.2989 33.3954C56.155 33.567 56.1775 33.8227 56.3491 33.9665L58.8344 36.0502L56.7508 38.5356C56.6069 38.7071 56.6294 38.9628 56.801 39.1067C56.9726 39.2505 57.2283 39.228 57.3721 39.0565L59.7162 36.2605ZM59.4735 65.6003C49.5283 63.9096 45.0711 56.9833 45.2921 50.3293C45.5135 43.663 50.427 37.1963 59.4411 36.4038L59.3701 35.5962C49.9382 36.4253 44.7165 43.2357 44.4818 50.3024C44.2466 57.3816 49.0124 64.6444 59.3376 66.3997L59.4735 65.6003Z" fill="#4E869F"/>
<path d="M31.4228 53.0739C31.5955 53.0471 31.7137 52.8854 31.6869 52.7128L31.2499 49.8994C31.2231 49.7267 31.0614 49.6085 30.8888 49.6353C30.7161 49.6621 30.5979 49.8238 30.6247 49.9965L31.0131 52.4973L28.5124 52.8857C28.3397 52.9125 28.2215 53.0742 28.2483 53.2469C28.2751 53.4195 28.4368 53.5377 28.6095 53.5109L31.4228 53.0739ZM11.0615 0.918423C10.871 1.63243 10.69 2.3352 10.5187 3.02714L11.1329 3.17916C11.3032 2.49112 11.4832 1.79208 11.6728 1.08158L11.0615 0.918423ZM9.56408 7.27292C9.26791 8.75238 9.02348 10.1805 8.83215 11.5622L9.45886 11.649C9.64828 10.281 9.89051 8.86549 10.1845 7.39711L9.56408 7.27292ZM8.39863 15.9019C8.31123 17.4111 8.29884 18.8644 8.36372 20.27L8.99574 20.2408C8.93196 18.859 8.94402 17.4277 9.03027 15.9385L8.39863 15.9019ZM8.83789 24.6146C9.09623 26.0745 9.453 27.4852 9.91104 28.858L10.5112 28.6578C10.0632 27.3151 9.71398 25.9344 9.4609 24.5044L8.83789 24.6146ZM11.6023 32.8949C12.25 34.1696 12.9959 35.4178 13.8423 36.6503L14.3638 36.2921C13.5321 35.0811 12.8006 33.8567 12.1664 32.6083L11.6023 32.8949ZM16.5102 40.1078C17.4224 41.173 18.4138 42.2336 19.4857 43.2969L19.9313 42.8477C18.8702 41.7952 17.8907 40.7471 16.9908 39.6963L16.5102 40.1078ZM22.6695 46.2613C23.7192 47.1841 24.8297 48.1141 26.0017 49.0556L26.398 48.5624C25.2323 47.626 24.1291 46.7021 23.0872 45.7861L22.6695 46.2613ZM29.4386 51.721C30.0092 52.1497 30.5922 52.5814 31.1876 53.0167L31.561 52.5059C30.9677 52.0722 30.3869 51.642 29.8186 51.2152L29.4386 51.721ZM31.4714 53.3865C31.8167 53.3329 32.0531 53.0095 31.9995 52.6642L31.1255 47.0374C31.0719 46.6921 30.7485 46.4557 30.4032 46.5093C30.0579 46.563 29.8215 46.8864 29.8751 47.2317L30.652 52.2332L25.6504 53.0101C25.3051 53.0637 25.0687 53.3871 25.1223 53.7324C25.176 54.0777 25.4993 54.3141 25.8446 54.2605L31.4714 53.3865ZM10.7559 0.836846C10.5649 1.55261 10.3834 2.25723 10.2117 2.95114L11.44 3.25516C11.6098 2.56908 11.7893 1.8719 11.9785 1.16315L10.7559 0.836846ZM9.25388 7.21083C8.95661 8.69583 8.71108 10.1302 8.51879 11.5188L9.77222 11.6924C9.96068 10.3313 10.2018 8.92204 10.4947 7.45921L9.25388 7.21083ZM8.08281 15.8836C7.99484 17.4028 7.98228 18.8671 8.04771 20.2846L9.31175 20.2262C9.24852 18.8563 9.26042 17.4361 9.34608 15.9568L8.08281 15.8836ZM8.52638 24.6698C8.78736 26.1445 9.14789 27.5703 9.61095 28.9582L10.8113 28.5577C10.3683 27.23 10.0228 25.8644 9.77241 24.4493L8.52638 24.6698ZM11.3203 33.0381C11.9746 34.326 12.7278 35.5862 13.5815 36.8294L14.6246 36.113C13.8003 34.9127 13.076 33.7002 12.4484 32.465L11.3203 33.0381ZM16.2699 40.3136C17.1883 41.3859 18.1856 42.4528 19.2629 43.5215L20.154 42.6231C19.0984 41.5759 18.1248 40.5341 17.231 39.4905L16.2699 40.3136ZM22.4606 46.4989C23.5143 47.4252 24.6284 48.3581 25.8036 49.3022L26.5961 48.3158C25.4337 47.3819 24.3341 46.461 23.296 45.5485L22.4606 46.4989ZM29.2486 51.974C29.8204 52.4035 30.4045 52.836 31.0009 53.2721L31.7477 52.2506C31.1554 51.8175 30.5757 51.3882 30.0085 50.9622L29.2486 51.974Z" fill="#4E869F"/>
</svg>
