<svg xmlns="http://www.w3.org/2000/svg" width="28" height="26" viewBox="0 0 28 26" fill="none">
  <path d="M17.4612 19.3016V20.4104C17.4612 23.1073 19.6487 25.2949 22.3458 25.2949H22.6154C25.3123 25.2949 27.5 23.1074 27.5 20.4104V16.6945C27.5 12.0497 26.9306 8.66342 25.8219 6.59572C24.3836 3.8087 22.0761 1.71115 18.9296 0.302719L16.6522 3.95865C18.57 4.76781 19.9785 5.93651 20.8775 7.52469C21.7765 9.11289 22.2859 11.3904 22.3758 14.417C19.6787 14.4168 17.4612 16.6046 17.4612 19.3016ZM1.33915 19.3016V20.4104C1.33915 23.1073 3.52665 25.2949 6.22371 25.2949H6.49336C9.19027 25.2949 11.3779 23.1074 11.3779 20.4104L11.3777 16.6945C11.3777 12.0497 10.8083 8.66342 9.69962 6.59572C8.26128 3.8087 5.95378 1.71115 2.80728 0.302719L0.5 3.95865C2.41787 4.7377 3.8263 5.93651 4.725 7.52469C5.62403 9.11289 6.13346 11.3904 6.22333 14.417C3.52642 14.4168 1.33877 16.6045 1.33877 19.3016L1.33915 19.3016Z" fill="url(#paint0_radial_488_55831)"/>
  <defs>
    <radialGradient id="paint0_radial_488_55831" cx="0" cy="0" r="1" gradientUnits="userSpaceOnUse" gradientTransform="translate(14 12.7988) rotate(-90) scale(12.4961 13.5)">
      <stop stop-color="#90B589"/>
      <stop offset="1" stop-color="#6C9165"/>
    </radialGradient>
  </defs>
</svg>