<svg width="15" height="16" viewBox="0 0 15 16" fill="none" xmlns="http://www.w3.org/2000/svg">
<path d="M1.51905 6.85802L3.37569 7.63259C3.16635 8.16432 2.99937 8.71195 2.87631 9.27031L2.80589 9.59238L5.46761 12.272L5.78772 12.2028C6.34268 12.0789 6.88699 11.9109 7.41548 11.7003L8.18534 13.5683C8.19289 13.5868 8.20489 13.6032 8.22026 13.6159C8.23564 13.6286 8.2539 13.6372 8.27342 13.641C8.29294 13.6449 8.3131 13.6438 8.33209 13.6378C8.35108 13.6319 8.3683 13.6213 8.38221 13.607L9.54581 12.4363C9.73571 12.2452 9.88368 12.0162 9.98017 11.7641C10.0767 11.512 10.1195 11.2423 10.106 10.9724L10.0644 10.2204C12.2187 8.61973 14.3987 5.8129 14.9925 0.914237C15.0093 0.791417 14.9978 0.666343 14.9587 0.548763C14.9196 0.431184 14.854 0.324276 14.7671 0.236373C14.6802 0.14847 14.5743 0.0819465 14.4576 0.0419875C14.341 0.00202847 14.2167 -0.0102863 14.0946 0.00600305C9.2273 0.608272 6.43594 2.80317 4.84499 4.96425L4.09914 4.9256C3.83152 4.91095 3.56382 4.95282 3.31326 5.0485C3.06269 5.14418 2.8348 5.29156 2.64423 5.48117L1.48063 6.65189C1.46451 6.66568 1.4523 6.68352 1.44523 6.70358C1.43817 6.72365 1.4365 6.74524 1.4404 6.76617C1.4443 6.78709 1.45363 6.80661 1.46744 6.82274C1.48125 6.83887 1.49905 6.85104 1.51905 6.85802ZM8.98402 4.00449C9.18568 3.8023 9.44236 3.66477 9.72165 3.60925C10.0009 3.55374 10.2903 3.58273 10.5532 3.69258C10.8162 3.80242 11.0408 3.98818 11.1989 4.22641C11.357 4.46464 11.4413 4.74465 11.4413 5.03108C11.4413 5.31751 11.357 5.59752 11.1989 5.83575C11.0408 6.07398 10.8162 6.25975 10.5532 6.36959C10.2903 6.47943 10.0009 6.50843 9.72165 6.45291C9.44236 6.3974 9.18568 6.25986 8.98402 6.05768C8.84973 5.92303 8.74317 5.76304 8.67047 5.58687C8.59776 5.41071 8.56034 5.22183 8.56034 5.03108C8.56034 4.84033 8.59776 4.65146 8.67047 4.47529C8.74317 4.29913 8.84973 4.13913 8.98402 4.00449ZM1.17173 12.4862C0.863625 12.3774 0.532769 12.3508 0.211396 12.4089C0.182834 12.4151 0.153172 12.4139 0.125181 12.4055C0.0971907 12.397 0.071786 12.3816 0.0513411 12.3606C0.0259958 12.3352 0.00902408 12.3025 0.00272553 12.2671C-0.00357301 12.2317 0.00110616 12.1952 0.016129 12.1625C0.357047 11.425 1.26136 9.94183 2.89872 11.1399C2.90728 11.1476 2.91412 11.1571 2.9188 11.1676C2.92349 11.1781 2.92591 11.1896 2.92591 11.2011C2.92591 11.2127 2.92349 11.2241 2.9188 11.2346C2.91412 11.2452 2.90728 11.2546 2.89872 11.2623C2.67951 11.436 2.50401 11.6592 2.38639 11.9137C2.26878 12.1683 2.21235 12.4471 2.22169 12.7277C2.22288 12.7607 2.23642 12.7919 2.25958 12.8152C2.28273 12.8385 2.3138 12.8521 2.34653 12.8533C2.62422 12.8646 2.90065 12.8101 3.15361 12.6943C3.40657 12.5785 3.629 12.4046 3.80303 12.1866C3.81069 12.1772 3.82033 12.1696 3.83127 12.1644C3.8422 12.1592 3.85415 12.1565 3.86626 12.1565C3.87836 12.1565 3.89031 12.1592 3.90124 12.1644C3.91218 12.1696 3.92182 12.1772 3.92948 12.1866C4.15676 12.4588 4.78257 13.3477 4.08953 14.206C3.78698 14.5719 3.35347 14.8033 2.88272 14.8502C2.21049 14.9226 0.968457 15.1432 0.461082 15.7262C0.440715 15.7505 0.41418 15.7687 0.384306 15.779C0.354433 15.7893 0.322341 15.7913 0.291455 15.7847C0.260568 15.778 0.232044 15.7631 0.208925 15.7415C0.185805 15.7198 0.168958 15.6923 0.160179 15.6618C-0.0190831 15.0466 -0.297579 13.6714 1.17173 12.4862Z" fill="white"/>
</svg>
