<svg width="21" height="22" viewBox="0 0 21 22" fill="none" xmlns="http://www.w3.org/2000/svg">
<path d="M4.95811 15.9854H1.10086C0.766414 15.9854 0.476562 16.2752 0.476562 16.6096V20.6676C0.476562 21.0243 0.766414 21.2919 1.10086 21.2919H4.93582C5.29256 21.2919 5.56011 21.002 5.56011 20.6676V16.6096C5.58241 16.2752 5.29256 15.9854 4.95811 15.9854Z" fill="white"/>
<path d="M12.428 13.6221H8.59305C8.23631 13.6221 7.96875 13.9119 7.96875 14.2464V20.6677C7.96875 21.0244 8.2586 21.292 8.59305 21.292H12.428C12.7847 21.292 13.0523 21.0021 13.0523 20.6677V14.2464C13.0523 13.9119 12.7847 13.6221 12.428 13.6221Z" fill="white"/>
<path d="M19.9191 10.2773H16.0618C15.7051 10.2773 15.4375 10.5672 15.4375 10.9016V20.6674C15.4375 21.0241 15.7274 21.2917 16.0618 21.2917H19.8968C20.2535 21.2917 20.5211 21.0019 20.5211 20.6674V10.9016C20.5433 10.5672 20.2535 10.2773 19.9191 10.2773Z" fill="white"/>
<path d="M11.646 10.79L15.704 6.10775L17.287 7.46782C17.4654 7.62389 17.7106 7.71308 17.9336 7.69078C18.0228 7.69078 18.1119 7.66849 18.2011 7.62389C18.5133 7.51241 18.7362 7.22256 18.7808 6.88812L19.5166 1.09108C19.5612 0.801233 19.4497 0.489085 19.2045 0.288418C18.9815 0.0877516 18.6694 0.0208628 18.3795 0.110048L12.7163 1.69308C12.4041 1.78227 12.1588 2.02753 12.0697 2.36197C12.0028 2.69642 12.1143 3.03086 12.3595 3.25382L13.9425 4.6139L10.6427 8.40426L7.49892 5.66182C7.0084 5.23819 6.27263 5.28278 5.87129 5.7733L0.899224 11.4811C0.475595 11.9717 0.542484 12.7074 1.01071 13.1311C1.25596 13.3317 1.54582 13.4432 1.85796 13.4209C2.14782 13.3986 2.43767 13.2649 2.66063 13.0196L6.85233 8.1813L9.99611 10.9237C10.4866 11.3251 11.2224 11.2805 11.646 10.79Z" fill="white"/>
</svg>
