<svg width="28" height="29" viewBox="0 0 28 29" fill="none" xmlns="http://www.w3.org/2000/svg">
<path fill-rule="evenodd" clip-rule="evenodd" d="M19.8171 17.9933H18.5933L18.1595 17.575C19.6777 15.809 20.5917 13.5161 20.5917 11.0219C20.5917 5.46031 16.0836 0.952148 10.5219 0.952148C4.96031 0.952148 0.452148 5.46031 0.452148 11.0219C0.452148 16.5836 4.96031 21.0917 10.5219 21.0917C13.0161 21.0917 15.309 20.1777 17.075 18.6595L17.4933 19.0933V20.3171L25.2393 28.0476L27.5476 25.7393L19.8171 17.9933ZM10.5219 17.9933C6.66443 17.9933 3.55054 14.8794 3.55054 11.0219C3.55054 7.16443 6.66443 4.05054 10.5219 4.05054C14.3794 4.05054 17.4933 7.16443 17.4933 11.0219C17.4933 14.8794 14.3794 17.9933 10.5219 17.9933Z" fill="#DBDBDB"/>
</svg>
