<svg xmlns="http://www.w3.org/2000/svg" width="15" height="18" viewBox="0 0 15 18" fill="none">
  <path d="M13.1084 7.51784H12.9605V5.9649C12.9605 2.85901 10.4462 0.344727 7.34034 0.344727C4.23445 0.344727 1.72017 2.85901 1.72017 5.9649V7.51784H1.57227C0.980673 7.51784 0.5 7.99851 0.5 8.59011V16.8725C0.5 17.4641 0.980673 17.9447 1.57227 17.9447H13.1084C13.7 17.9447 14.1807 17.4641 14.1807 16.8725V8.59011C14.1807 7.99851 13.7 7.51784 13.1084 7.51784ZM8.30168 12.5834V15.1716C8.30168 15.3565 8.15378 15.5414 7.93193 15.5414H6.71177C6.52689 15.5414 6.34202 15.3935 6.34202 15.1716V12.5834C6.04622 12.3246 5.86135 11.9178 5.86135 11.4741C5.86135 10.7346 6.48992 10.1061 7.22941 10.0691C8.07983 10.0321 8.74538 10.6977 8.74538 11.5111C8.78235 11.9178 8.59748 12.3246 8.30168 12.5834ZM10.779 7.51784H3.90168V5.9649C3.90168 4.04221 5.45462 2.52624 7.34034 2.52624C9.26303 2.52624 10.779 4.07918 10.779 5.9649V7.51784Z" fill="white"/>
</svg>