<svg width="249" height="250" viewBox="0 0 249 250" fill="none" xmlns="http://www.w3.org/2000/svg">
<circle cx="124.75" cy="125.095" r="124.25" fill="url(#paint0_linear_684_1136)"/>
<g opacity="0.5">
<path d="M226.436 131.942L225.274 131.897L225.513 125.694L226.675 125.738L226.577 128.268L237.466 128.689C237.32 128.571 237.158 128.395 236.979 128.163C236.813 127.944 236.647 127.688 236.484 127.393C236.332 127.1 236.206 126.801 236.105 126.497C236.004 126.192 235.959 125.915 235.968 125.666L237.168 125.712C237.155 126.049 237.229 126.39 237.391 126.734C237.566 127.079 237.76 127.399 237.973 127.695C238.199 128.004 238.402 128.25 238.583 128.432C238.776 128.627 238.878 128.731 238.89 128.744L238.84 130.037L226.528 129.562L226.436 131.942Z" fill="white"/>
<path d="M234.046 134.023C234.889 134.134 235.625 134.439 236.253 134.938C236.893 135.439 237.365 136.068 237.668 136.827C237.983 137.6 238.083 138.42 237.968 139.288C237.844 140.23 237.513 141.025 236.973 141.673C236.446 142.322 235.748 142.791 234.877 143.08C234.005 143.381 232.993 143.456 231.84 143.304C230.042 143.067 228.582 142.667 227.458 142.103C226.333 141.551 225.527 140.871 225.041 140.063C224.555 139.255 224.376 138.361 224.505 137.382C224.619 136.514 224.939 135.762 225.464 135.125C226.002 134.489 226.679 134.042 227.495 133.784L228.115 134.679C227.459 134.87 226.902 135.219 226.444 135.727C225.997 136.248 225.728 136.856 225.637 137.55C225.54 138.281 225.679 138.949 226.054 139.553C226.441 140.159 227.042 140.667 227.858 141.077C228.673 141.5 229.687 141.791 230.902 141.951C230.454 141.716 230.068 141.387 229.745 140.966C229.433 140.56 229.211 140.095 229.078 139.573C228.943 139.064 228.913 138.53 228.986 137.972C229.097 137.129 229.397 136.387 229.885 135.745C230.371 135.115 230.982 134.641 231.718 134.322C232.452 134.015 233.228 133.915 234.046 134.023ZM236.874 139.125C236.956 138.505 236.876 137.914 236.634 137.353C236.393 136.791 236.033 136.321 235.553 135.943C235.073 135.565 234.523 135.334 233.903 135.253C233.271 135.169 232.674 135.248 232.113 135.49C231.564 135.733 231.094 136.093 230.703 136.571C230.323 137.064 230.092 137.62 230.01 138.239C229.927 138.872 230.006 139.468 230.247 140.03C230.501 140.593 230.861 141.063 231.329 141.44C231.807 141.831 232.356 142.067 232.976 142.149C233.596 142.23 234.187 142.144 234.75 141.891C235.313 141.637 235.784 141.27 236.163 140.79C236.553 140.312 236.791 139.757 236.874 139.125Z" fill="white"/>
<path d="M222.439 148.755C222.628 147.99 222.926 147.33 223.334 146.774C223.741 146.217 224.218 145.8 224.763 145.523C225.308 145.245 225.889 145.131 226.508 145.181L227.012 146.116C226.593 146.039 226.146 146.102 225.67 146.307C225.207 146.515 224.789 146.849 224.418 147.312C224.043 147.786 223.772 148.363 223.605 149.043C223.455 149.65 223.423 150.221 223.51 150.758C223.606 151.309 223.801 151.77 224.096 152.139C224.401 152.523 224.802 152.776 225.3 152.899C225.834 153.031 226.331 152.973 226.791 152.726C227.263 152.482 227.679 152.076 228.038 151.508C228.397 150.94 228.682 150.231 228.891 149.381L229.044 148.762L230.118 149.027L229.966 149.646C229.675 150.823 229.64 151.8 229.861 152.576C230.082 153.351 230.581 153.835 231.358 154.026C231.867 154.152 232.345 154.122 232.79 153.936C233.232 153.761 233.613 153.469 233.934 153.059C234.251 152.66 234.475 152.194 234.607 151.66C234.805 150.859 234.798 150.13 234.587 149.472C234.375 148.815 234.037 148.306 233.572 147.947L234.621 147.298C235.001 147.636 235.298 148.051 235.512 148.541C235.722 149.044 235.847 149.583 235.885 150.16C235.92 150.748 235.866 151.333 235.722 151.916C235.519 152.741 235.18 153.437 234.705 154.002C234.228 154.58 233.677 154.985 233.053 155.217C232.426 155.462 231.767 155.499 231.075 155.328C230.589 155.208 230.176 155.004 229.836 154.714C229.507 154.426 229.256 154.062 229.082 153.62C228.92 153.18 228.839 152.671 228.841 152.092C228.591 152.636 228.255 153.081 227.835 153.428C227.412 153.787 226.941 154.025 226.423 154.142C225.913 154.274 225.386 154.273 224.84 154.138C224.111 153.958 223.538 153.591 223.121 153.038C222.701 152.496 222.429 151.85 222.306 151.098C222.194 150.349 222.239 149.568 222.439 148.755Z" fill="white"/>
<path d="M221.908 165.242C221.122 164.954 220.473 164.489 219.962 163.849C219.458 163.225 219.136 162.507 218.994 161.696C218.852 160.885 218.933 160.063 219.239 159.229C219.557 158.361 220.047 157.661 220.707 157.131C221.375 156.617 222.174 156.31 223.102 156.211C224.031 156.112 225.035 156.261 226.115 156.657C227.817 157.281 229.149 157.989 230.11 158.781C231.083 159.577 231.719 160.423 232.017 161.318C232.314 162.213 232.295 163.118 231.96 164.034C231.654 164.867 231.169 165.535 230.506 166.037C229.854 166.544 229.108 166.836 228.267 166.914L227.846 165.881C228.535 165.854 229.155 165.635 229.705 165.225C230.263 164.83 230.662 164.304 230.903 163.646C231.157 162.954 231.162 162.269 230.917 161.594C230.672 160.918 230.198 160.285 229.496 159.694C228.789 159.116 227.861 158.615 226.71 158.193C227.103 158.537 227.408 158.942 227.623 159.407C227.839 159.873 227.957 160.369 227.977 160.895C227.992 161.434 227.903 161.967 227.71 162.495C227.417 163.293 226.964 163.947 226.352 164.454C225.735 164.974 225.035 165.303 224.252 165.442C223.476 165.597 222.695 165.53 221.908 165.242ZM220.282 159.652C220.067 160.239 220.016 160.833 220.129 161.433C220.241 162.034 220.49 162.571 220.876 163.046C221.257 163.532 221.741 163.882 222.328 164.097C222.915 164.313 223.511 164.358 224.116 164.234C224.716 164.121 225.254 163.872 225.728 163.487C226.202 163.101 226.547 162.615 226.762 162.028C226.982 161.429 227.037 160.824 226.929 160.211C226.816 159.611 226.567 159.073 226.182 158.599C225.808 158.129 225.322 157.784 224.723 157.565C224.136 157.35 223.543 157.298 222.942 157.411C222.337 157.535 221.797 157.79 221.323 158.176C220.849 158.561 220.502 159.053 220.282 159.652Z" fill="white"/>
<path d="M213.473 167.905L216.462 169.553L216.38 169.701C216.241 169.953 216.191 170.225 216.23 170.518C216.268 170.81 216.434 171.144 216.726 171.52C217.019 171.896 217.472 172.317 218.085 172.784C218.71 173.257 219.528 173.794 220.538 174.394L222.874 175.79L219.803 181.357L212.249 177.19L211.615 178.339L208.626 176.69L209.179 175.689L211.166 176.785L214.916 169.986L212.929 168.89L213.473 167.905ZM215.447 171.393L212.865 176.073L219.418 179.687L221.32 176.239L219.869 175.374C218.869 174.78 218.055 174.238 217.425 173.748C216.801 173.275 216.331 172.844 216.017 172.457C215.707 172.086 215.517 171.731 215.447 171.393Z" fill="white"/>
<path d="M209.66 179.25L217.666 184.852L216.934 185.897L213.492 183.489L210.288 188.068L213.73 190.476L212.999 191.521L204.993 185.919L205.724 184.874L209.351 187.412L212.555 182.833L208.929 180.295L209.66 179.25Z" fill="white"/>
<path d="M200.518 190.994C200.978 190.466 201.504 190.062 202.096 189.782C202.697 189.51 203.316 189.361 203.952 189.334C204.598 189.316 205.234 189.414 205.86 189.628C206.478 189.851 207.052 190.192 207.58 190.652C208.268 191.251 208.764 191.957 209.069 192.769C209.365 193.591 209.44 194.427 209.295 195.279C209.16 196.139 208.784 196.923 208.169 197.63C207.536 198.356 206.812 198.836 205.995 199.07C205.17 199.313 204.334 199.34 203.488 199.15C202.651 198.969 201.894 198.583 201.215 197.992C201.139 197.926 201.064 197.86 200.988 197.795C200.922 197.737 200.875 197.687 200.845 197.645L206.337 191.336C205.768 190.924 205.17 190.659 204.541 190.543C203.914 190.445 203.305 190.487 202.715 190.67C202.127 190.87 201.627 191.206 201.217 191.677C200.798 192.158 200.526 192.717 200.402 193.355C200.27 194.003 200.328 194.583 200.576 195.098L199.623 195.736C199.405 195.281 199.291 194.775 199.279 194.217C199.267 193.66 199.365 193.099 199.574 192.535C199.785 191.989 200.099 191.475 200.518 190.994ZM207.055 191.911L202.314 197.357C202.884 197.788 203.483 198.052 204.11 198.15C204.729 198.258 205.328 198.208 205.908 197.999C206.488 197.809 206.988 197.473 207.407 196.992C207.825 196.511 208.089 195.97 208.198 195.368C208.317 194.775 208.279 194.171 208.086 193.555C207.894 192.957 207.55 192.409 207.055 191.911Z" fill="white"/>
<path d="M196.432 195.81L203.099 202.927L202.168 203.799L196.681 197.941L197.842 207.877L197.007 208.659L190.327 201.528L191.258 200.656L196.656 206.419L195.529 196.656L196.432 195.81ZM200.892 206.716C201.512 206.135 202.128 205.832 202.739 205.808C203.351 205.784 203.866 205.995 204.284 206.443L203.6 207.084C203.343 206.81 203.029 206.676 202.658 206.681C202.277 206.695 201.872 206.903 201.443 207.305C201.023 207.698 200.799 208.071 200.77 208.424C200.731 208.785 200.835 209.125 201.081 209.443L200.411 210.071C199.992 209.624 199.814 209.096 199.879 208.488C199.943 207.879 200.28 207.289 200.892 206.716Z" fill="white"/>
<path d="M185.082 205.737L190.626 213.783L184.155 218.241L178.611 210.195L179.661 209.471L184.556 216.576L188.927 213.564L184.032 206.46L185.082 205.737Z" fill="white"/>
<path d="M171.835 213.868C172.55 213.481 173.294 213.32 174.068 213.383C174.832 213.453 175.527 213.674 176.155 214.045L173.286 208.752L174.407 208.144L180.967 220.246L179.961 220.792L179.059 219.126C179.01 219.85 178.789 220.531 178.396 221.171C178.009 221.821 177.492 222.322 176.843 222.674C176.249 222.996 175.637 223.164 175.005 223.179C174.379 223.206 173.772 223.108 173.183 222.887C172.594 222.666 172.054 222.34 171.564 221.909C171.069 221.494 170.667 221.001 170.357 220.43C169.922 219.627 169.685 218.796 169.645 217.935C169.601 217.092 169.759 216.309 170.122 215.587C170.484 214.864 171.055 214.292 171.835 213.868ZM172.685 214.688C172.212 214.944 171.84 215.267 171.567 215.656C171.301 216.057 171.125 216.493 171.04 216.966C170.944 217.445 170.935 217.926 171.012 218.411C171.096 218.906 171.257 219.373 171.495 219.813C171.745 220.275 172.066 220.67 172.457 220.998C172.838 221.332 173.263 221.578 173.732 221.736C174.202 221.894 174.679 221.962 175.166 221.94C175.652 221.919 176.12 221.786 176.571 221.542C176.856 221.387 177.123 221.171 177.372 220.894C177.62 220.617 177.83 220.297 178.003 219.933C178.17 219.586 178.279 219.236 178.329 218.882C178.379 218.528 178.348 218.196 178.237 217.886L176.807 215.248C176.411 214.937 175.975 214.697 175.499 214.528C175.03 214.37 174.549 214.296 174.057 214.307C173.56 214.335 173.103 214.462 172.685 214.688Z" fill="white"/>
<path d="M167.856 219.308C168.088 219.875 168.125 220.427 167.967 220.965C167.814 221.514 167.499 222.015 167.022 222.467C166.539 222.936 165.921 223.324 165.169 223.632C164.729 223.812 164.258 223.965 163.755 224.09C163.252 224.215 162.787 224.284 162.36 224.297L162.673 225.06C162.986 225.824 163.461 226.339 164.097 226.605C164.733 226.871 165.45 226.841 166.248 226.514C166.734 226.314 167.177 226.025 167.575 225.646C167.967 225.282 168.346 224.823 168.713 224.267L169.505 224.915C169.081 225.562 168.626 226.1 168.14 226.529C167.658 226.97 167.122 227.311 166.532 227.553C165.422 228.008 164.412 228.05 163.503 227.679C162.595 227.308 161.91 226.562 161.451 225.44L159.737 221.257C159.67 221.095 159.586 220.988 159.483 220.935C159.385 220.895 159.259 220.899 159.104 220.949L158.72 220.012C158.842 219.948 158.947 219.892 159.035 219.842C159.123 219.793 159.192 219.764 159.243 219.757C159.537 219.65 159.795 219.652 160.017 219.764C160.238 219.876 160.395 220.028 160.487 220.22L160.775 220.872C160.966 220.186 161.327 219.565 161.856 219.01C162.39 218.467 162.993 218.058 163.664 217.783C164.242 217.546 164.818 217.452 165.392 217.5C165.959 217.565 166.461 217.751 166.898 218.059C167.328 218.383 167.647 218.799 167.856 219.308ZM161.515 221.096C161.454 221.31 161.42 221.507 161.412 221.685C161.404 221.864 161.424 222.012 161.471 222.127L162.012 223.446C162.467 223.435 162.925 223.383 163.386 223.288C163.836 223.199 164.275 223.066 164.703 222.891C165.547 222.545 166.161 222.097 166.544 221.548C166.928 220.999 167.001 220.436 166.763 219.857C166.626 219.522 166.409 219.239 166.112 219.009C165.82 218.791 165.466 218.653 165.05 218.593C164.638 218.546 164.207 218.614 163.756 218.799C163.189 219.032 162.708 219.357 162.312 219.776C161.904 220.2 161.639 220.64 161.515 221.096Z" fill="white"/>
<path d="M157.035 220.583L159.84 229.943L158.618 230.309L157.417 226.302L156.016 226.722L154.073 231.671L152.671 232.091L154.885 226.474L149.417 222.865L150.855 222.435L155.677 225.591L157.078 225.171L155.813 220.949L157.035 220.583Z" fill="white"/>
<path d="M145.259 223.751L146.972 232.206L150.391 231.514L150.618 232.635L142.53 234.274L142.303 233.152L145.722 232.46L144.009 224.004L145.259 223.751Z" fill="white"/>
<path d="M139.046 224.938L140.06 234.638L138.791 234.77L137.957 226.787L132.88 235.407L131.742 235.525L130.727 225.807L131.995 225.675L132.816 233.528L137.815 225.067L139.046 224.938Z" fill="white"/>
<path d="M128.175 236.383V226.612H126.899V230.794H125.436L122.154 226.612H120.692L124.424 231.357L120.223 236.383H121.723L125.436 231.975H126.899V236.383H128.175Z" fill="white"/>
<path d="M118.335 225.821L117.397 235.528L116.127 235.406L116.9 227.416L110.208 234.852L109.069 234.742L110.01 225.016L111.279 225.139L110.519 232.998L117.103 225.702L118.335 225.821Z" fill="white"/>
<path d="M99.3438 222.627C100.036 222.798 100.642 223.083 101.161 223.481C101.666 223.889 102.08 224.378 102.403 224.947C102.714 225.513 102.918 226.123 103.014 226.778C103.098 227.43 103.057 228.089 102.893 228.757C102.671 229.655 102.269 230.425 101.685 231.067C101.102 231.709 100.399 232.16 99.5746 232.42C98.7505 232.68 97.8712 232.695 96.9364 232.465C96.0503 232.246 95.3182 231.847 94.7402 231.266C94.1592 230.698 93.7902 230.027 93.6331 229.255L94.9293 229.169C95.0765 229.72 95.36 230.189 95.7797 230.576C96.1843 230.972 96.6779 231.242 97.2606 231.386C97.8918 231.541 98.5089 231.52 99.1117 231.321C99.7145 231.122 100.244 230.776 100.701 230.283C101.145 229.788 101.457 229.176 101.636 228.447C101.813 227.731 101.815 227.043 101.644 226.382C101.472 225.722 101.168 225.151 100.733 224.67C100.295 224.201 99.7601 223.889 99.1289 223.733C98.7162 223.632 98.3037 223.607 97.8914 223.66C97.467 223.71 97.0853 223.822 96.7462 223.996C96.392 224.179 96.1304 224.404 95.9614 224.671L94.8312 224.006C95.112 223.599 95.4976 223.263 95.988 222.997C96.4633 222.741 96.9935 222.576 97.5785 222.501C98.1484 222.436 98.7368 222.478 99.3438 222.627Z" fill="white"/>
<path d="M89.8502 219.968L86.2127 229.036L85.0291 228.562L86.586 224.68L85.2283 224.135L80.6252 226.795L79.2674 226.251L84.4978 223.236L82.4698 217.007L83.8623 217.566L85.6681 223.039L87.0259 223.583L88.6666 219.493L89.8502 219.968Z" fill="white"/>
<path d="M81.7476 216.644L81.2048 217.672C80.9063 217.514 80.6001 217.452 80.2861 217.484C79.9664 217.527 79.6159 217.696 79.2348 217.989C78.8425 218.277 78.4131 218.729 77.9465 219.345C77.4741 219.972 76.9442 220.803 76.3566 221.836L74.9877 224.188L69.3815 221.229L73.9423 212.588L75.0702 213.183L71.0434 220.813L74.5265 222.651L75.3476 221.176C76.0221 220.005 76.6442 219.054 77.214 218.322C77.7779 217.602 78.3151 217.08 78.8256 216.755C79.3251 216.425 79.8153 216.26 80.2963 216.259C80.7773 216.259 81.2611 216.387 81.7476 216.644Z" fill="white"/>
<path d="M71.598 211.22L66.183 219.331L65.1223 218.623L69.5793 211.947L60.1673 215.337L59.2158 214.702L64.6413 206.576L65.7019 207.284L61.3179 213.85L70.5685 210.533L71.598 211.22Z" fill="white"/>
<path d="M59.6921 202.365C60.2301 202.813 60.6456 203.33 60.9387 203.916C61.2238 204.511 61.3864 205.127 61.4266 205.762C61.4588 206.407 61.3749 207.045 61.1749 207.676C60.9653 208.299 60.6365 208.879 60.1883 209.417C59.6042 210.119 58.9095 210.63 58.1044 210.952C57.2896 211.266 56.4548 211.36 55.5999 211.234C54.737 211.117 53.9453 210.759 53.2248 210.158C52.485 209.542 51.9894 208.828 51.7379 208.017C51.4767 207.197 51.4317 206.362 51.6028 205.512C51.7659 204.672 52.1356 203.906 52.7117 203.214C52.7757 203.137 52.8397 203.06 52.9038 202.983C52.9598 202.916 53.0086 202.867 53.0502 202.837L59.4773 208.19C59.8774 207.612 60.1286 207.008 60.2309 206.377C60.3156 205.748 60.2602 205.141 60.0648 204.555C59.8517 203.97 59.505 203.478 59.0247 203.078C58.5347 202.67 57.9696 202.411 57.3292 202.3C56.6792 202.182 56.0997 202.253 55.5907 202.512L54.9325 201.573C55.3823 201.346 55.8858 201.22 56.4429 201.196C57 201.172 57.5627 201.258 58.131 201.455C58.6818 201.653 59.2021 201.957 59.6921 202.365ZM58.9179 208.92L53.3699 204.299C52.9522 204.879 52.701 205.483 52.6163 206.112C52.522 206.734 52.5854 207.331 52.8064 207.906C53.0099 208.482 53.3566 208.975 53.8465 209.383C54.3365 209.791 54.8832 210.043 55.4868 210.139C56.0823 210.244 56.6858 210.194 57.2973 209.987C57.8912 209.782 58.4314 209.426 58.9179 208.92Z" fill="white"/>
<path d="M54.8015 198.384L47.8174 205.218L46.9255 204.306L49.9282 201.368L46.0196 197.374L43.0168 200.312L42.1249 199.4L49.1091 192.566L50.001 193.478L46.8373 196.573L50.746 200.568L53.9096 197.473L54.8015 198.384Z" fill="white"/>
<path d="M45.8815 188.681L39.1533 194.081L41.3367 196.802L40.4445 197.518L35.2794 191.082L36.1716 190.366L38.3551 193.087L45.0833 187.687L45.8815 188.681Z" fill="white"/>
<path d="M40.0541 185.879C39.5433 186.217 39.0088 186.362 38.4507 186.311C37.8821 186.268 37.3296 186.057 36.7932 185.677C36.2396 185.294 35.7383 184.763 35.2896 184.086C35.0272 183.69 34.7857 183.257 34.5652 182.788C34.3447 182.32 34.1865 181.877 34.0907 181.461L33.4027 181.916C32.7147 182.372 32.3021 182.938 32.1648 183.614C32.0275 184.289 32.1971 184.987 32.6735 185.706C32.9634 186.144 33.3333 186.521 33.7832 186.838C34.2157 187.152 34.7402 187.434 35.3568 187.686L34.8755 188.589C34.1585 188.299 33.5423 187.958 33.0268 187.564C32.5008 187.178 32.0618 186.719 31.7097 186.187C31.0469 185.186 30.8088 184.204 30.9955 183.241C31.1822 182.277 31.7811 181.461 32.7923 180.791L36.5606 178.295C36.7065 178.198 36.7952 178.095 36.8268 177.984C36.8479 177.88 36.8188 177.757 36.7395 177.614L37.5838 177.055C37.6702 177.163 37.7462 177.255 37.8119 177.331C37.8775 177.408 37.9189 177.47 37.9361 177.519C38.0983 177.786 38.1461 178.04 38.0795 178.279C38.0129 178.518 37.8944 178.701 37.7241 178.829L37.1403 179.238C37.851 179.292 38.53 179.525 39.1773 179.936C39.8141 180.354 40.3327 180.866 40.7331 181.47C41.0783 181.991 41.283 182.538 41.3472 183.111C41.394 183.679 41.3092 184.208 41.0928 184.696C40.859 185.181 40.5127 185.575 40.0541 185.879ZM37.0652 180.008C36.8433 179.99 36.6439 179.995 36.4669 180.022C36.29 180.049 36.1494 180.097 36.0452 180.166L34.8568 180.953C34.9561 181.397 35.0969 181.836 35.2794 182.27C35.455 182.694 35.6705 183.099 35.926 183.484C36.43 184.245 36.9885 184.76 37.6014 185.029C38.2144 185.298 38.7815 185.26 39.3027 184.915C39.605 184.714 39.8399 184.446 40.0074 184.11C40.1644 183.782 40.2314 183.407 40.2084 182.988C40.175 182.575 40.0236 182.165 39.7544 181.759C39.4161 181.248 39.0029 180.839 38.5149 180.532C38.0199 180.215 37.5367 180.041 37.0652 180.008Z" fill="white"/>
<path d="M36.6621 175.653L27.954 180.085L27.3584 178.915L31.5978 172.401L23.8279 171.979L23.2579 170.859L31.966 166.427L32.519 167.513L25.5157 171.078L32.5639 171.446L32.9383 172.182L29.1058 178.131L36.1091 174.566L36.6621 175.653Z" fill="white"/>
<path d="M30.8624 163.843L21.7187 167.235L21.2752 166.039L28.8011 163.247L19.1899 160.471L18.792 159.399L27.9532 156L28.3968 157.196L20.994 159.942L30.4319 162.682L30.8624 163.843Z" fill="white"/>
<path d="M21.9829 121.176L23.1457 121.181L23.1218 127.389L21.959 127.384L21.9687 124.852L11.0723 124.81C11.2219 124.923 11.3901 125.093 11.5768 125.318C11.751 125.532 11.9251 125.782 12.099 126.071C12.2604 126.359 12.3968 126.653 12.5082 126.954C12.6196 127.254 12.6748 127.529 12.6738 127.78L11.4735 127.775C11.4748 127.437 11.3886 127.099 11.2148 126.761C11.0286 126.423 10.8235 126.109 10.5996 125.821C10.3632 125.52 10.1515 125.282 9.96466 125.106C9.76534 124.918 9.65945 124.817 9.64699 124.805L9.65199 123.511L21.9737 123.558L21.9829 121.176Z" fill="white"/>
<path d="M14.3281 118.909C13.4821 118.824 12.7377 118.542 12.0948 118.062C11.4394 117.582 10.9483 116.967 10.6216 116.218C10.2836 115.455 10.1584 114.638 10.246 113.767C10.3411 112.822 10.6483 112.017 11.1674 111.353C11.6742 110.687 12.3581 110.197 13.2192 109.882C14.0816 109.554 15.0912 109.448 16.2482 109.564C18.052 109.746 19.5242 110.101 20.6648 110.63C21.8066 111.147 22.6329 111.802 23.1438 112.595C23.6546 113.388 23.8607 114.276 23.7618 115.258C23.6742 116.129 23.3777 116.891 22.8722 117.544C22.3543 118.196 21.6915 118.663 20.8839 118.946L20.2369 118.071C20.8864 117.859 21.4322 117.493 21.8741 116.972C22.3049 116.438 22.5553 115.822 22.6254 115.125C22.6992 114.391 22.5397 113.728 22.1469 113.136C21.7417 112.542 21.1249 112.053 20.2965 111.668C19.4694 111.27 18.4463 111.01 17.2272 110.888C17.6824 111.11 18.0778 111.426 18.4135 111.837C18.738 112.234 18.9747 112.691 19.1237 113.209C19.2739 113.714 19.3209 114.246 19.2646 114.806C19.1795 115.652 18.9029 116.403 18.4347 117.06C17.9678 117.704 17.3716 118.197 16.6461 118.539C15.9218 118.868 15.1492 118.991 14.3281 118.909ZM11.3451 113.896C11.2826 114.518 11.3805 115.106 11.639 115.66C11.8974 116.214 12.2723 116.673 12.7635 117.036C13.2547 117.4 13.8113 117.613 14.4333 117.675C15.0678 117.739 15.6619 117.642 16.2157 117.383C16.757 117.124 17.2157 116.749 17.5917 116.259C17.9565 115.755 18.1702 115.192 18.2328 114.57C18.2966 113.936 18.1992 113.342 17.9408 112.788C17.6699 112.233 17.2951 111.774 16.8163 111.412C16.3263 111.036 15.7703 110.817 15.1483 110.754C14.5263 110.692 13.9378 110.796 13.3827 111.067C12.8277 111.338 12.3684 111.719 12.0049 112.21C11.6289 112.7 11.4089 113.262 11.3451 113.896Z" fill="white"/>
<path d="M25.3959 104.196C25.2336 104.966 24.9583 105.637 24.5699 106.206C24.1816 106.776 23.7199 107.209 23.1847 107.506C22.6496 107.802 22.072 107.936 21.4518 107.907L20.9168 106.99C21.3379 107.053 21.7826 106.974 22.2507 106.753C22.7067 106.53 23.1124 106.181 23.4679 105.706C23.8259 105.219 24.0771 104.633 24.2214 103.948C24.3502 103.336 24.3622 102.764 24.2573 102.231C24.1427 101.683 23.9315 101.229 23.6237 100.871C23.3063 100.497 22.8968 100.258 22.3951 100.152C21.8568 100.039 21.3619 100.113 20.9105 100.376C20.4468 100.636 20.0453 101.056 19.7059 101.636C19.3665 102.217 19.1066 102.935 18.9263 103.791L18.7949 104.415L17.7121 104.187L17.8435 103.563C18.0934 102.376 18.0948 101.399 17.8476 100.632C17.6003 99.8641 17.0852 99.3979 16.3022 99.2329C15.7883 99.1247 15.3121 99.1714 14.8736 99.3729C14.4376 99.5622 14.0667 99.8674 13.7608 100.289C13.4575 100.697 13.2491 101.171 13.1357 101.709C12.9657 102.517 12.9975 103.245 13.2312 103.895C13.4649 104.545 13.8203 105.041 14.2975 105.385L13.2716 106.069C12.8801 105.744 12.5691 105.34 12.3386 104.857C12.1107 104.362 11.9678 103.827 11.9099 103.253C11.8545 102.666 11.8887 102.079 12.0124 101.492C12.1876 100.66 12.5025 99.9532 12.9572 99.3718C13.4145 98.7781 13.9509 98.3544 14.5665 98.1008C15.1847 97.8349 15.8425 97.7753 16.5399 97.9222C17.0293 98.0253 17.4491 98.2159 17.7994 98.4941C18.1375 98.7698 18.4011 99.1256 18.5904 99.5615C18.7675 99.9949 18.8653 100.501 18.884 101.08C19.1152 100.528 19.4349 100.072 19.8432 99.7104C20.2541 99.3369 20.7164 99.0829 21.2303 98.9484C21.7345 98.799 22.2619 98.7823 22.8125 98.8982C23.5466 99.0528 24.1316 99.3996 24.5675 99.9387C25.006 100.465 25.2999 101.102 25.4492 101.849C25.5863 102.594 25.5686 103.376 25.3959 104.196Z" fill="white"/>
<path d="M25.3296 87.7118C26.1254 87.9734 26.7895 88.4154 27.3219 89.0379C27.8464 89.6447 28.1933 90.351 28.3627 91.1568C28.5321 91.9627 28.4782 92.7873 28.201 93.6307C27.9121 94.5096 27.4465 95.2252 26.8043 95.7775C26.1542 96.314 25.3668 96.6474 24.4421 96.7778C23.5174 96.9082 22.5087 96.7937 21.416 96.4345C19.6937 95.8684 18.3387 95.2058 17.351 94.4468C16.3515 93.6839 15.6877 92.8604 15.3598 91.976C15.0319 91.0917 15.0203 90.1864 15.3248 89.2599C15.602 88.4166 16.0638 87.7326 16.71 87.208C17.3444 86.6795 18.0805 86.3621 18.9182 86.2558L19.3732 87.274C18.6855 87.3243 18.0736 87.5641 17.5377 87.9933C16.9937 88.4068 16.6125 88.9461 16.3938 89.6113C16.1635 90.3121 16.1821 90.996 16.4498 91.6631C16.7175 92.3302 17.2123 92.9469 17.9343 93.5133C18.6601 94.0677 19.6051 94.5363 20.7691 94.9189C20.3645 94.5885 20.0465 94.1944 19.8153 93.7367C19.584 93.2791 19.4495 92.7874 19.4118 92.2617C19.3779 91.7241 19.4488 91.188 19.6245 90.6535C19.89 89.8458 20.3202 89.1778 20.915 88.6495C21.5138 88.1092 22.2022 87.7565 22.9805 87.5911C23.7507 87.41 24.5338 87.4502 25.3296 87.7118ZM27.1437 93.2436C27.3389 92.6497 27.3701 92.0546 27.2371 91.4581C27.1041 90.8616 26.837 90.3329 26.4358 89.8719C26.0384 89.3991 25.5428 89.0651 24.9489 88.8699C24.355 88.6747 23.7579 88.6495 23.1575 88.7943C22.561 88.9273 22.0323 89.1944 21.5714 89.5957C21.1104 89.9969 20.7823 90.4945 20.5871 91.0884C20.388 91.6942 20.353 92.3012 20.482 92.9096C20.615 93.5061 20.8821 94.0348 21.2833 94.4957C21.6727 94.9527 22.1703 95.2808 22.7761 95.4799C23.37 95.6752 23.9652 95.7063 24.5616 95.5733C25.162 95.4285 25.6927 95.1554 26.1536 94.7542C26.6146 94.3529 26.9446 93.8494 27.1437 93.2436Z" fill="white"/>
<path d="M33.6149 84.8497L30.5729 83.3014L30.6495 83.1509C30.7799 82.8946 30.821 82.6209 30.7728 82.3298C30.7245 82.0387 30.548 81.7103 30.243 81.3447C29.9381 80.979 29.4713 80.5731 28.8426 80.1268C28.2028 79.6749 27.3677 79.1657 26.3373 78.5991L23.9563 77.282L26.8403 71.6159L34.5288 75.5293L35.1243 74.3593L38.1663 75.9076L37.6474 76.9272L35.625 75.8978L32.1029 82.8175L34.1253 83.8468L33.6149 84.8497ZM31.5257 81.4294L33.9503 76.6658L27.2814 73.2714L25.4948 76.7814L26.9736 77.5972C27.9928 78.1581 28.8251 78.6729 29.4704 79.1416C30.1102 79.5935 30.5937 80.008 30.9209 80.385C31.2427 80.7451 31.4443 81.0933 31.5257 81.4294Z" fill="white"/>
<path d="M37.1184 73.2154L28.9327 67.8797L29.6291 66.8113L33.1485 69.1053L36.2004 64.4233L32.681 62.1292L33.3775 61.0608L41.5632 66.3966L40.8668 67.465L37.1588 65.048L34.1069 69.7301L37.8148 72.147L37.1184 73.2154Z" fill="white"/>
<path d="M45.571 61.5037C45.1307 62.0482 44.6199 62.4712 44.0383 62.7728C43.4471 63.0665 42.834 63.2381 42.1992 63.2875C41.5545 63.3291 40.9154 63.2545 40.2818 63.0637C39.656 62.8632 39.0709 62.5429 38.5265 62.1026C37.8167 61.5287 37.295 60.8416 36.9614 60.0412C36.6356 59.2311 36.5296 58.3977 36.6434 57.5411C36.7475 56.6766 37.0943 55.8798 37.684 55.1506C38.2893 54.4019 38.9959 53.896 39.8037 53.6327C40.6194 53.3596 41.4535 53.3025 42.306 53.4612C43.1488 53.612 43.9202 53.9704 44.6202 54.5365C44.698 54.5993 44.7757 54.6622 44.8535 54.7251C44.9216 54.7802 44.9711 54.8283 45.0021 54.8694L39.7429 61.3738C40.3266 61.7654 40.9346 62.0078 41.5668 62.1009C42.1971 62.1764 42.8038 62.1122 43.3867 61.9083C43.9678 61.6867 44.4549 61.3329 44.848 60.8468C45.2489 60.3509 45.4999 59.7821 45.6009 59.1401C45.7097 58.4885 45.6307 57.9101 45.3639 57.4049L46.2929 56.7332C46.5269 57.1796 46.66 57.6811 46.6922 58.2378C46.7245 58.7945 46.6464 59.3584 46.4579 59.9296C46.2675 60.4832 45.9719 61.0079 45.571 61.5037ZM39.0047 60.8251L43.5446 55.2104C42.959 54.8012 42.351 54.5588 41.7207 54.4833C41.0982 54.398 40.5013 54.4701 39.9299 54.6995C39.3567 54.9113 38.8696 55.2651 38.4687 55.761C38.0678 56.2568 37.8237 56.8072 37.7366 57.4121C37.6398 58.0091 37.6991 58.6118 37.9147 59.2202C38.1283 59.811 38.4917 60.346 39.0047 60.8251Z" fill="white"/>
<path d="M49.639 56.3393L42.7429 49.4433L43.6447 48.5415L49.3207 54.2175L47.8354 44.3243L48.6443 43.5154L55.5536 50.4247L54.6518 51.3265L49.0687 45.7433L50.5142 55.4641L49.639 56.3393ZM44.825 45.5842C44.2238 46.1854 43.6182 46.5081 43.0082 46.5523C42.3981 46.5965 41.8765 46.402 41.4433 45.9688L42.1064 45.3057C42.3716 45.5709 42.6899 45.6947 43.0612 45.677C43.4414 45.6505 43.8392 45.4295 44.2548 45.0139C44.6615 44.6073 44.8736 44.2271 44.8913 43.8734C44.9178 43.511 44.8029 43.175 44.5465 42.8656L45.1963 42.2157C45.6295 42.649 45.8241 43.1706 45.7798 43.7806C45.7356 44.3906 45.4174 44.9918 44.825 45.5842Z" fill="white"/>
<path d="M60.7952 45.8756L54.9898 38.016L61.3106 33.3471L67.1161 41.2067L66.0903 41.9645L60.9645 35.0251L56.6953 38.1785L61.821 45.1179L60.7952 45.8756Z" fill="white"/>
<path d="M73.3205 37.5642C72.6193 37.975 71.8807 38.1613 71.1049 38.1231C70.3398 38.0786 69.6374 37.8815 68.9978 37.5316L72.0407 42.7262L70.9403 43.3709L63.9823 31.4928L64.9695 30.9146L65.9269 32.549C65.9517 31.8245 66.1498 31.1361 66.5212 30.4838C66.8862 29.8207 67.387 29.3027 68.0236 28.9299C68.6061 28.5886 69.2128 28.3999 69.8437 28.3636C70.4682 28.3166 71.0785 28.3937 71.6747 28.5952C72.2709 28.7966 72.8209 29.1047 73.3247 29.5196C73.8331 29.9174 74.2515 30.3967 74.5802 30.9577C75.0415 31.7453 75.3062 32.5683 75.3744 33.4268C75.4471 34.2681 75.3144 35.0559 74.9764 35.79C74.6385 36.5241 74.0865 37.1155 73.3205 37.5642ZM72.4443 36.7734C72.9082 36.5016 73.2698 36.1666 73.5292 35.7683C73.7823 35.3593 73.9434 34.9171 74.0128 34.4418C74.0929 33.9601 74.0862 33.4786 73.9926 32.9973C73.8927 32.5052 73.7163 32.0434 73.4636 31.6118C73.1981 31.1587 72.8644 30.7746 72.4624 30.4594C72.0713 30.1379 71.6384 29.9061 71.1638 29.7638C70.6893 29.6216 70.2095 29.5694 69.7244 29.6072C69.2394 29.645 68.7757 29.7934 68.3334 30.0525C68.0529 30.2168 67.7932 30.4414 67.5543 30.7262C67.3155 31.0111 67.1158 31.3381 66.9554 31.7074C66.7994 32.0596 66.7024 32.4135 66.6644 32.7691C66.6263 33.1246 66.6679 33.4553 66.7891 33.7611L68.3058 36.3503C68.7122 36.6484 69.1559 36.8739 69.6368 37.0269C70.1113 37.1691 70.5943 37.2268 71.0856 37.1998C71.5814 37.1557 72.0343 37.0135 72.4443 36.7734Z" fill="white"/>
<path d="M77.4639 31.7713C77.2127 31.2125 77.157 30.6618 77.2968 30.1191C77.4316 29.565 77.7296 29.054 78.191 28.5861C78.6586 28.1017 79.263 27.6928 80.0043 27.3596C80.4376 27.1647 80.9034 26.9964 81.4017 26.8546C81.9 26.7129 82.3624 26.6284 82.7889 26.6011L82.4505 25.8485C82.1121 25.0959 81.6205 24.5971 80.9758 24.3524C80.3312 24.1076 79.6154 24.1621 78.8285 24.5158C78.3496 24.7312 77.9174 25.0352 77.5318 25.4278C77.1526 25.804 76.789 26.2759 76.4411 26.8436L75.6272 26.2225C76.0293 25.5619 76.4662 25.009 76.9378 24.564C77.4043 24.1075 77.9283 23.7485 78.5099 23.487C79.6047 22.9948 80.6123 22.9187 81.5329 23.2588C82.4535 23.5989 83.1625 24.322 83.6598 25.4282L85.5132 29.5506C85.585 29.7102 85.673 29.8146 85.7774 29.8636C85.8765 29.9013 86.0028 29.8925 86.1562 29.8372L86.5715 30.7609C86.4512 30.8287 86.348 30.8888 86.2619 30.9413C86.1758 30.9937 86.1073 31.0244 86.0566 31.0336C85.7664 31.1503 85.5087 31.1565 85.2835 31.0521C85.0584 30.9477 84.8965 30.8011 84.798 30.6124L84.4886 29.9701C84.3202 30.6627 83.9808 31.2951 83.4704 31.8673C82.9548 32.4281 82.3663 32.8572 81.7049 33.1546C81.1348 33.4109 80.5621 33.5245 79.9868 33.4952C79.4179 33.4494 78.91 33.2802 78.4631 32.9876C78.0226 32.6785 77.6895 32.273 77.4639 31.7713ZM83.7413 29.7715C83.795 29.5554 83.8227 29.3579 83.8244 29.1789C83.8262 28.9999 83.8015 28.8533 83.7502 28.7393L83.1657 27.4393C82.7113 27.4654 82.2552 27.5333 81.7974 27.6432C81.351 27.748 80.9168 27.8952 80.4949 28.0849C79.6624 28.4592 79.0639 28.927 78.6995 29.4884C78.335 30.0499 78.2809 30.6157 78.5373 31.1858C78.686 31.5165 78.9125 31.7917 79.2169 32.0113C79.5161 32.2195 79.8746 32.3461 80.2925 32.3913C80.7052 32.4251 81.134 32.342 81.5787 32.142C82.1375 31.8908 82.6076 31.5492 82.9892 31.1172C83.3821 30.6801 83.6328 30.2315 83.7413 29.7715Z" fill="white"/>
<path d="M88.3461 30.0785L85.2249 20.8192L86.4334 20.4118L87.7694 24.375L89.1556 23.9078L90.9298 18.8962L92.316 18.4289L90.295 24.1174L95.8815 27.5384L94.4597 28.0177L89.533 25.0274L88.1468 25.4947L89.5546 29.6711L88.3461 30.0785Z" fill="white"/>
<path d="M99.7067 26.5848L97.7043 18.1932L94.3112 19.0029L94.0456 17.8901L102.072 15.9748L102.338 17.0875L98.9448 17.8972L100.947 26.2888L99.7067 26.5848Z" fill="white"/>
<path d="M105.675 25.1881L104.327 15.5293L105.59 15.353L106.7 23.3029L111.476 14.5126L112.609 14.3544L113.96 24.0318L112.696 24.2081L111.605 16.3882L106.901 25.017L105.675 25.1881Z" fill="white"/>
<path d="M116.269 23.8159L115.892 14.0519L117.166 14.0027L117.328 18.1819L118.789 18.1255L121.908 13.8196L123.369 13.7632L119.823 18.6486L124.215 23.509L122.716 23.5669L118.835 19.3061L117.373 19.3626L117.543 23.7667L116.269 23.8159Z" fill="white"/>
<path d="M126.674 23.5161L127.313 13.7846L128.586 13.8682L128.06 21.878L134.519 14.2392L135.661 14.3141L135.021 24.0643L133.748 23.9808L134.265 16.102L127.909 23.5973L126.674 23.5161Z" fill="white"/>
<path d="M145.354 25.9664C144.657 25.8195 144.041 25.5558 143.508 25.1752C142.99 24.7849 142.559 24.3109 142.217 23.7532C141.887 23.1981 141.662 22.5951 141.544 21.944C141.438 21.2956 141.455 20.6349 141.597 19.962C141.788 19.0566 142.164 18.2733 142.724 17.612C143.285 16.9507 143.973 16.4758 144.788 16.1874C145.602 15.899 146.481 15.8539 147.423 16.0523C148.316 16.2404 149.061 16.6146 149.659 17.1749C150.259 17.7229 150.651 18.3804 150.834 19.1474L149.542 19.2777C149.376 18.7316 149.076 18.2725 148.644 17.9002C148.226 17.5183 147.723 17.2656 147.136 17.1419C146.5 17.0079 145.884 17.0507 145.288 17.2702C144.692 17.4898 144.175 17.8535 143.736 18.3616C143.309 18.8722 143.018 19.4946 142.863 20.2286C142.711 20.9505 142.733 21.6386 142.927 22.2928C143.121 22.9471 143.444 23.507 143.896 23.9726C144.35 24.426 144.895 24.7197 145.531 24.8536C145.947 24.9413 146.36 24.9516 146.77 24.8846C147.193 24.8203 147.57 24.6954 147.903 24.51C148.251 24.3149 148.505 24.0808 148.664 23.8078L149.817 24.4338C149.55 24.8504 149.176 25.1997 148.695 25.4817C148.229 25.7541 147.705 25.9376 147.123 26.0322C146.555 26.1171 145.966 26.0952 145.354 25.9664Z" fill="white"/>
<path d="M154.859 28.1848L158.188 18.9983L159.387 19.4329L157.962 23.3649L159.338 23.8634L163.848 21.0497L165.224 21.5481L160.098 24.7374L162.335 30.8944L160.925 30.3831L158.935 24.9742L157.56 24.4757L156.058 28.6194L154.859 28.1848Z" fill="white"/>
<path d="M163.076 31.1706L163.581 30.1229C163.885 30.2693 164.193 30.3205 164.506 30.2767C164.824 30.2215 165.168 30.0402 165.538 29.7326C165.919 29.4305 166.331 28.9629 166.775 28.3299C167.224 27.6856 167.722 26.8364 168.271 25.7824L169.552 23.3808L175.264 26.1299L171.027 34.9344L169.878 34.3814L173.619 26.6077L170.07 24.8997L169.304 26.4043C168.674 27.5994 168.087 28.5729 167.545 29.3249C167.008 30.0655 166.49 30.6074 165.992 30.9505C165.505 31.2989 165.022 31.4824 164.541 31.5008C164.06 31.5193 163.572 31.4092 163.076 31.1706Z" fill="white"/>
<path d="M173.817 36.3952L178.961 28.11L180.045 28.7827L175.811 35.6021L185.106 31.9028L186.077 32.5063L180.923 40.8075L179.84 40.1348L184.005 33.4269L174.869 37.0482L173.817 36.3952Z" fill="white"/>
<path d="M186.247 44.9994C185.695 44.5691 185.263 44.0661 184.95 43.4901C184.646 42.9043 184.463 42.2945 184.402 41.6606C184.349 41.0169 184.412 40.3765 184.591 39.7395C184.78 39.1102 185.09 38.5193 185.52 37.967C186.081 37.2469 186.759 36.7128 187.553 36.3646C188.357 36.0241 189.188 35.9029 190.047 36.0011C190.913 36.0895 191.716 36.4217 192.456 36.9979C193.215 37.5895 193.734 38.2868 194.012 39.0897C194.3 39.9003 194.372 40.7332 194.229 41.5884C194.094 42.4338 193.749 43.2116 193.196 43.9218C193.135 44.0007 193.073 44.0797 193.012 44.1586C192.958 44.2276 192.911 44.278 192.87 44.3098L186.271 39.1699C185.89 39.7607 185.659 40.373 185.577 41.0068C185.513 41.6384 185.588 42.2437 185.803 42.8229C186.035 43.3999 186.398 43.8804 186.891 44.2646C187.394 44.6564 187.967 44.8969 188.611 44.9862C189.265 45.0832 189.841 44.9936 190.342 44.7176L191.03 45.6343C190.588 45.8764 190.089 46.0186 189.533 46.061C188.977 46.1034 188.412 46.0355 187.837 45.8575C187.28 45.6773 186.75 45.3912 186.247 44.9994ZM186.806 38.4218L192.503 42.8588C192.901 42.2658 193.132 41.6535 193.196 41.0219C193.27 40.398 193.187 39.8025 192.948 39.2353C192.725 38.6661 192.363 38.1855 191.86 37.7937C191.357 37.4018 190.802 37.1679 190.196 37.0918C189.597 37.0059 188.995 37.0762 188.391 37.3027C187.804 37.5271 187.276 37.9002 186.806 38.4218Z" fill="white"/>
<path d="M191.016 48.5636L197.773 41.5054L198.694 42.3873L195.789 45.4219L199.826 49.2868L202.731 46.2522L203.653 47.1341L196.896 54.1923L195.974 53.3104L199.035 50.1132L194.998 46.2483L191.937 49.4456L191.016 48.5636Z" fill="white"/>
<path d="M200.137 57.7784L206.665 52.1372L204.384 49.498L205.249 48.7499L210.645 54.9934L209.78 55.7414L207.499 53.1021L200.971 58.7433L200.137 57.7784Z" fill="white"/>
<path d="M206.092 60.3566C206.59 59.9998 207.119 59.8363 207.679 59.8661C208.249 59.8886 208.808 60.0797 209.358 60.4394C209.926 60.802 210.446 61.3137 210.919 61.9744C211.196 62.3606 211.453 62.7839 211.691 63.2444C211.928 63.7048 212.102 64.1413 212.213 64.554L212.884 64.0734C213.555 63.5929 213.947 63.0124 214.059 62.3321C214.172 61.6517 213.977 60.9608 213.474 60.2595C213.169 59.8326 212.785 59.469 212.324 59.1687C211.88 58.8714 211.346 58.6083 210.72 58.3795L211.168 57.4588C211.895 57.7224 212.524 58.0413 213.053 58.4156C213.593 58.7826 214.049 59.2253 214.42 59.7437C215.119 60.7195 215.393 61.6922 215.241 62.6619C215.09 63.6315 214.521 64.4695 213.535 65.1757L209.861 67.8078C209.719 67.9097 209.634 68.0167 209.606 68.1286C209.589 68.2333 209.623 68.3553 209.707 68.4948L208.884 69.0845C208.793 68.98 208.714 68.8907 208.646 68.8167C208.577 68.7426 208.534 68.6816 208.515 68.6337C208.343 68.3723 208.286 68.1209 208.344 67.8796C208.401 67.6382 208.513 67.4506 208.679 67.3166L209.247 66.8864C208.535 66.8583 207.848 66.6506 207.186 66.2634C206.534 65.869 205.997 65.3769 205.575 64.7874C205.211 64.2792 204.986 63.7402 204.901 63.1706C204.834 62.6038 204.899 62.0725 205.098 61.5766C205.314 61.0836 205.645 60.6769 206.092 60.3566ZM209.294 66.1145C209.516 66.1244 209.716 66.1125 209.891 66.0789C210.067 66.0452 210.206 65.9919 210.308 65.9191L211.466 65.0891C211.351 64.6489 211.194 64.2152 210.996 63.7882C210.805 63.3713 210.575 62.9748 210.305 62.5987C209.774 61.8567 209.197 61.3626 208.574 61.1163C207.952 60.8701 207.387 60.9289 206.878 61.293C206.584 61.5041 206.359 61.7806 206.204 62.1224C206.059 62.4569 206.006 62.8334 206.044 63.2519C206.092 63.6632 206.259 64.067 206.543 64.4634C206.899 64.9615 207.327 65.3548 207.826 65.6434C208.332 65.9421 208.822 66.0992 209.294 66.1145Z" fill="white"/>
<path d="M209.915 70.4964L218.453 65.7452L219.091 66.8924L215.096 73.5586L222.876 73.6935L223.487 74.7915L214.949 79.5427L214.356 78.4775L221.223 74.6565L214.166 74.5484L213.764 73.8273L217.374 67.7406L210.508 71.5616L209.915 70.4964Z" fill="white"/>
<path d="M216.277 82.3384L225.301 78.6402L225.785 79.8203L218.357 82.8641L228.056 85.3144L228.49 86.373L219.449 90.0782L218.965 88.8982L226.271 85.9041L216.746 83.4837L216.277 82.3384Z" fill="white"/>
</g>
<circle opacity="0.4" cx="19.4345" cy="141.724" r="2.30948" fill="white"/>
<circle opacity="0.4" cx="230.059" cy="108.466" r="2.30948" fill="white"/>
<path d="M102.045 107.102V108.701H89.7438V90.3919H101.812V91.9907H91.549V98.5924H100.497V100.114H91.549V107.102H102.045ZM103.808 108.779V107.18C104.272 107.18 104.685 107.059 105.046 106.819C105.407 106.561 105.725 106.131 106 105.529C106.292 104.928 106.524 104.102 106.696 103.054C106.868 101.988 106.98 100.638 107.031 99.005L107.186 95.2658H115.902V108.701H114.149V96.8388H108.733L108.682 99.1597C108.613 101.016 108.467 102.572 108.243 103.827C108.02 105.065 107.702 106.045 107.289 106.767C106.894 107.489 106.404 108.005 105.819 108.314C105.235 108.624 104.564 108.779 103.808 108.779ZM125.581 108.959C124.619 108.959 123.725 108.779 122.899 108.418C122.074 108.039 121.361 107.532 120.759 106.896C120.157 106.243 119.685 105.495 119.341 104.652C119.014 103.81 118.851 102.908 118.851 101.945C118.851 100.69 119.134 99.5379 119.702 98.4892C120.286 97.4405 121.086 96.6067 122.1 95.9878C123.114 95.3517 124.266 95.0337 125.556 95.0337C126.879 95.0337 128.031 95.3517 129.011 95.9878C130.008 96.6239 130.79 97.4663 131.358 98.515C131.925 99.5465 132.209 100.681 132.209 101.919C132.209 102.057 132.209 102.194 132.209 102.332C132.209 102.452 132.2 102.546 132.183 102.615H120.682C120.768 103.578 121.034 104.438 121.481 105.194C121.945 105.933 122.538 106.526 123.26 106.973C124 107.403 124.799 107.618 125.659 107.618C126.535 107.618 127.361 107.395 128.134 106.948C128.925 106.501 129.475 105.916 129.785 105.194L131.306 105.607C131.031 106.243 130.61 106.819 130.043 107.334C129.475 107.85 128.805 108.254 128.031 108.546C127.275 108.822 126.458 108.959 125.581 108.959ZM120.63 101.352H130.558C130.49 100.372 130.223 99.5121 129.759 98.7729C129.312 98.0336 128.719 97.4577 127.98 97.0451C127.258 96.6153 126.458 96.4004 125.581 96.4004C124.705 96.4004 123.905 96.6153 123.183 97.0451C122.461 97.4577 121.868 98.0422 121.404 98.7987C120.957 99.5379 120.699 100.389 120.63 101.352ZM134.888 108.701V95.2658H136.642V101.042H144.327V95.2658H146.08V108.701H144.327V102.615H136.642V108.701H134.888ZM148.866 104.833C148.866 103.991 149.106 103.269 149.588 102.667C150.069 102.048 150.731 101.575 151.573 101.249C152.433 100.905 153.421 100.733 154.539 100.733C155.192 100.733 155.871 100.784 156.576 100.887C157.281 100.991 157.909 101.145 158.459 101.352V100.217C158.459 99.0823 158.123 98.1798 157.453 97.5093C156.782 96.8388 155.854 96.5036 154.668 96.5036C153.946 96.5036 153.232 96.6411 152.527 96.9162C151.84 97.1741 151.118 97.5609 150.361 98.0766L149.691 96.8388C150.568 96.2371 151.427 95.7901 152.27 95.4979C153.112 95.1884 153.972 95.0337 154.848 95.0337C156.499 95.0337 157.805 95.5064 158.768 96.452C159.731 97.3975 160.212 98.7041 160.212 100.372V106.587C160.212 106.827 160.264 107.008 160.367 107.128C160.47 107.231 160.633 107.291 160.857 107.309V108.701C160.668 108.718 160.504 108.736 160.367 108.753C160.229 108.77 160.126 108.77 160.057 108.753C159.628 108.736 159.301 108.598 159.078 108.34C158.854 108.082 158.734 107.807 158.717 107.515L158.691 106.535C158.089 107.309 157.307 107.91 156.344 108.34C155.381 108.753 154.401 108.959 153.404 108.959C152.545 108.959 151.762 108.779 151.058 108.418C150.37 108.039 149.828 107.541 149.433 106.922C149.055 106.286 148.866 105.589 148.866 104.833ZM157.866 105.865C158.055 105.624 158.201 105.392 158.304 105.168C158.407 104.945 158.459 104.747 158.459 104.575V102.615C157.874 102.392 157.264 102.22 156.628 102.1C156.009 101.979 155.381 101.919 154.745 101.919C153.49 101.919 152.476 102.168 151.702 102.667C150.929 103.165 150.542 103.844 150.542 104.704C150.542 105.203 150.671 105.675 150.929 106.122C151.187 106.552 151.565 106.913 152.063 107.205C152.562 107.481 153.146 107.618 153.817 107.618C154.659 107.618 155.441 107.455 156.164 107.128C156.903 106.801 157.47 106.38 157.866 105.865ZM73.2889 136.701V121.796L66.6615 133.375H65.5268L58.8736 121.796V136.701H57.0684V118.392H58.9251L66.0684 130.925L73.2631 118.392H75.0941V136.701H73.2889ZM78.113 132.833C78.113 131.991 78.3537 131.269 78.8351 130.667C79.3165 130.048 79.9783 129.575 80.8207 129.249C81.6803 128.905 82.6689 128.733 83.7863 128.733C84.4396 128.733 85.1187 128.784 85.8236 128.887C86.5284 128.991 87.1559 129.145 87.7061 129.352V128.217C87.7061 127.082 87.3708 126.18 86.7004 125.509C86.0299 124.839 85.1015 124.504 83.9153 124.504C83.1932 124.504 82.4798 124.641 81.7749 124.916C81.0872 125.174 80.3652 125.561 79.6087 126.077L78.9382 124.839C79.815 124.237 80.6746 123.79 81.517 123.498C82.3594 123.188 83.219 123.034 84.0958 123.034C85.7462 123.034 87.0528 123.506 88.0155 124.452C88.9783 125.398 89.4596 126.704 89.4596 128.372V134.587C89.4596 134.827 89.5112 135.008 89.6144 135.128C89.7175 135.231 89.8808 135.291 90.1043 135.309V136.701C89.9152 136.718 89.7519 136.736 89.6144 136.753C89.4768 136.77 89.3737 136.77 89.3049 136.753C88.8751 136.736 88.5485 136.598 88.325 136.34C88.1015 136.082 87.9811 135.807 87.964 135.515L87.9382 134.535C87.3364 135.309 86.5542 135.91 85.5915 136.34C84.6287 136.753 83.6488 136.959 82.6517 136.959C81.7921 136.959 81.0099 136.779 80.305 136.418C79.6173 136.039 79.0758 135.541 78.6804 134.922C78.3021 134.286 78.113 133.589 78.113 132.833ZM87.113 133.865C87.3021 133.624 87.4482 133.392 87.5513 133.168C87.6545 132.945 87.7061 132.747 87.7061 132.575V130.615C87.1216 130.392 86.5112 130.22 85.8751 130.1C85.2562 129.979 84.6287 129.919 83.9926 129.919C82.7376 129.919 81.7233 130.168 80.9497 130.667C80.1761 131.165 79.7892 131.844 79.7892 132.704C79.7892 133.203 79.9182 133.675 80.1761 134.122C80.4339 134.552 80.8122 134.913 81.3107 135.205C81.8093 135.481 82.3938 135.618 83.0643 135.618C83.9067 135.618 84.6889 135.455 85.411 135.128C86.1502 134.801 86.7175 134.38 87.113 133.865ZM93.2226 136.701V123.266H94.9762V129.016H96.9876L101.5 123.266H103.512L98.3802 129.79L104.157 136.701H102.094L96.9876 130.641H94.9762V136.701H93.2226ZM111.769 136.959C110.789 136.959 109.886 136.779 109.061 136.418C108.253 136.039 107.54 135.524 106.921 134.87C106.319 134.217 105.846 133.469 105.502 132.627C105.176 131.784 105.012 130.89 105.012 129.945C105.012 128.673 105.296 127.512 105.863 126.463C106.431 125.415 107.222 124.581 108.236 123.962C109.25 123.343 110.419 123.034 111.743 123.034C112.998 123.034 114.107 123.326 115.07 123.91C116.032 124.478 116.746 125.251 117.21 126.231L115.508 126.773C115.13 126.085 114.597 125.552 113.909 125.174C113.239 124.779 112.491 124.581 111.666 124.581C110.772 124.581 109.955 124.813 109.216 125.277C108.477 125.741 107.884 126.377 107.437 127.185C107.007 127.994 106.792 128.913 106.792 129.945C106.792 130.959 107.015 131.879 107.462 132.704C107.909 133.529 108.502 134.191 109.242 134.69C109.981 135.171 110.798 135.412 111.691 135.412C112.276 135.412 112.835 135.309 113.368 135.102C113.918 134.896 114.391 134.621 114.786 134.277C115.199 133.916 115.474 133.529 115.611 133.117L117.339 133.632C117.098 134.269 116.694 134.844 116.127 135.36C115.577 135.859 114.924 136.254 114.167 136.546C113.428 136.822 112.628 136.959 111.769 136.959ZM120.068 136.701V123.292H121.822V134.329L129.996 123.266H131.569V136.701H129.816V125.845L121.77 136.701H120.068ZM135.38 136.701V123.266H137.185L142.523 132.524L147.887 123.266H149.614V136.701H147.938V125.896L143.09 134.303H141.955L137.056 125.896V136.701H135.38ZM159.212 136.959C158.249 136.959 157.355 136.779 156.53 136.418C155.722 136.039 155.017 135.532 154.415 134.896C153.831 134.243 153.375 133.503 153.049 132.678C152.722 131.836 152.559 130.951 152.559 130.022C152.559 129.059 152.722 128.165 153.049 127.34C153.375 126.498 153.839 125.759 154.441 125.122C155.043 124.469 155.748 123.962 156.556 123.601C157.381 123.223 158.275 123.034 159.238 123.034C160.2 123.034 161.086 123.223 161.894 123.601C162.702 123.962 163.407 124.469 164.008 125.122C164.61 125.759 165.074 126.498 165.401 127.34C165.728 128.165 165.891 129.059 165.891 130.022C165.891 130.951 165.728 131.836 165.401 132.678C165.074 133.503 164.61 134.243 164.008 134.896C163.424 135.532 162.719 136.039 161.894 136.418C161.086 136.779 160.192 136.959 159.212 136.959ZM154.338 130.048C154.338 131.045 154.553 131.956 154.983 132.781C155.43 133.589 156.023 134.234 156.762 134.716C157.501 135.18 158.318 135.412 159.212 135.412C160.106 135.412 160.922 135.171 161.662 134.69C162.401 134.208 162.994 133.555 163.441 132.73C163.888 131.887 164.112 130.976 164.112 129.996C164.112 128.999 163.888 128.088 163.441 127.263C162.994 126.438 162.401 125.784 161.662 125.303C160.922 124.822 160.106 124.581 159.212 124.581C158.318 124.581 157.501 124.83 156.762 125.329C156.04 125.827 155.455 126.489 155.008 127.314C154.561 128.122 154.338 129.034 154.338 130.048ZM168.798 136.701V123.266H175.503C176.259 123.266 176.895 123.429 177.411 123.756C177.927 124.065 178.314 124.469 178.571 124.968C178.846 125.466 178.984 125.999 178.984 126.567C178.984 127.289 178.812 127.942 178.468 128.526C178.124 129.094 177.626 129.524 176.973 129.816C177.746 130.039 178.374 130.443 178.855 131.028C179.336 131.612 179.577 132.317 179.577 133.142C179.577 133.865 179.397 134.492 179.036 135.025C178.692 135.558 178.21 135.971 177.591 136.263C176.99 136.555 176.293 136.701 175.503 136.701H168.798ZM170.474 135.438H175.451C175.898 135.438 176.302 135.326 176.663 135.102C177.041 134.862 177.334 134.552 177.54 134.174C177.763 133.796 177.875 133.4 177.875 132.988C177.875 132.541 177.772 132.137 177.566 131.776C177.359 131.397 177.084 131.097 176.74 130.873C176.397 130.65 176.001 130.538 175.554 130.538H170.474V135.438ZM170.474 129.326H175.038C175.485 129.326 175.881 129.206 176.225 128.965C176.569 128.724 176.835 128.415 177.024 128.036C177.213 127.658 177.308 127.263 177.308 126.85C177.308 126.231 177.101 125.69 176.689 125.226C176.293 124.761 175.778 124.529 175.142 124.529H170.474V129.326ZM181.541 132.833C181.541 131.991 181.782 131.269 182.263 130.667C182.744 130.048 183.406 129.575 184.249 129.249C185.108 128.905 186.097 128.733 187.214 128.733C187.868 128.733 188.547 128.784 189.252 128.887C189.956 128.991 190.584 129.145 191.134 129.352V128.217C191.134 127.082 190.799 126.18 190.128 125.509C189.458 124.839 188.529 124.504 187.343 124.504C186.621 124.504 185.908 124.641 185.203 124.916C184.515 125.174 183.793 125.561 183.037 126.077L182.366 124.839C183.243 124.237 184.103 123.79 184.945 123.498C185.787 123.188 186.647 123.034 187.524 123.034C189.174 123.034 190.481 123.506 191.443 124.452C192.406 125.398 192.888 126.704 192.888 128.372V134.587C192.888 134.827 192.939 135.008 193.042 135.128C193.145 135.231 193.309 135.291 193.532 135.309V136.701C193.343 136.718 193.18 136.736 193.042 136.753C192.905 136.77 192.802 136.77 192.733 136.753C192.303 136.736 191.976 136.598 191.753 136.34C191.529 136.082 191.409 135.807 191.392 135.515L191.366 134.535C190.764 135.309 189.982 135.91 189.019 136.34C188.057 136.753 187.077 136.959 186.08 136.959C185.22 136.959 184.438 136.779 183.733 136.418C183.045 136.039 182.504 135.541 182.108 134.922C181.73 134.286 181.541 133.589 181.541 132.833ZM190.541 133.865C190.73 133.624 190.876 133.392 190.979 133.168C191.082 132.945 191.134 132.747 191.134 132.575V130.615C190.55 130.392 189.939 130.22 189.303 130.1C188.684 129.979 188.057 129.919 187.421 129.919C186.166 129.919 185.151 130.168 184.378 130.667C183.604 131.165 183.217 131.844 183.217 132.704C183.217 133.203 183.346 133.675 183.604 134.122C183.862 134.552 184.24 134.913 184.739 135.205C185.237 135.481 185.822 135.618 186.492 135.618C187.335 135.618 188.117 135.455 188.839 135.128C189.578 134.801 190.145 134.38 190.541 133.865Z" fill="white"/>
<path d="M89.4322 163.815C88.743 163.815 88.1522 163.651 87.6599 163.323C87.1676 162.995 86.7902 162.557 86.5276 162.01C86.276 161.463 86.1502 160.856 86.1502 160.189C86.1502 159.5 86.2814 158.843 86.544 158.22C86.8066 157.585 87.1676 157.027 87.6271 156.546C88.0975 156.053 88.6391 155.665 89.2517 155.381C89.8753 155.096 90.5427 154.954 91.2538 154.954C92.0415 154.954 92.6815 155.14 93.1738 155.512C93.6771 155.873 94.0053 156.365 94.1584 156.989L93.0097 157.333C92.8675 156.885 92.6268 156.54 92.2876 156.3C91.9594 156.059 91.5601 155.938 91.0897 155.938C90.6083 155.938 90.1379 156.048 89.6784 156.267C89.2298 156.475 88.825 156.77 88.464 157.153C88.1139 157.536 87.8295 157.973 87.6107 158.466C87.4028 158.958 87.2989 159.483 87.2989 160.041C87.2989 160.577 87.3919 161.053 87.5779 161.469C87.7748 161.885 88.0428 162.218 88.382 162.47C88.7321 162.711 89.1259 162.831 89.5635 162.831C89.9136 162.831 90.2637 162.765 90.6138 162.634C90.9748 162.503 91.2975 162.328 91.582 162.109C91.8664 161.879 92.0743 161.633 92.2056 161.37L93.2394 161.699C93.0097 162.103 92.6924 162.47 92.2876 162.798C91.8829 163.115 91.4343 163.367 90.942 163.553C90.4497 163.728 89.9464 163.815 89.4322 163.815ZM98.4808 163.815C97.6821 163.815 97.0093 163.624 96.4623 163.241C95.9262 162.847 95.5378 162.333 95.2971 161.699C95.0565 161.053 94.9689 160.353 95.0346 159.598C95.1002 158.985 95.2643 158.4 95.5269 157.842C95.7895 157.284 96.1341 156.792 96.5607 156.365C96.9984 155.928 97.5016 155.583 98.0705 155.331C98.6503 155.08 99.2739 154.954 99.9413 154.954C100.412 154.954 100.86 155.041 101.287 155.216C101.725 155.381 102.08 155.638 102.354 155.988C102.627 156.327 102.769 156.748 102.78 157.251C102.791 158.083 102.436 158.723 101.714 159.171C100.992 159.62 99.8538 159.844 98.3002 159.844C97.8845 159.844 97.4469 159.839 96.9874 159.828C96.5279 159.806 96.0192 159.773 95.4613 159.729L95.7566 158.876C96.249 158.909 96.6975 158.936 97.1023 158.958C97.5071 158.969 97.9064 158.974 98.3002 158.974C99.1536 158.974 99.8209 158.903 100.302 158.761C100.795 158.619 101.139 158.422 101.336 158.17C101.544 157.908 101.637 157.607 101.615 157.268C101.604 156.961 101.506 156.704 101.32 156.496C101.145 156.289 100.92 156.135 100.647 156.037C100.373 155.938 100.078 155.889 99.7608 155.889C99.2903 155.889 98.8418 155.988 98.4151 156.185C97.9994 156.382 97.6274 156.655 97.2992 157.005C96.971 157.344 96.703 157.738 96.4951 158.187C96.2872 158.635 96.1669 159.106 96.1341 159.598C96.0794 160.222 96.1395 160.785 96.3146 161.288C96.4896 161.781 96.7741 162.169 97.1679 162.453C97.5727 162.738 98.0705 162.88 98.6613 162.88C99.0332 162.88 99.3669 162.825 99.6623 162.716C99.9686 162.607 100.231 162.475 100.45 162.322C100.68 162.158 100.86 161.999 100.992 161.846C101.123 161.693 101.21 161.573 101.254 161.485L102.239 161.813C102.184 161.912 102.069 162.071 101.894 162.289C101.719 162.508 101.473 162.732 101.156 162.962C100.849 163.192 100.472 163.394 100.023 163.569C99.5857 163.733 99.0715 163.815 98.4808 163.815ZM103.679 163.651L105.484 155.102H106.715L108.668 160.845L113.082 155.102H114.379L112.574 163.651H111.507L112.968 156.693L108.849 162.125H108.126L106.223 156.661L104.746 163.651H103.679ZM118.769 163.815C117.971 163.815 117.298 163.624 116.751 163.241C116.215 162.847 115.826 162.333 115.586 161.699C115.345 161.053 115.258 160.353 115.323 159.598C115.389 158.985 115.553 158.4 115.816 157.842C116.078 157.284 116.423 156.792 116.849 156.365C117.287 155.928 117.79 155.583 118.359 155.331C118.939 155.08 119.563 154.954 120.23 154.954C120.7 154.954 121.149 155.041 121.576 155.216C122.013 155.381 122.369 155.638 122.642 155.988C122.916 156.327 123.058 156.748 123.069 157.251C123.08 158.083 122.724 158.723 122.002 159.171C121.28 159.62 120.142 159.844 118.589 159.844C118.173 159.844 117.736 159.839 117.276 159.828C116.817 159.806 116.308 159.773 115.75 159.729L116.045 158.876C116.538 158.909 116.986 158.936 117.391 158.958C117.796 158.969 118.195 158.974 118.589 158.974C119.442 158.974 120.11 158.903 120.591 158.761C121.083 158.619 121.428 158.422 121.625 158.17C121.833 157.908 121.926 157.607 121.904 157.268C121.893 156.961 121.794 156.704 121.608 156.496C121.433 156.289 121.209 156.135 120.936 156.037C120.662 155.938 120.367 155.889 120.049 155.889C119.579 155.889 119.13 155.988 118.704 156.185C118.288 156.382 117.916 156.655 117.588 157.005C117.26 157.344 116.992 157.738 116.784 158.187C116.576 158.635 116.456 159.106 116.423 159.598C116.368 160.222 116.428 160.785 116.603 161.288C116.778 161.781 117.063 162.169 117.457 162.453C117.861 162.738 118.359 162.88 118.95 162.88C119.322 162.88 119.656 162.825 119.951 162.716C120.257 162.607 120.52 162.475 120.739 162.322C120.968 162.158 121.149 161.999 121.28 161.846C121.411 161.693 121.499 161.573 121.543 161.485L122.527 161.813C122.473 161.912 122.358 162.071 122.183 162.289C122.008 162.508 121.762 162.732 121.444 162.962C121.138 163.192 120.76 163.394 120.312 163.569C119.874 163.733 119.36 163.815 118.769 163.815ZM126.298 163.815C124.963 163.815 124.296 163.082 124.296 161.616C124.296 161.398 124.312 161.168 124.345 160.927C124.378 160.676 124.422 160.408 124.477 160.123L125.56 155.102H126.659L125.642 159.926C125.532 160.419 125.478 160.845 125.478 161.206C125.478 162.289 125.948 162.831 126.889 162.831C127.305 162.831 127.72 162.738 128.136 162.552C128.552 162.355 128.946 162.081 129.318 161.731C129.701 161.37 130.018 160.955 130.269 160.484L131.418 155.102H132.534L131.041 162.076C131.03 162.142 131.019 162.202 131.008 162.256C130.997 162.311 130.992 162.355 130.992 162.388C130.992 162.574 131.095 162.667 131.303 162.667L131.09 163.651C131.002 163.662 130.92 163.673 130.844 163.684C130.767 163.695 130.696 163.695 130.63 163.684C130.401 163.673 130.226 163.613 130.105 163.504C129.985 163.383 129.925 163.23 129.925 163.044C129.925 162.989 129.93 162.924 129.941 162.847C129.952 162.76 129.974 162.628 130.007 162.453C130.04 162.278 130.089 162.032 130.155 161.715C129.651 162.371 129.055 162.886 128.366 163.258C127.688 163.629 126.998 163.815 126.298 163.815ZM129.236 153.707C128.776 153.707 128.393 153.641 128.087 153.51C127.791 153.378 127.573 153.203 127.43 152.985C127.299 152.755 127.244 152.509 127.266 152.246H127.906C127.895 152.476 127.988 152.684 128.185 152.87C128.382 153.045 128.743 153.132 129.268 153.132C129.783 153.132 130.144 153.05 130.352 152.886C130.57 152.711 130.723 152.498 130.811 152.246H131.451C131.44 152.509 131.347 152.755 131.172 152.985C130.997 153.203 130.745 153.378 130.417 153.51C130.1 153.641 129.706 153.707 129.236 153.707ZM133.311 163.651L135.116 155.102H136.232L135.428 158.827H140.335L141.106 155.102H142.222L140.417 163.651H139.301L140.138 159.713H135.247L134.427 163.651H133.311ZM145.966 163.766C145.331 163.766 144.779 163.64 144.308 163.389C143.849 163.137 143.521 162.76 143.324 162.256C143.138 161.742 143.116 161.091 143.258 160.304C143.444 159.439 143.635 158.575 143.832 157.711C144.04 156.836 144.243 155.966 144.44 155.102H145.555C145.359 155.977 145.156 156.852 144.948 157.727C144.751 158.602 144.56 159.478 144.374 160.353C144.221 161.217 144.314 161.852 144.653 162.256C145.003 162.65 145.484 162.847 146.097 162.847C146.677 162.847 147.153 162.667 147.525 162.306C147.908 161.934 148.137 161.436 148.214 160.812C148.301 160.178 148.187 159.68 147.869 159.319C147.563 158.958 147.011 158.777 146.212 158.777H144.308L144.456 157.875H146.491C147.005 157.875 147.454 157.951 147.837 158.105C148.23 158.247 148.548 158.455 148.788 158.728C149.04 159.002 149.215 159.324 149.313 159.696C149.412 160.068 149.428 160.484 149.363 160.944C149.275 161.567 149.073 162.092 148.755 162.519C148.449 162.935 148.055 163.247 147.574 163.454C147.104 163.662 146.567 163.766 145.966 163.766ZM152.054 155.102H153.17L151.348 163.651H150.232L152.054 155.102ZM156.042 163.815C154.707 163.815 154.04 163.082 154.04 161.616C154.04 161.398 154.056 161.168 154.089 160.927C154.122 160.676 154.166 160.408 154.22 160.123L155.303 155.102H156.403L155.386 159.926C155.276 160.419 155.221 160.845 155.221 161.206C155.221 162.289 155.692 162.831 156.633 162.831C157.048 162.831 157.464 162.738 157.88 162.552C158.296 162.355 158.689 162.081 159.061 161.731C159.444 161.37 159.762 160.955 160.013 160.484L161.162 155.102H162.278L160.785 162.076C160.774 162.142 160.763 162.202 160.752 162.256C160.741 162.311 160.735 162.355 160.735 162.388C160.735 162.574 160.839 162.667 161.047 162.667L160.834 163.651C160.746 163.662 160.664 163.673 160.588 163.684C160.511 163.695 160.44 163.695 160.374 163.684C160.145 163.673 159.97 163.613 159.849 163.504C159.729 163.383 159.669 163.23 159.669 163.044C159.669 162.989 159.674 162.924 159.685 162.847C159.696 162.76 159.718 162.628 159.751 162.453C159.784 162.278 159.833 162.032 159.898 161.715C159.395 162.371 158.799 162.886 158.11 163.258C157.431 163.629 156.742 163.815 156.042 163.815ZM158.979 153.707C158.52 153.707 158.137 153.641 157.831 153.51C157.535 153.378 157.316 153.203 157.174 152.985C157.043 152.755 156.988 152.509 157.01 152.246H157.65C157.639 152.476 157.732 152.684 157.929 152.87C158.126 153.045 158.487 153.132 159.012 153.132C159.526 153.132 159.887 153.05 160.095 152.886C160.314 152.711 160.467 152.498 160.555 152.246H161.195C161.184 152.509 161.091 152.755 160.916 152.985C160.741 153.203 160.489 153.378 160.161 153.51C159.844 153.641 159.45 153.707 158.979 153.707ZM88.6952 182.651L90.5003 174.102H97.3599L95.5383 182.651H94.4224L96.047 174.988H91.4193L89.8111 182.651H88.6952ZM101.323 182.815C100.634 182.815 100.043 182.651 99.551 182.323C99.0587 181.995 98.6813 181.557 98.4187 181.01C98.1671 180.463 98.0413 179.856 98.0413 179.189C98.0413 178.5 98.1726 177.843 98.4351 177.22C98.6977 176.585 99.0587 176.027 99.5182 175.546C99.9886 175.053 100.53 174.665 101.143 174.381C101.766 174.096 102.434 173.954 103.145 173.954C103.933 173.954 104.573 174.14 105.065 174.512C105.568 174.873 105.896 175.365 106.05 175.989L104.901 176.333C104.759 175.885 104.518 175.54 104.179 175.3C103.851 175.059 103.451 174.938 102.981 174.938C102.499 174.938 102.029 175.048 101.57 175.267C101.121 175.475 100.716 175.77 100.355 176.153C100.005 176.536 99.7206 176.973 99.5018 177.466C99.2939 177.958 99.19 178.483 99.19 179.041C99.19 179.577 99.283 180.053 99.469 180.469C99.6659 180.885 99.9339 181.218 100.273 181.47C100.623 181.711 101.017 181.831 101.455 181.831C101.805 181.831 102.155 181.765 102.505 181.634C102.866 181.503 103.189 181.328 103.473 181.109C103.758 180.879 103.965 180.633 104.097 180.37L105.131 180.699C104.901 181.103 104.584 181.47 104.179 181.798C103.774 182.115 103.325 182.367 102.833 182.553C102.341 182.728 101.838 182.815 101.323 182.815ZM108.878 182.815C107.543 182.815 106.876 182.082 106.876 180.616C106.876 180.398 106.892 180.168 106.925 179.927C106.958 179.676 107.002 179.408 107.057 179.123L108.14 174.102H109.239L108.222 178.926C108.112 179.419 108.058 179.845 108.058 180.206C108.058 181.289 108.528 181.831 109.469 181.831C109.885 181.831 110.3 181.738 110.716 181.552C111.132 181.355 111.526 181.081 111.898 180.731C112.281 180.37 112.598 179.955 112.849 179.484L113.998 174.102H115.114L113.621 181.076C113.61 181.142 113.599 181.202 113.588 181.256C113.577 181.311 113.572 181.355 113.572 181.388C113.572 181.574 113.675 181.667 113.883 181.667L113.67 182.651C113.582 182.662 113.5 182.673 113.424 182.684C113.347 182.695 113.276 182.695 113.21 182.684C112.981 182.673 112.806 182.613 112.685 182.504C112.565 182.383 112.505 182.23 112.505 182.044C112.505 181.989 112.51 181.924 112.521 181.847C112.532 181.76 112.554 181.628 112.587 181.453C112.62 181.278 112.669 181.032 112.735 180.715C112.231 181.371 111.635 181.886 110.946 182.258C110.268 182.629 109.578 182.815 108.878 182.815ZM118.796 178.401L116.613 174.102H117.811L119.485 177.449L119.55 177.695L119.731 177.466L122.849 174.102H124.047L120.043 178.401L122.225 182.651H121.027L119.353 179.32L119.255 179.09L119.091 179.304L116.006 182.651H114.791L118.796 178.401ZM127.812 182.815C126.992 182.815 126.291 182.613 125.712 182.208C125.132 181.793 124.705 181.251 124.432 180.584C124.169 179.916 124.092 179.189 124.202 178.401C124.289 177.788 124.47 177.22 124.743 176.694C125.028 176.158 125.389 175.688 125.826 175.283C126.264 174.867 126.756 174.545 127.303 174.315C127.861 174.074 128.447 173.954 129.059 173.954C129.88 173.954 130.58 174.162 131.16 174.577C131.74 174.982 132.166 175.518 132.44 176.186C132.713 176.853 132.795 177.592 132.686 178.401C132.609 178.992 132.429 179.555 132.144 180.091C131.871 180.616 131.515 181.087 131.078 181.503C130.651 181.907 130.159 182.23 129.601 182.471C129.043 182.701 128.447 182.815 127.812 182.815ZM127.943 181.88C128.37 181.88 128.78 181.787 129.174 181.601C129.579 181.415 129.945 181.158 130.274 180.83C130.602 180.502 130.875 180.13 131.094 179.714C131.324 179.287 131.472 178.844 131.537 178.385C131.636 177.739 131.581 177.154 131.373 176.629C131.165 176.093 130.848 175.671 130.421 175.365C130.006 175.048 129.508 174.889 128.928 174.889C128.501 174.889 128.091 174.982 127.697 175.168C127.303 175.354 126.937 175.606 126.598 175.923C126.27 176.24 125.996 176.612 125.777 177.039C125.558 177.466 125.416 177.925 125.351 178.417C125.263 179.052 125.323 179.637 125.531 180.173C125.739 180.699 126.051 181.114 126.466 181.421C126.893 181.727 127.385 181.88 127.943 181.88ZM133.235 182.651C133.728 181.218 134.4 179.78 135.254 178.335C136.107 176.88 137.19 175.469 138.503 174.102H139.619L140.899 182.651H139.734L138.766 175.168C138.219 175.77 137.721 176.388 137.272 177.023C136.824 177.646 136.419 178.275 136.058 178.91C135.708 179.544 135.385 180.179 135.09 180.813C134.805 181.437 134.554 182.05 134.335 182.651H133.235ZM146.498 182.815C145.678 182.815 144.977 182.613 144.398 182.208C143.818 181.793 143.391 181.251 143.118 180.584C142.855 179.916 142.778 179.189 142.888 178.401C142.975 177.788 143.156 177.22 143.429 176.694C143.714 176.158 144.075 175.688 144.513 175.283C144.95 174.867 145.442 174.545 145.989 174.315C146.547 174.074 147.133 173.954 147.745 173.954C148.566 173.954 149.266 174.162 149.846 174.577C150.426 174.982 150.852 175.518 151.126 176.186C151.399 176.853 151.481 177.592 151.372 178.401C151.295 178.992 151.115 179.555 150.831 180.091C150.557 180.616 150.201 181.087 149.764 181.503C149.337 181.907 148.845 182.23 148.287 182.471C147.729 182.701 147.133 182.815 146.498 182.815ZM146.629 181.88C147.056 181.88 147.466 181.787 147.86 181.601C148.265 181.415 148.632 181.158 148.96 180.83C149.288 180.502 149.561 180.13 149.78 179.714C150.01 179.287 150.158 178.844 150.223 178.385C150.322 177.739 150.267 177.154 150.059 176.629C149.851 176.093 149.534 175.671 149.107 175.365C148.692 175.048 148.194 174.889 147.614 174.889C147.187 174.889 146.777 174.982 146.383 175.168C145.989 175.354 145.623 175.606 145.284 175.923C144.956 176.24 144.682 176.612 144.463 177.039C144.244 177.466 144.102 177.925 144.037 178.417C143.949 179.052 144.009 179.637 144.217 180.173C144.425 180.699 144.737 181.114 145.153 181.421C145.579 181.727 146.071 181.88 146.629 181.88ZM155.712 182.815C155.045 182.815 154.487 182.722 154.038 182.536C153.601 182.34 153.278 182.066 153.07 181.716C152.873 181.366 152.797 180.95 152.84 180.469C152.895 179.845 153.163 179.353 153.644 178.992C154.126 178.62 154.897 178.264 155.958 177.925C156.483 177.739 156.899 177.57 157.205 177.416C157.512 177.263 157.736 177.088 157.878 176.891C158.02 176.683 158.108 176.448 158.141 176.186C158.174 175.737 158.053 175.393 157.78 175.152C157.517 174.911 157.123 174.791 156.598 174.791C156.128 174.791 155.685 174.884 155.269 175.07C154.864 175.256 154.541 175.518 154.301 175.857L153.497 175.332C153.825 174.895 154.268 174.556 154.826 174.315C155.395 174.063 156.04 173.937 156.762 173.937C157.627 173.937 158.272 174.14 158.699 174.545C159.136 174.938 159.333 175.486 159.29 176.186C159.235 176.831 158.967 177.34 158.485 177.712C158.015 178.073 157.309 178.407 156.368 178.713C155.789 178.899 155.329 179.079 154.99 179.254C154.651 179.419 154.405 179.599 154.252 179.796C154.109 179.982 154.022 180.217 153.989 180.502C153.934 180.961 154.071 181.311 154.399 181.552C154.738 181.793 155.242 181.913 155.909 181.913C156.412 181.913 156.883 181.82 157.32 181.634C157.758 181.448 158.13 181.18 158.436 180.83L159.158 181.453C158.753 181.88 158.267 182.214 157.698 182.454C157.129 182.695 156.467 182.815 155.712 182.815Z" fill="white"/>
<defs>
<linearGradient id="paint0_linear_684_1136" x1="152.276" y1="0.844724" x2="160.661" y2="180.17" gradientUnits="userSpaceOnUse">
<stop stop-color="#58A4C3"/>
<stop offset="1" stop-color="#97CCE1"/>
</linearGradient>
</defs>
</svg>
