<svg width="249" height="239" viewBox="0 0 249 239" fill="none" xmlns="http://www.w3.org/2000/svg">
<ellipse cx="124.75" cy="119.497" rx="124.25" ry="119.152" fill="url(#paint0_linear_488_55212)"/>
<g opacity="0.5">
<path d="M226.422 126.366L225.26 126.323L225.51 120.12L226.672 120.163L226.57 122.693L237.459 123.096C237.314 122.978 237.152 122.804 236.974 122.572C236.807 122.353 236.642 122.097 236.479 121.803C236.328 121.509 236.203 121.211 236.102 120.907C236.002 120.603 235.957 120.326 235.967 120.076L237.166 120.12C237.153 120.458 237.227 120.798 237.388 121.142C237.562 121.486 237.755 121.806 237.969 122.102C238.194 122.41 238.397 122.656 238.577 122.838C238.77 123.032 238.872 123.136 238.884 123.149L238.832 124.442L226.518 123.986L226.422 126.366Z" fill="white"/>
<path d="M234.04 128.09C234.883 128.197 235.618 128.498 236.244 128.993C236.882 129.489 237.352 130.116 237.652 130.872C237.962 131.642 238.058 132.461 237.939 133.328C237.81 134.269 237.473 135.065 236.93 135.714C236.398 136.365 235.696 136.837 234.823 137.13C233.948 137.436 232.934 137.515 231.78 137.37C229.982 137.142 228.521 136.75 227.399 136.192C226.275 135.647 225.472 134.972 224.989 134.168C224.506 133.363 224.332 132.472 224.467 131.493C224.586 130.626 224.91 129.873 225.44 129.234C225.982 128.597 226.662 128.147 227.48 127.885L228.096 128.776C227.438 128.97 226.879 129.322 226.418 129.83C225.967 130.353 225.695 130.961 225.599 131.655C225.499 132.386 225.634 133.052 226.006 133.654C226.39 134.257 226.99 134.761 227.805 135.166C228.618 135.584 229.633 135.87 230.848 136.023C230.401 135.79 230.017 135.465 229.695 135.046C229.385 134.641 229.165 134.179 229.034 133.658C228.902 133.15 228.874 132.617 228.951 132.06C229.067 131.217 229.371 130.475 229.863 129.831C230.354 129.2 230.968 128.723 231.706 128.4C232.443 128.09 233.221 127.987 234.04 128.09ZM236.844 133.17C236.929 132.551 236.852 131.962 236.613 131.402C236.375 130.843 236.016 130.375 235.538 130C235.059 129.624 234.51 129.397 233.89 129.319C233.257 129.239 232.659 129.321 232.095 129.565C231.544 129.81 231.072 130.173 230.678 130.652C230.294 131.146 230.06 131.702 229.975 132.321C229.888 132.953 229.964 133.549 230.203 134.108C230.454 134.669 230.813 135.137 231.279 135.511C231.755 135.898 232.304 136.132 232.924 136.21C233.544 136.288 234.137 136.199 234.702 135.943C235.267 135.687 235.741 135.318 236.122 134.837C236.516 134.358 236.757 133.802 236.844 133.17Z" fill="white"/>
<path d="M222.347 142.376C222.543 141.613 222.848 140.953 223.263 140.396C223.677 139.839 224.159 139.42 224.709 139.139C225.259 138.858 225.845 138.739 226.466 138.784L226.963 139.71C226.543 139.637 226.093 139.704 225.614 139.912C225.147 140.122 224.725 140.459 224.347 140.922C223.967 141.397 223.689 141.974 223.515 142.652C223.359 143.258 223.323 143.827 223.405 144.36C223.496 144.909 223.688 145.365 223.982 145.73C224.284 146.11 224.685 146.359 225.184 146.477C225.719 146.603 226.219 146.542 226.683 146.292C227.16 146.045 227.581 145.637 227.947 145.069C228.313 144.5 228.604 143.792 228.822 142.944L228.981 142.327L230.058 142.581L229.899 143.199C229.597 144.374 229.553 145.346 229.768 146.116C229.983 146.886 230.48 147.364 231.259 147.548C231.77 147.669 232.25 147.634 232.699 147.445C233.144 147.268 233.53 146.974 233.855 146.563C234.177 146.164 234.407 145.698 234.544 145.165C234.749 144.366 234.749 143.64 234.542 142.987C234.336 142.335 234.001 141.831 233.537 141.477L234.596 140.822C234.975 141.156 235.269 141.566 235.48 142.053C235.687 142.551 235.807 143.087 235.841 143.66C235.871 144.246 235.811 144.829 235.662 145.41C235.45 146.233 235.103 146.929 234.622 147.495C234.137 148.075 233.581 148.482 232.952 148.719C232.32 148.968 231.657 149.01 230.964 148.846C230.477 148.731 230.064 148.53 229.724 148.245C229.397 147.962 229.148 147.601 228.977 147.162C228.818 146.726 228.741 146.22 228.748 145.643C228.492 146.187 228.151 146.633 227.726 146.982C227.297 147.343 226.822 147.584 226.301 147.704C225.788 147.84 225.258 147.843 224.711 147.714C223.981 147.541 223.409 147.181 222.994 146.633C222.577 146.098 222.31 145.456 222.192 144.709C222.087 143.965 222.138 143.187 222.347 142.376Z" fill="white"/>
<path d="M221.72 158.328C220.929 158.05 220.28 157.596 219.771 156.967C219.27 156.354 218.952 155.646 218.817 154.843C218.682 154.041 218.774 153.225 219.091 152.395C219.421 151.531 219.922 150.833 220.594 150.301C221.273 149.785 222.082 149.473 223.019 149.365C223.957 149.258 224.968 149.395 226.053 149.776C227.764 150.378 229.1 151.066 230.061 151.841C231.034 152.621 231.666 153.452 231.957 154.336C232.248 155.22 232.219 156.118 231.871 157.029C231.554 157.858 231.058 158.525 230.383 159.029C229.72 159.538 228.964 159.835 228.115 159.921L227.702 158.902C228.398 158.868 229.025 158.645 229.584 158.232C230.151 157.835 230.559 157.309 230.809 156.655C231.073 155.966 231.085 155.288 230.845 154.621C230.605 153.953 230.134 153.331 229.431 152.753C228.725 152.186 227.793 151.7 226.638 151.293C227.031 151.63 227.333 152.028 227.546 152.487C227.758 152.946 227.872 153.436 227.887 153.958C227.897 154.492 227.801 155.021 227.6 155.547C227.297 156.341 226.833 156.993 226.21 157.502C225.583 158.024 224.873 158.357 224.082 158.503C223.297 158.664 222.51 158.606 221.72 158.328ZM220.139 152.804C219.915 153.388 219.858 153.977 219.965 154.571C220.072 155.165 220.318 155.695 220.701 156.161C221.081 156.639 221.565 156.982 222.155 157.189C222.745 157.397 223.345 157.436 223.957 157.306C224.564 157.188 225.109 156.936 225.591 156.549C226.074 156.163 226.426 155.677 226.65 155.093C226.877 154.498 226.94 153.897 226.837 153.291C226.73 152.697 226.484 152.167 226.1 151.701C225.728 151.239 225.242 150.902 224.64 150.69C224.05 150.483 223.452 150.438 222.845 150.556C222.233 150.685 221.686 150.943 221.204 151.33C220.722 151.717 220.367 152.208 220.139 152.804Z" fill="white"/>
<path d="M213.299 160.469L216.316 162.065L216.232 162.212C216.089 162.461 216.035 162.73 216.072 163.017C216.108 163.305 216.273 163.633 216.566 164C216.859 164.367 217.315 164.778 217.933 165.232C218.562 165.692 219.387 166.213 220.407 166.795L222.764 168.148L219.594 173.659L211.968 169.625L211.313 170.763L208.296 169.167L208.867 168.175L210.872 169.236L214.744 162.506L212.738 161.445L213.299 160.469ZM215.269 163.886L212.604 168.519L219.218 172.019L221.182 168.605L219.718 167.767C218.709 167.19 217.888 166.664 217.254 166.187C216.625 165.727 216.152 165.308 215.837 164.929C215.526 164.567 215.337 164.219 215.269 163.886Z" fill="white"/>
<path d="M210.269 171.884L218.383 177.329L217.631 178.359L214.143 176.018L210.848 180.533L214.336 182.874L213.584 183.904L205.471 178.459L206.223 177.429L209.898 179.895L213.193 175.381L209.517 172.914L210.269 171.884Z" fill="white"/>
<path d="M200.958 183.226C201.429 182.707 201.966 182.31 202.571 182.034C203.186 181.766 203.818 181.618 204.467 181.591C205.126 181.571 205.775 181.665 206.413 181.873C207.043 182.089 207.627 182.422 208.164 182.871C208.865 183.456 209.369 184.145 209.677 184.94C209.977 185.743 210.052 186.562 209.901 187.397C209.761 188.24 209.375 189.008 208.745 189.702C208.098 190.415 207.357 190.887 206.523 191.118C205.68 191.359 204.828 191.387 203.965 191.204C203.112 191.029 202.339 190.653 201.648 190.076C201.572 190.012 201.495 189.947 201.418 189.883C201.351 189.827 201.302 189.779 201.272 189.737L206.895 183.544C206.315 183.142 205.705 182.885 205.064 182.773C204.425 182.678 203.804 182.721 203.201 182.901C202.6 183.099 202.089 183.429 201.669 183.892C201.24 184.364 200.961 184.913 200.833 185.538C200.696 186.172 200.753 186.741 201.005 187.244L200.031 187.871C199.81 187.426 199.695 186.931 199.684 186.385C199.673 185.839 199.776 185.29 199.991 184.737C200.207 184.202 200.529 183.698 200.958 183.226ZM207.625 184.105L202.772 189.451C203.353 189.871 203.963 190.128 204.602 190.223C205.234 190.327 205.845 190.276 206.437 190.07C207.03 189.882 207.541 189.551 207.969 189.079C208.398 188.607 208.669 188.076 208.782 187.487C208.904 186.906 208.868 186.314 208.672 185.712C208.478 185.127 208.129 184.591 207.625 184.105Z" fill="white"/>
<path d="M196.839 187.764L203.653 194.741L202.705 195.593L197.096 189.85L198.295 199.579L197.444 200.344L190.616 193.353L191.565 192.501L197.082 198.15L195.918 188.591L196.839 187.764ZM201.406 198.447C202.039 197.879 202.667 197.583 203.29 197.56C203.914 197.537 204.44 197.745 204.868 198.183L204.17 198.81C203.908 198.542 203.588 198.41 203.208 198.415C202.82 198.428 202.407 198.631 201.97 199.024C201.542 199.408 201.313 199.773 201.284 200.118C201.245 200.472 201.352 200.805 201.603 201.116L200.919 201.73C200.491 201.292 200.31 200.775 200.374 200.18C200.439 199.584 200.783 199.007 201.406 198.447Z" fill="white"/>
<path d="M185.368 197.247L191.069 205.183L184.513 209.514L178.812 201.579L179.876 200.876L184.91 207.882L189.338 204.956L184.304 197.95L185.368 197.247Z" fill="white"/>
<path d="M171.997 205.025C172.718 204.65 173.472 204.498 174.258 204.568C175.033 204.644 175.74 204.868 176.381 205.239L173.418 199.998L174.55 199.41L181.324 211.394L180.309 211.921L179.377 210.272C179.334 210.984 179.117 211.654 178.724 212.28C178.338 212.917 177.818 213.406 177.163 213.746C176.564 214.058 175.944 214.218 175.304 214.227C174.669 214.247 174.052 214.146 173.452 213.922C172.852 213.699 172.302 213.373 171.8 212.943C171.294 212.53 170.881 212.041 170.561 211.475C170.112 210.68 169.863 209.859 169.815 209.011C169.761 208.18 169.915 207.41 170.275 206.702C170.635 205.993 171.209 205.434 171.997 205.025ZM172.867 205.84C172.39 206.088 172.015 206.403 171.742 206.784C171.476 207.176 171.302 207.604 171.22 208.069C171.127 208.54 171.123 209.014 171.206 209.492C171.296 209.98 171.464 210.442 171.71 210.878C171.968 211.335 172.297 211.727 172.698 212.054C173.087 212.387 173.52 212.633 173.998 212.793C174.476 212.953 174.961 213.025 175.454 213.008C175.947 212.991 176.421 212.865 176.876 212.628C177.164 212.478 177.433 212.268 177.682 211.998C177.931 211.728 178.142 211.414 178.313 211.057C178.48 210.717 178.587 210.373 178.634 210.025C178.681 209.676 178.647 209.349 178.531 209.043L177.055 206.431C176.649 206.12 176.205 205.88 175.721 205.709C175.243 205.549 174.754 205.472 174.255 205.478C173.751 205.5 173.288 205.621 172.867 205.84Z" fill="white"/>
<path d="M168.037 210.276C168.277 210.839 168.321 211.386 168.167 211.916C168.018 212.458 167.705 212.951 167.228 213.393C166.745 213.852 166.125 214.23 165.368 214.527C164.926 214.701 164.452 214.847 163.945 214.965C163.438 215.084 162.97 215.147 162.538 215.156L162.862 215.914C163.187 216.673 163.672 217.188 164.317 217.458C164.962 217.728 165.687 217.705 166.49 217.389C166.978 217.197 167.422 216.916 167.82 216.544C168.212 216.189 168.59 215.738 168.955 215.192L169.763 215.841C169.341 216.477 168.887 217.005 168.4 217.424C167.919 217.855 167.381 218.187 166.788 218.421C165.67 218.86 164.651 218.891 163.729 218.515C162.807 218.138 162.108 217.393 161.631 216.277L159.855 212.121C159.786 211.96 159.7 211.853 159.596 211.8C159.496 211.759 159.369 211.762 159.212 211.81L158.814 210.878C158.937 210.817 159.043 210.762 159.131 210.714C159.219 210.666 159.289 210.638 159.341 210.631C159.637 210.529 159.897 210.534 160.122 210.647C160.347 210.76 160.507 210.912 160.602 211.102L160.9 211.751C161.086 211.073 161.443 210.463 161.972 209.919C162.506 209.387 163.11 208.989 163.785 208.724C164.367 208.495 164.948 208.408 165.528 208.461C166.102 208.532 166.611 208.721 167.056 209.03C167.493 209.354 167.82 209.77 168.037 210.276ZM161.65 211.98C161.591 212.191 161.558 212.385 161.552 212.562C161.546 212.739 161.568 212.885 161.617 213L162.177 214.311C162.637 214.305 163.099 214.257 163.564 214.168C164.017 214.084 164.459 213.958 164.89 213.788C165.739 213.455 166.354 213.018 166.736 212.479C167.117 211.94 167.184 211.383 166.939 210.808C166.796 210.474 166.574 210.192 166.272 209.962C165.974 209.743 165.615 209.602 165.194 209.54C164.778 209.488 164.343 209.552 163.889 209.73C163.319 209.954 162.836 210.271 162.441 210.682C162.034 211.097 161.77 211.53 161.65 211.98Z" fill="white"/>
<path d="M157.135 211.376L160.049 220.702L158.823 221.055L157.576 217.063L156.17 217.467L154.263 222.365L152.857 222.769L155.029 217.209L149.492 213.572L150.934 213.158L155.818 216.339L157.224 215.935L155.909 211.728L157.135 211.376Z" fill="white"/>
<path d="M145.313 214.391L147.096 222.832L150.521 222.166L150.757 223.285L142.657 224.86L142.42 223.74L145.844 223.075L144.061 214.634L145.313 214.391Z" fill="white"/>
<path d="M139.075 215.511L140.131 225.206L138.862 225.333L137.993 217.353L132.948 225.944L131.81 226.058L130.752 216.345L132.021 216.218L132.876 224.067L137.843 215.634L139.075 215.511Z" fill="white"/>
<path d="M128.182 225.956V216.185H126.907V220.367H125.444L122.162 216.185H120.699L124.432 220.93L120.23 225.956H121.731L125.444 221.549H126.907V225.956H128.182Z" fill="white"/>
<path d="M118.308 216.356L117.33 226.059L116.06 225.942L116.865 217.955L110.138 225.411L108.999 225.306L109.979 215.584L111.249 215.701L110.457 223.557L117.075 216.242L118.308 216.356Z" fill="white"/>
<path d="M99.2609 213.312C99.9545 213.476 100.561 213.754 101.079 214.146C101.583 214.548 101.994 215.031 102.314 215.595C102.621 216.155 102.82 216.761 102.911 217.412C102.99 218.06 102.943 218.717 102.772 219.383C102.541 220.279 102.13 221.049 101.539 221.693C100.947 222.337 100.237 222.791 99.4065 223.057C98.5765 223.324 97.6931 223.346 96.7562 223.124C95.8679 222.914 95.1361 222.523 94.5606 221.95C93.9821 221.389 93.6173 220.725 93.4663 219.957L94.769 219.86C94.9121 220.408 95.1927 220.872 95.6109 221.254C96.0138 221.645 96.5072 221.909 97.0913 222.047C97.724 222.197 98.344 222.17 98.9513 221.967C99.5585 221.764 100.094 221.415 100.556 220.921C101.007 220.424 101.326 219.812 101.513 219.085C101.696 218.371 101.705 217.686 101.538 217.03C101.371 216.374 101.071 215.808 100.638 215.333C100.202 214.87 99.668 214.564 99.0353 214.414C98.6217 214.317 98.2075 214.296 97.793 214.352C97.3662 214.405 96.9818 214.52 96.6396 214.696C96.2822 214.881 96.0175 215.107 95.8454 215.375L94.716 214.722C95.0016 214.314 95.3919 213.976 95.8868 213.708C96.3665 213.449 96.9005 213.28 97.4888 213.201C98.0619 213.131 98.6526 213.168 99.2609 213.312Z" fill="white"/>
<path d="M89.7097 210.811L85.9393 219.825L84.749 219.367L86.3628 215.509L84.9975 214.984L80.3204 217.664L78.955 217.139L84.2694 214.101L82.2878 207.956L83.6882 208.494L85.4534 213.894L86.8188 214.419L88.5194 210.353L89.7097 210.811Z" fill="white"/>
<path d="M81.5399 207.657L80.9792 208.676C80.678 208.523 80.3681 208.465 80.0494 208.499C79.7247 208.545 79.3676 208.714 78.9781 209.007C78.5775 209.295 78.1375 209.744 77.6582 210.356C77.1729 210.979 76.6271 211.802 76.021 212.826L74.6094 215.157L68.9534 212.295L73.6647 203.734L74.8026 204.31L70.6429 211.868L74.157 213.647L75.0043 212.185C75.7 211.025 76.3404 210.081 76.9255 209.355C77.5046 208.64 78.0546 208.12 78.5755 207.795C79.0853 207.465 79.5841 207.297 80.0719 207.292C80.5597 207.287 81.049 207.409 81.5399 207.657Z" fill="white"/>
<path d="M71.306 202.482L65.7338 210.486L64.6598 209.799L69.2461 203.211L59.642 206.608L58.6786 205.992L64.2614 197.972L65.3355 198.66L60.8242 205.14L70.2635 201.815L71.306 202.482Z" fill="white"/>
<path d="M59.2576 193.963C59.8047 194.4 60.2266 194.905 60.5233 195.477C60.8119 196.06 60.9754 196.662 61.014 197.284C61.0443 197.916 60.9563 198.541 60.7499 199.16C60.5338 199.771 60.1962 200.34 59.737 200.869C59.1385 201.558 58.428 202.062 57.6054 202.38C56.7731 202.691 55.9212 202.785 55.0497 202.665C54.1699 202.554 53.3637 202.206 52.631 201.62C51.8788 201.019 51.3759 200.322 51.1225 199.528C50.8592 198.726 50.8165 197.909 50.9942 197.075C51.1638 196.251 51.5437 195.5 52.1341 194.82C52.1997 194.744 52.2653 194.669 52.3309 194.593C52.3882 194.527 52.4382 194.479 52.4808 194.449L59.0164 199.67C59.4267 199.102 59.6852 198.509 59.792 197.891C59.8807 197.274 59.8266 196.68 59.6295 196.106C59.4144 195.535 59.0626 195.054 58.5741 194.664C58.0759 194.266 57.5004 194.014 56.8476 193.908C56.185 193.795 55.5937 193.866 55.0734 194.122L54.4057 193.205C54.8653 192.98 55.3793 192.855 55.9477 192.83C56.516 192.804 57.0897 192.887 57.6687 193.077C58.2298 193.27 58.7594 193.565 59.2576 193.963ZM58.443 200.387L52.8013 195.881C52.3731 196.45 52.1145 197.043 52.0257 197.659C51.9272 198.268 51.9896 198.854 52.2129 199.416C52.4182 199.979 52.77 200.46 53.2682 200.858C53.7664 201.256 54.3232 201.501 54.9384 201.593C55.5455 201.694 56.1613 201.642 56.7859 201.438C57.3924 201.235 57.9448 200.884 58.443 200.387Z" fill="white"/>
<path d="M54.3202 190.198L47.1945 196.884L46.2837 195.991L49.3473 193.117L45.3559 189.205L42.2922 192.079L41.3814 191.187L48.5071 184.501L49.4179 185.393L46.1901 188.422L50.1816 192.334L53.4094 189.305L54.3202 190.198Z" fill="white"/>
<path d="M45.2622 180.836L38.4255 186.098L40.6643 188.773L39.7577 189.471L34.4615 183.143L35.3681 182.445L37.607 185.12L44.4437 179.858L45.2622 180.836Z" fill="white"/>
<path d="M39.362 178.208C38.8448 178.536 38.3021 178.674 37.7337 178.62C37.1548 178.574 36.591 178.362 36.0423 177.985C35.4759 177.605 34.9618 177.08 34.5 176.412C34.2299 176.021 33.9809 175.594 33.7529 175.132C33.5249 174.67 33.3606 174.234 33.2598 173.825L32.5633 174.267C31.8667 174.709 31.4512 175.262 31.3167 175.925C31.1822 176.587 31.3601 177.274 31.8503 177.983C32.1488 178.416 32.5281 178.789 32.9883 179.103C33.4308 179.414 33.9667 179.696 34.596 179.947L34.1132 180.831C33.3814 180.541 32.7517 180.201 32.2241 179.811C31.686 179.427 31.2357 178.973 30.8733 178.449C30.1912 177.461 29.9414 176.495 30.124 175.55C30.3066 174.605 30.9097 173.808 31.9335 173.157L35.7488 170.734C35.8966 170.64 35.9861 170.539 36.0173 170.43C36.038 170.328 36.0075 170.207 35.9257 170.067L36.7805 169.524C36.8693 169.63 36.9473 169.721 37.0147 169.797C37.0821 169.872 37.1247 169.934 37.1426 169.982C37.3097 170.246 37.3603 170.495 37.2943 170.729C37.2284 170.964 37.1093 171.143 36.9369 171.267L36.346 171.665C37.0696 171.723 37.7623 171.956 38.4241 172.365C39.0753 172.78 39.607 173.286 40.0191 173.883C40.3744 174.397 40.5869 174.936 40.6566 175.498C40.7086 176.057 40.6263 176.576 40.4098 177.054C40.1756 177.528 39.8263 177.913 39.362 178.208ZM36.2755 172.42C36.0495 172.401 35.8467 172.404 35.6668 172.429C35.487 172.454 35.3443 172.501 35.2388 172.568L34.0356 173.332C34.14 173.769 34.2867 174.201 34.4757 174.629C34.6576 175.046 34.88 175.445 35.1429 175.826C35.6616 176.577 36.2339 177.086 36.8597 177.355C37.4855 177.623 38.0623 177.59 38.59 177.255C38.8961 177.061 39.133 176.799 39.3009 176.47C39.4581 176.149 39.5235 175.781 39.4968 175.369C39.4596 174.964 39.3025 174.56 39.0253 174.159C38.6772 173.655 38.2536 173.25 37.7546 172.946C37.2486 172.631 36.7555 172.455 36.2755 172.42Z" fill="white"/>
<path d="M36.7831 167.875L28.0021 172.161L27.3866 171.001L31.6171 164.619L23.7376 164.126L23.1485 163.016L31.9295 158.73L32.5011 159.807L25.4392 163.254L32.5866 163.687L32.9735 164.415L29.1497 170.245L36.2116 166.798L36.7831 167.875Z" fill="white"/>
<path d="M30.9348 156.578L21.7464 159.847L21.2863 158.657L28.8491 155.967L19.1238 153.119L18.711 152.052L27.9171 148.777L28.3772 149.966L20.9381 152.613L30.4883 155.424L30.9348 156.578Z" fill="white"/>
<path d="M21.9881 115.434L23.1509 115.439L23.1259 121.646L21.9631 121.642L21.9733 119.11L11.0769 119.07C11.2265 119.183 11.3946 119.352 11.5812 119.578C11.7554 119.791 11.9294 120.042 12.1033 120.33C12.2647 120.618 12.401 120.913 12.5124 121.213C12.6237 121.514 12.6788 121.789 12.6778 122.039L11.4775 122.035C11.4789 121.697 11.3927 121.359 11.2191 121.021C11.0329 120.683 10.8278 120.369 10.6039 120.081C10.3676 119.78 10.156 119.542 9.96914 119.366C9.76985 119.178 9.66397 119.077 9.65152 119.065L9.65673 117.771L21.9785 117.816L21.9881 115.434Z" fill="white"/>
<path d="M14.3353 113.531C13.489 113.449 12.7451 113.17 12.1037 112.694C11.4498 112.216 10.9608 111.604 10.6369 110.857C10.3019 110.096 10.18 109.28 10.2713 108.41C10.3704 107.465 10.6812 106.66 11.2036 105.994C11.7135 105.327 12.4 104.834 13.2632 104.516C14.1276 104.185 15.1385 104.075 16.2959 104.187C18.1005 104.361 19.5725 104.71 20.7117 105.234C21.8523 105.746 22.6766 106.397 23.1846 107.187C23.6925 107.977 23.895 108.864 23.792 109.846C23.7007 110.716 23.4007 111.479 22.8921 112.133C22.371 112.786 21.7058 113.256 20.8963 113.542L20.2524 112.67C20.9033 112.456 21.4511 112.088 21.8956 111.566C22.3289 111.03 22.5821 110.414 22.6552 109.717C22.7321 108.984 22.5753 108.322 22.1846 107.731C21.7815 107.14 21.1663 106.654 20.3389 106.272C19.5127 105.879 18.4898 105.623 17.2702 105.505C17.7249 105.725 18.1193 106.039 18.4535 106.448C18.7766 106.844 19.0117 107.3 19.1586 107.816C19.3069 108.321 19.3517 108.852 19.293 109.412C19.2043 110.258 18.9243 111.009 18.453 111.667C17.983 112.313 17.3842 112.808 16.6567 113.152C15.9305 113.484 15.1567 113.61 14.3353 113.531ZM11.3708 108.535C11.3056 109.157 11.4011 109.744 11.6575 110.296C11.9138 110.848 12.2871 111.305 12.7772 111.666C13.2673 112.028 13.8234 112.238 14.4457 112.298C15.0804 112.359 15.6754 112.26 16.2308 111.999C16.7736 111.738 17.2342 111.361 17.6126 110.87C17.9798 110.366 18.196 109.802 18.2612 109.181C18.3278 108.546 18.2328 107.953 17.9765 107.401C17.7077 106.847 17.3345 106.391 16.8568 106.031C16.368 105.657 15.8125 105.44 15.1902 105.38C14.5679 105.32 13.9785 105.426 13.4219 105.699C12.8653 105.972 12.404 106.355 12.0381 106.847C11.6597 107.338 11.4373 107.901 11.3708 108.535Z" fill="white"/>
<path d="M25.4714 99.2559C25.3024 100.025 25.0209 100.695 24.6267 101.266C24.2326 101.837 23.7658 102.272 23.2266 102.571C22.6873 102.871 22.1066 103.008 21.4847 102.985L20.955 102.074C21.3771 102.134 21.8239 102.052 22.2954 101.828C22.7546 101.602 23.1644 101.252 23.5249 100.776C23.888 100.288 24.1446 99.7022 24.2948 99.0183C24.4289 98.4077 24.4454 97.8371 24.3444 97.3066C24.2337 96.7613 24.0254 96.3111 23.7194 95.956C23.4039 95.5862 22.9948 95.3505 22.4924 95.249C21.9531 95.1401 21.456 95.2183 21.001 95.4835C20.5337 95.7462 20.1275 96.168 19.7823 96.7487C19.4372 97.3295 19.1708 98.0473 18.9831 98.9021L18.8463 99.5249L17.7616 99.3059L17.8984 98.683C18.1586 97.4985 18.1677 96.5246 17.9257 95.7616C17.6837 94.9985 17.1705 94.5377 16.3861 94.3793C15.8714 94.2754 15.3932 94.3255 14.9516 94.5296C14.5127 94.7215 14.1381 95.0285 13.8278 95.4505C13.5202 95.8603 13.3074 96.3338 13.1894 96.8711C13.0124 97.6771 13.0386 98.403 13.268 99.0488C13.4973 99.6945 13.85 100.187 14.3261 100.525L13.2914 101.215C12.9011 100.894 12.5922 100.494 12.3648 100.014C12.14 99.5224 12.0008 98.9905 11.9473 98.4186C11.8964 97.8344 11.9353 97.2492 12.064 96.663C12.2464 95.8326 12.568 95.1259 13.0288 94.543C13.4922 93.9479 14.0338 93.5216 14.6535 93.2642C15.2759 92.9945 15.9364 92.9302 16.635 93.0713C17.1252 93.1703 17.545 93.3571 17.8942 93.6317C18.2312 93.9038 18.493 94.2564 18.6795 94.6894C18.8537 95.12 18.9479 95.6237 18.962 96.2004C19.1984 95.6487 19.5228 95.1914 19.9353 94.8283C20.3505 94.453 20.8165 94.1964 21.3331 94.0584C21.8402 93.9057 22.3695 93.8851 22.921 93.9965C23.6564 94.145 24.2406 94.4862 24.6737 95.02C25.1095 95.5417 25.3994 96.1741 25.5434 96.9174C25.6751 97.6582 25.6511 98.4377 25.4714 99.2559Z" fill="white"/>
<path d="M25.514 83.2968C26.313 83.5487 26.9774 83.9809 27.5073 84.5935C28.0294 85.1906 28.3717 85.8882 28.5341 86.6865C28.6965 87.4847 28.6338 88.3037 28.3459 89.1434C28.0459 90.0187 27.5697 90.7335 26.9171 91.2879C26.2568 91.8268 25.4602 92.1654 24.5274 92.3039C23.5947 92.4424 22.5798 92.3387 21.4827 91.9928C19.7536 91.4478 18.3955 90.8034 17.4084 90.0598C16.4093 89.3124 15.7492 88.5014 15.4279 87.6269C15.1067 86.7524 15.1041 85.8539 15.4204 84.9313C15.7082 84.0916 16.1803 83.4082 16.8366 82.8812C17.4811 82.3504 18.2257 82.0282 19.0707 81.9145L19.5186 82.9206C18.8253 82.9773 18.2066 83.2213 17.6623 83.6526C17.1102 84.0683 16.7206 84.6073 16.4936 85.2697C16.2544 85.9675 16.2662 86.6461 16.529 87.3056C16.7919 87.9651 17.284 88.5724 18.0055 89.1275C18.731 89.6707 19.678 90.1265 20.8466 90.4949C20.4424 90.1709 20.1261 89.7829 19.8979 89.3308C19.6697 88.8788 19.5392 88.3921 19.5065 87.8707C19.4779 87.3375 19.5548 86.8047 19.7372 86.2725C20.0129 85.4682 20.4531 84.8009 21.0576 84.2707C21.6663 83.7287 22.3634 83.3718 23.149 83.2C23.9267 83.0127 24.715 83.045 25.514 83.2968ZM27.2849 88.7696C27.4876 88.1783 27.525 87.5872 27.3972 86.9965C27.2693 86.4057 27.0057 85.8836 26.6062 85.43C26.2108 84.9646 25.7149 84.6379 25.1187 84.45C24.5225 84.2621 23.9212 84.2429 23.315 84.3925C22.7128 84.5303 22.1775 84.8006 21.7091 85.2034C21.2407 85.6062 20.9051 86.1033 20.7024 86.6947C20.4957 87.2979 20.4542 87.9008 20.578 88.5033C20.7058 89.0941 20.9695 89.6162 21.3689 90.0698C21.7565 90.5196 22.2544 90.8403 22.8625 91.032C23.4587 91.22 24.058 91.2451 24.6602 91.1073C25.2664 90.9576 25.8037 90.6814 26.2721 90.2786C26.7405 89.8758 27.0781 89.3728 27.2849 88.7696Z" fill="white"/>
<path d="M33.771 80.9677L30.7036 79.4705L30.7827 79.3214C30.9175 79.0674 30.962 78.7971 30.916 78.5104C30.8701 78.2238 30.6945 77.9017 30.3891 77.5441C30.0838 77.1865 29.6148 76.7907 28.9821 76.3568C28.3383 75.9173 27.497 75.4233 26.4584 74.8746L24.0585 73.599L27.0392 67.9831L34.7921 71.7673L35.4076 70.6077L38.4751 72.105L37.9387 73.1155L35.8994 72.1201L32.2592 78.9783L34.2986 79.9738L33.771 80.9677ZM31.6883 77.6151L34.1942 72.8938L27.4694 69.6114L25.623 73.0903L27.1135 73.8803C28.1408 74.4235 28.9791 74.9231 29.6284 75.379C30.2723 75.8185 30.7581 76.2225 31.0859 76.5911C31.4084 76.9431 31.6092 77.2845 31.6883 77.6151Z" fill="white"/>
<path d="M36.4768 69.2977L28.1912 64.1184L28.9081 63.0637L32.4705 65.2905L35.6123 60.6683L32.05 58.4415L32.7669 57.3868L41.0525 62.566L40.3356 63.6208L36.5824 61.2747L33.4406 65.8969L37.1938 68.243L36.4768 69.2977Z" fill="white"/>
<path d="M45.108 57.9747C44.6566 58.51 44.1338 58.9266 43.5394 59.2245C42.9352 59.5148 42.3092 59.6855 41.6615 59.7365C41.004 59.78 40.3525 59.7095 39.7072 59.5253C39.0699 59.3315 38.4746 59.0201 37.9213 58.591C37.2 58.0317 36.6709 57.3607 36.3342 56.5779C36.0055 55.7856 35.901 54.9695 36.0209 54.1297C36.1308 53.2823 36.488 52.5001 37.0925 51.7832C37.7131 51.0472 38.4359 50.5485 39.2609 50.2871C40.0939 50.0162 40.9448 49.9567 41.8135 50.1086C42.6723 50.2528 43.4574 50.6008 44.1688 51.1524C44.2479 51.2137 44.3269 51.275 44.406 51.3363C44.4751 51.3899 44.5254 51.4368 44.5569 51.477L39.165 57.8718C39.7586 58.2531 40.3775 58.488 41.0219 58.5766C41.6643 58.6479 42.2833 58.5825 42.8787 58.3802C43.4723 58.1607 43.9706 57.812 44.3736 57.3341C44.7846 56.8466 45.043 56.2882 45.1488 55.6588C45.2626 55.0199 45.1846 54.4535 44.9147 53.9597L45.8651 53.2976C46.1017 53.734 46.2353 54.2249 46.2657 54.7702C46.2962 55.3155 46.2141 55.8683 46.0194 56.4287C45.8228 56.9719 45.519 57.4872 45.108 57.9747ZM38.4145 57.3374L43.069 51.8172C42.4736 51.4187 41.8546 51.1838 41.2121 51.1125C40.5777 51.0315 39.9686 51.1047 39.3849 51.3318C38.7994 51.5417 38.3011 51.8904 37.8901 52.3779C37.479 52.8654 37.2278 53.4057 37.1363 53.9987C37.0349 54.584 37.0928 55.1743 37.3099 55.7695C37.5253 56.3475 37.8935 56.8701 38.4145 57.3374Z" fill="white"/>
<path d="M49.2052 53.1037L42.1663 46.3536L43.0868 45.4709L48.8803 51.0267L47.3643 41.343L48.19 40.5511L55.2424 47.3142L54.322 48.1969L48.6231 42.7319L50.0986 52.247L49.2052 53.1037ZM44.2915 42.5761C43.6778 43.1646 43.0597 43.4805 42.437 43.5238C41.8143 43.567 41.2819 43.3766 40.8397 42.9526L41.5165 42.3035C41.7873 42.5632 42.1121 42.6843 42.4912 42.667C42.8792 42.641 43.2853 42.4247 43.7094 42.018C44.1245 41.6199 44.3411 41.2478 44.3592 40.9016C44.3862 40.5468 44.2689 40.2179 44.0072 39.915L44.6705 39.279C45.1127 39.703 45.3112 40.2136 45.2661 40.8107C45.221 41.4079 44.8961 41.9963 44.2915 42.5761Z" fill="white"/>
<path d="M60.4945 43.1003L54.5319 35.3592L60.9444 30.817L66.907 38.5581L65.8663 39.2953L60.6019 32.4605L56.2708 35.5284L61.5352 42.3632L60.4945 43.1003Z" fill="white"/>
<path d="M73.1449 35.1437C72.4363 35.5417 71.6878 35.7186 70.8994 35.6742C70.1218 35.6237 69.4066 35.4236 68.7537 35.0738L71.892 40.2114L70.7801 40.836L63.604 29.0884L64.6015 28.5281L65.5889 30.1446C65.6075 29.4319 65.8024 28.7563 66.1737 28.1178C66.5385 27.4686 67.0425 26.9634 67.6856 26.6021C68.2743 26.2714 68.8888 26.091 69.5293 26.0608C70.1632 26.02 70.7839 26.1013 71.3913 26.3047C71.9987 26.5081 72.5602 26.816 73.0758 27.2287C73.5957 27.6245 74.0252 28.0998 74.3641 28.6546C74.8399 29.4335 75.1163 30.2456 75.1934 31.0908C75.2749 31.9193 75.1473 32.6932 74.8107 33.4125C74.4741 34.1319 73.9188 34.7089 73.1449 35.1437ZM72.2476 34.3579C72.7163 34.0946 73.0806 33.7682 73.3405 33.3786C73.5938 32.9783 73.7535 32.5446 73.8196 32.0776C73.8966 31.6044 73.8853 31.1306 73.7859 30.6562C73.6799 30.1711 73.4966 29.7152 73.2359 29.2884C72.9621 28.8403 72.6197 28.4594 72.2085 28.1458C71.8082 27.8261 71.3664 27.5942 70.883 27.4501C70.3997 27.306 69.9119 27.2504 69.4195 27.2833C68.9272 27.3163 68.4575 27.4583 68.0106 27.7093C67.7272 27.8686 67.4655 28.0872 67.2254 28.3654C66.9854 28.6436 66.7855 28.9636 66.6259 29.3256C66.4707 29.6707 66.3754 30.018 66.34 30.3675C66.3046 30.7171 66.3498 31.0428 66.4757 31.3447L68.04 33.9055C68.4555 34.2023 68.9083 34.4281 69.3981 34.5828C69.8815 34.7269 70.3725 34.7878 70.8714 34.7656C71.3746 34.7265 71.8334 34.5906 72.2476 34.3579Z" fill="white"/>
<path d="M77.2664 29.563C77.0063 29.0083 76.9442 28.4635 77.0799 27.9286C77.2103 27.3825 77.5064 26.8806 77.9681 26.4229C78.436 25.949 79.0431 25.5512 79.7894 25.2294C80.2257 25.0413 80.6952 24.8797 81.1978 24.7447C81.7003 24.6096 82.1672 24.5308 82.5983 24.5083L82.248 23.7611C81.8977 23.0139 81.3951 22.5161 80.7404 22.2677C80.0856 22.0192 79.3621 22.0658 78.5699 22.4074C78.0877 22.6153 77.6536 22.9113 77.2678 23.2954C76.8882 23.6632 76.5254 24.1258 76.1794 24.6833L75.3495 24.0612C75.7493 23.4125 76.1854 22.8707 76.6577 22.4357C77.1248 21.9893 77.6511 21.6399 78.2366 21.3875C79.3389 20.9123 80.3574 20.8474 81.2923 21.1928C82.2272 21.5382 82.952 22.26 83.4669 23.3581L85.3855 27.4505C85.4599 27.609 85.55 27.713 85.6561 27.7626C85.7568 27.8008 85.8845 27.7934 86.039 27.7403L86.4689 28.6573C86.3479 28.7231 86.2442 28.7814 86.1576 28.8324C86.0711 28.8833 86.0022 28.913 85.951 28.9215C85.6586 29.0339 85.398 29.0374 85.1691 28.9319C84.9403 28.8265 84.775 28.68 84.6733 28.4925L84.3535 27.8546C84.1905 28.5373 83.8539 29.1588 83.3436 29.719C82.828 30.2679 82.2373 30.6859 81.5713 30.9731C80.9973 31.2206 80.4191 31.3269 79.8369 31.2922C79.2609 31.2411 78.7453 31.0688 78.2902 30.7751C77.8412 30.4651 77.5 30.0611 77.2664 29.563ZM83.5954 27.6507C83.6474 27.4378 83.6733 27.2429 83.6732 27.066C83.6731 26.8892 83.6465 26.7441 83.5935 26.6309L82.9884 25.3404C82.529 25.3615 82.0683 25.424 81.6064 25.5279C81.1559 25.6269 80.7182 25.768 80.2934 25.9511C79.4553 26.3125 78.8548 26.7687 78.4921 27.3198C78.1294 27.8708 78.0807 28.4294 78.3461 28.9954C78.5 29.3237 78.732 29.5979 79.0423 29.818C79.3472 30.0267 79.7112 30.1556 80.1344 30.2045C80.5523 30.242 80.9851 30.1643 81.4329 29.9712C81.9955 29.7287 82.4675 29.3959 82.8489 28.9729C83.2417 28.5449 83.4906 28.1042 83.5954 27.6507Z" fill="white"/>
<path d="M88.2433 28.0584L85.0029 18.8401L86.2164 18.4478L87.6034 22.3935L88.9953 21.9435L90.7313 16.9884L92.1233 16.5384L90.1456 22.1628L95.8098 25.6125L94.3821 26.074L89.3871 23.0582L87.9952 23.5082L89.4568 27.6661L88.2433 28.0584Z" fill="white"/>
<path d="M99.6458 24.734L97.5626 16.3622L94.1621 17.1403L93.8859 16.0301L101.93 14.1894L102.206 15.2996L98.8058 16.0777L100.889 24.4496L99.6458 24.734Z" fill="white"/>
<path d="M105.637 23.416L104.232 13.7652L105.496 13.596L106.652 21.5393L111.386 12.7888L112.52 12.637L113.927 22.3063L112.663 22.4755L111.526 14.6621L106.863 23.2518L105.637 23.416Z" fill="white"/>
<path d="M116.266 22.1107L115.873 12.3474L117.147 12.3002L117.316 16.4791L118.778 16.425L121.889 12.1246L123.351 12.0705L119.812 16.9497L124.213 21.8164L122.713 21.8719L118.825 17.6056L117.363 17.6597L117.541 22.0635L116.266 22.1107Z" fill="white"/>
<path d="M126.7 21.8219L127.366 12.0923L128.639 12.1724L128.091 20.1807L134.574 12.5274L135.716 12.5994L135.048 22.3477L133.775 22.2676L134.315 14.3903L127.935 21.8997L126.7 21.8219Z" fill="white"/>
<path d="M145.433 24.1579C144.734 24.0169 144.119 23.7587 143.587 23.3834C143.07 22.9984 142.642 22.5293 142.302 21.9762C141.975 21.4255 141.755 20.8262 141.641 20.1783C141.54 19.5329 141.563 18.8743 141.71 18.2027C141.909 17.299 142.292 16.5155 142.86 15.8522C143.428 15.189 144.122 14.7105 144.942 14.4169C145.761 14.1233 146.643 14.0718 147.587 14.2624C148.481 14.4431 149.226 14.8104 149.821 15.3642C150.419 15.9058 150.807 16.5581 150.985 17.321L149.687 17.4606C149.525 16.9177 149.228 16.4624 148.797 16.0947C148.381 15.7173 147.878 15.4692 147.29 15.3504C146.653 15.2217 146.034 15.269 145.435 15.4923C144.836 15.7155 144.314 16.082 143.869 16.5916C143.436 17.1037 143.14 17.7261 142.979 18.4588C142.821 19.1794 142.836 19.8649 143.026 20.5154C143.216 21.166 143.536 21.7215 143.985 22.1821C144.437 22.6305 144.982 22.919 145.619 23.0477C146.036 23.1319 146.45 23.139 146.862 23.0692C147.286 23.0019 147.666 22.8746 148.002 22.6872C148.352 22.4902 148.609 22.255 148.771 21.9817L149.922 22.5969C149.652 23.014 149.274 23.365 148.789 23.6497C148.319 23.9246 147.792 24.1114 147.207 24.2101C146.637 24.2991 146.045 24.2817 145.433 24.1579Z" fill="white"/>
<path d="M154.992 26.2387L158.447 17.0985L159.651 17.5171L158.173 21.4294L159.555 21.9096L164.133 19.0749L165.515 19.5551L160.312 22.7684L162.504 28.8493L161.086 28.3567L159.137 23.0149L157.755 22.5346L156.197 26.6574L154.992 26.2387Z" fill="white"/>
<path d="M163.263 29.0695L163.785 28.0303C164.091 28.1718 164.403 28.2193 164.72 28.1729C165.043 28.1153 165.393 27.9328 165.771 27.6255C166.16 27.3235 166.583 26.8578 167.038 26.2286C167.499 25.5881 168.013 24.745 168.58 23.6991L169.902 21.3157L175.658 23.9721L171.275 32.7052L170.117 32.1708L173.987 24.4602L170.411 22.8098L169.62 24.3026C168.969 25.4886 168.364 26.4553 167.807 27.203C167.256 27.9395 166.726 28.4795 166.218 28.8231C165.722 29.1719 165.23 29.3578 164.743 29.3808C164.256 29.4038 163.763 29.3001 163.263 29.0695Z" fill="white"/>
<path d="M174.09 34.0504L179.39 25.864L180.486 26.5165L176.123 33.2545L185.604 29.5423L186.587 30.1276L181.277 38.3297L180.181 37.6772L184.472 31.0495L175.153 34.6836L174.09 34.0504Z" fill="white"/>
<path d="M186.664 42.3207C186.103 41.9017 185.665 41.4107 185.35 40.8477C185.042 40.2751 184.859 39.6783 184.8 39.0573C184.749 38.4266 184.816 37.7987 185.002 37.1735C185.198 36.5558 185.517 35.9752 185.958 35.4317C186.534 34.7232 187.227 34.1964 188.039 33.8513C188.86 33.5136 189.708 33.3909 190.583 33.4829C191.466 33.5653 192.283 33.887 193.034 34.4482C193.805 35.0243 194.331 35.7052 194.61 36.4907C194.899 37.2838 194.969 38.0998 194.819 38.9387C194.676 39.7679 194.321 40.5319 193.754 41.2307C193.691 41.3084 193.627 41.386 193.564 41.4636C193.509 41.5316 193.461 41.5812 193.419 41.6126L186.718 36.607C186.326 37.1879 186.088 37.7891 186.001 38.4107C185.933 39.0301 186.006 39.623 186.222 40.1896C186.456 40.754 186.823 41.2232 187.324 41.5973C187.835 41.9789 188.418 42.2119 189.074 42.2962C189.74 42.3881 190.328 42.2975 190.839 42.0246L191.537 42.9197C191.085 43.1591 190.575 43.3009 190.008 43.3451C189.441 43.3894 188.865 43.3256 188.281 43.1539C187.714 42.98 187.175 42.7022 186.664 42.3207ZM187.267 35.8712L193.052 40.1922C193.461 39.609 193.7 39.0078 193.769 38.3885C193.847 37.7766 193.766 37.1933 193.524 36.6387C193.3 36.0818 192.933 35.6126 192.422 35.231C191.911 34.8494 191.347 34.6228 190.729 34.5512C190.119 34.4698 189.506 34.5417 188.888 34.7667C188.289 34.9895 187.749 35.3577 187.267 35.8712Z" fill="white"/>
<path d="M191.477 45.6865L198.38 38.7713L199.32 39.6337L196.351 42.6069L200.469 46.3865L203.437 43.4134L204.376 44.2758L197.473 51.191L196.533 50.3286L199.66 47.1962L195.543 43.4165L192.416 46.5489L191.477 45.6865Z" fill="white"/>
<path d="M200.731 54.5702L207.373 49.065L205.038 46.4737L205.919 45.7437L211.443 51.8737L210.563 52.6037L208.227 50.0124L201.585 55.5175L200.731 54.5702Z" fill="white"/>
<path d="M206.755 56.9796C207.26 56.6327 207.797 56.4756 208.368 56.5083C208.948 56.5339 209.52 56.7249 210.082 57.0813C210.662 57.4405 211.196 57.9457 211.682 58.5968C211.966 58.9775 212.231 59.3944 212.476 59.8476C212.721 60.3008 212.901 60.7301 213.017 61.1356L213.697 60.6684C214.377 60.2011 214.772 59.6341 214.883 58.9674C214.993 58.3006 214.79 57.6216 214.273 56.9305C213.959 56.5097 213.566 56.1507 213.094 55.8532C212.641 55.5587 212.094 55.2973 211.456 55.0689L211.906 54.1685C212.649 54.4316 213.291 54.7484 213.832 55.1189C214.385 55.4823 214.851 55.9195 215.233 56.4304C215.951 57.392 216.237 58.348 216.089 59.2983C215.941 60.2486 215.367 61.0671 214.368 61.7538L210.642 64.313C210.498 64.4121 210.412 64.5165 210.385 64.6261C210.368 64.7287 210.403 64.8487 210.49 64.986L209.655 65.5594C209.562 65.4563 209.481 65.3682 209.411 65.2951C209.341 65.2221 209.296 65.162 209.276 65.1148C209.099 64.8573 209.04 64.6103 209.097 64.3739C209.154 64.1375 209.267 63.9541 209.434 63.8238L210.011 63.4052C209.285 63.3732 208.584 63.1652 207.907 62.7812C207.241 62.3902 206.691 61.9041 206.257 61.3231C205.883 60.8223 205.65 60.2922 205.56 59.7328C205.487 59.1764 205.551 58.6555 205.75 58.1703C205.966 57.688 206.301 57.2911 206.755 56.9796ZM210.053 62.6483C210.28 62.6594 210.483 62.649 210.662 62.617C210.841 62.5851 210.981 62.5337 211.085 62.463L212.259 61.6559C212.139 61.2233 211.976 60.7969 211.772 60.3767C211.574 59.9665 211.337 59.5761 211.061 59.2055C210.514 58.4743 209.924 57.9859 209.288 57.7404C208.652 57.495 208.077 57.5492 207.562 57.9032C207.263 58.1085 207.035 58.3783 206.88 58.7126C206.734 59.0398 206.682 59.4089 206.724 59.8197C206.776 60.2235 206.948 60.6207 207.24 61.0114C207.607 61.5022 208.045 61.8907 208.555 62.1769C209.073 62.4732 209.572 62.6303 210.053 62.6483Z" fill="white"/>
<path d="M209.785 67.2566L218.405 62.6564L219.064 63.7919L215.073 70.3196L222.971 70.5239L223.601 71.6107L214.981 76.2109L214.369 75.1565L221.302 71.4569L214.138 71.2857L213.724 70.5719L217.33 64.6114L210.397 68.311L209.785 67.2566Z" fill="white"/>
<path d="M216.207 78.5777L225.283 75.0106L225.785 76.1833L218.314 79.1193L228.138 81.6434L228.588 82.6955L219.494 86.2694L218.993 85.0967L226.341 82.2087L216.693 79.7159L216.207 78.5777Z" fill="white"/>
</g>
<ellipse opacity="0.4" cx="19.4345" cy="135.444" rx="2.30948" ry="2.21471" fill="white"/>
<ellipse opacity="0.4" cx="230.063" cy="103.551" rx="2.30948" ry="2.21471" fill="white"/>
<path d="M102.041 102.121V103.72H89.7399V85.4104H101.809V87.0093H91.545V93.6109H100.493V95.1324H91.545V102.121H102.041ZM103.804 103.797V102.198C104.268 102.198 104.681 102.078 105.042 101.837C105.403 101.579 105.721 101.15 105.996 100.548C106.288 99.9461 106.52 99.1209 106.692 98.0722C106.864 97.0063 106.976 95.6568 107.027 94.0235L107.182 90.2843H115.898V103.72H114.145V91.8574H108.729L108.678 94.1783C108.609 96.035 108.463 97.5908 108.239 98.8458C108.016 100.084 107.698 101.064 107.285 101.786C106.89 102.508 106.4 103.023 105.815 103.333C105.231 103.642 104.56 103.797 103.804 103.797ZM125.577 103.978C124.615 103.978 123.721 103.797 122.895 103.436C122.07 103.058 121.357 102.551 120.755 101.915C120.153 101.261 119.681 100.513 119.337 99.6711C119.01 98.8287 118.847 97.9261 118.847 96.9633C118.847 95.7083 119.13 94.5565 119.698 93.5078C120.282 92.4591 121.082 91.6253 122.096 91.0064C123.11 90.3703 124.262 90.0522 125.552 90.0522C126.875 90.0522 128.027 90.3703 129.007 91.0064C130.004 91.6425 130.787 92.4849 131.354 93.5336C131.921 94.5651 132.205 95.6997 132.205 96.9376C132.205 97.0751 132.205 97.2126 132.205 97.3502C132.205 97.4705 132.196 97.5651 132.179 97.6338H120.678C120.764 98.5966 121.03 99.4562 121.477 100.213C121.941 100.952 122.534 101.545 123.257 101.992C123.996 102.422 124.795 102.637 125.655 102.637C126.532 102.637 127.357 102.413 128.13 101.966C128.921 101.519 129.471 100.935 129.781 100.213L131.302 100.625C131.027 101.261 130.606 101.837 130.039 102.353C129.471 102.869 128.801 103.273 128.027 103.565C127.271 103.84 126.454 103.978 125.577 103.978ZM120.626 96.3702H130.554C130.486 95.3903 130.219 94.5307 129.755 93.7914C129.308 93.0522 128.715 92.4763 127.976 92.0637C127.254 91.6339 126.454 91.419 125.577 91.419C124.701 91.419 123.901 91.6339 123.179 92.0637C122.457 92.4763 121.864 93.0608 121.4 93.8172C120.953 94.5565 120.695 95.4075 120.626 96.3702ZM134.885 103.72V90.2843H136.638V96.0608H144.323V90.2843H146.076V103.72H144.323V97.6338H136.638V103.72H134.885ZM148.862 99.8516C148.862 99.0092 149.102 98.2871 149.584 97.6854C150.065 97.0665 150.727 96.5937 151.569 96.2671C152.429 95.9232 153.418 95.7513 154.535 95.7513C155.188 95.7513 155.867 95.8029 156.572 95.906C157.277 96.0092 157.905 96.1639 158.455 96.3702V95.2356C158.455 94.1009 158.12 93.1983 157.449 92.5278C156.779 91.8574 155.85 91.5221 154.664 91.5221C153.942 91.5221 153.228 91.6597 152.524 91.9347C151.836 92.1926 151.114 92.5794 150.357 93.0952L149.687 91.8574C150.564 91.2557 151.423 90.8087 152.266 90.5164C153.108 90.207 153.968 90.0522 154.844 90.0522C156.495 90.0522 157.801 90.525 158.764 91.4706C159.727 92.4161 160.208 93.7227 160.208 95.3903V101.605C160.208 101.846 160.26 102.026 160.363 102.147C160.466 102.25 160.63 102.31 160.853 102.327V103.72C160.664 103.737 160.501 103.754 160.363 103.771C160.226 103.788 160.122 103.788 160.054 103.771C159.624 103.754 159.297 103.617 159.074 103.359C158.85 103.101 158.73 102.826 158.713 102.533L158.687 101.554C158.085 102.327 157.303 102.929 156.34 103.359C155.377 103.771 154.397 103.978 153.4 103.978C152.541 103.978 151.759 103.797 151.054 103.436C150.366 103.058 149.824 102.559 149.429 101.94C149.051 101.304 148.862 100.608 148.862 99.8516ZM157.862 100.883C158.051 100.642 158.197 100.41 158.3 100.187C158.403 99.9633 158.455 99.7656 158.455 99.5937V97.6338C157.87 97.4103 157.26 97.2384 156.624 97.1181C156.005 96.9977 155.377 96.9376 154.741 96.9376C153.486 96.9376 152.472 97.1868 151.698 97.6854C150.925 98.184 150.538 98.863 150.538 99.7226C150.538 100.221 150.667 100.694 150.925 101.141C151.183 101.571 151.561 101.932 152.059 102.224C152.558 102.499 153.142 102.637 153.813 102.637C154.655 102.637 155.438 102.473 156.16 102.147C156.899 101.82 157.466 101.399 157.862 100.883ZM73.285 131.72V116.814L66.6576 128.393H65.5229L58.8697 116.814V131.72H57.0645V113.41H58.9212L66.0644 125.943L73.2592 113.41H75.0902V131.72H73.285ZM78.1091 127.852C78.1091 127.009 78.3498 126.287 78.8312 125.685C79.3126 125.066 79.9744 124.594 80.8168 124.267C81.6764 123.923 82.665 123.751 83.7824 123.751C84.4357 123.751 85.1148 123.803 85.8197 123.906C86.5245 124.009 87.152 124.164 87.7022 124.37V123.236C87.7022 122.101 87.3669 121.198 86.6964 120.528C86.026 119.857 85.0976 119.522 83.9114 119.522C83.1893 119.522 82.4759 119.66 81.771 119.935C81.0833 120.193 80.3613 120.579 79.6048 121.095L78.9343 119.857C79.8111 119.256 80.6707 118.809 81.5131 118.516C82.3555 118.207 83.2151 118.052 84.0919 118.052C85.7423 118.052 87.0489 118.525 88.0116 119.471C88.9744 120.416 89.4557 121.723 89.4557 123.39V129.605C89.4557 129.846 89.5073 130.026 89.6105 130.147C89.7136 130.25 89.8769 130.31 90.1004 130.327V131.72C89.9113 131.737 89.748 131.754 89.6105 131.771C89.4729 131.788 89.3698 131.788 89.301 131.771C88.8712 131.754 88.5446 131.617 88.3211 131.359C88.0976 131.101 87.9772 130.826 87.96 130.533L87.9343 129.554C87.3325 130.327 86.5503 130.929 85.5876 131.359C84.6248 131.771 83.6449 131.978 82.6478 131.978C81.7882 131.978 81.006 131.797 80.3011 131.436C79.6134 131.058 79.0719 130.559 78.6765 129.94C78.2982 129.304 78.1091 128.608 78.1091 127.852ZM87.1091 128.883C87.2982 128.642 87.4443 128.41 87.5474 128.187C87.6506 127.963 87.7022 127.766 87.7022 127.594V125.634C87.1176 125.41 86.5073 125.238 85.8712 125.118C85.2523 124.998 84.6248 124.938 83.9887 124.938C82.7337 124.938 81.7194 125.187 80.9458 125.685C80.1721 126.184 79.7853 126.863 79.7853 127.723C79.7853 128.221 79.9143 128.694 80.1721 129.141C80.43 129.571 80.8082 129.932 81.3068 130.224C81.8054 130.499 82.3899 130.637 83.0604 130.637C83.9028 130.637 84.685 130.473 85.4071 130.147C86.1463 129.82 86.7136 129.399 87.1091 128.883ZM93.2187 131.72V118.284H94.9723V124.035H96.9837L101.497 118.284H103.508L98.3763 124.809L104.153 131.72H102.09L96.9837 125.66H94.9723V131.72H93.2187ZM111.765 131.978C110.785 131.978 109.882 131.797 109.057 131.436C108.249 131.058 107.536 130.542 106.917 129.889C106.315 129.236 105.842 128.488 105.499 127.645C105.172 126.803 105.009 125.909 105.009 124.963C105.009 123.691 105.292 122.531 105.86 121.482C106.427 120.433 107.218 119.599 108.232 118.981C109.246 118.362 110.415 118.052 111.739 118.052C112.994 118.052 114.103 118.344 115.066 118.929C116.029 119.496 116.742 120.27 117.206 121.25L115.504 121.791C115.126 121.104 114.593 120.571 113.905 120.193C113.235 119.797 112.487 119.599 111.662 119.599C110.768 119.599 109.951 119.832 109.212 120.296C108.473 120.76 107.88 121.396 107.433 122.204C107.003 123.012 106.788 123.932 106.788 124.963C106.788 125.978 107.011 126.897 107.458 127.723C107.905 128.548 108.499 129.21 109.238 129.708C109.977 130.19 110.794 130.43 111.688 130.43C112.272 130.43 112.831 130.327 113.364 130.121C113.914 129.915 114.387 129.64 114.782 129.296C115.195 128.935 115.47 128.548 115.607 128.135L117.335 128.651C117.094 129.287 116.69 129.863 116.123 130.379C115.573 130.877 114.92 131.273 114.163 131.565C113.424 131.84 112.625 131.978 111.765 131.978ZM120.064 131.72V118.31H121.818V129.347L129.992 118.284H131.565V131.72H129.812V120.863L121.766 131.72H120.064ZM135.376 131.72V118.284H137.181L142.519 127.542L147.883 118.284H149.61V131.72H147.934V120.915L143.086 129.321H141.952L137.052 120.915V131.72H135.376ZM159.208 131.978C158.245 131.978 157.351 131.797 156.526 131.436C155.718 131.058 155.013 130.551 154.411 129.915C153.827 129.261 153.371 128.522 153.045 127.697C152.718 126.854 152.555 125.969 152.555 125.041C152.555 124.078 152.718 123.184 153.045 122.359C153.371 121.516 153.835 120.777 154.437 120.141C155.039 119.488 155.744 118.981 156.552 118.62C157.377 118.241 158.271 118.052 159.234 118.052C160.196 118.052 161.082 118.241 161.89 118.62C162.698 118.981 163.403 119.488 164.004 120.141C164.606 120.777 165.07 121.516 165.397 122.359C165.724 123.184 165.887 124.078 165.887 125.041C165.887 125.969 165.724 126.854 165.397 127.697C165.07 128.522 164.606 129.261 164.004 129.915C163.42 130.551 162.715 131.058 161.89 131.436C161.082 131.797 160.188 131.978 159.208 131.978ZM154.334 125.066C154.334 126.064 154.549 126.975 154.979 127.8C155.426 128.608 156.019 129.253 156.758 129.734C157.497 130.198 158.314 130.43 159.208 130.43C160.102 130.43 160.919 130.19 161.658 129.708C162.397 129.227 162.99 128.574 163.437 127.748C163.884 126.906 164.108 125.995 164.108 125.015C164.108 124.018 163.884 123.107 163.437 122.281C162.99 121.456 162.397 120.803 161.658 120.322C160.919 119.84 160.102 119.599 159.208 119.599C158.314 119.599 157.497 119.849 156.758 120.347C156.036 120.846 155.452 121.508 155.005 122.333C154.558 123.141 154.334 124.052 154.334 125.066ZM168.794 131.72V118.284H175.499C176.255 118.284 176.891 118.448 177.407 118.774C177.923 119.084 178.31 119.488 178.567 119.986C178.843 120.485 178.98 121.018 178.98 121.585C178.98 122.307 178.808 122.96 178.464 123.545C178.12 124.112 177.622 124.542 176.969 124.834C177.742 125.058 178.37 125.462 178.851 126.046C179.333 126.631 179.573 127.336 179.573 128.161C179.573 128.883 179.393 129.511 179.032 130.044C178.688 130.576 178.206 130.989 177.588 131.281C176.986 131.574 176.29 131.72 175.499 131.72H168.794ZM170.47 130.456H175.447C175.894 130.456 176.298 130.344 176.659 130.121C177.037 129.88 177.33 129.571 177.536 129.193C177.759 128.814 177.871 128.419 177.871 128.006C177.871 127.559 177.768 127.155 177.562 126.794C177.355 126.416 177.08 126.115 176.737 125.892C176.393 125.668 175.997 125.556 175.55 125.556H170.47V130.456ZM170.47 124.344H175.035C175.482 124.344 175.877 124.224 176.221 123.983C176.565 123.743 176.831 123.433 177.02 123.055C177.209 122.677 177.304 122.281 177.304 121.869C177.304 121.25 177.098 120.708 176.685 120.244C176.29 119.78 175.774 119.548 175.138 119.548H170.47V124.344ZM181.537 127.852C181.537 127.009 181.778 126.287 182.259 125.685C182.741 125.066 183.402 124.594 184.245 124.267C185.104 123.923 186.093 123.751 187.21 123.751C187.864 123.751 188.543 123.803 189.248 123.906C189.952 124.009 190.58 124.164 191.13 124.37V123.236C191.13 122.101 190.795 121.198 190.124 120.528C189.454 119.857 188.526 119.522 187.339 119.522C186.617 119.522 185.904 119.66 185.199 119.935C184.511 120.193 183.789 120.579 183.033 121.095L182.362 119.857C183.239 119.256 184.099 118.809 184.941 118.516C185.783 118.207 186.643 118.052 187.52 118.052C189.17 118.052 190.477 118.525 191.44 119.471C192.402 120.416 192.884 121.723 192.884 123.39V129.605C192.884 129.846 192.935 130.026 193.038 130.147C193.142 130.25 193.305 130.31 193.528 130.327V131.72C193.339 131.737 193.176 131.754 193.038 131.771C192.901 131.788 192.798 131.788 192.729 131.771C192.299 131.754 191.973 131.617 191.749 131.359C191.526 131.101 191.405 130.826 191.388 130.533L191.362 129.554C190.76 130.327 189.978 130.929 189.016 131.359C188.053 131.771 187.073 131.978 186.076 131.978C185.216 131.978 184.434 131.797 183.729 131.436C183.041 131.058 182.5 130.559 182.104 129.94C181.726 129.304 181.537 128.608 181.537 127.852ZM190.537 128.883C190.726 128.642 190.872 128.41 190.975 128.187C191.079 127.963 191.13 127.766 191.13 127.594V125.634C190.546 125.41 189.935 125.238 189.299 125.118C188.68 124.998 188.053 124.938 187.417 124.938C186.162 124.938 185.147 125.187 184.374 125.685C183.6 126.184 183.213 126.863 183.213 127.723C183.213 128.221 183.342 128.694 183.6 129.141C183.858 129.571 184.236 129.932 184.735 130.224C185.233 130.499 185.818 130.637 186.488 130.637C187.331 130.637 188.113 130.473 188.835 130.147C189.574 129.82 190.142 129.399 190.537 128.883Z" fill="white"/>
<path d="M88.6952 157.087L90.5003 148.537H97.3599L95.5383 157.087H94.4224L96.047 149.423H91.4193L89.8111 157.087H88.6952ZM101.323 157.251C100.634 157.251 100.043 157.087 99.551 156.759C99.0587 156.43 98.6813 155.993 98.4187 155.446C98.1671 154.899 98.0413 154.292 98.0413 153.624C98.0413 152.935 98.1726 152.279 98.4351 151.655C98.6977 151.021 99.0587 150.463 99.5182 149.981C99.9886 149.489 100.53 149.101 101.143 148.816C101.766 148.532 102.434 148.389 103.145 148.389C103.933 148.389 104.573 148.575 105.065 148.947C105.568 149.308 105.896 149.801 106.05 150.424L104.901 150.769C104.759 150.32 104.518 149.976 104.179 149.735C103.851 149.494 103.451 149.374 102.981 149.374C102.499 149.374 102.029 149.483 101.57 149.702C101.121 149.91 100.716 150.205 100.355 150.588C100.005 150.971 99.7206 151.409 99.5018 151.901C99.2939 152.394 99.19 152.919 99.19 153.477C99.19 154.013 99.283 154.489 99.469 154.904C99.6659 155.32 99.9339 155.654 100.273 155.905C100.623 156.146 101.017 156.266 101.455 156.266C101.805 156.266 102.155 156.201 102.505 156.069C102.866 155.938 103.189 155.763 103.473 155.544C103.758 155.315 103.965 155.068 104.097 154.806L105.131 155.134C104.901 155.539 104.584 155.905 104.179 156.234C103.774 156.551 103.325 156.802 102.833 156.988C102.341 157.163 101.838 157.251 101.323 157.251ZM108.878 157.251C107.543 157.251 106.876 156.518 106.876 155.052C106.876 154.833 106.892 154.603 106.925 154.363C106.958 154.111 107.002 153.843 107.057 153.559L108.14 148.537H109.239L108.222 153.362C108.112 153.854 108.058 154.281 108.058 154.642C108.058 155.725 108.528 156.266 109.469 156.266C109.885 156.266 110.3 156.173 110.716 155.987C111.132 155.79 111.526 155.517 111.898 155.167C112.281 154.806 112.598 154.39 112.849 153.92L113.998 148.537H115.114L113.621 155.512C113.61 155.577 113.599 155.637 113.588 155.692C113.577 155.747 113.572 155.79 113.572 155.823C113.572 156.009 113.675 156.102 113.883 156.102L113.67 157.087C113.582 157.098 113.5 157.109 113.424 157.12C113.347 157.131 113.276 157.131 113.21 157.12C112.981 157.109 112.806 157.049 112.685 156.939C112.565 156.819 112.505 156.666 112.505 156.48C112.505 156.425 112.51 156.359 112.521 156.283C112.532 156.195 112.554 156.064 112.587 155.889C112.62 155.714 112.669 155.468 112.735 155.15C112.231 155.807 111.635 156.321 110.946 156.693C110.268 157.065 109.578 157.251 108.878 157.251ZM118.796 152.837L116.613 148.537H117.811L119.485 151.885L119.55 152.131L119.731 151.901L122.849 148.537H124.047L120.043 152.837L122.225 157.087H121.027L119.353 153.756L119.255 153.526L119.091 153.739L116.006 157.087H114.791L118.796 152.837ZM127.812 157.251C126.992 157.251 126.291 157.049 125.712 156.644C125.132 156.228 124.705 155.687 124.432 155.019C124.169 154.352 124.092 153.624 124.202 152.837C124.289 152.224 124.47 151.655 124.743 151.13C125.028 150.594 125.389 150.123 125.826 149.719C126.264 149.303 126.756 148.98 127.303 148.75C127.861 148.51 128.447 148.389 129.059 148.389C129.88 148.389 130.58 148.597 131.16 149.013C131.74 149.418 132.166 149.954 132.44 150.621C132.713 151.289 132.795 152.027 132.686 152.837C132.609 153.427 132.429 153.991 132.144 154.527C131.871 155.052 131.515 155.522 131.078 155.938C130.651 156.343 130.159 156.666 129.601 156.906C129.043 157.136 128.447 157.251 127.812 157.251ZM127.943 156.316C128.37 156.316 128.78 156.223 129.174 156.037C129.579 155.851 129.945 155.594 130.274 155.265C130.602 154.937 130.875 154.565 131.094 154.149C131.324 153.723 131.472 153.28 131.537 152.82C131.636 152.175 131.581 151.589 131.373 151.064C131.165 150.528 130.848 150.107 130.421 149.801C130.006 149.483 129.508 149.325 128.928 149.325C128.501 149.325 128.091 149.418 127.697 149.604C127.303 149.79 126.937 150.041 126.598 150.359C126.27 150.676 125.996 151.048 125.777 151.475C125.558 151.901 125.416 152.361 125.351 152.853C125.263 153.488 125.323 154.073 125.531 154.609C125.739 155.134 126.051 155.55 126.466 155.856C126.893 156.162 127.385 156.316 127.943 156.316ZM133.235 157.087C133.728 155.654 134.4 154.215 135.254 152.771C136.107 151.316 137.19 149.905 138.503 148.537H139.619L140.899 157.087H139.734L138.766 149.604C138.219 150.205 137.721 150.824 137.272 151.458C136.824 152.082 136.419 152.711 136.058 153.345C135.708 153.98 135.385 154.614 135.09 155.249C134.805 155.873 134.554 156.485 134.335 157.087H133.235ZM146.498 157.251C145.678 157.251 144.977 157.049 144.398 156.644C143.818 156.228 143.391 155.687 143.118 155.019C142.855 154.352 142.778 153.624 142.888 152.837C142.975 152.224 143.156 151.655 143.429 151.13C143.714 150.594 144.075 150.123 144.513 149.719C144.95 149.303 145.442 148.98 145.989 148.75C146.547 148.51 147.133 148.389 147.745 148.389C148.566 148.389 149.266 148.597 149.846 149.013C150.426 149.418 150.852 149.954 151.126 150.621C151.399 151.289 151.481 152.027 151.372 152.837C151.295 153.427 151.115 153.991 150.831 154.527C150.557 155.052 150.201 155.522 149.764 155.938C149.337 156.343 148.845 156.666 148.287 156.906C147.729 157.136 147.133 157.251 146.498 157.251ZM146.629 156.316C147.056 156.316 147.466 156.223 147.86 156.037C148.265 155.851 148.632 155.594 148.96 155.265C149.288 154.937 149.561 154.565 149.78 154.149C150.01 153.723 150.158 153.28 150.223 152.82C150.322 152.175 150.267 151.589 150.059 151.064C149.851 150.528 149.534 150.107 149.107 149.801C148.692 149.483 148.194 149.325 147.614 149.325C147.187 149.325 146.777 149.418 146.383 149.604C145.989 149.79 145.623 150.041 145.284 150.359C144.956 150.676 144.682 151.048 144.463 151.475C144.244 151.901 144.102 152.361 144.037 152.853C143.949 153.488 144.009 154.073 144.217 154.609C144.425 155.134 144.737 155.55 145.153 155.856C145.579 156.162 146.071 156.316 146.629 156.316ZM155.712 157.251C155.045 157.251 154.487 157.158 154.038 156.972C153.601 156.775 153.278 156.502 153.07 156.152C152.873 155.801 152.797 155.386 152.84 154.904C152.895 154.281 153.163 153.788 153.644 153.427C154.126 153.055 154.897 152.7 155.958 152.361C156.483 152.175 156.899 152.005 157.205 151.852C157.512 151.699 157.736 151.524 157.878 151.327C158.02 151.119 158.108 150.884 158.141 150.621C158.174 150.173 158.053 149.828 157.78 149.587C157.517 149.347 157.123 149.226 156.598 149.226C156.128 149.226 155.685 149.319 155.269 149.505C154.864 149.691 154.541 149.954 154.301 150.293L153.497 149.768C153.825 149.33 154.268 148.991 154.826 148.75C155.395 148.499 156.04 148.373 156.762 148.373C157.627 148.373 158.272 148.575 158.699 148.98C159.136 149.374 159.333 149.921 159.29 150.621C159.235 151.267 158.967 151.775 158.485 152.147C158.015 152.508 157.309 152.842 156.368 153.148C155.789 153.334 155.329 153.515 154.99 153.69C154.651 153.854 154.405 154.035 154.252 154.232C154.109 154.417 154.022 154.653 153.989 154.937C153.934 155.397 154.071 155.747 154.399 155.987C154.738 156.228 155.242 156.348 155.909 156.348C156.412 156.348 156.883 156.255 157.32 156.069C157.758 155.883 158.13 155.615 158.436 155.265L159.158 155.889C158.753 156.316 158.267 156.649 157.698 156.89C157.129 157.131 156.467 157.251 155.712 157.251Z" fill="white"/>
<defs>
<linearGradient id="paint0_linear_488_55212" x1="152.276" y1="0.345701" x2="159.988" y2="172.343" gradientUnits="userSpaceOnUse">
<stop stop-color="#58A4C3"/>
<stop offset="1" stop-color="#97CCE1"/>
</linearGradient>
</defs>
</svg>
