<svg width="249" height="250" viewBox="0 0 249 250" fill="none" xmlns="http://www.w3.org/2000/svg">
<circle cx="124.75" cy="125.197" r="124.25" fill="url(#paint0_linear_669_198)"/>
<g opacity="0.5">
<path d="M226.436 132.044L225.274 131.999L225.513 125.796L226.675 125.841L226.577 128.371L237.466 128.791C237.32 128.673 237.158 128.498 236.979 128.266C236.813 128.047 236.647 127.79 236.484 127.496C236.332 127.202 236.206 126.903 236.105 126.599C236.004 126.295 235.959 126.018 235.968 125.768L237.168 125.814C237.155 126.152 237.229 126.492 237.391 126.837C237.566 127.181 237.76 127.501 237.973 127.797C238.199 128.107 238.402 128.352 238.583 128.534C238.776 128.729 238.878 128.833 238.89 128.846L238.84 130.14L226.528 129.664L226.436 132.044Z" fill="white"/>
<path d="M234.046 134.126C234.889 134.237 235.625 134.542 236.253 135.041C236.893 135.541 237.365 136.171 237.668 136.93C237.983 137.702 238.083 138.523 237.968 139.391C237.844 140.333 237.513 141.128 236.973 141.775C236.446 142.425 235.748 142.894 234.877 143.183C234.005 143.484 232.993 143.559 231.84 143.407C230.042 143.17 228.582 142.769 227.458 142.205C226.333 141.653 225.527 140.973 225.041 140.165C224.555 139.357 224.376 138.464 224.505 137.484C224.619 136.617 224.939 135.864 225.464 135.227C226.002 134.592 226.679 134.145 227.495 133.887L228.115 134.782C227.459 134.973 226.902 135.322 226.444 135.829C225.997 136.35 225.728 136.958 225.637 137.652C225.54 138.384 225.679 139.051 226.054 139.656C226.441 140.261 227.042 140.77 227.858 141.18C228.673 141.602 229.687 141.894 230.902 142.054C230.454 141.818 230.068 141.49 229.745 141.069C229.433 140.662 229.211 140.198 229.078 139.676C228.943 139.166 228.913 138.632 228.986 138.075C229.097 137.232 229.397 136.489 229.885 135.847C230.371 135.218 230.982 134.743 231.718 134.424C232.452 134.117 233.228 134.018 234.046 134.126ZM236.874 139.227C236.956 138.608 236.876 138.017 236.634 137.455C236.393 136.894 236.033 136.424 235.553 136.046C235.073 135.667 234.523 135.437 233.903 135.355C233.271 135.272 232.674 135.351 232.113 135.592C231.564 135.835 231.094 136.196 230.703 136.674C230.323 137.166 230.092 137.722 230.01 138.342C229.927 138.974 230.006 139.571 230.247 140.132C230.501 140.696 230.861 141.166 231.329 141.542C231.807 141.933 232.356 142.17 232.976 142.251C233.596 142.333 234.187 142.247 234.75 141.993C235.313 141.739 235.784 141.373 236.163 140.893C236.553 140.415 236.791 139.86 236.874 139.227Z" fill="white"/>
<path d="M222.439 148.858C222.628 148.093 222.926 147.432 223.334 146.876C223.741 146.32 224.218 145.903 224.763 145.625C225.308 145.348 225.889 145.234 226.508 145.283L227.012 146.219C226.593 146.141 226.146 146.205 225.67 146.409C225.207 146.617 224.789 146.952 224.418 147.414C224.043 147.888 223.772 148.465 223.605 149.145C223.455 149.752 223.423 150.324 223.51 150.86C223.606 151.412 223.801 151.872 224.096 152.241C224.401 152.625 224.802 152.879 225.3 153.002C225.834 153.133 226.331 153.076 226.791 152.829C227.263 152.585 227.679 152.178 228.038 151.61C228.397 151.042 228.682 150.333 228.891 149.483L229.044 148.864L230.118 149.129L229.966 149.748C229.675 150.926 229.64 151.902 229.861 152.678C230.082 153.454 230.581 153.937 231.358 154.129C231.867 154.255 232.345 154.224 232.79 154.038C233.232 153.864 233.613 153.572 233.934 153.161C234.251 152.763 234.475 152.297 234.607 151.763C234.805 150.961 234.798 150.232 234.587 149.575C234.375 148.917 234.037 148.409 233.572 148.05L234.621 147.4C235.001 147.739 235.298 148.153 235.512 148.644C235.722 149.147 235.847 149.686 235.885 150.262C235.92 150.85 235.866 151.436 235.722 152.018C235.519 152.844 235.18 153.539 234.705 154.105C234.228 154.683 233.677 155.088 233.053 155.32C232.426 155.565 231.767 155.601 231.075 155.431C230.589 155.311 230.176 155.106 229.836 154.816C229.507 154.529 229.256 154.164 229.082 153.722C228.92 153.283 228.839 152.774 228.841 152.195C228.591 152.738 228.255 153.183 227.835 153.53C227.412 153.89 226.941 154.128 226.423 154.245C225.913 154.376 225.386 154.375 224.84 154.24C224.111 154.061 223.538 153.694 223.121 153.14C222.701 152.599 222.429 151.952 222.306 151.201C222.194 150.452 222.239 149.671 222.439 148.858Z" fill="white"/>
<path d="M221.908 165.345C221.122 165.056 220.473 164.592 219.962 163.952C219.458 163.328 219.136 162.61 218.994 161.799C218.852 160.988 218.933 160.165 219.239 159.332C219.557 158.463 220.047 157.764 220.707 157.234C221.375 156.719 222.174 156.413 223.102 156.314C224.031 156.215 225.035 156.363 226.115 156.759C227.817 157.384 229.149 158.092 230.11 158.884C231.083 159.68 231.719 160.525 232.017 161.42C232.314 162.315 232.295 163.221 231.96 164.136C231.654 164.97 231.169 165.638 230.506 166.14C229.854 166.647 229.108 166.939 228.267 167.017L227.846 165.984C228.535 165.957 229.155 165.738 229.705 165.327C230.263 164.932 230.662 164.406 230.903 163.749C231.157 163.056 231.162 162.372 230.917 161.696C230.672 161.02 230.198 160.387 229.496 159.797C228.789 159.218 227.861 158.718 226.71 158.296C227.103 158.64 227.408 159.045 227.623 159.51C227.839 159.975 227.957 160.471 227.977 160.998C227.992 161.536 227.903 162.069 227.71 162.598C227.417 163.396 226.964 164.049 226.352 164.557C225.735 165.077 225.035 165.406 224.252 165.545C223.476 165.7 222.695 165.633 221.908 165.345ZM220.282 159.754C220.067 160.341 220.016 160.935 220.129 161.536C220.241 162.137 220.49 162.674 220.876 163.148C221.257 163.634 221.741 163.985 222.328 164.2C222.915 164.415 223.511 164.461 224.116 164.336C224.716 164.224 225.254 163.974 225.728 163.589C226.202 163.204 226.547 162.717 226.762 162.131C226.982 161.532 227.037 160.926 226.929 160.314C226.816 159.713 226.567 159.176 226.182 158.702C225.808 158.232 225.322 157.887 224.723 157.667C224.136 157.452 223.543 157.401 222.942 157.514C222.337 157.638 221.797 157.893 221.323 158.278C220.849 158.664 220.502 159.156 220.282 159.754Z" fill="white"/>
<path d="M213.473 168.007L216.462 169.656L216.38 169.804C216.241 170.056 216.191 170.328 216.23 170.62C216.268 170.913 216.434 171.247 216.726 171.623C217.019 171.998 217.472 172.419 218.085 172.886C218.71 173.359 219.528 173.896 220.538 174.497L222.874 175.892L219.803 181.459L212.249 177.292L211.615 178.442L208.626 176.793L209.179 175.791L211.166 176.887L214.916 170.089L212.929 168.993L213.473 168.007ZM215.447 171.495L212.865 176.176L219.418 179.79L221.32 176.341L219.869 175.477C218.869 174.882 218.055 174.34 217.425 173.85C216.801 173.377 216.331 172.947 216.017 172.559C215.707 172.189 215.517 171.834 215.447 171.495Z" fill="white"/>
<path d="M209.66 179.352L217.666 184.955L216.934 186L213.492 183.591L210.288 188.17L213.73 190.579L212.999 191.624L204.993 186.021L205.724 184.976L209.351 187.514L212.555 182.935L208.929 180.397L209.66 179.352Z" fill="white"/>
<path d="M200.518 191.097C200.978 190.569 201.504 190.165 202.096 189.884C202.697 189.612 203.316 189.463 203.952 189.437C204.598 189.419 205.234 189.517 205.86 189.73C206.478 189.954 207.052 190.295 207.58 190.755C208.268 191.354 208.764 192.06 209.069 192.872C209.365 193.693 209.44 194.53 209.295 195.382C209.16 196.242 208.784 197.026 208.169 197.733C207.536 198.459 206.812 198.939 205.995 199.173C205.17 199.416 204.334 199.443 203.488 199.253C202.651 199.072 201.894 198.685 201.215 198.094C201.139 198.028 201.064 197.963 200.988 197.897C200.922 197.84 200.875 197.79 200.845 197.748L206.337 191.439C205.768 191.026 205.17 190.762 204.541 190.646C203.914 190.547 203.305 190.589 202.715 190.772C202.127 190.972 201.627 191.308 201.217 191.78C200.798 192.261 200.526 192.82 200.402 193.458C200.27 194.105 200.328 194.686 200.576 195.201L199.623 195.838C199.405 195.383 199.291 194.877 199.279 194.32C199.267 193.762 199.365 193.202 199.574 192.638C199.785 192.091 200.099 191.578 200.518 191.097ZM207.055 192.014L202.314 197.46C202.884 197.89 203.483 198.154 204.11 198.253C204.729 198.361 205.328 198.31 205.908 198.102C206.488 197.911 206.988 197.575 207.407 197.094C207.825 196.613 208.089 196.072 208.198 195.471C208.317 194.878 208.279 194.273 208.086 193.657C207.894 193.059 207.55 192.511 207.055 192.014Z" fill="white"/>
<path d="M196.432 195.912L203.099 203.03L202.168 203.902L196.681 198.043L197.842 207.98L197.007 208.762L190.327 201.63L191.258 200.758L196.656 206.521L195.529 196.758L196.432 195.912ZM200.892 206.819C201.512 206.238 202.128 205.935 202.739 205.911C203.351 205.886 203.866 206.098 204.284 206.545L203.6 207.186C203.343 206.912 203.029 206.778 202.658 206.784C202.277 206.798 201.872 207.006 201.443 207.407C201.023 207.801 200.799 208.174 200.77 208.527C200.731 208.888 200.835 209.227 201.081 209.545L200.411 210.173C199.992 209.726 199.814 209.199 199.879 208.59C199.943 207.982 200.28 207.392 200.892 206.819Z" fill="white"/>
<path d="M185.082 205.839L190.626 213.885L184.155 218.344L178.611 210.298L179.661 209.574L184.556 216.678L188.927 213.667L184.032 206.563L185.082 205.839Z" fill="white"/>
<path d="M171.835 213.971C172.55 213.584 173.294 213.422 174.068 213.486C174.832 213.556 175.527 213.776 176.155 214.147L173.286 208.854L174.407 208.247L180.967 220.349L179.961 220.894L179.059 219.229C179.01 219.952 178.789 220.634 178.396 221.273C178.009 221.924 177.492 222.425 176.843 222.776C176.249 223.098 175.637 223.267 175.005 223.282C174.379 223.308 173.772 223.211 173.183 222.99C172.594 222.769 172.054 222.442 171.564 222.011C171.069 221.597 170.667 221.104 170.357 220.532C169.922 219.73 169.685 218.898 169.645 218.038C169.601 217.195 169.759 216.412 170.122 215.689C170.484 214.967 171.055 214.394 171.835 213.971ZM172.685 214.791C172.212 215.047 171.84 215.37 171.567 215.759C171.301 216.159 171.125 216.596 171.04 217.069C170.944 217.547 170.935 218.029 171.012 218.513C171.096 219.008 171.257 219.476 171.495 219.915C171.745 220.377 172.066 220.772 172.457 221.1C172.838 221.435 173.263 221.681 173.732 221.839C174.202 221.997 174.679 222.065 175.166 222.043C175.652 222.021 176.12 221.888 176.571 221.644C176.856 221.489 177.123 221.273 177.372 220.997C177.62 220.72 177.83 220.4 178.003 220.036C178.17 219.689 178.279 219.339 178.329 218.984C178.379 218.63 178.348 218.298 178.237 217.989L176.807 215.351C176.411 215.039 175.975 214.799 175.499 214.63C175.03 214.472 174.549 214.399 174.057 214.409C173.56 214.437 173.103 214.564 172.685 214.791Z" fill="white"/>
<path d="M167.856 219.411C168.088 219.978 168.125 220.53 167.967 221.068C167.814 221.617 167.499 222.117 167.022 222.57C166.539 223.038 165.921 223.426 165.169 223.735C164.729 223.915 164.258 224.067 163.755 224.192C163.252 224.317 162.787 224.386 162.36 224.399L162.673 225.163C162.986 225.926 163.461 226.441 164.097 226.707C164.733 226.974 165.45 226.943 166.248 226.616C166.734 226.417 167.177 226.128 167.575 225.748C167.967 225.385 168.346 224.926 168.713 224.37L169.505 225.018C169.081 225.665 168.626 226.203 168.14 226.632C167.658 227.072 167.122 227.413 166.532 227.655C165.422 228.11 164.412 228.152 163.503 227.782C162.595 227.411 161.91 226.664 161.451 225.542L159.737 221.36C159.67 221.198 159.586 221.091 159.483 221.038C159.385 220.997 159.259 221.002 159.104 221.052L158.72 220.115C158.842 220.051 158.947 219.994 159.035 219.945C159.123 219.895 159.192 219.867 159.243 219.859C159.537 219.752 159.795 219.755 160.017 219.867C160.238 219.979 160.395 220.131 160.487 220.323L160.775 220.975C160.966 220.288 161.327 219.668 161.856 219.113C162.39 218.57 162.993 218.161 163.664 217.886C164.242 217.649 164.818 217.554 165.392 217.603C165.959 217.668 166.461 217.854 166.898 218.161C167.328 218.485 167.647 218.902 167.856 219.411ZM161.515 221.199C161.454 221.413 161.42 221.609 161.412 221.788C161.404 221.967 161.424 222.114 161.471 222.23L162.012 223.549C162.467 223.538 162.925 223.485 163.386 223.391C163.836 223.301 164.275 223.169 164.703 222.993C165.547 222.647 166.161 222.2 166.544 221.651C166.928 221.102 167.001 220.538 166.763 219.96C166.626 219.624 166.409 219.342 166.112 219.112C165.82 218.894 165.466 218.755 165.05 218.696C164.638 218.648 164.207 218.717 163.756 218.902C163.189 219.134 162.708 219.46 162.312 219.879C161.904 220.302 161.639 220.742 161.515 221.199Z" fill="white"/>
<path d="M157.035 220.685L159.84 230.045L158.618 230.411L157.417 226.405L156.016 226.825L154.073 231.773L152.671 232.193L154.885 226.577L149.417 222.968L150.855 222.537L155.677 225.693L157.078 225.273L155.813 221.051L157.035 220.685Z" fill="white"/>
<path d="M145.259 223.854L146.972 232.309L150.391 231.616L150.618 232.737L142.53 234.376L142.303 233.255L145.722 232.562L144.009 224.107L145.259 223.854Z" fill="white"/>
<path d="M139.046 225.04L140.06 234.74L138.791 234.873L137.957 226.889L132.88 235.509L131.742 235.628L130.727 225.91L131.995 225.777L132.816 233.63L137.815 225.169L139.046 225.04Z" fill="white"/>
<path d="M128.175 236.485V226.714H126.899V230.896H125.436L122.154 226.714H120.692L124.424 231.459L120.223 236.485H121.723L125.436 232.078H126.899V236.485H128.175Z" fill="white"/>
<path d="M118.335 225.924L117.397 235.631L116.127 235.508L116.9 227.518L110.208 234.954L109.069 234.844L110.01 225.119L111.279 225.241L110.519 233.1L117.103 225.804L118.335 225.924Z" fill="white"/>
<path d="M99.3438 222.73C100.036 222.901 100.642 223.185 101.161 223.584C101.666 223.992 102.08 224.48 102.403 225.049C102.714 225.615 102.918 226.226 103.014 226.881C103.098 227.532 103.057 228.192 102.893 228.86C102.671 229.758 102.269 230.528 101.685 231.17C101.102 231.811 100.399 232.262 99.5746 232.523C98.7505 232.783 97.8712 232.798 96.9364 232.567C96.0503 232.349 95.3182 231.949 94.7402 231.369C94.1592 230.8 93.7902 230.13 93.6331 229.357L94.9293 229.271C95.0765 229.823 95.36 230.292 95.7797 230.679C96.1843 231.075 96.6779 231.344 97.2606 231.488C97.8918 231.644 98.5089 231.622 99.1117 231.423C99.7145 231.224 100.244 230.878 100.701 230.386C101.145 229.89 101.457 229.278 101.636 228.55C101.813 227.834 101.815 227.145 101.644 226.485C101.472 225.824 101.168 225.253 100.733 224.773C100.295 224.304 99.7601 223.992 99.1289 223.836C98.7162 223.734 98.3037 223.71 97.8914 223.763C97.467 223.812 97.0853 223.924 96.7462 224.098C96.392 224.281 96.1304 224.506 95.9614 224.774L94.8312 224.109C95.112 223.701 95.4976 223.365 95.988 223.1C96.4633 222.844 96.9935 222.678 97.5785 222.604C98.1484 222.538 98.7368 222.58 99.3438 222.73Z" fill="white"/>
<path d="M89.8502 220.07L86.2127 229.139L85.0291 228.664L86.586 224.783L85.2283 224.238L80.6252 226.898L79.2674 226.353L84.4978 223.339L82.4698 217.11L83.8623 217.668L85.6681 223.141L87.0259 223.686L88.6666 219.595L89.8502 220.07Z" fill="white"/>
<path d="M81.7476 216.746L81.2048 217.774C80.9063 217.617 80.6001 217.554 80.2861 217.586C79.9664 217.63 79.6159 217.798 79.2348 218.092C78.8425 218.38 78.4131 218.832 77.9465 219.448C77.4741 220.075 76.9442 220.905 76.3566 221.938L74.9877 224.291L69.3815 221.332L73.9423 212.69L75.0702 213.285L71.0434 220.915L74.5265 222.754L75.3476 221.278C76.0221 220.107 76.6442 219.156 77.214 218.425C77.7779 217.705 78.3151 217.182 78.8256 216.858C79.3251 216.528 79.8153 216.362 80.2963 216.362C80.7773 216.361 81.2611 216.489 81.7476 216.746Z" fill="white"/>
<path d="M71.598 211.323L66.183 219.434L65.1223 218.725L69.5793 212.049L60.1673 215.44L59.2158 214.805L64.6413 206.678L65.7019 207.386L61.3179 213.953L70.5685 210.635L71.598 211.323Z" fill="white"/>
<path d="M59.6921 202.467C60.2301 202.915 60.6456 203.432 60.9387 204.018C61.2238 204.614 61.3864 205.229 61.4266 205.865C61.4588 206.51 61.3749 207.148 61.1749 207.779C60.9653 208.401 60.6365 208.982 60.1883 209.52C59.6042 210.221 58.9095 210.733 58.1044 211.055C57.2896 211.369 56.4548 211.462 55.5999 211.336C54.737 211.22 53.9453 210.861 53.2248 210.261C52.485 209.645 51.9894 208.931 51.7379 208.119C51.4767 207.3 51.4317 206.465 51.6028 205.615C51.7659 204.774 52.1356 204.008 52.7117 203.317C52.7757 203.24 52.8397 203.163 52.9038 203.086C52.9598 203.019 53.0086 202.97 53.0502 202.939L59.4773 208.293C59.8774 207.715 60.1286 207.111 60.2309 206.48C60.3156 205.851 60.2602 205.243 60.0648 204.657C59.8517 204.073 59.505 203.581 59.0247 203.181C58.5347 202.773 57.9696 202.513 57.3292 202.403C56.6792 202.285 56.0997 202.355 55.5907 202.615L54.9325 201.676C55.3823 201.449 55.8858 201.323 56.4429 201.299C57 201.274 57.5627 201.361 58.131 201.558C58.6818 201.756 59.2021 202.059 59.6921 202.467ZM58.9179 209.023L53.3699 204.402C52.9522 204.981 52.701 205.586 52.6163 206.215C52.522 206.836 52.5854 207.434 52.8064 208.009C53.0099 208.585 53.3566 209.077 53.8465 209.485C54.3365 209.893 54.8832 210.145 55.4868 210.241C56.0823 210.347 56.6858 210.296 57.2973 210.09C57.8912 209.885 58.4314 209.529 58.9179 209.023Z" fill="white"/>
<path d="M54.8015 198.487L47.8174 205.321L46.9255 204.409L49.9282 201.471L46.0196 197.476L43.0168 200.414L42.1249 199.503L49.1091 192.669L50.001 193.581L46.8373 196.676L50.746 200.671L53.9096 197.575L54.8015 198.487Z" fill="white"/>
<path d="M45.8815 188.784L39.1533 194.184L41.3367 196.904L40.4445 197.62L35.2794 191.185L36.1716 190.469L38.3551 193.189L45.0833 187.789L45.8815 188.784Z" fill="white"/>
<path d="M40.0541 185.982C39.5433 186.32 39.0088 186.464 38.4507 186.414C37.8821 186.371 37.3296 186.159 36.7932 185.779C36.2396 185.396 35.7383 184.866 35.2896 184.188C35.0272 183.792 34.7857 183.36 34.5652 182.891C34.3447 182.422 34.1865 181.98 34.0907 181.563L33.4027 182.019C32.7147 182.475 32.3021 183.04 32.1648 183.716C32.0275 184.392 32.1971 185.089 32.6735 185.809C32.9634 186.246 33.3333 186.624 33.7832 186.941C34.2157 187.254 34.7402 187.537 35.3568 187.788L34.8755 188.692C34.1585 188.402 33.5423 188.06 33.0268 187.667C32.5008 187.28 32.0618 186.821 31.7097 186.29C31.0469 185.289 30.8088 184.307 30.9955 183.343C31.1822 182.38 31.7811 181.563 32.7923 180.893L36.5606 178.398C36.7065 178.301 36.7952 178.197 36.8268 178.086C36.8479 177.982 36.8188 177.859 36.7395 177.717L37.5838 177.157C37.6702 177.265 37.7462 177.357 37.8119 177.434C37.8775 177.51 37.9189 177.573 37.9361 177.622C38.0983 177.889 38.1461 178.142 38.0795 178.381C38.0129 178.62 37.8944 178.804 37.7241 178.932L37.1403 179.341C37.851 179.395 38.53 179.628 39.1773 180.039C39.8141 180.457 40.3327 180.968 40.7331 181.573C41.0783 182.094 41.283 182.641 41.3472 183.213C41.394 183.782 41.3092 184.311 41.0928 184.799C40.859 185.284 40.5127 185.678 40.0541 185.982ZM37.0652 180.11C36.8433 180.092 36.6439 180.097 36.4669 180.124C36.29 180.151 36.1494 180.2 36.0452 180.269L34.8568 181.056C34.9561 181.5 35.0969 181.939 35.2794 182.373C35.455 182.797 35.6705 183.201 35.926 183.587C36.43 184.348 36.9885 184.863 37.6014 185.132C38.2144 185.401 38.7815 185.362 39.3027 185.017C39.605 184.817 39.8399 184.549 40.0074 184.213C40.1644 183.884 40.2314 183.51 40.2084 183.09C40.175 182.677 40.0236 182.268 39.7544 181.861C39.4161 181.35 39.0029 180.942 38.5149 180.635C38.0199 180.318 37.5367 180.143 37.0652 180.11Z" fill="white"/>
<path d="M36.6621 175.755L27.954 180.188L27.3584 179.018L31.5978 172.504L23.8279 172.081L23.2579 170.961L31.966 166.529L32.519 167.616L25.5157 171.18L32.5639 171.549L32.9383 172.284L29.1058 178.234L36.1091 174.669L36.6621 175.755Z" fill="white"/>
<path d="M30.8624 163.945L21.7187 167.337L21.2752 166.142L28.8011 163.35L19.1899 160.574L18.792 159.501L27.9532 156.103L28.3968 157.299L20.994 160.045L30.4319 162.785L30.8624 163.945Z" fill="white"/>
<path d="M21.9829 121.279L23.1457 121.283L23.1218 127.491L21.959 127.487L21.9687 124.955L11.0723 124.913C11.2219 125.026 11.3901 125.195 11.5768 125.421C11.751 125.634 11.9251 125.885 12.099 126.173C12.2604 126.461 12.3968 126.756 12.5082 127.056C12.6196 127.357 12.6748 127.632 12.6738 127.882L11.4735 127.877C11.4748 127.54 11.3886 127.202 11.2148 126.864C11.0286 126.525 10.8235 126.212 10.5996 125.924C10.3632 125.623 10.1515 125.384 9.96466 125.208C9.76534 125.02 9.65945 124.92 9.64699 124.907L9.65199 123.613L21.9737 123.661L21.9829 121.279Z" fill="white"/>
<path d="M14.3281 119.011C13.4821 118.926 12.7377 118.644 12.0948 118.165C11.4394 117.684 10.9483 117.069 10.6216 116.32C10.2836 115.557 10.1584 114.74 10.246 113.87C10.3411 112.924 10.6483 112.119 11.1674 111.455C11.6742 110.79 12.3581 110.3 13.2192 109.984C14.0816 109.656 15.0912 109.55 16.2482 109.667C18.052 109.848 19.5242 110.204 20.6648 110.733C21.8066 111.25 22.6329 111.905 23.1438 112.698C23.6546 113.49 23.8607 114.378 23.7618 115.361C23.6742 116.232 23.3777 116.994 22.8722 117.647C22.3543 118.298 21.6915 118.766 20.8839 119.049L20.2369 118.173C20.8864 117.962 21.4322 117.596 21.8741 117.075C22.3049 116.54 22.5553 115.924 22.6254 115.228C22.6992 114.494 22.5397 113.831 22.1469 113.238C21.7417 112.645 21.1249 112.155 20.2965 111.77C19.4694 111.373 18.4463 111.113 17.2272 110.99C17.6824 111.212 18.0778 111.528 18.4135 111.939C18.738 112.336 18.9747 112.793 19.1237 113.311C19.2739 113.816 19.3209 114.349 19.2646 114.909C19.1795 115.755 18.9029 116.506 18.4347 117.162C17.9678 117.807 17.3716 118.3 16.6461 118.641C15.9218 118.971 15.1492 119.094 14.3281 119.011ZM11.3451 113.999C11.2826 114.621 11.3805 115.209 11.639 115.763C11.8974 116.316 12.2723 116.775 12.7635 117.139C13.2547 117.502 13.8113 117.715 14.4333 117.778C15.0678 117.842 15.6619 117.744 16.2157 117.486C16.757 117.226 17.2157 116.851 17.5917 116.361C17.9565 115.858 18.1702 115.295 18.2328 114.673C18.2966 114.038 18.1992 113.444 17.9408 112.891C17.6699 112.336 17.2951 111.877 16.8163 111.515C16.3263 111.139 15.7703 110.919 15.1483 110.857C14.5263 110.794 13.9378 110.898 13.3827 111.169C12.8277 111.44 12.3684 111.821 12.0049 112.312C11.6289 112.802 11.4089 113.365 11.3451 113.999Z" fill="white"/>
<path d="M25.3959 104.298C25.2336 105.069 24.9583 105.739 24.5699 106.309C24.1816 106.879 23.7199 107.312 23.1847 107.608C22.6496 107.904 22.072 108.038 21.4518 108.01L20.9168 107.092C21.3379 107.155 21.7826 107.076 22.2507 106.856C22.7067 106.632 23.1124 106.283 23.4679 105.809C23.8259 105.322 24.0771 104.736 24.2214 104.051C24.3502 103.439 24.3622 102.866 24.2573 102.333C24.1427 101.785 23.9315 101.332 23.6237 100.973C23.3063 100.6 22.8968 100.36 22.3951 100.255C21.8568 100.141 21.3619 100.216 20.9105 100.478C20.4468 100.739 20.0453 101.159 19.7059 101.739C19.3665 102.319 19.1066 103.037 18.9263 103.894L18.7949 104.518L17.7121 104.29L17.8435 103.666C18.0934 102.479 18.0948 101.502 17.8476 100.734C17.6003 99.9666 17.0852 99.5004 16.3022 99.3355C15.7883 99.2273 15.3121 99.2739 14.8736 99.4754C14.4376 99.6647 14.0667 99.9699 13.7608 100.391C13.4575 100.8 13.2491 101.274 13.1357 101.812C12.9657 102.619 12.9975 103.348 13.2312 103.998C13.4649 104.648 13.8203 105.144 14.2975 105.487L13.2716 106.172C12.8801 105.847 12.5691 105.443 12.3386 104.96C12.1107 104.465 11.9678 103.93 11.9099 103.355C11.8545 102.769 11.8887 102.182 12.0124 101.594C12.1876 100.762 12.5025 100.056 12.9572 99.4743C13.4145 98.8807 13.9509 98.457 14.5665 98.2033C15.1847 97.9374 15.8425 97.8779 16.5399 98.0248C17.0293 98.1278 17.4491 98.3185 17.7994 98.5967C18.1375 98.8723 18.4011 99.2281 18.5904 99.6641C18.7675 100.097 18.8653 100.604 18.884 101.183C19.1152 100.631 19.4349 100.174 19.8432 99.8129C20.2541 99.4394 20.7164 99.1854 21.2303 99.0509C21.7345 98.9015 22.2619 98.8848 22.8125 99.0008C23.5466 99.1554 24.1316 99.5022 24.5675 100.041C25.006 100.568 25.2999 101.205 25.4492 101.952C25.5863 102.696 25.5686 103.478 25.3959 104.298Z" fill="white"/>
<path d="M25.3296 87.8143C26.1254 88.0759 26.7895 88.518 27.3219 89.1405C27.8464 89.7472 28.1933 90.4535 28.3627 91.2594C28.5321 92.0653 28.4782 92.8899 28.201 93.7332C27.9121 94.6122 27.4465 95.3278 26.8043 95.88C26.1542 96.4165 25.3668 96.7499 24.4421 96.8803C23.5174 97.0107 22.5087 96.8963 21.416 96.5371C19.6937 95.9709 18.3387 95.3084 17.351 94.5494C16.3515 93.7865 15.6877 92.9629 15.3598 92.0786C15.0319 91.1943 15.0203 90.2889 15.3248 89.3624C15.602 88.5191 16.0638 87.8351 16.71 87.3105C17.3444 86.782 18.0805 86.4646 18.9182 86.3583L19.3732 87.3765C18.6855 87.4268 18.0736 87.6666 17.5377 88.0959C16.9937 88.5093 16.6125 89.0487 16.3938 89.7138C16.1635 90.4146 16.1821 91.0986 16.4498 91.7656C16.7175 92.4327 17.2123 93.0495 17.9343 93.6158C18.6601 94.1703 19.6051 94.6388 20.7691 95.0215C20.3645 94.691 20.0465 94.297 19.8153 93.8393C19.584 93.3816 19.4495 92.8899 19.4118 92.3642C19.3779 91.8266 19.4488 91.2906 19.6245 90.7561C19.89 89.9484 20.3202 89.2803 20.915 88.752C21.5138 88.2118 22.2022 87.859 22.9805 87.6936C23.7507 87.5125 24.5338 87.5527 25.3296 87.8143ZM27.1437 93.3462C27.3389 92.7523 27.3701 92.1571 27.2371 91.5606C27.1041 90.9641 26.837 90.4354 26.4358 89.9745C26.0384 89.5017 25.5428 89.1677 24.9489 88.9724C24.355 88.7772 23.7579 88.752 23.1575 88.8969C22.561 89.0298 22.0323 89.2969 21.5714 89.6982C21.1104 90.0995 20.7823 90.597 20.5871 91.1909C20.388 91.7967 20.353 92.4038 20.482 93.0121C20.615 93.6086 20.8821 94.1373 21.2833 94.5982C21.6727 95.0553 22.1703 95.3834 22.7761 95.5825C23.37 95.7777 23.9652 95.8088 24.5616 95.6759C25.162 95.531 25.6927 95.258 26.1536 94.8567C26.6146 94.4555 26.9446 93.9519 27.1437 93.3462Z" fill="white"/>
<path d="M33.6149 84.9522L30.5729 83.4039L30.6495 83.2535C30.7799 82.9972 30.821 82.7235 30.7728 82.4324C30.7245 82.1413 30.548 81.8129 30.243 81.4472C29.9381 81.0816 29.4713 80.6756 28.8426 80.2294C28.2028 79.7775 27.3677 79.2682 26.3373 78.7017L23.9563 77.3845L26.8403 71.7184L34.5288 75.6318L35.1243 74.4618L38.1663 76.0101L37.6474 77.0297L35.625 76.0003L32.1029 82.92L34.1253 83.9494L33.6149 84.9522ZM31.5257 81.5319L33.9503 76.7684L27.2814 73.3739L25.4948 76.8839L26.9736 77.6997C27.9928 78.2606 28.8251 78.7754 29.4704 79.2441C30.1102 79.6961 30.5937 80.1105 30.9209 80.4875C31.2427 80.8477 31.4443 81.1958 31.5257 81.5319Z" fill="white"/>
<path d="M37.1184 73.318L28.9327 67.9822L29.6291 66.9138L33.1485 69.2079L36.2004 64.5258L32.681 62.2318L33.3775 61.1634L41.5632 66.4991L40.8668 67.5675L37.1588 65.1506L34.1069 69.8326L37.8148 72.2496L37.1184 73.318Z" fill="white"/>
<path d="M45.571 61.6063C45.1307 62.1507 44.6199 62.5737 44.0383 62.8753C43.4471 63.1691 42.834 63.3406 42.1992 63.3901C41.5545 63.4316 40.9154 63.357 40.2818 63.1662C39.656 62.9658 39.0709 62.6454 38.5265 62.2052C37.8167 61.6313 37.295 60.9441 36.9614 60.1438C36.6356 59.3337 36.5296 58.5003 36.6434 57.6436C36.7475 56.7791 37.0943 55.9823 37.684 55.2531C38.2893 54.5045 38.9959 53.9985 39.8037 53.7352C40.6194 53.4622 41.4535 53.405 42.306 53.5637C43.1488 53.7145 43.9202 54.073 44.6202 54.639C44.698 54.7019 44.7757 54.7648 44.8535 54.8277C44.9216 54.8827 44.9711 54.9308 45.0021 54.972L39.7429 61.4763C40.3266 61.8679 40.9346 62.1103 41.5668 62.2034C42.1971 62.279 42.8038 62.2148 43.3867 62.0108C43.9678 61.7893 44.4549 61.4354 44.848 60.9493C45.2489 60.4535 45.4999 59.8846 45.6009 59.2427C45.7097 58.591 45.6307 58.0126 45.3639 57.5075L46.2929 56.8357C46.5269 57.2821 46.66 57.7837 46.6922 58.3404C46.7245 58.897 46.6464 59.461 46.4579 60.0321C46.2675 60.5857 45.9719 61.1104 45.571 61.6063ZM39.0047 60.9277L43.5446 55.3129C42.959 54.9037 42.351 54.6613 41.7207 54.5858C41.0982 54.5006 40.5013 54.5726 39.9299 54.802C39.3567 55.0138 38.8696 55.3677 38.4687 55.8635C38.0678 56.3594 37.8237 56.9097 37.7366 57.5146C37.6398 58.1116 37.6991 58.7143 37.9147 59.3227C38.1283 59.9136 38.4917 60.4485 39.0047 60.9277Z" fill="white"/>
<path d="M49.639 56.4419L42.7429 49.5459L43.6447 48.6441L49.3207 54.32L47.8354 44.4269L48.6443 43.6179L55.5536 50.5272L54.6518 51.429L49.0687 45.8459L50.5142 55.5666L49.639 56.4419ZM44.825 45.6867C44.2238 46.2879 43.6182 46.6106 43.0082 46.6548C42.3981 46.699 41.8765 46.5045 41.4433 46.0713L42.1064 45.4082C42.3716 45.6735 42.6899 45.7972 43.0612 45.7796C43.4414 45.753 43.8392 45.532 44.2548 45.1165C44.6615 44.7098 44.8736 44.3296 44.8913 43.976C44.9178 43.6135 44.8029 43.2775 44.5465 42.9681L45.1963 42.3183C45.6295 42.7515 45.8241 43.2731 45.7798 43.8832C45.7356 44.4932 45.4174 45.0944 44.825 45.6867Z" fill="white"/>
<path d="M60.7952 45.9782L54.9898 38.1186L61.3106 33.4497L67.1161 41.3093L66.0903 42.067L60.9645 35.1276L56.6953 38.2811L61.821 45.2204L60.7952 45.9782Z" fill="white"/>
<path d="M73.3205 37.6668C72.6193 38.0775 71.8807 38.2638 71.1049 38.2257C70.3398 38.1812 69.6374 37.984 68.9978 37.6342L72.0407 42.8288L70.9403 43.4734L63.9823 31.5954L64.9695 31.0171L65.9269 32.6515C65.9517 31.927 66.1498 31.2386 66.5212 30.5863C66.8862 29.9232 67.387 29.4053 68.0236 29.0324C68.6061 28.6912 69.2128 28.5024 69.8437 28.4661C70.4682 28.4191 71.0785 28.4963 71.6747 28.6977C72.2709 28.8991 72.8209 29.2072 73.3247 29.6221C73.8331 30.0199 74.2515 30.4993 74.5802 31.0603C75.0415 31.8478 75.3062 32.6708 75.3744 33.5293C75.4471 34.3707 75.3144 35.1584 74.9764 35.8925C74.6385 36.6267 74.0865 37.2181 73.3205 37.6668ZM72.4443 36.8759C72.9082 36.6042 73.2698 36.2692 73.5292 35.8709C73.7823 35.4618 73.9434 35.0196 74.0128 34.5443C74.0929 34.0627 74.0862 33.5812 73.9926 33.0998C73.8927 32.6077 73.7163 32.1459 73.4636 31.7144C73.1981 31.2613 72.8644 30.8771 72.4624 30.562C72.0713 30.2405 71.6384 30.0086 71.1638 29.8664C70.6893 29.7241 70.2095 29.6719 69.7244 29.7097C69.2394 29.7475 68.7757 29.8959 68.3334 30.1551C68.0529 30.3194 67.7932 30.5439 67.5543 30.8288C67.3155 31.1136 67.1158 31.4407 66.9554 31.81C66.7994 32.1621 66.7024 32.516 66.6644 32.8716C66.6263 33.2272 66.6679 33.5578 66.7891 33.8636L68.3058 36.4528C68.7122 36.7509 69.1559 36.9764 69.6368 37.1294C70.1113 37.2717 70.5943 37.3293 71.0856 37.3023C71.5814 37.2582 72.0343 37.1161 72.4443 36.8759Z" fill="white"/>
<path d="M77.4639 31.8738C77.2127 31.315 77.157 30.7643 77.2968 30.2216C77.4316 29.6675 77.7296 29.1565 78.191 28.6886C78.6586 28.2042 79.263 27.7954 80.0043 27.4621C80.4376 27.2673 80.9034 27.099 81.4017 26.9572C81.9 26.8154 82.3624 26.7309 82.7889 26.7037L82.4505 25.951C82.1121 25.1984 81.6205 24.6997 80.9758 24.4549C80.3312 24.2101 79.6154 24.2646 78.8285 24.6184C78.3496 24.8337 77.9174 25.1377 77.5318 25.5304C77.1526 25.9065 76.789 26.3784 76.4411 26.9461L75.6272 26.325C76.0293 25.6644 76.4662 25.1116 76.9378 24.6665C77.4043 24.21 77.9283 23.851 78.5099 23.5895C79.6047 23.0973 80.6123 23.0213 81.5329 23.3614C82.4535 23.7014 83.1625 24.4246 83.6598 25.5307L85.5132 29.6531C85.585 29.8127 85.673 29.9171 85.7774 29.9662C85.8765 30.0038 86.0028 29.995 86.1562 29.9398L86.5715 30.8635C86.4512 30.9313 86.348 30.9914 86.2619 31.0438C86.1758 31.0962 86.1073 31.127 86.0566 31.1361C85.7664 31.2529 85.5087 31.2591 85.2835 31.1547C85.0584 31.0502 84.8965 30.9037 84.798 30.7149L84.4886 30.0726C84.3202 30.7652 83.9808 31.3976 83.4704 31.9699C82.9548 32.5307 82.3663 32.9597 81.7049 33.2571C81.1348 33.5135 80.5621 33.627 79.9868 33.5977C79.4179 33.552 78.91 33.3827 78.4631 33.0901C78.0226 32.781 77.6895 32.3756 77.4639 31.8738ZM83.7413 29.874C83.795 29.6579 83.8227 29.4604 83.8244 29.2814C83.8262 29.1024 83.8015 28.9559 83.7502 28.8418L83.1657 27.5418C82.7113 27.5679 82.2552 27.6359 81.7974 27.7458C81.351 27.8505 80.9168 27.9977 80.4949 28.1874C79.6624 28.5617 79.0639 29.0296 78.6995 29.591C78.335 30.1524 78.2809 30.7182 78.5373 31.2884C78.686 31.6191 78.9125 31.8942 79.2169 32.1138C79.5161 32.322 79.8746 32.4487 80.2925 32.4939C80.7052 32.5276 81.134 32.4445 81.5787 32.2446C82.1375 31.9934 82.6076 31.6517 82.9892 31.2197C83.3821 30.7826 83.6328 30.334 83.7413 29.874Z" fill="white"/>
<path d="M88.3461 30.1811L85.2249 20.9218L86.4334 20.5144L87.7694 24.4776L89.1556 24.0103L90.9298 18.9987L92.316 18.5314L90.295 24.22L95.8815 27.641L94.4597 28.1202L89.533 25.1299L88.1468 25.5972L89.5546 29.7737L88.3461 30.1811Z" fill="white"/>
<path d="M99.7067 26.6873L97.7043 18.2958L94.3112 19.1054L94.0456 17.9926L102.072 16.0773L102.338 17.1901L98.9448 17.9998L100.947 26.3913L99.7067 26.6873Z" fill="white"/>
<path d="M105.675 25.2906L104.327 15.6318L105.59 15.4555L106.7 23.4055L111.476 14.6151L112.609 14.457L113.96 24.1344L112.696 24.3106L111.605 16.4907L106.901 25.1195L105.675 25.2906Z" fill="white"/>
<path d="M116.269 23.9184L115.892 14.1545L117.166 14.1053L117.328 18.2844L118.789 18.228L121.908 13.9222L123.369 13.8657L119.823 18.7512L124.215 23.6116L122.716 23.6695L118.835 19.4087L117.373 19.4651L117.543 23.8692L116.269 23.9184Z" fill="white"/>
<path d="M126.674 23.6187L127.313 13.8872L128.586 13.9708L128.06 21.9805L134.519 14.3417L135.661 14.4167L135.021 24.1669L133.748 24.0833L134.265 16.2045L127.909 23.6998L126.674 23.6187Z" fill="white"/>
<path d="M145.354 26.0689C144.657 25.922 144.041 25.6583 143.508 25.2777C142.99 24.8874 142.559 24.4135 142.217 23.8558C141.887 23.3007 141.662 22.6976 141.544 22.0466C141.438 21.3981 141.455 20.7374 141.597 20.0645C141.788 19.1591 142.164 18.3758 142.724 17.7145C143.285 17.0532 143.973 16.5784 144.788 16.2899C145.602 16.0015 146.481 15.9565 147.423 16.1549C148.316 16.343 149.061 16.7172 149.659 17.2774C150.259 17.8255 150.651 18.483 150.834 19.2499L149.542 19.3802C149.376 18.8342 149.076 18.375 148.644 18.0028C148.226 17.6209 147.723 17.3681 147.136 17.2444C146.5 17.1104 145.884 17.1532 145.288 17.3728C144.692 17.5923 144.175 17.9561 143.736 18.4641C143.309 18.9747 143.018 19.5971 142.863 20.3312C142.711 21.053 142.733 21.7411 142.927 22.3954C143.121 23.0496 143.444 23.6095 143.896 24.0752C144.35 24.5285 144.895 24.8222 145.531 24.9562C145.947 25.0438 146.36 25.0541 146.77 24.9872C147.193 24.9228 147.57 24.7979 147.903 24.6125C148.251 24.4174 148.505 24.1833 148.664 23.9103L149.817 24.5363C149.55 24.9529 149.176 25.3022 148.695 25.5843C148.229 25.8566 147.705 26.0401 147.123 26.1347C146.555 26.2197 145.966 26.1977 145.354 26.0689Z" fill="white"/>
<path d="M154.859 28.2873L158.188 19.1009L159.387 19.5354L157.962 23.4674L159.338 23.9659L163.848 21.1522L165.224 21.6506L160.098 24.8399L162.335 30.9969L160.925 30.4857L158.935 25.0767L157.56 24.5783L156.058 28.7219L154.859 28.2873Z" fill="white"/>
<path d="M163.076 31.2732L163.581 30.2254C163.885 30.3718 164.193 30.4231 164.506 30.3792C164.824 30.3241 165.168 30.1427 165.538 29.8352C165.919 29.533 166.331 29.0654 166.775 28.4324C167.224 27.7881 167.722 26.939 168.271 25.885L169.552 23.4833L175.264 26.2324L171.027 35.037L169.878 34.4839L173.619 26.7102L170.07 25.0022L169.304 26.5069C168.674 27.7019 168.087 28.6755 167.545 29.4274C167.008 30.1681 166.49 30.71 165.992 31.053C165.505 31.4015 165.022 31.5849 164.541 31.6034C164.06 31.6218 163.572 31.5117 163.076 31.2732Z" fill="white"/>
<path d="M173.817 36.4978L178.961 28.2125L180.045 28.8852L175.811 35.7046L185.106 32.0054L186.077 32.6088L180.923 40.9101L179.84 40.2373L184.005 33.5294L174.869 37.1507L173.817 36.4978Z" fill="white"/>
<path d="M186.247 45.1019C185.695 44.6717 185.263 44.1686 184.95 43.5927C184.646 43.0069 184.463 42.397 184.402 41.7632C184.349 41.1194 184.412 40.4791 184.591 39.8421C184.78 39.2127 185.09 38.6219 185.52 38.0695C186.081 37.3494 186.759 36.8153 187.553 36.4671C188.357 36.1266 189.188 36.0055 190.047 36.1037C190.913 36.192 191.716 36.5243 192.456 37.1005C193.215 37.6921 193.734 38.3893 194.012 39.1922C194.3 40.0028 194.372 40.8357 194.229 41.691C194.094 42.5364 193.749 43.3142 193.196 44.0244C193.135 44.1033 193.073 44.1822 193.012 44.2611C192.958 44.3302 192.911 44.3806 192.87 44.4123L186.271 39.2724C185.89 39.8632 185.659 40.4755 185.577 41.1093C185.513 41.7409 185.588 42.3463 185.803 42.9254C186.035 43.5024 186.398 43.983 186.891 44.3671C187.394 44.7589 187.967 44.9995 188.611 45.0888C189.265 45.1857 189.841 45.0962 190.342 44.8202L191.03 45.7369C190.588 45.9789 190.089 46.1211 189.533 46.1635C188.977 46.2059 188.412 46.1381 187.837 45.96C187.28 45.7798 186.75 45.4938 186.247 45.1019ZM186.806 38.5244L192.503 42.9613C192.901 42.3683 193.132 41.756 193.196 41.1244C193.27 40.5005 193.187 39.905 192.948 39.3379C192.725 38.7686 192.363 38.288 191.86 37.8962C191.357 37.5044 190.802 37.2704 190.196 37.1943C189.597 37.1084 188.995 37.1787 188.391 37.4053C187.804 37.6297 187.276 38.0027 186.806 38.5244Z" fill="white"/>
<path d="M191.016 48.6662L197.773 41.6079L198.694 42.4898L195.789 45.5245L199.826 49.3894L202.731 46.3547L203.653 47.2366L196.896 54.2949L195.974 53.413L199.035 50.2157L194.998 46.3509L191.937 49.5481L191.016 48.6662Z" fill="white"/>
<path d="M200.137 57.8809L206.665 52.2398L204.384 49.6005L205.249 48.8524L210.645 55.0959L209.78 55.844L207.499 53.2047L200.971 58.8458L200.137 57.8809Z" fill="white"/>
<path d="M206.092 60.4591C206.59 60.1023 207.119 59.9388 207.679 59.9686C208.249 59.9911 208.808 60.1822 209.358 60.5419C209.926 60.9045 210.446 61.4162 210.919 62.0769C211.196 62.4631 211.453 62.8865 211.691 63.3469C211.928 63.8073 212.102 64.2439 212.213 64.6565L212.884 64.176C213.555 63.6954 213.947 63.115 214.059 62.4346C214.172 61.7542 213.977 61.0634 213.474 60.362C213.169 59.9351 212.785 59.5715 212.324 59.2713C211.88 58.9739 211.346 58.7108 210.72 58.482L211.168 57.5614C211.895 57.8249 212.524 58.1439 213.053 58.5181C213.593 58.8851 214.049 59.3278 214.42 59.8462C215.119 60.822 215.393 61.7948 215.241 62.7644C215.09 63.7341 214.521 64.572 213.535 65.2783L209.861 67.9103C209.719 68.0123 209.634 68.1192 209.606 68.2312C209.589 68.3358 209.623 68.4579 209.707 68.5973L208.884 69.187C208.793 69.0825 208.714 68.9932 208.646 68.9192C208.577 68.8452 208.534 68.7842 208.515 68.7362C208.343 68.4748 208.286 68.2235 208.344 67.9821C208.401 67.7408 208.513 67.5531 208.679 67.4192L209.247 66.9889C208.535 66.9608 207.848 66.7532 207.186 66.366C206.534 65.9715 205.997 65.4795 205.575 64.8899C205.211 64.3817 204.986 63.8428 204.901 63.2731C204.834 62.7064 204.899 62.1751 205.098 61.6792C205.314 61.1861 205.645 60.7795 206.092 60.4591ZM209.294 66.2171C209.516 66.2269 209.716 66.2151 209.891 66.1814C210.067 66.1477 210.206 66.0945 210.308 66.0217L211.466 65.1917C211.351 64.7514 211.194 64.3178 210.996 63.8907C210.805 63.4738 210.575 63.0773 210.305 62.7012C209.774 61.9592 209.197 61.4651 208.574 61.2188C207.952 60.9726 207.387 61.0315 206.878 61.3955C206.584 61.6067 206.359 61.8831 206.204 62.2249C206.059 62.5594 206.006 62.9359 206.044 63.3545C206.092 63.7657 206.259 64.1696 206.543 64.566C206.899 65.064 207.327 65.4574 207.826 65.7459C208.332 66.0447 208.822 66.2017 209.294 66.2171Z" fill="white"/>
<path d="M209.915 70.5989L218.453 65.8477L219.091 66.9949L215.096 73.6611L222.876 73.7961L223.487 74.8941L214.949 79.6453L214.356 78.58L221.223 74.759L214.166 74.6509L213.764 73.9298L217.374 67.8431L210.508 71.6642L209.915 70.5989Z" fill="white"/>
<path d="M216.277 82.4409L225.301 78.7427L225.785 79.9228L218.357 82.9667L228.056 85.4169L228.49 86.4755L219.449 90.1808L218.965 89.0007L226.271 86.0066L216.746 83.5863L216.277 82.4409Z" fill="white"/>
</g>
<circle opacity="0.4" cx="19.4345" cy="141.826" r="2.30948" fill="white"/>
<circle opacity="0.4" cx="230.059" cy="108.568" r="2.30948" fill="white"/>
<path d="M102.045 107.205V108.804H89.7438V90.4944H101.812V92.0933H91.549V98.6949H100.497V100.216H91.549V107.205H102.045ZM103.808 108.881V107.282C104.272 107.282 104.685 107.162 105.046 106.921C105.407 106.663 105.725 106.234 106 105.632C106.292 105.03 106.524 104.205 106.696 103.156C106.868 102.09 106.98 100.741 107.031 99.1075L107.186 95.3683H115.902V108.804H114.149V96.9414H108.733L108.682 99.2622C108.613 101.119 108.467 102.675 108.243 103.93C108.02 105.168 107.702 106.148 107.289 106.87C106.894 107.592 106.404 108.107 105.819 108.417C105.235 108.726 104.564 108.881 103.808 108.881ZM125.581 109.062C124.619 109.062 123.725 108.881 122.899 108.52C122.074 108.142 121.361 107.635 120.759 106.999C120.157 106.345 119.685 105.597 119.341 104.755C119.014 103.913 118.851 103.01 118.851 102.047C118.851 100.792 119.134 99.6405 119.702 98.5918C120.286 97.5431 121.086 96.7093 122.1 96.0904C123.114 95.4543 124.266 95.1362 125.556 95.1362C126.879 95.1362 128.031 95.4543 129.011 96.0904C130.008 96.7265 130.79 97.5689 131.358 98.6176C131.925 99.6491 132.209 100.784 132.209 102.022C132.209 102.159 132.209 102.297 132.209 102.434C132.209 102.554 132.2 102.649 132.183 102.718H120.682C120.768 103.681 121.034 104.54 121.481 105.297C121.945 106.036 122.538 106.629 123.26 107.076C124 107.506 124.799 107.721 125.659 107.721C126.535 107.721 127.361 107.497 128.134 107.05C128.925 106.603 129.475 106.019 129.785 105.297L131.306 105.709C131.031 106.345 130.61 106.921 130.043 107.437C129.475 107.953 128.805 108.357 128.031 108.649C127.275 108.924 126.458 109.062 125.581 109.062ZM120.63 101.454H130.558C130.49 100.474 130.223 99.6147 129.759 98.8754C129.312 98.1362 128.719 97.5603 127.98 97.1477C127.258 96.7179 126.458 96.503 125.581 96.503C124.705 96.503 123.905 96.7179 123.183 97.1477C122.461 97.5603 121.868 98.1448 121.404 98.9012C120.957 99.6405 120.699 100.491 120.63 101.454ZM134.888 108.804V95.3683H136.642V101.145H144.327V95.3683H146.08V108.804H144.327V102.718H136.642V108.804H134.888ZM148.866 104.936C148.866 104.093 149.106 103.371 149.588 102.769C150.069 102.15 150.731 101.678 151.573 101.351C152.433 101.007 153.421 100.835 154.539 100.835C155.192 100.835 155.871 100.887 156.576 100.99C157.281 101.093 157.909 101.248 158.459 101.454V100.32C158.459 99.1849 158.123 98.2823 157.453 97.6118C156.782 96.9414 155.854 96.6061 154.668 96.6061C153.946 96.6061 153.232 96.7436 152.527 97.0187C151.84 97.2766 151.118 97.6634 150.361 98.1792L149.691 96.9414C150.568 96.3396 151.427 95.8927 152.27 95.6004C153.112 95.2909 153.972 95.1362 154.848 95.1362C156.499 95.1362 157.805 95.609 158.768 96.5545C159.731 97.5001 160.212 98.8067 160.212 100.474V106.689C160.212 106.93 160.264 107.11 160.367 107.231C160.47 107.334 160.633 107.394 160.857 107.411V108.804C160.668 108.821 160.504 108.838 160.367 108.855C160.229 108.872 160.126 108.872 160.057 108.855C159.628 108.838 159.301 108.701 159.078 108.443C158.854 108.185 158.734 107.91 158.717 107.617L158.691 106.638C158.089 107.411 157.307 108.013 156.344 108.443C155.381 108.855 154.401 109.062 153.404 109.062C152.545 109.062 151.762 108.881 151.058 108.52C150.37 108.142 149.828 107.643 149.433 107.024C149.055 106.388 148.866 105.692 148.866 104.936ZM157.866 105.967C158.055 105.726 158.201 105.494 158.304 105.271C158.407 105.047 158.459 104.85 158.459 104.678V102.718C157.874 102.494 157.264 102.322 156.628 102.202C156.009 102.082 155.381 102.022 154.745 102.022C153.49 102.022 152.476 102.271 151.702 102.769C150.929 103.268 150.542 103.947 150.542 104.807C150.542 105.305 150.671 105.778 150.929 106.225C151.187 106.655 151.565 107.016 152.063 107.308C152.562 107.583 153.146 107.721 153.817 107.721C154.659 107.721 155.441 107.557 156.164 107.231C156.903 106.904 157.47 106.483 157.866 105.967ZM73.2889 136.804V121.898L66.6615 133.477H65.5268L58.8736 121.898V136.804H57.0684V118.494H58.9251L66.0684 131.027L73.2631 118.494H75.0941V136.804H73.2889ZM78.113 132.936C78.113 132.093 78.3537 131.371 78.8351 130.769C79.3165 130.15 79.9783 129.678 80.8207 129.351C81.6803 129.007 82.6689 128.835 83.7863 128.835C84.4396 128.835 85.1187 128.887 85.8236 128.99C86.5284 129.093 87.1559 129.248 87.7061 129.454V128.32C87.7061 127.185 87.3708 126.282 86.7004 125.612C86.0299 124.941 85.1015 124.606 83.9153 124.606C83.1932 124.606 82.4798 124.744 81.7749 125.019C81.0872 125.277 80.3652 125.663 79.6087 126.179L78.9382 124.941C79.815 124.34 80.6746 123.893 81.517 123.6C82.3594 123.291 83.219 123.136 84.0958 123.136C85.7462 123.136 87.0528 123.609 88.0155 124.555C88.9783 125.5 89.4596 126.807 89.4596 128.474V134.689C89.4596 134.93 89.5112 135.11 89.6144 135.231C89.7175 135.334 89.8808 135.394 90.1043 135.411V136.804C89.9152 136.821 89.7519 136.838 89.6144 136.855C89.4768 136.872 89.3737 136.872 89.3049 136.855C88.8751 136.838 88.5485 136.701 88.325 136.443C88.1015 136.185 87.9811 135.91 87.964 135.617L87.9382 134.638C87.3364 135.411 86.5542 136.013 85.5915 136.443C84.6287 136.855 83.6488 137.062 82.6517 137.062C81.7921 137.062 81.0099 136.881 80.305 136.52C79.6173 136.142 79.0758 135.643 78.6804 135.024C78.3021 134.388 78.113 133.692 78.113 132.936ZM87.113 133.967C87.3021 133.726 87.4482 133.494 87.5513 133.271C87.6545 133.047 87.7061 132.85 87.7061 132.678V130.718C87.1216 130.494 86.5112 130.322 85.8751 130.202C85.2562 130.082 84.6287 130.022 83.9926 130.022C82.7376 130.022 81.7233 130.271 80.9497 130.769C80.1761 131.268 79.7892 131.947 79.7892 132.807C79.7892 133.305 79.9182 133.778 80.1761 134.225C80.4339 134.655 80.8122 135.016 81.3107 135.308C81.8093 135.583 82.3938 135.721 83.0643 135.721C83.9067 135.721 84.6889 135.557 85.411 135.231C86.1502 134.904 86.7175 134.483 87.113 133.967ZM93.2226 136.804V123.368H94.9762V129.119H96.9876L101.5 123.368H103.512L98.3802 129.893L104.157 136.804H102.094L96.9876 130.744H94.9762V136.804H93.2226ZM111.769 137.062C110.789 137.062 109.886 136.881 109.061 136.52C108.253 136.142 107.54 135.626 106.921 134.973C106.319 134.319 105.846 133.572 105.502 132.729C105.176 131.887 105.012 130.993 105.012 130.047C105.012 128.775 105.296 127.615 105.863 126.566C106.431 125.517 107.222 124.683 108.236 124.065C109.25 123.446 110.419 123.136 111.743 123.136C112.998 123.136 114.107 123.428 115.07 124.013C116.032 124.58 116.746 125.354 117.21 126.334L115.508 126.875C115.13 126.188 114.597 125.655 113.909 125.277C113.239 124.881 112.491 124.683 111.666 124.683C110.772 124.683 109.955 124.916 109.216 125.38C108.477 125.844 107.884 126.48 107.437 127.288C107.007 128.096 106.792 129.016 106.792 130.047C106.792 131.062 107.015 131.981 107.462 132.807C107.909 133.632 108.502 134.294 109.242 134.792C109.981 135.274 110.798 135.514 111.691 135.514C112.276 135.514 112.835 135.411 113.368 135.205C113.918 134.999 114.391 134.724 114.786 134.38C115.199 134.019 115.474 133.632 115.611 133.219L117.339 133.735C117.098 134.371 116.694 134.947 116.127 135.463C115.577 135.961 114.924 136.357 114.167 136.649C113.428 136.924 112.628 137.062 111.769 137.062ZM120.068 136.804V123.394H121.822V134.431L129.996 123.368H131.569V136.804H129.816V125.947L121.77 136.804H120.068ZM135.38 136.804V123.368H137.185L142.523 132.626L147.887 123.368H149.614V136.804H147.938V125.999L143.09 134.405H141.955L137.056 125.999V136.804H135.38ZM159.212 137.062C158.249 137.062 157.355 136.881 156.53 136.52C155.722 136.142 155.017 135.635 154.415 134.999C153.831 134.345 153.375 133.606 153.049 132.781C152.722 131.938 152.559 131.053 152.559 130.125C152.559 129.162 152.722 128.268 153.049 127.443C153.375 126.6 153.839 125.861 154.441 125.225C155.043 124.572 155.748 124.065 156.556 123.704C157.381 123.325 158.275 123.136 159.238 123.136C160.2 123.136 161.086 123.325 161.894 123.704C162.702 124.065 163.407 124.572 164.008 125.225C164.61 125.861 165.074 126.6 165.401 127.443C165.728 128.268 165.891 129.162 165.891 130.125C165.891 131.053 165.728 131.938 165.401 132.781C165.074 133.606 164.61 134.345 164.008 134.999C163.424 135.635 162.719 136.142 161.894 136.52C161.086 136.881 160.192 137.062 159.212 137.062ZM154.338 130.15C154.338 131.148 154.553 132.059 154.983 132.884C155.43 133.692 156.023 134.337 156.762 134.818C157.501 135.282 158.318 135.514 159.212 135.514C160.106 135.514 160.922 135.274 161.662 134.792C162.401 134.311 162.994 133.658 163.441 132.832C163.888 131.99 164.112 131.079 164.112 130.099C164.112 129.102 163.888 128.191 163.441 127.365C162.994 126.54 162.401 125.887 161.662 125.406C160.922 124.924 160.106 124.683 159.212 124.683C158.318 124.683 157.501 124.933 156.762 125.431C156.04 125.93 155.455 126.592 155.008 127.417C154.561 128.225 154.338 129.136 154.338 130.15ZM168.798 136.804V123.368H175.503C176.259 123.368 176.895 123.532 177.411 123.858C177.927 124.168 178.314 124.572 178.571 125.07C178.846 125.569 178.984 126.102 178.984 126.669C178.984 127.391 178.812 128.044 178.468 128.629C178.124 129.196 177.626 129.626 176.973 129.918C177.746 130.142 178.374 130.546 178.855 131.13C179.336 131.715 179.577 132.42 179.577 133.245C179.577 133.967 179.397 134.595 179.036 135.128C178.692 135.66 178.21 136.073 177.591 136.365C176.99 136.658 176.293 136.804 175.503 136.804H168.798ZM170.474 135.54H175.451C175.898 135.54 176.302 135.428 176.663 135.205C177.041 134.964 177.334 134.655 177.54 134.277C177.763 133.898 177.875 133.503 177.875 133.09C177.875 132.643 177.772 132.239 177.566 131.878C177.359 131.5 177.084 131.199 176.74 130.976C176.397 130.752 176.001 130.64 175.554 130.64H170.474V135.54ZM170.474 129.428H175.038C175.485 129.428 175.881 129.308 176.225 129.067C176.569 128.827 176.835 128.517 177.024 128.139C177.213 127.761 177.308 127.365 177.308 126.953C177.308 126.334 177.101 125.792 176.689 125.328C176.293 124.864 175.778 124.632 175.142 124.632H170.474V129.428ZM181.541 132.936C181.541 132.093 181.782 131.371 182.263 130.769C182.744 130.15 183.406 129.678 184.249 129.351C185.108 129.007 186.097 128.835 187.214 128.835C187.868 128.835 188.547 128.887 189.252 128.99C189.956 129.093 190.584 129.248 191.134 129.454V128.32C191.134 127.185 190.799 126.282 190.128 125.612C189.458 124.941 188.529 124.606 187.343 124.606C186.621 124.606 185.908 124.744 185.203 125.019C184.515 125.277 183.793 125.663 183.037 126.179L182.366 124.941C183.243 124.34 184.103 123.893 184.945 123.6C185.787 123.291 186.647 123.136 187.524 123.136C189.174 123.136 190.481 123.609 191.443 124.555C192.406 125.5 192.888 126.807 192.888 128.474V134.689C192.888 134.93 192.939 135.11 193.042 135.231C193.145 135.334 193.309 135.394 193.532 135.411V136.804C193.343 136.821 193.18 136.838 193.042 136.855C192.905 136.872 192.802 136.872 192.733 136.855C192.303 136.838 191.976 136.701 191.753 136.443C191.529 136.185 191.409 135.91 191.392 135.617L191.366 134.638C190.764 135.411 189.982 136.013 189.019 136.443C188.057 136.855 187.077 137.062 186.08 137.062C185.22 137.062 184.438 136.881 183.733 136.52C183.045 136.142 182.504 135.643 182.108 135.024C181.73 134.388 181.541 133.692 181.541 132.936ZM190.541 133.967C190.73 133.726 190.876 133.494 190.979 133.271C191.082 133.047 191.134 132.85 191.134 132.678V130.718C190.55 130.494 189.939 130.322 189.303 130.202C188.684 130.082 188.057 130.022 187.421 130.022C186.166 130.022 185.151 130.271 184.378 130.769C183.604 131.268 183.217 131.947 183.217 132.807C183.217 133.305 183.346 133.778 183.604 134.225C183.862 134.655 184.24 135.016 184.739 135.308C185.237 135.583 185.822 135.721 186.492 135.721C187.335 135.721 188.117 135.557 188.839 135.231C189.578 134.904 190.145 134.483 190.541 133.967Z" fill="white"/>
<path d="M108.017 163.754L109.823 155.204H110.938L110.134 158.946H111.414C112.049 158.563 112.634 158.049 113.17 157.403C113.706 156.747 114.231 156.014 114.746 155.204H115.944C115.342 156.145 114.746 156.965 114.155 157.666C113.575 158.366 112.962 158.935 112.317 159.372L114.664 163.754H113.433L111.349 159.832H109.937L109.117 163.754H108.017ZM120.051 163.918C119.23 163.918 118.53 163.716 117.95 163.311C117.37 162.895 116.944 162.354 116.67 161.686C116.408 161.019 116.331 160.291 116.441 159.504C116.528 158.891 116.709 158.322 116.982 157.797C117.267 157.261 117.628 156.79 118.065 156.386C118.503 155.97 118.995 155.647 119.542 155.417C120.1 155.177 120.685 155.056 121.298 155.056C122.119 155.056 122.819 155.264 123.399 155.68C123.978 156.085 124.405 156.621 124.679 157.288C124.952 157.956 125.034 158.694 124.925 159.504C124.848 160.094 124.668 160.658 124.383 161.194C124.11 161.719 123.754 162.189 123.317 162.605C122.89 163.01 122.398 163.333 121.84 163.573C121.282 163.803 120.685 163.918 120.051 163.918ZM120.182 162.983C120.609 162.983 121.019 162.89 121.413 162.704C121.818 162.518 122.184 162.261 122.512 161.932C122.841 161.604 123.114 161.232 123.333 160.816C123.563 160.39 123.71 159.947 123.776 159.487C123.874 158.842 123.82 158.256 123.612 157.731C123.404 157.195 123.087 156.774 122.66 156.468C122.244 156.15 121.747 155.992 121.167 155.992C120.74 155.992 120.33 156.085 119.936 156.271C119.542 156.457 119.176 156.708 118.836 157.026C118.508 157.343 118.235 157.715 118.016 158.142C117.797 158.568 117.655 159.028 117.589 159.52C117.502 160.155 117.562 160.74 117.77 161.276C117.978 161.801 118.289 162.217 118.705 162.523C119.132 162.829 119.624 162.983 120.182 162.983ZM124.824 166.527C125.284 166.451 125.656 166.347 125.94 166.215C126.235 166.095 126.492 165.915 126.711 165.674C126.941 165.433 127.193 165.105 127.466 164.689L128.008 163.885L126.252 155.204H127.417L128.795 162.72L129.468 161.621C129.939 160.855 130.338 160.182 130.666 159.602C130.994 159.011 131.273 158.481 131.503 158.01C131.744 157.529 131.941 157.064 132.094 156.615C132.247 156.167 132.395 155.696 132.537 155.204H133.636C133.494 155.729 133.336 156.222 133.161 156.681C132.996 157.141 132.789 157.622 132.537 158.125C132.296 158.617 131.99 159.181 131.618 159.815C131.257 160.439 130.803 161.188 130.256 162.064L128.927 164.181C128.555 164.782 128.21 165.286 127.893 165.69C127.576 166.106 127.264 166.434 126.957 166.675C126.662 166.927 126.356 167.107 126.038 167.216C125.721 167.337 125.366 167.408 124.972 167.43L124.824 166.527ZM138.549 163.754L139.337 160.176C138.954 160.341 138.565 160.466 138.172 160.554C137.778 160.63 137.362 160.669 136.924 160.669C135.983 160.669 135.305 160.428 134.889 159.947C134.474 159.465 134.37 158.727 134.578 157.731L135.136 155.204H136.284L135.726 157.584C135.573 158.36 135.639 158.924 135.923 159.274C136.208 159.624 136.684 159.799 137.351 159.799C137.745 159.799 138.139 159.755 138.533 159.668C138.937 159.569 139.266 159.449 139.517 159.307L140.387 155.204H141.519L139.698 163.754H138.549Z" fill="white"/>
<defs>
<linearGradient id="paint0_linear_669_198" x1="152.276" y1="0.947264" x2="160.661" y2="180.273" gradientUnits="userSpaceOnUse">
<stop stop-color="#58A4C3"/>
<stop offset="1" stop-color="#97CCE1"/>
</linearGradient>
</defs>
</svg>
