<svg width="249" height="249" viewBox="0 0 249 249" fill="none" xmlns="http://www.w3.org/2000/svg">
<circle cx="124.379" cy="124.75" r="124.25" fill="url(#paint0_linear_669_40)"/>
<g opacity="0.5">
<path d="M226.065 131.597L224.903 131.552L225.142 125.349L226.304 125.394L226.206 127.924L237.095 128.344C236.949 128.226 236.787 128.051 236.608 127.819C236.442 127.599 236.276 127.343 236.113 127.049C235.961 126.755 235.835 126.456 235.734 126.152C235.633 125.848 235.588 125.571 235.597 125.321L236.797 125.367C236.784 125.705 236.858 126.045 237.02 126.389C237.194 126.734 237.389 127.054 237.602 127.35C237.828 127.659 238.031 127.905 238.212 128.087C238.405 128.282 238.507 128.386 238.519 128.399L238.469 129.692L226.156 129.217L226.065 131.597Z" fill="white"/>
<path d="M233.679 133.678C234.522 133.789 235.258 134.094 235.885 134.593C236.526 135.094 236.998 135.724 237.301 136.482C237.616 137.255 237.716 138.076 237.601 138.943C237.477 139.885 237.145 140.68 236.606 141.328C236.079 141.977 235.38 142.447 234.51 142.735C233.638 143.037 232.626 143.111 231.473 142.96C229.675 142.723 228.215 142.322 227.091 141.758C225.966 141.206 225.16 140.526 224.674 139.718C224.187 138.91 224.009 138.016 224.138 137.037C224.252 136.169 224.572 135.417 225.097 134.78C225.635 134.144 226.312 133.698 227.128 133.439L227.747 134.335C227.092 134.526 226.535 134.875 226.077 135.382C225.63 135.903 225.361 136.511 225.27 137.205C225.173 137.936 225.312 138.604 225.687 139.208C226.073 139.814 226.675 140.322 227.491 140.732C228.305 141.155 229.32 141.446 230.535 141.606C230.087 141.371 229.701 141.043 229.378 140.622C229.066 140.215 228.844 139.75 228.711 139.228C228.576 138.719 228.545 138.185 228.619 137.627C228.73 136.784 229.03 136.042 229.518 135.4C230.004 134.771 230.615 134.296 231.351 133.977C232.085 133.67 232.861 133.571 233.679 133.678ZM236.507 138.78C236.588 138.16 236.508 137.57 236.267 137.008C236.026 136.447 235.665 135.977 235.186 135.598C234.706 135.22 234.156 134.99 233.536 134.908C232.904 134.825 232.307 134.904 231.746 135.145C231.197 135.388 230.727 135.749 230.336 136.227C229.956 136.719 229.725 137.275 229.643 137.895C229.56 138.527 229.639 139.124 229.88 139.685C230.134 140.248 230.494 140.718 230.962 141.095C231.44 141.486 231.989 141.722 232.609 141.804C233.228 141.886 233.82 141.8 234.383 141.546C234.946 141.292 235.417 140.925 235.795 140.446C236.186 139.967 236.423 139.412 236.507 138.78Z" fill="white"/>
<path d="M222.068 148.41C222.257 147.646 222.555 146.985 222.963 146.429C223.37 145.873 223.847 145.456 224.391 145.178C224.936 144.9 225.518 144.786 226.137 144.836L226.64 145.771C226.222 145.694 225.775 145.758 225.299 145.962C224.836 146.17 224.418 146.505 224.047 146.967C223.672 147.441 223.401 148.018 223.233 148.698C223.084 149.305 223.052 149.877 223.139 150.413C223.235 150.965 223.43 151.425 223.725 151.794C224.03 152.178 224.431 152.432 224.929 152.554C225.463 152.686 225.96 152.629 226.42 152.381C226.892 152.137 227.308 151.731 227.667 151.163C228.026 150.595 228.311 149.886 228.52 149.036L228.673 148.417L229.747 148.682L229.594 149.301C229.304 150.479 229.269 151.455 229.49 152.231C229.711 153.006 230.21 153.49 230.986 153.682C231.496 153.807 231.974 153.777 232.419 153.591C232.861 153.417 233.242 153.124 233.563 152.714C233.88 152.316 234.104 151.849 234.236 151.315C234.434 150.514 234.427 149.785 234.215 149.127C234.004 148.47 233.666 147.962 233.201 147.602L234.25 146.953C234.63 147.292 234.927 147.706 235.14 148.197C235.351 148.699 235.476 149.239 235.514 149.815C235.549 150.403 235.495 150.988 235.351 151.571C235.148 152.397 234.809 153.092 234.334 153.658C233.857 154.235 233.306 154.64 232.682 154.873C232.055 155.117 231.396 155.154 230.704 154.984C230.218 154.864 229.805 154.659 229.465 154.369C229.136 154.082 228.885 153.717 228.711 153.275C228.549 152.836 228.468 152.327 228.469 151.747C228.219 152.291 227.884 152.736 227.464 153.083C227.04 153.442 226.57 153.68 226.051 153.797C225.542 153.929 225.015 153.928 224.468 153.793C223.74 153.613 223.167 153.247 222.75 152.693C222.33 152.152 222.058 151.505 221.934 150.753C221.823 150.005 221.867 149.224 222.068 148.41Z" fill="white"/>
<path d="M221.545 164.897C220.758 164.609 220.11 164.145 219.599 163.504C219.095 162.88 218.772 162.163 218.63 161.352C218.488 160.54 218.57 159.718 218.876 158.885C219.194 158.016 219.684 157.316 220.344 156.786C221.012 156.272 221.81 155.966 222.739 155.867C223.667 155.768 224.672 155.916 225.752 156.312C227.454 156.936 228.786 157.644 229.747 158.436C230.72 159.233 231.356 160.078 231.653 160.973C231.951 161.868 231.932 162.773 231.596 163.689C231.291 164.522 230.806 165.19 230.143 165.693C229.491 166.199 228.744 166.492 227.903 166.57L227.483 165.537C228.172 165.51 228.792 165.291 229.342 164.88C229.9 164.485 230.299 163.959 230.54 163.302C230.794 162.609 230.798 161.925 230.553 161.249C230.309 160.573 229.835 159.94 229.132 159.35C228.426 158.771 227.497 158.271 226.347 157.849C226.74 158.193 227.045 158.597 227.26 159.063C227.476 159.528 227.594 160.024 227.613 160.55C227.629 161.089 227.54 161.622 227.346 162.15C227.054 162.949 226.601 163.602 225.989 164.11C225.372 164.629 224.672 164.959 223.889 165.097C223.113 165.252 222.331 165.186 221.545 164.897ZM219.919 159.307C219.704 159.894 219.653 160.488 219.765 161.089C219.878 161.689 220.127 162.227 220.513 162.701C220.894 163.187 221.378 163.538 221.965 163.753C222.552 163.968 223.148 164.013 223.752 163.889C224.353 163.776 224.891 163.527 225.365 163.142C225.839 162.756 226.184 162.27 226.399 161.683C226.619 161.085 226.674 160.479 226.566 159.867C226.453 159.266 226.204 158.729 225.819 158.254C225.445 157.784 224.959 157.44 224.36 157.22C223.773 157.005 223.179 156.954 222.579 157.066C221.974 157.191 221.434 157.446 220.96 157.831C220.486 158.216 220.139 158.709 219.919 159.307Z" fill="white"/>
<path d="M213.102 167.56L216.091 169.209L216.009 169.357C215.87 169.608 215.82 169.881 215.859 170.173C215.897 170.466 216.063 170.8 216.355 171.175C216.648 171.551 217.101 171.972 217.714 172.439C218.339 172.912 219.156 173.449 220.167 174.049L222.503 175.445L219.432 181.012L211.878 176.845L211.244 177.994L208.255 176.346L208.808 175.344L210.795 176.44L214.545 169.641L212.558 168.545L213.102 167.56ZM215.076 171.048L212.494 175.728L219.047 179.343L220.949 175.894L219.498 175.03C218.498 174.435 217.683 173.893 217.054 173.403C216.43 172.93 215.96 172.5 215.646 172.112C215.336 171.741 215.146 171.387 215.076 171.048Z" fill="white"/>
<path d="M209.289 178.905L217.294 184.508L216.563 185.553L213.121 183.144L209.917 187.723L213.359 190.132L212.627 191.176L204.622 185.574L205.353 184.529L208.98 187.067L212.184 182.488L208.558 179.95L209.289 178.905Z" fill="white"/>
<path d="M200.151 190.65C200.611 190.122 201.136 189.717 201.729 189.437C202.33 189.165 202.949 189.016 203.585 188.99C204.231 188.972 204.867 189.069 205.493 189.283C206.111 189.506 206.684 189.848 207.212 190.307C207.901 190.907 208.397 191.612 208.701 192.424C208.998 193.246 209.073 194.083 208.928 194.934C208.793 195.795 208.417 196.578 207.801 197.286C207.169 198.012 206.445 198.492 205.628 198.725C204.803 198.969 203.967 198.995 203.121 198.806C202.284 198.624 201.526 198.238 200.847 197.647C200.772 197.581 200.697 197.516 200.621 197.45C200.555 197.392 200.507 197.343 200.478 197.3L205.97 190.992C205.401 190.579 204.802 190.315 204.174 190.199C203.547 190.1 202.938 190.142 202.348 190.325C201.759 190.525 201.26 190.861 200.849 191.332C200.431 191.813 200.159 192.373 200.035 193.011C199.902 193.658 199.96 194.239 200.209 194.753L199.256 195.391C199.038 194.936 198.923 194.43 198.911 193.873C198.899 193.315 198.998 192.754 199.207 192.19C199.418 191.644 199.732 191.131 200.151 190.65ZM206.688 191.567L201.947 197.013C202.517 197.443 203.116 197.707 203.743 197.806C204.362 197.913 204.961 197.863 205.54 197.655C206.121 197.464 206.621 197.128 207.039 196.647C207.458 196.166 207.722 195.625 207.831 195.024C207.95 194.431 207.912 193.826 207.719 193.21C207.527 192.612 207.183 192.064 206.688 191.567Z" fill="white"/>
<path d="M196.061 195.465L202.728 202.583L201.797 203.454L196.31 197.596L197.471 207.532L196.636 208.314L189.956 201.183L190.887 200.311L196.285 206.074L195.158 196.311L196.061 195.465ZM200.521 206.372C201.141 205.79 201.757 205.488 202.368 205.463C202.979 205.439 203.494 205.651 203.913 206.098L203.229 206.739C202.972 206.465 202.658 206.331 202.287 206.336C201.906 206.351 201.501 206.558 201.072 206.96C200.652 207.353 200.428 207.726 200.399 208.079C200.36 208.441 200.464 208.78 200.71 209.098L200.039 209.726C199.621 209.279 199.443 208.751 199.507 208.143C199.572 207.535 199.909 206.944 200.521 206.372Z" fill="white"/>
<path d="M184.719 205.392L190.263 213.438L183.792 217.897L178.248 209.85L179.298 209.127L184.193 216.231L188.563 213.22L183.669 206.115L184.719 205.392Z" fill="white"/>
<path d="M171.468 213.524C172.183 213.136 172.927 212.975 173.701 213.039C174.464 213.109 175.16 213.329 175.788 213.7L172.919 208.407L174.04 207.799L180.6 219.902L179.594 220.447L178.691 218.782C178.643 219.505 178.422 220.186 178.029 220.826C177.642 221.477 177.124 221.978 176.476 222.329C175.882 222.651 175.27 222.819 174.638 222.835C174.012 222.861 173.405 222.764 172.816 222.542C172.226 222.321 171.687 221.995 171.197 221.564C170.702 221.149 170.3 220.656 169.99 220.085C169.555 219.282 169.318 218.451 169.278 217.591C169.234 216.747 169.392 215.965 169.754 215.242C170.117 214.52 170.688 213.947 171.468 213.524ZM172.318 214.343C171.845 214.599 171.473 214.922 171.2 215.312C170.934 215.712 170.758 216.149 170.673 216.622C170.577 217.1 170.567 217.582 170.645 218.066C170.729 218.561 170.889 219.028 171.128 219.468C171.378 219.93 171.699 220.325 172.09 220.653C172.47 220.987 172.895 221.234 173.365 221.391C173.835 221.549 174.312 221.617 174.798 221.596C175.284 221.574 175.753 221.441 176.203 221.197C176.489 221.042 176.756 220.826 177.004 220.549C177.253 220.273 177.463 219.952 177.636 219.589C177.803 219.242 177.912 218.891 177.962 218.537C178.011 218.183 177.981 217.851 177.87 217.542L176.44 214.903C176.044 214.592 175.608 214.352 175.132 214.183C174.663 214.025 174.182 213.952 173.69 213.962C173.193 213.99 172.736 214.117 172.318 214.343Z" fill="white"/>
<path d="M167.485 218.963C167.717 219.53 167.754 220.083 167.596 220.62C167.443 221.17 167.128 221.67 166.651 222.122C166.168 222.591 165.55 222.979 164.798 223.287C164.358 223.467 163.887 223.62 163.384 223.745C162.881 223.87 162.416 223.939 161.989 223.952L162.302 224.715C162.615 225.479 163.09 225.994 163.726 226.26C164.362 226.526 165.079 226.496 165.877 226.169C166.363 225.97 166.805 225.68 167.204 225.301C167.596 224.938 167.975 224.478 168.342 223.923L169.134 224.571C168.71 225.217 168.255 225.755 167.769 226.184C167.287 226.625 166.751 226.966 166.161 227.208C165.051 227.663 164.041 227.705 163.132 227.334C162.224 226.964 161.539 226.217 161.079 225.095L159.365 220.913C159.299 220.751 159.215 220.643 159.112 220.591C159.014 220.55 158.888 220.554 158.733 220.604L158.348 219.667C158.471 219.604 158.576 219.547 158.664 219.497C158.752 219.448 158.821 219.42 158.872 219.412C159.166 219.305 159.424 219.308 159.645 219.42C159.867 219.531 160.024 219.683 160.116 219.875L160.404 220.528C160.595 219.841 160.956 219.22 161.485 218.666C162.019 218.123 162.622 217.713 163.293 217.438C163.871 217.201 164.447 217.107 165.021 217.156C165.588 217.221 166.09 217.407 166.527 217.714C166.957 218.038 167.276 218.454 167.485 218.963ZM161.144 220.751C161.083 220.965 161.049 221.162 161.041 221.341C161.033 221.52 161.053 221.667 161.1 221.783L161.641 223.101C162.096 223.091 162.554 223.038 163.015 222.944C163.465 222.854 163.904 222.721 164.332 222.546C165.176 222.2 165.79 221.752 166.173 221.203C166.556 220.655 166.629 220.091 166.392 219.512C166.255 219.177 166.038 218.894 165.741 218.665C165.449 218.447 165.095 218.308 164.679 218.249C164.267 218.201 163.836 218.27 163.385 218.455C162.818 218.687 162.337 219.013 161.941 219.432C161.533 219.855 161.268 220.295 161.144 220.751Z" fill="white"/>
<path d="M156.672 220.238L159.476 229.598L158.255 229.964L157.054 225.958L155.653 226.378L153.71 231.326L152.308 231.746L154.521 226.129L149.054 222.521L150.491 222.09L155.314 225.246L156.715 224.826L155.45 220.604L156.672 220.238Z" fill="white"/>
<path d="M144.887 223.406L146.601 231.862L150.02 231.169L150.247 232.29L142.159 233.929L141.932 232.808L145.351 232.115L143.638 223.66L144.887 223.406Z" fill="white"/>
<path d="M138.675 224.593L139.688 234.293L138.42 234.425L137.586 226.442L132.509 235.062L131.371 235.181L130.356 225.462L131.624 225.33L132.445 233.183L137.444 224.722L138.675 224.593Z" fill="white"/>
<path d="M127.811 236.038V226.267H126.536V230.449H125.073L121.791 226.267H120.328L124.06 231.012L119.859 236.038H121.36L125.073 231.631H126.536V236.038H127.811Z" fill="white"/>
<path d="M117.964 225.476L117.026 235.184L115.756 235.061L116.529 227.071L109.837 234.507L108.698 234.397L109.639 224.671L110.908 224.794L110.148 232.653L116.732 225.357L117.964 225.476Z" fill="white"/>
<path d="M98.9766 222.283C99.6685 222.453 100.274 222.738 100.794 223.137C101.299 223.545 101.713 224.033 102.036 224.602C102.347 225.168 102.551 225.779 102.647 226.433C102.731 227.085 102.69 227.745 102.526 228.412C102.304 229.311 101.902 230.081 101.318 230.722C100.735 231.364 100.031 231.815 99.2074 232.075C98.3834 232.336 97.504 232.351 96.5693 232.12C95.6831 231.901 94.951 231.502 94.373 230.921C93.7921 230.353 93.423 229.683 93.266 228.91L94.5621 228.824C94.7094 229.375 94.9928 229.845 95.4125 230.231C95.8171 230.627 96.3107 230.897 96.8934 231.041C97.5246 231.197 98.1417 231.175 98.7445 230.976C99.3474 230.777 99.877 230.431 100.333 229.939C100.778 229.443 101.089 228.831 101.269 228.102C101.446 227.386 101.448 226.698 101.276 226.037C101.104 225.377 100.801 224.806 100.366 224.325C99.9277 223.857 99.393 223.544 98.7617 223.389C98.349 223.287 97.9365 223.262 97.5242 223.315C97.0998 223.365 96.7181 223.477 96.379 223.651C96.0248 223.834 95.7632 224.059 95.5942 224.327L94.464 223.661C94.7448 223.254 95.1304 222.918 95.6208 222.653C96.0961 222.396 96.6263 222.231 97.2113 222.156C97.7812 222.091 98.3696 222.133 98.9766 222.283Z" fill="white"/>
<path d="M89.487 219.623L85.8494 228.692L84.6658 228.217L86.2227 224.335L84.865 223.791L80.2619 226.451L78.9042 225.906L84.1345 222.891L82.1065 216.663L83.499 217.221L85.3049 222.694L86.6626 223.239L88.3033 219.148L89.487 219.623Z" fill="white"/>
<path d="M81.3765 216.299L80.8338 217.327C80.5352 217.17 80.229 217.107 79.9151 217.139C79.5953 217.182 79.2448 217.351 78.8637 217.645C78.4714 217.932 78.042 218.384 77.5755 219.001C77.1031 219.628 76.5731 220.458 75.9855 221.491L74.6166 223.843L69.0104 220.884L73.5712 212.243L74.6991 212.838L70.6723 220.468L74.1554 222.306L74.9765 220.831C75.651 219.66 76.2731 218.709 76.8429 217.978C77.4068 217.257 77.944 216.735 78.4545 216.411C78.954 216.081 79.4442 215.915 79.9252 215.915C80.4062 215.914 80.89 216.042 81.3765 216.299Z" fill="white"/>
<path d="M71.2308 210.875L65.8158 218.986L64.7551 218.278L69.2121 211.602L59.8001 214.993L58.8487 214.357L64.2741 206.231L65.3347 206.939L60.9507 213.506L70.2013 210.188L71.2308 210.875Z" fill="white"/>
<path d="M59.3288 202.02C59.8668 202.468 60.2823 202.985 60.5754 203.571C60.8605 204.166 61.0231 204.782 61.0633 205.417C61.0955 206.063 61.0116 206.701 60.8116 207.331C60.602 207.954 60.2732 208.535 59.8251 209.073C59.2409 209.774 58.5462 210.285 57.7411 210.607C56.9263 210.921 56.0915 211.015 55.2366 210.889C54.3737 210.772 53.582 210.414 52.8615 209.814C52.1217 209.198 51.6261 208.484 51.3746 207.672C51.1135 206.853 51.0685 206.018 51.2396 205.168C51.4027 204.327 51.7723 203.561 52.3484 202.869C52.4125 202.792 52.4765 202.716 52.5405 202.639C52.5965 202.571 52.6453 202.523 52.6869 202.492L59.114 207.846C59.5141 207.268 59.7653 206.663 59.8676 206.032C59.9523 205.403 59.8969 204.796 59.7015 204.21C59.4885 203.626 59.1418 203.133 58.6614 202.733C58.1715 202.325 57.6063 202.066 56.9659 201.956C56.3159 201.837 55.7364 201.908 55.2274 202.167L54.5693 201.229C55.0191 201.001 55.5225 200.875 56.0796 200.851C56.6367 200.827 57.1994 200.914 57.7678 201.11C58.3185 201.309 58.8389 201.612 59.3288 202.02ZM58.5547 208.576L53.0066 203.955C52.5889 204.534 52.3377 205.139 52.253 205.768C52.1587 206.389 52.2221 206.987 52.4431 207.561C52.6466 208.138 52.9933 208.63 53.4832 209.038C53.9732 209.446 54.5199 209.698 55.1235 209.794C55.719 209.9 56.3226 209.849 56.934 209.642C57.5279 209.437 58.0681 209.082 58.5547 208.576Z" fill="white"/>
<path d="M54.4383 198.04L47.4541 204.873L46.5622 203.962L49.565 201.024L45.6563 197.029L42.6535 199.967L41.7616 199.055L48.7458 192.222L49.6377 193.133L46.474 196.229L50.3827 200.224L53.5464 197.128L54.4383 198.04Z" fill="white"/>
<path d="M45.5183 188.337L38.79 193.736L40.9735 196.457L40.0812 197.173L34.9161 190.737L35.8083 190.021L37.9918 192.742L44.72 187.342L45.5183 188.337Z" fill="white"/>
<path d="M39.6869 185.534C39.1761 185.873 38.6416 186.017 38.0835 185.967C37.5149 185.923 36.9624 185.712 36.4261 185.332C35.8724 184.949 35.3711 184.419 34.9224 183.741C34.66 183.345 34.4186 182.913 34.198 182.444C33.9775 181.975 33.8193 181.532 33.7235 181.116L33.0355 181.572C32.3475 182.027 31.9349 182.593 31.7976 183.269C31.6603 183.945 31.8299 184.642 32.3063 185.361C32.5962 185.799 32.9662 186.177 33.416 186.494C33.8485 186.807 34.3731 187.089 34.9896 187.341L34.5083 188.245C33.7913 187.955 33.1751 187.613 32.6596 187.219C32.1337 186.833 31.6946 186.374 31.3425 185.842C30.6797 184.842 30.4417 183.859 30.6283 182.896C30.815 181.933 31.4139 181.116 32.4251 180.446L36.1934 177.95C36.3393 177.854 36.428 177.75 36.4596 177.639C36.4807 177.535 36.4516 177.412 36.3723 177.269L37.2166 176.71C37.303 176.818 37.379 176.91 37.4447 176.987C37.5103 177.063 37.5517 177.126 37.5689 177.174C37.7311 177.442 37.7789 177.695 37.7123 177.934C37.6457 178.173 37.5272 178.357 37.3569 178.484L36.7731 178.894C37.4838 178.948 38.1628 179.18 38.8101 179.592C39.4469 180.01 39.9655 180.521 40.3659 181.125C40.7112 181.647 40.9158 182.193 40.98 182.766C41.0269 183.335 40.942 183.863 40.7256 184.352C40.4918 184.836 40.1455 185.231 39.6869 185.534ZM36.698 179.663C36.4761 179.645 36.2767 179.65 36.0998 179.677C35.9228 179.704 35.7822 179.752 35.678 179.821L34.4896 180.608C34.5889 181.053 34.7297 181.492 34.9122 181.926C35.0878 182.349 35.3033 182.754 35.5588 183.14C36.0628 183.901 36.6213 184.416 37.2343 184.684C37.8472 184.953 38.4143 184.915 38.9355 184.57C39.2378 184.37 39.4727 184.102 39.6402 183.766C39.7972 183.437 39.8642 183.062 39.8412 182.643C39.8078 182.23 39.6564 181.82 39.3872 181.414C39.0489 180.903 38.6357 180.494 38.1477 180.188C37.6527 179.871 37.1695 179.696 36.698 179.663Z" fill="white"/>
<path d="M36.2988 175.308L27.5907 179.74L26.9952 178.57L31.2345 172.056L23.4646 171.634L22.8946 170.514L31.6027 166.082L32.1557 167.168L25.1524 170.733L32.2007 171.102L32.575 171.837L28.7425 177.786L35.7458 174.222L36.2988 175.308Z" fill="white"/>
<path d="M30.4991 163.498L21.3555 166.89L20.9119 165.694L28.4378 162.903L18.8266 160.127L18.4287 159.054L27.59 155.656L28.0335 156.851L20.6307 159.597L30.0686 162.338L30.4991 163.498Z" fill="white"/>
<path d="M21.6158 120.832L22.7785 120.836L22.7546 127.044L21.5918 127.039L21.6016 124.507L10.7052 124.465C10.8548 124.578 11.0229 124.748 11.2096 124.974C11.3838 125.187 11.5579 125.438 11.7318 125.726C11.8932 126.014 12.0296 126.308 12.141 126.609C12.2524 126.909 12.3076 127.185 12.3066 127.435L11.1063 127.43C11.1076 127.093 11.0214 126.755 10.8477 126.416C10.6614 126.078 10.4563 125.765 10.2324 125.476C9.99598 125.175 9.78434 124.937 9.59747 124.761C9.39815 124.573 9.29226 124.472 9.2798 124.46L9.2848 123.166L21.6066 123.213L21.6158 120.832Z" fill="white"/>
<path d="M13.957 118.564C13.1111 118.479 12.3666 118.197 11.7237 117.717C11.0683 117.237 10.5773 116.622 10.2505 115.873C9.91253 115.11 9.78735 114.293 9.87494 113.422C9.97004 112.477 10.2772 111.672 10.7964 111.008C11.3031 110.343 11.987 109.852 12.8481 109.537C13.7105 109.209 14.7201 109.103 15.8771 109.219C17.6809 109.401 19.1531 109.756 20.2937 110.286C21.4355 110.803 22.2618 111.458 22.7727 112.25C23.2835 113.043 23.4896 113.931 23.3907 114.914C23.3031 115.785 23.0066 116.546 22.5011 117.199C21.9832 117.851 21.3204 118.318 20.5128 118.601L19.8658 117.726C20.5153 117.515 21.0611 117.149 21.503 116.628C21.9338 116.093 22.1842 115.477 22.2543 114.781C22.3281 114.047 22.1686 113.383 21.7758 112.791C21.3706 112.197 20.7538 111.708 19.9254 111.323C19.0983 110.926 18.0752 110.666 16.8561 110.543C17.3113 110.765 17.7067 111.081 18.0424 111.492C18.3669 111.889 18.6036 112.346 18.7526 112.864C18.9028 113.369 18.9498 113.902 18.8935 114.461C18.8084 115.307 18.5318 116.059 18.0636 116.715C17.5967 117.359 17.0005 117.852 16.275 118.194C15.5507 118.523 14.7781 118.647 13.957 118.564ZM10.974 113.552C10.9115 114.174 11.0094 114.762 11.2679 115.315C11.5263 115.869 11.9012 116.328 12.3924 116.691C12.8836 117.055 13.4402 117.268 14.0622 117.331C14.6967 117.394 15.2908 117.297 15.8446 117.039C16.3859 116.779 16.8446 116.404 17.2206 115.914C17.5854 115.41 17.7991 114.848 17.8617 114.226C17.9255 113.591 17.8282 112.997 17.5697 112.443C17.2988 111.888 16.924 111.43 16.4452 111.067C15.9552 110.691 15.3992 110.472 14.7772 110.409C14.1552 110.347 13.5667 110.451 13.0117 110.722C12.4566 110.993 11.9973 111.374 11.6338 111.865C11.2578 112.355 11.0379 112.917 10.974 113.552Z" fill="white"/>
<path d="M25.0249 103.851C24.8625 104.622 24.5872 105.292 24.1988 105.862C23.8105 106.432 23.3488 106.865 22.8136 107.161C22.2785 107.457 21.7009 107.591 21.0807 107.563L20.5457 106.645C20.9668 106.708 21.4115 106.629 21.8796 106.408C22.3356 106.185 22.7413 105.836 23.0968 105.361C23.4548 104.875 23.706 104.289 23.8503 103.603C23.9791 102.992 23.9911 102.419 23.8862 101.886C23.7716 101.338 23.5604 100.885 23.2526 100.526C22.9352 100.152 22.5257 99.9129 22.024 99.8072C21.4857 99.6939 20.9908 99.7685 20.5394 100.031C20.0757 100.291 19.6742 100.711 19.3348 101.292C18.9954 101.872 18.7355 102.59 18.5552 103.447L18.4238 104.071L17.341 103.843L17.4724 103.219C17.7223 102.032 17.7237 101.055 17.4765 100.287C17.2292 99.5194 16.7141 99.0531 15.9311 98.8882C15.4172 98.78 14.941 98.8267 14.5025 99.0282C14.0665 99.2175 13.6956 99.5227 13.3897 99.9438C13.0864 100.353 12.878 100.826 12.7646 101.365C12.5946 102.172 12.6264 102.901 12.8601 103.55C13.0938 104.2 13.4492 104.697 13.9264 105.04L12.9005 105.725C12.509 105.4 12.198 104.995 11.9675 104.512C11.7396 104.017 11.5967 103.482 11.5388 102.908C11.4834 102.321 11.5176 101.734 11.6413 101.147C11.8165 100.315 12.1315 99.6085 12.5861 99.0271C13.0434 98.4334 13.5798 98.0097 14.1954 97.756C14.8136 97.4901 15.4714 97.4306 16.1688 97.5775C16.6582 97.6806 17.078 97.8712 17.4283 98.1494C17.7664 98.425 18.03 98.7808 18.2193 99.2168C18.3964 99.6502 18.4942 100.156 18.5129 100.735C18.7441 100.183 19.0638 99.7269 19.4721 99.3656C19.883 98.9922 20.3454 98.7382 20.8592 98.6036C21.3634 98.4543 21.8908 98.4376 22.4414 98.5535C23.1755 98.7081 23.7605 99.0549 24.1964 99.5939C24.6349 100.121 24.9288 100.758 25.0781 101.505C25.2153 102.249 25.1975 103.031 25.0249 103.851Z" fill="white"/>
<path d="M24.9663 87.3671C25.7621 87.6287 26.4262 88.0707 26.9586 88.6932C27.4831 89.2999 27.83 90.0062 27.9994 90.8121C28.1688 91.618 28.1149 92.4426 27.8377 93.2859C27.5488 94.1649 27.0832 94.8805 26.4411 95.4328C25.7909 95.9693 25.0035 96.3027 24.0788 96.4331C23.1542 96.5634 22.1454 96.449 21.0527 96.0898C19.3304 95.5237 17.9754 94.8611 16.9877 94.1021C15.9882 93.3392 15.3245 92.5156 14.9966 91.6313C14.6687 90.747 14.657 89.8416 14.9615 88.9152C15.2387 88.0718 15.7005 87.3879 16.3467 86.8633C16.9811 86.3348 17.7172 86.0174 18.555 85.9111L19.0099 86.9293C18.3222 86.9796 17.7103 87.2194 17.1744 87.6486C16.6305 88.0621 16.2492 88.6014 16.0305 89.2666C15.8002 89.9673 15.8188 90.6513 16.0865 91.3184C16.3542 91.9855 16.849 92.6022 17.571 93.1685C18.2969 93.723 19.2418 94.1916 20.4058 94.5742C20.0012 94.2438 19.6832 93.8497 19.452 93.392C19.2208 92.9343 19.0863 92.4426 19.0485 91.9169C19.0146 91.3793 19.0855 90.8433 19.2612 90.3088C19.5267 89.5011 19.9569 88.8331 20.5517 88.3047C21.1505 87.7645 21.839 87.4117 22.6172 87.2464C23.3874 87.0652 24.1705 87.1055 24.9663 87.3671ZM26.7804 92.8989C26.9756 92.305 27.0068 91.7098 26.8738 91.1133C26.7409 90.5169 26.4737 89.9882 26.0725 89.5272C25.6751 89.0544 25.1795 88.7204 24.5856 88.5252C23.9917 88.33 23.3946 88.3048 22.7942 88.4496C22.1977 88.5826 21.669 88.8497 21.2081 89.2509C20.7471 89.6522 20.4191 90.1498 20.2238 90.7437C20.0247 91.3494 19.9897 91.9565 20.1187 92.5649C20.2517 93.1613 20.5188 93.69 20.9201 94.151C21.3094 94.608 21.807 94.9361 22.4128 95.1352C23.0067 95.3304 23.6019 95.3616 24.1984 95.2286C24.7987 95.0838 25.3294 94.8107 25.7903 94.4095C26.2513 94.0082 26.5813 93.5047 26.7804 92.8989Z" fill="white"/>
<path d="M33.2438 84.505L30.2018 82.9566L30.2784 82.8062C30.4088 82.5499 30.4499 82.2762 30.4017 81.9851C30.3534 81.694 30.1769 81.3656 29.8719 81C29.567 80.6343 29.1002 80.2284 28.4716 79.7821C27.8317 79.3302 26.9966 78.821 25.9662 78.2544L23.5852 76.9373L26.4692 71.2711L34.1577 75.1845L34.7532 74.0145L37.7952 75.5629L37.2763 76.5824L35.2539 75.553L31.7318 82.4727L33.7542 83.5021L33.2438 84.505ZM31.1546 81.0846L33.5792 76.3211L26.9103 72.9267L25.1237 76.4366L26.6025 77.2524C27.6217 77.8133 28.454 78.3281 29.0993 78.7969C29.7391 79.2488 30.2226 79.6633 30.5498 80.0402C30.8716 80.4004 31.0732 80.7486 31.1546 81.0846Z" fill="white"/>
<path d="M36.7473 72.8707L28.5616 67.5349L29.258 66.4665L32.7774 68.7606L35.8293 64.0786L32.31 61.7845L33.0064 60.7161L41.1921 66.0519L40.4957 67.1203L36.7877 64.7033L33.7358 69.3853L37.4438 71.8023L36.7473 72.8707Z" fill="white"/>
<path d="M45.2077 61.159C44.7675 61.7035 44.2566 62.1265 43.6751 62.4281C43.0838 62.7218 42.4708 62.8934 41.8359 62.9428C41.1913 62.9843 40.5521 62.9097 39.9185 62.719C39.2927 62.5185 38.7076 62.1981 38.1632 61.7579C37.4534 61.184 36.9317 60.4969 36.5981 59.6965C36.2723 58.8864 36.1663 58.053 36.2801 57.1964C36.3842 56.3319 36.7311 55.535 37.3207 54.8058C37.926 54.0572 38.6326 53.5512 39.4404 53.2879C40.2561 53.0149 41.0902 52.9577 41.9427 53.1164C42.7855 53.2673 43.5569 53.6257 44.2569 54.1917C44.3347 54.2546 44.4125 54.3175 44.4902 54.3804C44.5583 54.4354 44.6078 54.4835 44.6389 54.5247L39.3796 61.029C39.9634 61.4207 40.5713 61.663 41.2035 61.7562C41.8338 61.8317 42.4405 61.7675 43.0235 61.5635C43.6046 61.342 44.0916 60.9882 44.4847 60.5021C44.8856 60.0062 45.1366 59.4373 45.2376 58.7954C45.3464 58.1438 45.2674 57.5654 45.0006 57.0602L45.9297 56.3884C46.1636 56.8349 46.2967 57.3364 46.3289 57.8931C46.3612 58.4498 46.2831 59.0137 46.0946 59.5849C45.9043 60.1384 45.6086 60.6631 45.2077 61.159ZM38.6414 60.4804L43.1814 54.8657C42.5957 54.4564 41.9878 54.2141 41.3574 54.1385C40.735 54.0533 40.138 54.1254 39.5667 54.3548C38.9934 54.5666 38.5063 54.9204 38.1054 55.4162C37.7045 55.9121 37.4604 56.4625 37.3733 57.0673C37.2765 57.6644 37.3358 58.2671 37.5514 58.8755C37.765 59.4663 38.1284 60.0013 38.6414 60.4804Z" fill="white"/>
<path d="M49.2718 55.9946L42.3758 49.0986L43.2775 48.1968L48.9535 53.8728L47.4682 43.9796L48.2772 43.1707L55.1864 50.0799L54.2847 50.9817L48.7015 45.3986L50.147 55.1193L49.2718 55.9946ZM44.4578 45.2395C43.8566 45.8407 43.251 46.1634 42.641 46.2076C42.031 46.2518 41.5093 46.0573 41.0761 45.624L41.7392 44.961C42.0044 45.2262 42.3227 45.35 42.694 45.3323C43.0742 45.3058 43.472 45.0847 43.8876 44.6692C44.2943 44.2625 44.5064 43.8824 44.5241 43.5287C44.5507 43.1662 44.4357 42.8303 44.1793 42.5208L44.8291 41.871C45.2624 42.3042 45.4569 42.8259 45.4127 43.4359C45.3685 44.0459 45.0502 44.6471 44.4578 45.2395Z" fill="white"/>
<path d="M60.428 45.5309L54.6226 37.6713L60.9434 33.0024L66.7489 40.862L65.7231 41.6197L60.5973 34.6804L56.3281 37.8338L61.4539 44.7732L60.428 45.5309Z" fill="white"/>
<path d="M72.9494 37.2195C72.2482 37.6303 71.5096 37.8166 70.7338 37.7784C69.9687 37.7339 69.2663 37.5367 68.6267 37.1869L71.6696 42.3815L70.5692 43.0261L63.6112 31.1481L64.5984 30.5698L65.5558 32.2043C65.5806 31.4797 65.7787 30.7913 66.1501 30.139C66.5152 29.476 67.016 28.958 67.6525 28.5852C68.235 28.2439 68.8417 28.0551 69.4726 28.0189C70.0971 27.9718 70.7074 28.049 71.3036 28.2504C71.8998 28.4518 72.4498 28.76 72.9536 29.1749C73.462 29.5726 73.8804 30.052 74.2091 30.613C74.6704 31.4006 74.9352 32.2236 75.0033 33.0821C75.076 33.9234 74.9433 34.7112 74.6053 35.4453C74.2674 36.1794 73.7154 36.7708 72.9494 37.2195ZM72.0732 36.4287C72.5371 36.1569 72.8987 35.8219 73.1581 35.4236C73.4112 35.0146 73.5724 34.5724 73.6417 34.097C73.7218 33.6154 73.7151 33.1339 73.6215 32.6526C73.5216 32.1605 73.3452 31.6986 73.0925 31.2671C72.827 30.814 72.4933 30.4298 72.0914 30.1147C71.7002 29.7932 71.2673 29.5613 70.7927 29.4191C70.3182 29.2769 69.8384 29.2247 69.3534 29.2624C68.8683 29.3002 68.4046 29.4487 67.9623 29.7078C67.6818 29.8721 67.4221 30.0967 67.1833 30.3815C66.9444 30.6663 66.7447 30.9934 66.5843 31.3627C66.4283 31.7149 66.3313 32.0688 66.2933 32.4243C66.2552 32.7799 66.2968 33.1106 66.418 33.4163L67.9347 36.0056C68.3411 36.3036 68.7848 36.5292 69.2657 36.6822C69.7402 36.8244 70.2232 36.882 70.7145 36.855C71.2104 36.8109 71.6632 36.6688 72.0732 36.4287Z" fill="white"/>
<path d="M77.0967 31.4265C76.8455 30.8678 76.7898 30.317 76.9296 29.7743C77.0644 29.2203 77.3624 28.7093 77.8238 28.2414C78.2914 27.7569 78.8958 27.3481 79.6371 27.0148C80.0704 26.82 80.5362 26.6517 81.0345 26.5099C81.5329 26.3681 81.9952 26.2836 82.4217 26.2564L82.0833 25.5038C81.7449 24.7511 81.2534 24.2524 80.6087 24.0076C79.964 23.7629 79.2482 23.8173 78.4613 24.1711C77.9824 24.3864 77.5502 24.6905 77.1646 25.0831C76.7854 25.4593 76.4218 25.9312 76.0739 26.4989L75.26 25.8778C75.6621 25.2172 76.099 24.6643 76.5706 24.2192C77.0371 23.7627 77.5611 23.4038 78.1427 23.1423C79.2375 22.6501 80.2451 22.574 81.1657 22.9141C82.0863 23.2542 82.7953 23.9773 83.2926 25.0834L85.146 29.2058C85.2178 29.3655 85.3059 29.4698 85.4102 29.5189C85.5093 29.5566 85.6356 29.5478 85.789 29.4925L86.2043 30.4162C86.084 30.484 85.9808 30.5441 85.8947 30.5965C85.8086 30.649 85.7402 30.6797 85.6894 30.6888C85.3992 30.8056 85.1415 30.8118 84.9164 30.7074C84.6912 30.603 84.5293 30.4564 84.4308 30.2677L84.1214 29.6254C83.953 30.318 83.6136 30.9504 83.1032 31.5226C82.5876 32.0834 81.9992 32.5125 81.3377 32.8098C80.7676 33.0662 80.1949 33.1797 79.6197 33.1505C79.0507 33.1047 78.5428 32.9355 78.096 32.6429C77.6554 32.3337 77.3223 31.9283 77.0967 31.4265ZM83.3741 29.4267C83.4278 29.2107 83.4555 29.0132 83.4572 28.8341C83.459 28.6551 83.4343 28.5086 83.383 28.3946L82.7985 27.0946C82.3441 27.1206 81.888 27.1886 81.4302 27.2985C80.9838 27.4032 80.5496 27.5505 80.1277 27.7402C79.2952 28.1144 78.6968 28.5823 78.3323 29.1437C77.9678 29.7051 77.9137 30.2709 78.1701 30.8411C78.3188 31.1718 78.5453 31.447 78.8497 31.6666C79.1489 31.8747 79.5074 32.0014 79.9253 32.0466C80.338 32.0804 80.7668 31.9973 81.2115 31.7973C81.7703 31.5461 82.2405 31.2045 82.622 30.7725C83.0149 30.3353 83.2656 29.8868 83.3741 29.4267Z" fill="white"/>
<path d="M87.9789 29.7338L84.8577 20.4745L86.0662 20.0671L87.4022 24.0303L88.7884 23.563L90.5626 18.5514L91.9488 18.0842L89.9278 23.7727L95.5143 27.1937L94.0925 27.673L89.1658 24.6827L87.7796 25.15L89.1874 29.3264L87.9789 29.7338Z" fill="white"/>
<path d="M99.3395 26.2401L97.3371 17.8485L93.944 18.6582L93.6784 17.5454L101.705 15.63L101.971 16.7428L98.5776 17.5525L100.58 25.9441L99.3395 26.2401Z" fill="white"/>
<path d="M105.304 24.8434L103.956 15.1845L105.219 15.0082L106.329 22.9582L111.105 14.1678L112.238 14.0097L113.588 23.6871L112.325 23.8634L111.234 16.0434L106.53 24.6723L105.304 24.8434Z" fill="white"/>
<path d="M115.906 23.4711L115.529 13.7072L116.803 13.658L116.964 17.8372L118.426 17.7807L121.544 13.4749L123.006 13.4185L119.46 18.3039L123.852 23.1643L122.352 23.2222L118.472 18.9614L117.01 19.0179L117.18 23.4219L115.906 23.4711Z" fill="white"/>
<path d="M126.311 23.1714L126.95 13.4399L128.222 13.5235L127.696 21.5333L134.156 13.8944L135.298 13.9694L134.657 23.7196L133.385 23.636L133.902 15.7573L127.546 23.2525L126.311 23.1714Z" fill="white"/>
<path d="M144.991 25.6216C144.293 25.4748 143.678 25.211 143.145 24.8304C142.627 24.4402 142.196 23.9662 141.854 23.4085C141.523 22.8534 141.299 22.2503 141.18 21.5993C141.074 20.9508 141.092 20.2901 141.234 19.6172C141.424 18.7119 141.8 17.9285 142.361 17.2672C142.922 16.6059 143.61 16.1311 144.424 15.8427C145.239 15.5542 146.117 15.5092 147.059 15.7076C147.953 15.8957 148.698 16.2699 149.295 16.8302C149.896 17.3782 150.287 18.0357 150.471 18.8027L149.178 18.933C149.012 18.3869 148.713 17.9277 148.28 17.5555C147.862 17.1736 147.36 16.9208 146.773 16.7972C146.136 16.6632 145.52 16.7059 144.925 16.9255C144.329 17.145 143.812 17.5088 143.372 18.0169C142.945 18.5275 142.655 19.1498 142.5 19.8839C142.348 20.6058 142.369 21.2938 142.564 21.9481C142.758 22.6023 143.081 23.1623 143.532 23.6279C143.986 24.0813 144.531 24.3749 145.168 24.5089C145.584 24.5965 145.997 24.6069 146.407 24.5399C146.829 24.4756 147.207 24.3507 147.54 24.1652C147.888 23.9701 148.141 23.7361 148.301 23.4631L149.453 24.0891C149.187 24.5057 148.813 24.855 148.332 25.137C147.866 25.4094 147.341 25.5928 146.759 25.6875C146.192 25.7724 145.602 25.7505 144.991 25.6216Z" fill="white"/>
<path d="M154.492 27.8401L157.821 18.6536L159.02 19.0881L157.595 23.0202L158.971 23.5186L163.481 20.7049L164.857 21.2034L159.731 24.3927L161.968 30.5496L160.557 30.0384L158.568 24.6295L157.193 24.131L155.691 28.2746L154.492 27.8401Z" fill="white"/>
<path d="M162.709 30.8259L163.214 29.7781C163.518 29.9245 163.826 29.9758 164.139 29.9319C164.457 29.8768 164.8 29.6955 165.171 29.3879C165.552 29.0858 165.964 28.6182 166.408 27.9852C166.856 27.3409 167.355 26.4917 167.904 25.4377L169.185 23.0361L174.897 25.7851L170.659 34.5897L169.51 34.0366L173.252 26.2629L169.703 24.5549L168.937 26.0596C168.306 27.2547 167.72 28.2282 167.178 28.9801C166.641 29.7208 166.123 30.2627 165.625 30.6057C165.138 30.9542 164.654 31.1377 164.174 31.1561C163.693 31.1745 163.205 31.0645 162.709 30.8259Z" fill="white"/>
<path d="M173.45 36.0505L178.594 27.7652L179.678 28.438L175.443 35.2574L184.738 31.5581L185.71 32.1616L180.556 40.4628L179.473 39.7901L183.638 33.0822L174.501 36.7035L173.45 36.0505Z" fill="white"/>
<path d="M185.884 44.6547C185.332 44.2244 184.899 43.7213 184.587 43.1454C184.283 42.5596 184.1 41.9498 184.039 41.3159C183.986 40.6722 184.049 40.0318 184.228 39.3948C184.417 38.7655 184.727 38.1746 185.157 37.6222C185.718 36.9022 186.395 36.368 187.189 36.0199C187.993 35.6794 188.825 35.5582 189.683 35.6564C190.55 35.7447 191.353 36.077 192.092 36.6532C192.852 37.2448 193.371 37.9421 193.649 38.745C193.937 39.5555 194.009 40.3885 193.866 41.2437C193.73 42.0891 193.386 42.8669 192.833 43.5771C192.771 43.656 192.71 43.7349 192.648 43.8138C192.595 43.8829 192.547 43.9333 192.507 43.9651L185.908 38.8252C185.527 39.416 185.296 40.0283 185.214 40.662C185.15 41.2936 185.225 41.899 185.44 42.4782C185.672 43.0551 186.034 43.5357 186.528 43.9198C187.031 44.3117 187.604 44.5522 188.248 44.6415C188.901 44.7384 189.478 44.6489 189.978 44.3729L190.667 45.2896C190.225 45.5316 189.726 45.6739 189.17 45.7162C188.614 45.7586 188.049 45.6908 187.474 45.5128C186.917 45.3325 186.387 45.0465 185.884 44.6547ZM186.443 38.0771L192.139 42.514C192.538 41.921 192.769 41.3087 192.833 40.6772C192.907 40.0532 192.824 39.4577 192.584 38.8906C192.362 38.3213 191.999 37.8408 191.496 37.4489C190.993 37.0571 190.439 36.8232 189.832 36.7471C189.234 36.6611 188.632 36.7314 188.028 36.958C187.441 37.1824 186.913 37.5554 186.443 38.0771Z" fill="white"/>
<path d="M190.649 48.2189L197.406 41.1607L198.327 42.0426L195.422 45.0772L199.459 48.9421L202.364 45.9074L203.285 46.7894L196.528 53.8476L195.607 52.9657L198.668 49.7685L194.631 45.9036L191.57 49.1008L190.649 48.2189Z" fill="white"/>
<path d="M199.77 57.4337L206.298 51.7925L204.017 49.1532L204.882 48.4052L210.278 54.6486L209.412 55.3967L207.131 52.7574L200.604 58.3986L199.77 57.4337Z" fill="white"/>
<path d="M205.721 60.0118C206.219 59.6551 206.748 59.4916 207.308 59.5213C207.878 59.5438 208.437 59.735 208.987 60.0947C209.555 60.4573 210.075 60.9689 210.548 61.6296C210.825 62.0159 211.082 62.4392 211.319 62.8996C211.557 63.3601 211.731 63.7966 211.842 64.2092L212.513 63.7287C213.184 63.2482 213.576 62.6677 213.688 61.9873C213.801 61.307 213.606 60.6161 213.103 59.9148C212.797 59.4879 212.414 59.1243 211.953 58.824C211.509 58.5267 210.975 58.2636 210.349 58.0348L210.797 57.1141C211.524 57.3777 212.153 57.6966 212.682 58.0709C213.222 58.4379 213.677 58.8806 214.049 59.399C214.748 60.3748 215.022 61.3475 214.87 62.3172C214.719 63.2868 214.15 64.1248 213.164 64.831L209.49 67.4631C209.348 67.565 209.263 67.6719 209.235 67.7839C209.218 67.8886 209.251 68.0106 209.336 68.15L208.513 68.7398C208.422 68.6352 208.343 68.546 208.275 68.4719C208.206 68.3979 208.163 68.3369 208.144 68.289C207.972 68.0276 207.915 67.7762 207.973 67.5349C208.03 67.2935 208.142 67.1059 208.308 66.9719L208.876 66.5417C208.164 66.5135 207.477 66.3059 206.815 65.9187C206.163 65.5242 205.626 65.0322 205.204 64.4427C204.84 63.9345 204.615 63.3955 204.53 62.8259C204.463 62.2591 204.528 61.7278 204.727 61.2319C204.942 60.7389 205.274 60.3322 205.721 60.0118ZM208.923 65.7698C209.145 65.7797 209.344 65.7678 209.52 65.7341C209.696 65.7005 209.835 65.6472 209.936 65.5744L211.095 64.7444C210.98 64.3041 210.823 63.8705 210.625 63.4434C210.434 63.0266 210.204 62.6301 209.934 62.254C209.403 61.512 208.826 61.0178 208.203 60.7716C207.581 60.5253 207.016 60.5842 206.507 60.9483C206.213 61.1594 205.988 61.4359 205.833 61.7776C205.688 62.1121 205.634 62.4886 205.673 62.9072C205.721 63.3185 205.888 63.7223 206.171 64.1187C206.528 64.6168 206.956 65.0101 207.455 65.2987C207.961 65.5974 208.451 65.7544 208.923 65.7698Z" fill="white"/>
<path d="M209.544 70.1516L218.082 65.4005L218.72 66.5476L214.725 73.2139L222.505 73.3488L223.116 74.4468L214.578 79.198L213.985 78.1328L220.852 74.3117L213.794 74.2037L213.393 73.4826L217.003 67.3959L210.136 71.2169L209.544 70.1516Z" fill="white"/>
<path d="M215.914 81.9936L224.938 78.2955L225.421 79.4755L217.994 82.5194L227.693 84.9697L228.127 86.0282L219.085 89.7335L218.602 88.5534L225.908 85.5594L216.383 83.139L215.914 81.9936Z" fill="white"/>
</g>
<circle opacity="0.4" cx="19.0634" cy="141.379" r="2.30948" fill="white"/>
<circle opacity="0.4" cx="229.692" cy="108.121" r="2.30948" fill="white"/>
<path d="M101.67 106.758V108.356H89.3688V90.0472H101.437V91.646H91.174V98.2477H100.122V99.7691H91.174V106.758H101.67ZM103.433 108.434V106.835C103.897 106.835 104.31 106.715 104.671 106.474C105.032 106.216 105.35 105.786 105.625 105.185C105.917 104.583 106.149 103.758 106.321 102.709C106.493 101.643 106.605 100.293 106.656 98.6603L106.811 94.921H115.527V108.356H113.774V96.4941H108.358L108.307 98.815C108.238 100.672 108.092 102.228 107.868 103.483C107.645 104.72 107.327 105.7 106.914 106.422C106.519 107.144 106.029 107.66 105.444 107.97C104.86 108.279 104.189 108.434 103.433 108.434ZM125.206 108.614C124.244 108.614 123.35 108.434 122.524 108.073C121.699 107.695 120.986 107.187 120.384 106.551C119.782 105.898 119.31 105.15 118.966 104.308C118.639 103.465 118.476 102.563 118.476 101.6C118.476 100.345 118.759 99.1932 119.327 98.1445C119.911 97.0958 120.711 96.262 121.725 95.6431C122.739 95.007 123.891 94.6889 125.181 94.6889C126.504 94.6889 127.656 95.007 128.636 95.6431C129.633 96.2792 130.415 97.1216 130.983 98.1703C131.55 99.2018 131.834 100.336 131.834 101.574C131.834 101.712 131.834 101.849 131.834 101.987C131.834 102.107 131.825 102.202 131.808 102.271H120.307C120.393 103.233 120.659 104.093 121.106 104.849C121.57 105.589 122.163 106.182 122.885 106.629C123.625 107.058 124.424 107.273 125.284 107.273C126.16 107.273 126.986 107.05 127.759 106.603C128.55 106.156 129.1 105.571 129.41 104.849L130.931 105.262C130.656 105.898 130.235 106.474 129.668 106.99C129.1 107.505 128.43 107.909 127.656 108.202C126.9 108.477 126.083 108.614 125.206 108.614ZM120.255 101.007H130.183C130.115 100.027 129.848 99.1674 129.384 98.4282C128.937 97.6889 128.344 97.113 127.605 96.7004C126.883 96.2706 126.083 96.0557 125.206 96.0557C124.33 96.0557 123.53 96.2706 122.808 96.7004C122.086 97.113 121.493 97.6975 121.029 98.454C120.582 99.1932 120.324 100.044 120.255 101.007ZM134.513 108.356V94.921H136.267V100.697H143.952V94.921H145.705V108.356H143.952V102.271H136.267V108.356H134.513ZM148.491 104.488C148.491 103.646 148.731 102.924 149.213 102.322C149.694 101.703 150.356 101.23 151.198 100.904C152.058 100.56 153.046 100.388 154.164 100.388C154.817 100.388 155.496 100.44 156.201 100.543C156.906 100.646 157.534 100.801 158.084 101.007V99.8723C158.084 98.7376 157.748 97.835 157.078 97.1646C156.407 96.4941 155.479 96.1588 154.293 96.1588C153.571 96.1588 152.857 96.2964 152.152 96.5714C151.465 96.8293 150.743 97.2161 149.986 97.7319L149.316 96.4941C150.193 95.8924 151.052 95.4454 151.895 95.1531C152.737 94.8437 153.597 94.6889 154.473 94.6889C156.124 94.6889 157.43 95.1617 158.393 96.1073C159.356 97.0528 159.837 98.3594 159.837 100.027V106.242C159.837 106.483 159.889 106.663 159.992 106.783C160.095 106.887 160.258 106.947 160.482 106.964V108.356C160.293 108.374 160.129 108.391 159.992 108.408C159.854 108.425 159.751 108.425 159.682 108.408C159.253 108.391 158.926 108.253 158.703 107.995C158.479 107.738 158.359 107.462 158.342 107.17L158.316 106.19C157.714 106.964 156.932 107.566 155.969 107.995C155.006 108.408 154.026 108.614 153.029 108.614C152.17 108.614 151.387 108.434 150.683 108.073C149.995 107.695 149.453 107.196 149.058 106.577C148.68 105.941 148.491 105.245 148.491 104.488ZM157.491 105.52C157.68 105.279 157.826 105.047 157.929 104.824C158.032 104.6 158.084 104.402 158.084 104.23V102.271C157.499 102.047 156.889 101.875 156.253 101.755C155.634 101.634 155.006 101.574 154.37 101.574C153.115 101.574 152.101 101.824 151.327 102.322C150.554 102.821 150.167 103.5 150.167 104.359C150.167 104.858 150.296 105.331 150.554 105.778C150.812 106.207 151.19 106.568 151.688 106.861C152.187 107.136 152.771 107.273 153.442 107.273C154.284 107.273 155.066 107.11 155.789 106.783C156.528 106.457 157.095 106.036 157.491 105.52ZM72.9139 136.356V121.451L66.2865 133.03H65.1518L58.4986 121.451V136.356H56.6934V118.047H58.5501L65.6934 130.58L72.8881 118.047H74.7191V136.356H72.9139ZM77.738 132.488C77.738 131.646 77.9787 130.924 78.4601 130.322C78.9415 129.703 79.6033 129.23 80.4457 128.904C81.3053 128.56 82.2939 128.388 83.4113 128.388C84.0646 128.388 84.7437 128.44 85.4486 128.543C86.1534 128.646 86.7809 128.801 87.3311 129.007V127.872C87.3311 126.738 86.9958 125.835 86.3254 125.165C85.6549 124.494 84.7265 124.159 83.5403 124.159C82.8182 124.159 82.1048 124.296 81.3999 124.571C80.7122 124.829 79.9902 125.216 79.2337 125.732L78.5632 124.494C79.44 123.892 80.2996 123.445 81.142 123.153C81.9844 122.844 82.844 122.689 83.7208 122.689C85.3712 122.689 86.6778 123.162 87.6405 124.107C88.6033 125.053 89.0846 126.359 89.0846 128.027V134.242C89.0846 134.483 89.1362 134.663 89.2394 134.783C89.3425 134.887 89.5058 134.947 89.7293 134.964V136.356C89.5402 136.374 89.3769 136.391 89.2394 136.408C89.1018 136.425 88.9987 136.425 88.9299 136.408C88.5001 136.391 88.1735 136.253 87.95 135.995C87.7265 135.738 87.6061 135.462 87.589 135.17L87.5632 134.19C86.9614 134.964 86.1792 135.566 85.2165 135.995C84.2537 136.408 83.2738 136.614 82.2767 136.614C81.4171 136.614 80.6349 136.434 79.93 136.073C79.2423 135.695 78.7008 135.196 78.3054 134.577C77.9271 133.941 77.738 133.245 77.738 132.488ZM86.738 133.52C86.9271 133.279 87.0732 133.047 87.1763 132.824C87.2795 132.6 87.3311 132.402 87.3311 132.23V130.271C86.7466 130.047 86.1362 129.875 85.5001 129.755C84.8812 129.634 84.2537 129.574 83.6176 129.574C82.3626 129.574 81.3483 129.824 80.5747 130.322C79.8011 130.821 79.4142 131.5 79.4142 132.359C79.4142 132.858 79.5432 133.331 79.8011 133.778C80.0589 134.207 80.4372 134.568 80.9357 134.861C81.4343 135.136 82.0188 135.273 82.6893 135.273C83.5317 135.273 84.3139 135.11 85.036 134.783C85.7752 134.457 86.3425 134.036 86.738 133.52ZM92.8476 136.356V122.921H94.6012V128.672H96.6126L101.125 122.921H103.137L98.0052 129.445L103.782 136.356H101.719L96.6126 130.296H94.6012V136.356H92.8476ZM111.394 136.614C110.414 136.614 109.511 136.434 108.686 136.073C107.878 135.695 107.165 135.179 106.546 134.526C105.944 133.872 105.471 133.124 105.127 132.282C104.801 131.44 104.637 130.546 104.637 129.6C104.637 128.328 104.921 127.167 105.488 126.119C106.056 125.07 106.847 124.236 107.861 123.617C108.875 122.998 110.044 122.689 111.368 122.689C112.623 122.689 113.732 122.981 114.695 123.566C115.657 124.133 116.371 124.907 116.835 125.887L115.133 126.428C114.755 125.74 114.222 125.208 113.534 124.829C112.864 124.434 112.116 124.236 111.291 124.236C110.397 124.236 109.58 124.468 108.841 124.932C108.102 125.397 107.509 126.033 107.062 126.841C106.632 127.649 106.417 128.569 106.417 129.6C106.417 130.614 106.64 131.534 107.087 132.359C107.534 133.185 108.127 133.846 108.867 134.345C109.606 134.826 110.423 135.067 111.316 135.067C111.901 135.067 112.46 134.964 112.993 134.758C113.543 134.551 114.016 134.276 114.411 133.932C114.824 133.571 115.099 133.185 115.236 132.772L116.964 133.288C116.723 133.924 116.319 134.5 115.752 135.015C115.202 135.514 114.549 135.909 113.792 136.202C113.053 136.477 112.253 136.614 111.394 136.614ZM119.693 136.356V122.947H121.447V133.984L129.621 122.921H131.194V136.356H129.441V125.5L121.395 136.356H119.693ZM135.005 136.356V122.921H136.81L142.148 132.179L147.512 122.921H149.239V136.356H147.563V125.551L142.715 133.958H141.58L136.681 125.551V136.356H135.005ZM158.837 136.614C157.874 136.614 156.98 136.434 156.155 136.073C155.347 135.695 154.642 135.187 154.04 134.551C153.456 133.898 153 133.159 152.674 132.334C152.347 131.491 152.184 130.606 152.184 129.677C152.184 128.715 152.347 127.821 152.674 126.995C153 126.153 153.464 125.414 154.066 124.778C154.668 124.124 155.373 123.617 156.181 123.256C157.006 122.878 157.9 122.689 158.863 122.689C159.825 122.689 160.711 122.878 161.519 123.256C162.327 123.617 163.032 124.124 163.633 124.778C164.235 125.414 164.699 126.153 165.026 126.995C165.353 127.821 165.516 128.715 165.516 129.677C165.516 130.606 165.353 131.491 165.026 132.334C164.699 133.159 164.235 133.898 163.633 134.551C163.049 135.187 162.344 135.695 161.519 136.073C160.711 136.434 159.817 136.614 158.837 136.614ZM153.963 129.703C153.963 130.7 154.178 131.612 154.608 132.437C155.055 133.245 155.648 133.889 156.387 134.371C157.126 134.835 157.943 135.067 158.837 135.067C159.731 135.067 160.547 134.826 161.287 134.345C162.026 133.864 162.619 133.21 163.066 132.385C163.513 131.543 163.737 130.632 163.737 129.652C163.737 128.655 163.513 127.743 163.066 126.918C162.619 126.093 162.026 125.44 161.287 124.958C160.547 124.477 159.731 124.236 158.837 124.236C157.943 124.236 157.126 124.485 156.387 124.984C155.665 125.483 155.08 126.145 154.633 126.97C154.186 127.778 153.963 128.689 153.963 129.703ZM168.423 136.356V122.921H175.128C175.884 122.921 176.52 123.084 177.036 123.411C177.552 123.72 177.939 124.124 178.196 124.623C178.471 125.122 178.609 125.655 178.609 126.222C178.609 126.944 178.437 127.597 178.093 128.182C177.749 128.749 177.251 129.179 176.598 129.471C177.371 129.695 177.999 130.099 178.48 130.683C178.961 131.268 179.202 131.973 179.202 132.798C179.202 133.52 179.022 134.147 178.661 134.68C178.317 135.213 177.835 135.626 177.216 135.918C176.615 136.21 175.918 136.356 175.128 136.356H168.423ZM170.099 135.093H175.076C175.523 135.093 175.927 134.981 176.288 134.758C176.666 134.517 176.959 134.207 177.165 133.829C177.388 133.451 177.5 133.056 177.5 132.643C177.5 132.196 177.397 131.792 177.191 131.431C176.984 131.053 176.709 130.752 176.365 130.528C176.022 130.305 175.626 130.193 175.179 130.193H170.099V135.093ZM170.099 128.981H174.663C175.11 128.981 175.506 128.861 175.85 128.62C176.194 128.379 176.46 128.07 176.649 127.692C176.838 127.314 176.933 126.918 176.933 126.506C176.933 125.887 176.726 125.345 176.314 124.881C175.918 124.417 175.403 124.185 174.767 124.185H170.099V128.981ZM181.166 132.488C181.166 131.646 181.407 130.924 181.888 130.322C182.369 129.703 183.031 129.23 183.874 128.904C184.733 128.56 185.722 128.388 186.839 128.388C187.493 128.388 188.172 128.44 188.877 128.543C189.581 128.646 190.209 128.801 190.759 129.007V127.872C190.759 126.738 190.424 125.835 189.753 125.165C189.083 124.494 188.154 124.159 186.968 124.159C186.246 124.159 185.533 124.296 184.828 124.571C184.14 124.829 183.418 125.216 182.662 125.732L181.991 124.494C182.868 123.892 183.728 123.445 184.57 123.153C185.412 122.844 186.272 122.689 187.149 122.689C188.799 122.689 190.106 123.162 191.068 124.107C192.031 125.053 192.513 126.359 192.513 128.027V134.242C192.513 134.483 192.564 134.663 192.667 134.783C192.77 134.887 192.934 134.947 193.157 134.964V136.356C192.968 136.374 192.805 136.391 192.667 136.408C192.53 136.425 192.427 136.425 192.358 136.408C191.928 136.391 191.601 136.253 191.378 135.995C191.154 135.738 191.034 135.462 191.017 135.17L190.991 134.19C190.389 134.964 189.607 135.566 188.644 135.995C187.682 136.408 186.702 136.614 185.705 136.614C184.845 136.614 184.063 136.434 183.358 136.073C182.67 135.695 182.129 135.196 181.733 134.577C181.355 133.941 181.166 133.245 181.166 132.488ZM190.166 133.52C190.355 133.279 190.501 133.047 190.604 132.824C190.707 132.6 190.759 132.402 190.759 132.23V130.271C190.175 130.047 189.564 129.875 188.928 129.755C188.309 129.634 187.682 129.574 187.046 129.574C185.791 129.574 184.776 129.824 184.003 130.322C183.229 130.821 182.842 131.5 182.842 132.359C182.842 132.858 182.971 133.331 183.229 133.778C183.487 134.207 183.865 134.568 184.364 134.861C184.862 135.136 185.447 135.273 186.117 135.273C186.96 135.273 187.742 135.11 188.464 134.783C189.203 134.457 189.77 134.036 190.166 133.52Z" fill="white"/>
<path d="M88.3241 163.307L90.1292 154.757H96.9888L95.1672 163.307H94.0513L95.6759 155.643H91.0482L89.44 163.307H88.3241ZM100.952 163.471C100.263 163.471 99.6722 163.307 99.1799 162.978C98.6876 162.65 98.3102 162.213 98.0476 161.666C97.796 161.119 97.6702 160.511 97.6702 159.844C97.6702 159.155 97.8015 158.498 98.064 157.875C98.3266 157.24 98.6876 156.682 99.1471 156.201C99.6175 155.709 100.159 155.32 100.772 155.036C101.395 154.751 102.063 154.609 102.774 154.609C103.562 154.609 104.202 154.795 104.694 155.167C105.197 155.528 105.525 156.02 105.678 156.644L104.53 156.989C104.387 156.54 104.147 156.195 103.808 155.955C103.479 155.714 103.08 155.594 102.61 155.594C102.128 155.594 101.658 155.703 101.198 155.922C100.75 156.13 100.345 156.425 99.984 156.808C99.634 157.191 99.3495 157.629 99.1307 158.121C98.9228 158.613 98.8189 159.138 98.8189 159.696C98.8189 160.232 98.9119 160.708 99.0979 161.124C99.2948 161.54 99.5628 161.873 99.902 162.125C100.252 162.366 100.646 162.486 101.084 162.486C101.434 162.486 101.784 162.42 102.134 162.289C102.495 162.158 102.818 161.983 103.102 161.764C103.386 161.534 103.594 161.288 103.726 161.026L104.759 161.354C104.53 161.759 104.212 162.125 103.808 162.453C103.403 162.771 102.954 163.022 102.462 163.208C101.97 163.383 101.466 163.471 100.952 163.471ZM108.507 163.471C107.172 163.471 106.505 162.738 106.505 161.272C106.505 161.053 106.521 160.823 106.554 160.583C106.587 160.331 106.631 160.063 106.686 159.778L107.769 154.757H108.868L107.851 159.581C107.741 160.074 107.687 160.5 107.687 160.861C107.687 161.945 108.157 162.486 109.098 162.486C109.514 162.486 109.929 162.393 110.345 162.207C110.761 162.01 111.155 161.737 111.527 161.387C111.909 161.026 112.227 160.61 112.478 160.139L113.627 154.757H114.743L113.25 161.731C113.239 161.797 113.228 161.857 113.217 161.912C113.206 161.966 113.2 162.01 113.2 162.043C113.2 162.229 113.304 162.322 113.512 162.322L113.299 163.307C113.211 163.318 113.129 163.329 113.053 163.339C112.976 163.35 112.905 163.35 112.839 163.339C112.61 163.329 112.435 163.268 112.314 163.159C112.194 163.039 112.134 162.885 112.134 162.699C112.134 162.645 112.139 162.579 112.15 162.503C112.161 162.415 112.183 162.284 112.216 162.109C112.249 161.934 112.298 161.687 112.363 161.37C111.86 162.027 111.264 162.541 110.575 162.913C109.896 163.285 109.207 163.471 108.507 163.471ZM118.424 159.056L116.242 154.757H117.44L119.114 158.105L119.179 158.351L119.36 158.121L122.478 154.757H123.676L119.672 159.056L121.854 163.307H120.656L118.982 159.975L118.884 159.746L118.72 159.959L115.635 163.307H114.42L118.424 159.056ZM127.441 163.471C126.621 163.471 125.92 163.268 125.341 162.864C124.761 162.448 124.334 161.906 124.061 161.239C123.798 160.572 123.721 159.844 123.831 159.056C123.918 158.444 124.099 157.875 124.372 157.35C124.657 156.814 125.018 156.343 125.455 155.938C125.893 155.523 126.385 155.2 126.932 154.97C127.49 154.729 128.076 154.609 128.688 154.609C129.509 154.609 130.209 154.817 130.789 155.233C131.369 155.638 131.795 156.174 132.069 156.841C132.342 157.508 132.424 158.247 132.315 159.056C132.238 159.647 132.058 160.211 131.773 160.747C131.5 161.272 131.144 161.742 130.707 162.158C130.28 162.563 129.788 162.885 129.23 163.126C128.672 163.356 128.076 163.471 127.441 163.471ZM127.572 162.535C127.999 162.535 128.409 162.442 128.803 162.256C129.208 162.07 129.574 161.813 129.903 161.485C130.231 161.157 130.504 160.785 130.723 160.369C130.953 159.943 131.101 159.499 131.166 159.04C131.265 158.394 131.21 157.809 131.002 157.284C130.794 156.748 130.477 156.327 130.05 156.02C129.635 155.703 129.137 155.545 128.557 155.545C128.13 155.545 127.72 155.638 127.326 155.824C126.932 156.009 126.566 156.261 126.227 156.578C125.898 156.896 125.625 157.268 125.406 157.694C125.187 158.121 125.045 158.58 124.979 159.073C124.892 159.707 124.952 160.293 125.16 160.829C125.368 161.354 125.68 161.77 126.095 162.076C126.522 162.382 127.014 162.535 127.572 162.535ZM132.864 163.307C133.356 161.873 134.029 160.435 134.883 158.991C135.736 157.536 136.819 156.124 138.132 154.757H139.248L140.528 163.307H139.363L138.394 155.824C137.847 156.425 137.35 157.043 136.901 157.678C136.453 158.301 136.048 158.931 135.687 159.565C135.337 160.2 135.014 160.834 134.719 161.469C134.434 162.092 134.182 162.705 133.964 163.307H132.864ZM146.127 163.471C145.307 163.471 144.606 163.268 144.027 162.864C143.447 162.448 143.02 161.906 142.747 161.239C142.484 160.572 142.407 159.844 142.517 159.056C142.604 158.444 142.785 157.875 143.058 157.35C143.343 156.814 143.704 156.343 144.141 155.938C144.579 155.523 145.071 155.2 145.618 154.97C146.176 154.729 146.762 154.609 147.374 154.609C148.195 154.609 148.895 154.817 149.475 155.233C150.055 155.638 150.481 156.174 150.755 156.841C151.028 157.508 151.11 158.247 151.001 159.056C150.924 159.647 150.744 160.211 150.459 160.747C150.186 161.272 149.83 161.742 149.393 162.158C148.966 162.563 148.474 162.885 147.916 163.126C147.358 163.356 146.762 163.471 146.127 163.471ZM146.258 162.535C146.685 162.535 147.095 162.442 147.489 162.256C147.894 162.07 148.26 161.813 148.589 161.485C148.917 161.157 149.19 160.785 149.409 160.369C149.639 159.943 149.787 159.499 149.852 159.04C149.951 158.394 149.896 157.809 149.688 157.284C149.48 156.748 149.163 156.327 148.736 156.02C148.321 155.703 147.823 155.545 147.243 155.545C146.816 155.545 146.406 155.638 146.012 155.824C145.618 156.009 145.252 156.261 144.913 156.578C144.585 156.896 144.311 157.268 144.092 157.694C143.873 158.121 143.731 158.58 143.666 159.073C143.578 159.707 143.638 160.293 143.846 160.829C144.054 161.354 144.366 161.77 144.781 162.076C145.208 162.382 145.7 162.535 146.258 162.535ZM155.341 163.471C154.674 163.471 154.116 163.378 153.667 163.192C153.23 162.995 152.907 162.721 152.699 162.371C152.502 162.021 152.425 161.605 152.469 161.124C152.524 160.5 152.792 160.008 153.273 159.647C153.755 159.275 154.526 158.92 155.587 158.58C156.112 158.394 156.528 158.225 156.834 158.072C157.141 157.919 157.365 157.744 157.507 157.547C157.649 157.339 157.737 157.104 157.77 156.841C157.803 156.392 157.682 156.048 157.409 155.807C157.146 155.566 156.752 155.446 156.227 155.446C155.757 155.446 155.314 155.539 154.898 155.725C154.493 155.911 154.17 156.174 153.93 156.513L153.126 155.988C153.454 155.55 153.897 155.211 154.455 154.97C155.024 154.719 155.669 154.593 156.391 154.593C157.256 154.593 157.901 154.795 158.328 155.2C158.765 155.594 158.962 156.141 158.918 156.841C158.864 157.486 158.596 157.995 158.114 158.367C157.644 158.728 156.938 159.062 155.997 159.368C155.418 159.554 154.958 159.735 154.619 159.91C154.28 160.074 154.034 160.254 153.88 160.451C153.738 160.637 153.651 160.872 153.618 161.157C153.563 161.616 153.7 161.966 154.028 162.207C154.367 162.448 154.871 162.568 155.538 162.568C156.041 162.568 156.512 162.475 156.949 162.289C157.387 162.103 157.759 161.835 158.065 161.485L158.787 162.109C158.382 162.535 157.896 162.869 157.327 163.11C156.758 163.35 156.096 163.471 155.341 163.471Z" fill="white"/>
<defs>
<linearGradient id="paint0_linear_669_40" x1="151.905" y1="0.499998" x2="160.29" y2="179.825" gradientUnits="userSpaceOnUse">
<stop stop-color="#58A4C3"/>
<stop offset="1" stop-color="#97CCE1"/>
</linearGradient>
</defs>
</svg>
