<svg width="250" height="250" viewBox="0 0 250 250" fill="none" xmlns="http://www.w3.org/2000/svg">
<circle cx="125.078" cy="125.226" r="124.25" fill="url(#paint0_linear_674_976)"/>
<g opacity="0.5">
<path d="M226.764 132.072L225.602 132.028L225.841 125.824L227.003 125.869L226.906 128.399L237.794 128.82C237.648 128.701 237.486 128.526 237.308 128.294C237.141 128.075 236.976 127.818 236.812 127.524C236.66 127.231 236.534 126.932 236.433 126.628C236.333 126.323 236.287 126.046 236.297 125.796L237.496 125.843C237.483 126.18 237.557 126.521 237.719 126.865C237.894 127.209 238.088 127.53 238.302 127.826C238.527 128.135 238.731 128.38 238.911 128.563C239.104 128.758 239.206 128.862 239.218 128.875L239.168 130.168L226.856 129.692L226.764 132.072Z" fill="white"/>
<path d="M234.375 134.154C235.217 134.265 235.953 134.57 236.581 135.069C237.221 135.569 237.693 136.199 237.997 136.958C238.311 137.731 238.411 138.551 238.297 139.419C238.172 140.361 237.841 141.156 237.301 141.804C236.774 142.453 236.076 142.922 235.205 143.211C234.333 143.512 233.321 143.587 232.168 143.435C230.371 143.198 228.91 142.798 227.786 142.234C226.661 141.682 225.855 141.002 225.369 140.194C224.883 139.386 224.704 138.492 224.833 137.513C224.947 136.645 225.267 135.892 225.793 135.255C226.33 134.62 227.007 134.173 227.823 133.915L228.443 134.81C227.787 135.001 227.23 135.35 226.773 135.857C226.326 136.379 226.056 136.986 225.965 137.681C225.868 138.412 226.007 139.08 226.382 139.684C226.769 140.29 227.37 140.798 228.186 141.208C229.001 141.631 230.015 141.922 231.23 142.082C230.782 141.846 230.397 141.518 230.074 141.097C229.761 140.69 229.539 140.226 229.406 139.704C229.271 139.194 229.241 138.661 229.314 138.103C229.425 137.26 229.725 136.518 230.213 135.876C230.699 135.246 231.311 134.772 232.046 134.453C232.78 134.146 233.556 134.046 234.375 134.154ZM237.202 139.256C237.284 138.636 237.204 138.045 236.963 137.484C236.721 136.922 236.361 136.452 235.881 136.074C235.401 135.695 234.851 135.465 234.231 135.384C233.599 135.3 233.002 135.379 232.441 135.621C231.892 135.864 231.422 136.224 231.031 136.702C230.651 137.194 230.42 137.75 230.338 138.37C230.255 139.002 230.334 139.599 230.575 140.161C230.829 140.724 231.19 141.194 231.657 141.571C232.135 141.962 232.684 142.198 233.304 142.28C233.924 142.361 234.515 142.275 235.078 142.021C235.641 141.768 236.112 141.401 236.491 140.921C236.882 140.443 237.119 139.888 237.202 139.256Z" fill="white"/>
<path d="M222.767 148.886C222.956 148.121 223.254 147.461 223.662 146.904C224.069 146.348 224.546 145.931 225.091 145.654C225.636 145.376 226.218 145.262 226.836 145.312L227.34 146.247C226.921 146.17 226.474 146.233 225.998 146.438C225.535 146.645 225.118 146.98 224.746 147.442C224.372 147.917 224.1 148.494 223.933 149.173C223.783 149.78 223.751 150.352 223.838 150.889C223.934 151.44 224.129 151.901 224.425 152.27C224.729 152.654 225.13 152.907 225.628 153.03C226.162 153.162 226.659 153.104 227.119 152.857C227.592 152.613 228.007 152.207 228.366 151.639C228.725 151.07 229.01 150.361 229.219 149.512L229.372 148.893L230.446 149.158L230.294 149.777C230.003 150.954 229.968 151.931 230.189 152.706C230.41 153.482 230.909 153.966 231.686 154.157C232.196 154.283 232.673 154.253 233.118 154.066C233.56 153.892 233.942 153.6 234.262 153.189C234.579 152.791 234.803 152.325 234.935 151.791C235.133 150.99 235.126 150.26 234.915 149.603C234.703 148.946 234.365 148.437 233.9 148.078L234.949 147.429C235.329 147.767 235.626 148.182 235.84 148.672C236.05 149.175 236.175 149.714 236.213 150.29C236.248 150.879 236.194 151.464 236.05 152.047C235.847 152.872 235.508 153.568 235.033 154.133C234.556 154.711 234.005 155.116 233.381 155.348C232.755 155.593 232.095 155.63 231.403 155.459C230.918 155.339 230.505 155.134 230.164 154.844C229.836 154.557 229.584 154.193 229.41 153.751C229.248 153.311 229.167 152.802 229.169 152.223C228.919 152.766 228.584 153.212 228.163 153.559C227.74 153.918 227.269 154.156 226.751 154.273C226.242 154.405 225.714 154.403 225.168 154.269C224.439 154.089 223.867 153.722 223.449 153.169C223.029 152.627 222.757 151.981 222.634 151.229C222.522 150.48 222.567 149.699 222.767 148.886Z" fill="white"/>
<path d="M222.236 165.373C221.45 165.084 220.801 164.62 220.29 163.98C219.787 163.356 219.464 162.638 219.322 161.827C219.18 161.016 219.261 160.194 219.567 159.36C219.886 158.492 220.375 157.792 221.036 157.262C221.704 156.748 222.502 156.441 223.43 156.342C224.359 156.243 225.363 156.392 226.443 156.788C228.145 157.412 229.477 158.12 230.438 158.912C231.412 159.708 232.047 160.554 232.345 161.449C232.643 162.344 232.624 163.249 232.288 164.165C231.982 164.998 231.498 165.666 230.834 166.168C230.182 166.675 229.436 166.967 228.595 167.045L228.175 166.012C228.864 165.985 229.483 165.766 230.033 165.355C230.591 164.961 230.99 164.434 231.231 163.777C231.485 163.085 231.49 162.4 231.245 161.725C231 161.049 230.526 160.416 229.824 159.825C229.117 159.246 228.189 158.746 227.038 158.324C227.432 158.668 227.736 159.073 227.952 159.538C228.167 160.003 228.285 160.499 228.305 161.026C228.321 161.564 228.231 162.098 228.038 162.626C227.745 163.424 227.293 164.077 226.68 164.585C226.063 165.105 225.363 165.434 224.58 165.573C223.804 165.728 223.023 165.661 222.236 165.373ZM220.611 159.783C220.395 160.37 220.344 160.964 220.457 161.564C220.57 162.165 220.819 162.702 221.204 163.177C221.585 163.663 222.069 164.013 222.656 164.228C223.243 164.444 223.839 164.489 224.444 164.365C225.045 164.252 225.582 164.003 226.056 163.617C226.531 163.232 226.875 162.746 227.09 162.159C227.31 161.56 227.366 160.955 227.257 160.342C227.144 159.742 226.895 159.204 226.51 158.73C226.136 158.26 225.65 157.915 225.051 157.696C224.465 157.48 223.871 157.429 223.27 157.542C222.665 157.666 222.126 157.921 221.651 158.307C221.177 158.692 220.83 159.184 220.611 159.783Z" fill="white"/>
<path d="M213.801 168.036L216.79 169.684L216.708 169.832C216.569 170.084 216.519 170.356 216.558 170.649C216.596 170.941 216.762 171.275 217.054 171.651C217.347 172.027 217.8 172.448 218.414 172.915C219.038 173.388 219.856 173.924 220.867 174.525L223.202 175.921L220.132 181.488L212.577 177.321L211.943 178.47L208.955 176.821L209.507 175.82L211.494 176.916L215.245 170.117L213.258 169.021L213.801 168.036ZM215.775 171.524L213.193 176.204L219.746 179.818L221.648 176.37L220.197 175.505C219.197 174.911 218.383 174.368 217.753 173.878C217.129 173.406 216.659 172.975 216.345 172.588C216.035 172.217 215.845 171.862 215.775 171.524Z" fill="white"/>
<path d="M209.988 179.381L217.994 184.983L217.262 186.028L213.821 183.619L210.616 188.198L214.058 190.607L213.327 191.652L205.321 186.049L206.052 185.005L209.679 187.542L212.883 182.963L209.257 180.426L209.988 179.381Z" fill="white"/>
<path d="M200.846 191.125C201.306 190.597 201.832 190.193 202.424 189.913C203.025 189.641 203.644 189.492 204.281 189.465C204.926 189.447 205.562 189.545 206.188 189.759C206.807 189.982 207.38 190.323 207.908 190.783C208.596 191.382 209.092 192.088 209.397 192.9C209.693 193.721 209.768 194.558 209.624 195.41C209.488 196.27 209.112 197.054 208.497 197.761C207.865 198.487 207.14 198.967 206.323 199.201C205.498 199.444 204.662 199.471 203.816 199.281C202.98 199.1 202.222 198.714 201.543 198.122C201.467 198.057 201.392 197.991 201.316 197.925C201.25 197.868 201.203 197.818 201.173 197.776L206.666 191.467C206.096 191.055 205.498 190.79 204.869 190.674C204.242 190.576 203.634 190.618 203.044 190.8C202.455 191.001 201.955 191.337 201.545 191.808C201.126 192.289 200.854 192.848 200.73 193.486C200.598 194.133 200.656 194.714 200.904 195.229L199.951 195.866C199.733 195.412 199.619 194.906 199.607 194.348C199.595 193.791 199.693 193.23 199.902 192.666C200.113 192.12 200.427 191.606 200.846 191.125ZM207.383 192.042L202.642 197.488C203.212 197.918 203.811 198.183 204.438 198.281C205.057 198.389 205.656 198.339 206.236 198.13C206.816 197.939 207.316 197.604 207.735 197.123C208.153 196.642 208.417 196.101 208.526 195.499C208.645 194.906 208.607 194.302 208.414 193.686C208.222 193.088 207.879 192.54 207.383 192.042Z" fill="white"/>
<path d="M196.76 195.94L203.427 203.058L202.496 203.93L197.009 198.072L198.17 208.008L197.335 208.79L190.655 201.659L191.586 200.787L196.984 206.549L195.857 196.787L196.76 195.94ZM201.22 206.847C201.84 206.266 202.456 205.963 203.067 205.939C203.679 205.915 204.194 206.126 204.612 206.573L203.928 207.214C203.672 206.941 203.358 206.807 202.986 206.812C202.605 206.826 202.2 207.034 201.771 207.436C201.352 207.829 201.127 208.202 201.098 208.555C201.059 208.916 201.163 209.256 201.409 209.573L200.739 210.202C200.32 209.755 200.143 209.227 200.207 208.619C200.271 208.01 200.609 207.42 201.22 206.847Z" fill="white"/>
<path d="M185.41 205.867L190.954 213.914L184.483 218.372L178.939 210.326L179.989 209.602L184.884 216.706L189.255 213.695L184.36 206.591L185.41 205.867Z" fill="white"/>
<path d="M172.164 213.999C172.878 213.612 173.622 213.45 174.397 213.514C175.16 213.584 175.855 213.805 176.483 214.175L173.614 208.883L174.735 208.275L181.295 220.377L180.289 220.922L179.387 219.257C179.338 219.98 179.117 220.662 178.724 221.302C178.337 221.952 177.82 222.453 177.171 222.805C176.578 223.126 175.965 223.295 175.333 223.31C174.707 223.337 174.1 223.239 173.511 223.018C172.922 222.797 172.382 222.471 171.892 222.039C171.398 221.625 170.995 221.132 170.685 220.56C170.25 219.758 170.013 218.927 169.974 218.066C169.929 217.223 170.088 216.44 170.45 215.718C170.812 214.995 171.383 214.422 172.164 213.999ZM173.013 214.819C172.54 215.075 172.168 215.398 171.895 215.787C171.629 216.188 171.453 216.624 171.368 217.097C171.272 217.576 171.263 218.057 171.34 218.541C171.424 219.037 171.585 219.504 171.823 219.944C172.073 220.405 172.394 220.8 172.785 221.129C173.166 221.463 173.591 221.709 174.06 221.867C174.53 222.025 175.008 222.093 175.494 222.071C175.98 222.05 176.448 221.917 176.899 221.672C177.184 221.518 177.451 221.302 177.7 221.025C177.948 220.748 178.158 220.428 178.331 220.064C178.498 219.717 178.607 219.367 178.657 219.013C178.707 218.659 178.676 218.327 178.565 218.017L177.135 215.379C176.739 215.068 176.303 214.828 175.828 214.659C175.358 214.501 174.877 214.427 174.385 214.438C173.888 214.465 173.431 214.592 173.013 214.819Z" fill="white"/>
<path d="M168.184 219.439C168.416 220.006 168.454 220.558 168.296 221.096C168.142 221.645 167.827 222.146 167.35 222.598C166.867 223.066 166.249 223.455 165.497 223.763C165.057 223.943 164.586 224.096 164.083 224.221C163.581 224.346 163.116 224.414 162.688 224.427L163.001 225.191C163.314 225.955 163.789 226.469 164.425 226.736C165.061 227.002 165.778 226.972 166.577 226.644C167.062 226.445 167.505 226.156 167.903 225.777C168.295 225.413 168.674 224.954 169.041 224.398L169.833 225.046C169.409 225.693 168.954 226.231 168.468 226.66C167.986 227.1 167.45 227.442 166.86 227.683C165.75 228.139 164.74 228.181 163.831 227.81C162.923 227.439 162.239 226.693 161.779 225.57L160.065 221.388C159.998 221.226 159.914 221.119 159.811 221.066C159.713 221.025 159.587 221.03 159.432 221.08L159.048 220.143C159.17 220.079 159.275 220.023 159.363 219.973C159.451 219.924 159.52 219.895 159.571 219.888C159.865 219.781 160.123 219.783 160.345 219.895C160.566 220.007 160.723 220.159 160.815 220.351L161.103 221.003C161.294 220.317 161.655 219.696 162.184 219.141C162.718 218.598 163.321 218.189 163.992 217.914C164.57 217.677 165.147 217.583 165.72 217.631C166.288 217.696 166.789 217.882 167.226 218.19C167.656 218.514 167.975 218.93 168.184 219.439ZM161.843 221.227C161.782 221.441 161.748 221.637 161.74 221.816C161.732 221.995 161.752 222.142 161.8 222.258L162.34 223.577C162.795 223.566 163.253 223.514 163.714 223.419C164.164 223.329 164.603 223.197 165.031 223.021C165.876 222.675 166.489 222.228 166.873 221.679C167.256 221.13 167.329 220.566 167.092 219.988C166.954 219.653 166.737 219.37 166.44 219.14C166.148 218.922 165.794 218.783 165.378 218.724C164.967 218.677 164.535 218.745 164.084 218.93C163.517 219.163 163.036 219.488 162.64 219.907C162.233 220.331 161.967 220.771 161.843 221.227Z" fill="white"/>
<path d="M157.363 220.714L160.168 230.074L158.946 230.44L157.746 226.433L156.344 226.853L154.401 231.802L153 232.222L155.213 226.605L149.746 222.996L151.183 222.566L156.005 225.721L157.406 225.302L156.141 221.08L157.363 220.714Z" fill="white"/>
<path d="M145.587 223.882L147.3 232.337L150.719 231.644L150.946 232.766L142.858 234.405L142.631 233.283L146.05 232.591L144.337 224.135L145.587 223.882Z" fill="white"/>
<path d="M139.374 225.069L140.388 234.768L139.119 234.901L138.285 226.917L133.208 235.537L132.07 235.656L131.055 225.938L132.323 225.805L133.144 233.658L138.143 225.197L139.374 225.069Z" fill="white"/>
<path d="M128.503 236.514V226.742H127.227V230.925H125.765L122.483 226.742H121.02L124.752 231.487L120.551 236.514H122.051L125.765 232.106H127.227V236.514H128.503Z" fill="white"/>
<path d="M118.664 225.952L117.725 235.659L116.456 235.536L117.228 227.547L110.536 234.983L109.397 234.873L110.338 225.147L111.607 225.27L110.847 233.129L117.432 225.833L118.664 225.952Z" fill="white"/>
<path d="M99.6719 222.758C100.364 222.929 100.97 223.214 101.49 223.612C101.994 224.02 102.408 224.509 102.731 225.078C103.042 225.644 103.246 226.254 103.342 226.909C103.426 227.561 103.386 228.22 103.221 228.888C102.999 229.786 102.597 230.556 102.014 231.198C101.43 231.84 100.727 232.291 99.9027 232.551C99.0787 232.811 98.1993 232.826 97.2646 232.596C96.3784 232.377 95.6463 231.977 95.0683 231.397C94.4874 230.829 94.1183 230.158 93.9613 229.385L95.2574 229.3C95.4047 229.851 95.6882 230.32 96.1078 230.707C96.5124 231.103 97.006 231.373 97.5887 231.517C98.2199 231.672 98.837 231.651 99.4398 231.452C100.043 231.253 100.572 230.907 101.029 230.414C101.473 229.918 101.785 229.306 101.964 228.578C102.141 227.862 102.144 227.173 101.972 226.513C101.8 225.852 101.496 225.282 101.061 224.801C100.623 224.332 100.088 224.02 99.457 223.864C99.0443 223.763 98.6318 223.738 98.2196 223.791C97.7952 223.841 97.4134 223.953 97.0743 224.127C96.7201 224.31 96.4585 224.535 96.2895 224.802L95.1594 224.137C95.4401 223.73 95.8257 223.394 96.3161 223.128C96.7914 222.872 97.3216 222.707 97.9066 222.632C98.4765 222.566 99.0649 222.609 99.6719 222.758Z" fill="white"/>
<path d="M90.1784 220.098L86.5409 229.167L85.3572 228.693L86.9141 224.811L85.5564 224.266L80.9533 226.926L79.5956 226.382L84.8259 223.367L82.7979 217.138L84.1905 217.697L85.9963 223.17L87.354 223.714L88.9947 219.624L90.1784 220.098Z" fill="white"/>
<path d="M82.0757 216.774L81.533 217.803C81.2344 217.645 80.9282 217.582 80.6143 217.615C80.2945 217.658 79.9441 217.827 79.5629 218.12C79.1706 218.408 78.7412 218.86 78.2747 219.476C77.8023 220.103 77.2723 220.933 76.6847 221.966L75.3159 224.319L69.7097 221.36L74.2704 212.719L75.3983 213.314L71.3715 220.944L74.8547 222.782L75.6757 221.307C76.3502 220.136 76.9723 219.185 77.5421 218.453C78.106 217.733 78.6433 217.211 79.1537 216.886C79.6532 216.556 80.1434 216.391 80.6244 216.39C81.1054 216.389 81.5892 216.518 82.0757 216.774Z" fill="white"/>
<path d="M71.9261 211.351L66.5111 219.462L65.4504 218.754L69.9074 212.078L60.4954 215.468L59.544 214.833L64.9694 206.706L66.0301 207.415L61.646 213.981L70.8966 210.664L71.9261 211.351Z" fill="white"/>
<path d="M60.0202 202.496C60.5582 202.944 60.9737 203.461 61.2668 204.047C61.5519 204.642 61.7146 205.258 61.7547 205.893C61.7869 206.538 61.703 207.176 61.503 207.807C61.2934 208.43 60.9646 209.01 60.5165 209.548C59.9323 210.249 59.2377 210.761 58.4325 211.083C57.6177 211.397 56.7829 211.491 55.928 211.365C55.0651 211.248 54.2734 210.889 53.5529 210.289C52.8131 209.673 52.3175 208.959 52.066 208.148C51.8049 207.328 51.7599 206.493 51.931 205.643C52.0941 204.803 52.4637 204.037 53.0398 203.345C53.1039 203.268 53.1679 203.191 53.2319 203.114C53.2879 203.047 53.3367 202.998 53.3783 202.968L59.8054 208.321C60.2055 207.743 60.4567 207.139 60.559 206.508C60.6437 205.879 60.5883 205.271 60.3929 204.686C60.1799 204.101 59.8332 203.609 59.3528 203.209C58.8629 202.801 58.2977 202.542 57.6573 202.431C57.0073 202.313 56.4279 202.384 55.9188 202.643L55.2607 201.704C55.7105 201.477 56.2139 201.351 56.771 201.327C57.3281 201.303 57.8908 201.389 58.4592 201.586C59.0099 201.784 59.5303 202.088 60.0202 202.496ZM59.2461 209.051L53.698 204.43C53.2803 205.01 53.0291 205.614 52.9444 206.243C52.8501 206.864 52.9135 207.462 53.1345 208.037C53.338 208.613 53.6847 209.105 54.1746 209.514C54.6646 209.922 55.2114 210.174 55.8149 210.27C56.4104 210.375 57.014 210.325 57.6254 210.118C58.2193 209.913 58.7595 209.557 59.2461 209.051Z" fill="white"/>
<path d="M55.1297 198.515L48.1455 205.349L47.2536 204.437L50.2564 201.499L46.3477 197.504L43.3449 200.442L42.453 199.531L49.4372 192.697L50.3291 193.609L47.1655 196.704L51.0741 200.699L54.2378 197.604L55.1297 198.515Z" fill="white"/>
<path d="M46.2097 188.812L39.4814 194.212L41.6649 196.933L40.7726 197.649L35.6075 191.213L36.4997 190.497L38.6832 193.217L45.4114 187.818L46.2097 188.812Z" fill="white"/>
<path d="M40.3822 186.01C39.8714 186.348 39.3369 186.492 38.7788 186.442C38.2102 186.399 37.6577 186.187 37.1214 185.808C36.5677 185.425 36.0664 184.894 35.6177 184.217C35.3553 183.821 35.1139 183.388 34.8933 182.919C34.6728 182.451 34.5146 182.008 34.4188 181.592L33.7308 182.047C33.0428 182.503 32.6302 183.069 32.4929 183.744C32.3556 184.42 32.5252 185.118 33.0016 185.837C33.2916 186.275 33.6615 186.652 34.1113 186.969C34.5439 187.282 35.0684 187.565 35.6849 187.816L35.2036 188.72C34.4867 188.43 33.8704 188.088 33.3549 187.695C32.829 187.309 32.3899 186.849 32.0378 186.318C31.375 185.317 31.137 184.335 31.3237 183.372C31.5103 182.408 32.1093 181.592 33.1204 180.922L36.8887 178.426C37.0346 178.329 37.1234 178.226 37.1549 178.115C37.176 178.011 37.1469 177.887 37.0676 177.745L37.9119 177.186C37.9983 177.294 38.0743 177.386 38.14 177.462C38.2056 177.539 38.2471 177.601 38.2643 177.65C38.4264 177.917 38.4742 178.171 38.4076 178.41C38.341 178.649 38.2226 178.832 38.0522 178.96L37.4684 179.369C38.1792 179.423 38.8581 179.656 39.5054 180.067C40.1422 180.485 40.6608 180.996 41.0613 181.601C41.4065 182.122 41.6112 182.669 41.6753 183.241C41.7222 183.81 41.6373 184.339 41.4209 184.827C41.1871 185.312 40.8409 185.706 40.3822 186.01ZM37.3933 180.139C37.1714 180.121 36.972 180.125 36.7951 180.153C36.6181 180.18 36.4775 180.228 36.3733 180.297L35.185 181.084C35.2842 181.528 35.425 181.967 35.6075 182.401C35.7831 182.825 35.9986 183.23 36.2541 183.615C36.7581 184.376 37.3166 184.891 37.9296 185.16C38.5426 185.429 39.1097 185.391 39.6309 185.045C39.9332 184.845 40.168 184.577 40.3355 184.241C40.4925 183.912 40.5595 183.538 40.5365 183.118C40.5031 182.706 40.3517 182.296 40.0825 181.889C39.7442 181.379 39.331 180.97 38.843 180.663C38.348 180.346 37.8648 180.171 37.3933 180.139Z" fill="white"/>
<path d="M36.9902 175.784L28.2821 180.216L27.6866 179.046L31.9259 172.532L24.156 172.11L23.586 170.99L32.2941 166.557L32.8471 167.644L25.8439 171.208L32.8921 171.577L33.2664 172.313L29.434 178.262L36.4372 174.697L36.9902 175.784Z" fill="white"/>
<path d="M31.1905 163.974L22.0469 167.366L21.6033 166.17L29.1292 163.378L19.518 160.602L19.1202 159.53L28.2814 156.131L28.7249 157.327L21.3221 160.073L30.76 162.813L31.1905 163.974Z" fill="white"/>
<path d="M22.3111 121.307L23.4738 121.312L23.4499 127.519L22.2871 127.515L22.2969 124.983L11.4005 124.941C11.5501 125.054 11.7182 125.224 11.9049 125.449C12.0791 125.663 12.2532 125.913 12.4271 126.202C12.5885 126.49 12.7249 126.784 12.8363 127.085C12.9477 127.385 13.0029 127.66 13.0019 127.91L11.8016 127.906C11.8029 127.568 11.7167 127.23 11.543 126.892C11.3567 126.554 11.1516 126.24 10.9277 125.952C10.6913 125.651 10.4797 125.413 10.2928 125.237C10.0935 125.048 9.98757 124.948 9.97512 124.935L9.98011 123.641L22.3019 123.689L22.3111 121.307Z" fill="white"/>
<path d="M14.6562 119.04C13.8103 118.955 13.0658 118.672 12.4229 118.193C11.7675 117.712 11.2765 117.098 10.9497 116.348C10.6117 115.586 10.4866 114.769 10.5742 113.898C10.6693 112.952 10.9764 112.148 11.4956 111.484C12.0023 110.818 12.6862 110.328 13.5473 110.012C14.4097 109.684 15.4193 109.579 16.5763 109.695C18.3802 109.876 19.8524 110.232 20.9929 110.761C22.1347 111.278 22.961 111.933 23.4719 112.726C23.9828 113.519 24.1888 114.407 24.0899 115.389C24.0023 116.26 23.7058 117.022 23.2003 117.675C22.6824 118.326 22.0196 118.794 21.212 119.077L20.565 118.201C21.2145 117.99 21.7603 117.624 22.2022 117.103C22.633 116.569 22.8834 115.953 22.9535 115.256C23.0273 114.522 22.8678 113.859 22.4751 113.267C22.0698 112.673 21.453 112.184 20.6247 111.799C19.7976 111.401 18.7744 111.141 17.5553 111.019C18.0105 111.24 18.4059 111.557 18.7416 111.967C19.0661 112.364 19.3028 112.822 19.4518 113.339C19.6021 113.845 19.649 114.377 19.5927 114.937C19.5076 115.783 19.231 116.534 18.7628 117.191C18.2959 117.835 17.6997 118.328 16.9742 118.67C16.2499 118.999 15.4773 119.122 14.6562 119.04ZM11.6733 114.027C11.6107 114.649 11.7086 115.237 11.9671 115.791C12.2255 116.345 12.6004 116.803 13.0916 117.167C13.5828 117.531 14.1394 117.744 14.7614 117.806C15.3959 117.87 15.99 117.773 16.5438 117.514C17.0851 117.255 17.5438 116.88 17.9198 116.39C18.2846 115.886 18.4983 115.323 18.5609 114.701C18.6247 114.067 18.5274 113.473 18.2689 112.919C17.998 112.364 17.6232 111.905 17.1444 111.543C16.6545 111.167 16.0985 110.948 15.4764 110.885C14.8544 110.822 14.2659 110.927 13.7109 111.198C13.1558 111.468 12.6965 111.849 12.333 112.341C11.957 112.831 11.7371 113.393 11.6733 114.027Z" fill="white"/>
<path d="M25.7241 104.326C25.5617 105.097 25.2864 105.767 24.8981 106.337C24.5097 106.907 24.048 107.34 23.5128 107.636C22.9777 107.933 22.4001 108.066 21.78 108.038L21.2449 107.12C21.666 107.184 22.1107 107.105 22.5789 106.884C23.0348 106.66 23.4405 106.311 23.796 105.837C24.1541 105.35 24.4052 104.764 24.5495 104.079C24.6784 103.467 24.6903 102.895 24.5854 102.362C24.4708 101.814 24.2596 101.36 23.9519 101.002C23.6344 100.628 23.2249 100.388 22.7233 100.283C22.1849 100.169 21.69 100.244 21.2386 100.507C20.775 100.767 20.3734 101.187 20.034 101.767C19.6946 102.347 19.4348 103.066 19.2544 103.922L19.123 104.546L18.0402 104.318L18.1716 103.694C18.4215 102.507 18.4229 101.53 18.1757 100.763C17.9285 99.995 17.4133 99.5287 16.6303 99.3638C16.1165 99.2556 15.6403 99.3022 15.2017 99.5038C14.7658 99.6931 14.3948 99.9983 14.0889 100.419C13.7856 100.828 13.5772 101.302 13.4639 101.84C13.2938 102.648 13.3256 103.376 13.5593 104.026C13.793 104.676 14.1485 105.172 14.6256 105.516L13.5997 106.2C13.2082 105.875 12.8973 105.471 12.6668 104.988C12.4388 104.493 12.2959 103.958 12.238 103.384C12.1827 102.797 12.2168 102.21 12.3405 101.623C12.5157 100.791 12.8307 100.084 13.2853 99.5027C13.7426 98.909 14.279 98.4853 14.8946 98.2316C15.5129 97.9657 16.1706 97.9062 16.868 98.0531C17.3574 98.1561 17.7773 98.3468 18.1275 98.625C18.4656 98.9006 18.7293 99.2564 18.9186 99.6924C19.0956 100.126 19.1934 100.632 19.2121 101.211C19.4433 100.659 19.763 100.202 20.1713 99.8412C20.5822 99.4678 21.0446 99.2138 21.5584 99.0792C22.0627 98.9299 22.5901 98.9132 23.1406 99.0291C23.8747 99.1837 24.4597 99.5305 24.8956 100.07C25.3341 100.596 25.628 101.233 25.7774 101.98C25.9145 102.725 25.8967 103.507 25.7241 104.326Z" fill="white"/>
<path d="M25.6577 87.8427C26.4535 88.1043 27.1176 88.5463 27.65 89.1688C28.1745 89.7755 28.5214 90.4818 28.6908 91.2877C28.8602 92.0936 28.8063 92.9182 28.5291 93.7615C28.2402 94.6405 27.7746 95.3561 27.1325 95.9084C26.4823 96.4448 25.6949 96.7783 24.7702 96.9086C23.8456 97.039 22.8369 96.9246 21.7441 96.5654C20.0218 95.9992 18.6668 95.3367 17.6791 94.5777C16.6796 93.8148 16.0159 92.9912 15.688 92.1069C15.3601 91.2226 15.3484 90.3172 15.6529 89.3907C15.9301 88.5474 16.3919 87.8634 17.0381 87.3388C17.6725 86.8103 18.4086 86.4929 19.2464 86.3867L19.7013 87.4049C19.0136 87.4552 18.4017 87.6949 17.8658 88.1242C17.3219 88.5377 16.9406 89.077 16.7219 89.7421C16.4916 90.4429 16.5102 91.1269 16.7779 91.794C17.0456 92.4611 17.5404 93.0778 18.2624 93.6441C18.9883 94.1986 19.9332 94.6672 21.0973 95.0498C20.6926 94.7194 20.3746 94.3253 20.1434 93.8676C19.9122 93.4099 19.7777 92.9182 19.7399 92.3925C19.706 91.8549 19.7769 91.3189 19.9526 90.7844C20.2181 89.9767 20.6483 89.3087 21.2431 88.7803C21.8419 88.2401 22.5304 87.8873 23.3086 87.722C24.0788 87.5408 24.8619 87.5811 25.6577 87.8427ZM27.4718 93.3745C27.6671 92.7806 27.6982 92.1854 27.5652 91.5889C27.4323 90.9924 27.1652 90.4637 26.7639 90.0028C26.3665 89.53 25.8709 89.196 25.277 89.0008C24.6831 88.8055 24.086 88.7803 23.4856 88.9252C22.8891 89.0581 22.3604 89.3253 21.8995 89.7265C21.4385 90.1278 21.1105 90.6254 20.9152 91.2192C20.7161 91.825 20.6811 92.4321 20.8101 93.0404C20.9431 93.6369 21.2102 94.1656 21.6115 94.6266C22.0009 95.0836 22.4984 95.4117 23.1042 95.6108C23.6981 95.806 24.2933 95.8372 24.8898 95.7042C25.4902 95.5594 26.0208 95.2863 26.4817 94.885C26.9427 94.4838 27.2727 93.9803 27.4718 93.3745Z" fill="white"/>
<path d="M33.943 84.9806L30.901 83.4322L30.9776 83.2818C31.108 83.0255 31.1491 82.7518 31.1009 82.4607C31.0527 82.1696 30.8761 81.8412 30.5712 81.4755C30.2662 81.1099 29.7994 80.704 29.1708 80.2577C28.531 79.8058 27.6959 79.2965 26.6654 78.73L24.2844 77.4129L27.1684 71.7467L34.8569 75.6601L35.4525 74.4901L38.4944 76.0385L37.9755 77.058L35.9531 76.0286L32.431 82.9483L34.4535 83.9777L33.943 84.9806ZM31.8539 81.5602L34.2784 76.7967L27.6095 73.4022L25.8229 76.9122L27.3017 77.728C28.321 78.2889 29.1532 78.8037 29.7985 79.2725C30.4383 79.7244 30.9218 80.1388 31.249 80.5158C31.5708 80.876 31.7724 81.2241 31.8539 81.5602Z" fill="white"/>
<path d="M37.4466 73.3463L29.2608 68.0105L29.9572 66.9421L33.4766 69.2362L36.5286 64.5542L33.0092 62.2601L33.7056 61.1917L41.8913 66.5275L41.1949 67.5958L37.487 65.1789L34.435 69.8609L38.143 72.2779L37.4466 73.3463Z" fill="white"/>
<path d="M45.8991 61.6346C45.4589 62.179 44.948 62.6021 44.3665 62.9037C43.7752 63.1974 43.1622 63.369 42.5273 63.4184C41.8827 63.4599 41.2436 63.3853 40.6099 63.1946C39.9842 62.9941 39.399 62.6737 38.8546 62.2335C38.1448 61.6596 37.6231 60.9725 37.2895 60.1721C36.9637 59.362 36.8577 58.5286 36.9715 57.672C37.0756 56.8075 37.4225 56.0106 38.0121 55.2814C38.6174 54.5328 39.324 54.0268 40.1318 53.7635C40.9475 53.4905 41.7816 53.4333 42.6341 53.592C43.4769 53.7429 44.2483 54.1013 44.9483 54.6673C45.0261 54.7302 45.1039 54.7931 45.1816 54.856C45.2497 54.911 45.2992 54.9591 45.3303 55.0003L40.071 61.5046C40.6548 61.8963 41.2627 62.1386 41.8949 62.2317C42.5253 62.3073 43.1319 62.2431 43.7149 62.0391C44.296 61.8176 44.7831 61.4638 45.1761 60.9776C45.5771 60.4818 45.828 59.9129 45.929 59.271C46.0378 58.6194 45.9588 58.041 45.692 57.5358L46.6211 56.864C46.855 57.3104 46.9881 57.812 47.0204 58.3687C47.0526 58.9254 46.9745 59.4893 46.786 60.0604C46.5957 60.614 46.3 61.1387 45.8991 61.6346ZM39.3328 60.956L43.8728 55.3412C43.2871 54.932 42.6792 54.6897 42.0488 54.6141C41.4264 54.5289 40.8294 54.6009 40.2581 54.8303C39.6848 55.0421 39.1977 55.396 38.7968 55.8918C38.3959 56.3877 38.1519 56.938 38.0647 57.5429C37.9679 58.1399 38.0272 58.7427 38.2428 59.3511C38.4565 59.9419 38.8198 60.4769 39.3328 60.956Z" fill="white"/>
<path d="M49.9671 56.4702L43.0711 49.5742L43.9729 48.6724L49.6488 54.3483L48.1635 44.4552L48.9725 43.6462L55.8818 50.5555L54.98 51.4573L49.3968 45.8742L50.8424 55.5949L49.9671 56.4702ZM45.1531 45.715C44.5519 46.3162 43.9463 46.6389 43.3363 46.6831C42.7263 46.7274 42.2046 46.5328 41.7714 46.0996L42.4345 45.4366C42.6997 45.7018 43.018 45.8256 43.3893 45.8079C43.7695 45.7814 44.1674 45.5603 44.5829 45.1448C44.9896 44.7381 45.2018 44.3579 45.2194 44.0043C45.246 43.6418 45.131 43.3059 44.8746 42.9964L45.5245 42.3466C45.9577 42.7798 46.1522 43.3014 46.108 43.9115C46.0638 44.5215 45.7455 45.1227 45.1531 45.715Z" fill="white"/>
<path d="M61.1233 46.0065L55.3179 38.1469L61.6387 33.478L67.4442 41.3376L66.4184 42.0953L61.2926 35.1559L57.0234 38.3094L62.1492 45.2488L61.1233 46.0065Z" fill="white"/>
<path d="M73.6487 37.6951C72.9474 38.1059 72.2089 38.2922 71.433 38.254C70.6679 38.2095 69.9656 38.0123 69.3259 37.6625L72.3689 42.8571L71.2684 43.5017L64.3104 31.6237L65.2976 31.0454L66.255 32.6799C66.2798 31.9553 66.4779 31.2669 66.8493 30.6146C67.2144 29.9516 67.7152 29.4336 68.3517 29.0607C68.9343 28.7195 69.541 28.5307 70.1718 28.4945C70.7963 28.4474 71.4067 28.5246 72.0028 28.726C72.599 28.9274 73.149 29.2356 73.6529 29.6504C74.1612 30.0482 74.5797 30.5276 74.9083 31.0886C75.3696 31.8762 75.6344 32.6992 75.7025 33.5576C75.7752 34.399 75.6425 35.1867 75.3046 35.9209C74.9666 36.655 74.4146 37.2464 73.6487 37.6951ZM72.7724 36.9042C73.2363 36.6325 73.598 36.2975 73.8573 35.8992C74.1104 35.4901 74.2716 35.048 74.3409 34.5726C74.421 34.091 74.4143 33.6095 74.3207 33.1282C74.2208 32.636 74.0445 32.1742 73.7917 31.7427C73.5262 31.2896 73.1925 30.9054 72.7906 30.5903C72.3994 30.2688 71.9665 30.0369 71.492 29.8947C71.0174 29.7525 70.5376 29.7002 70.0526 29.738C69.5675 29.7758 69.1039 29.9243 68.6615 30.1834C68.381 30.3477 68.1214 30.5723 67.8825 30.8571C67.6436 31.1419 67.4439 31.469 67.2835 31.8383C67.1276 32.1905 67.0306 32.5443 66.9925 32.8999C66.9545 33.2555 66.996 33.5862 67.1172 33.8919L68.6339 36.4812C69.0403 36.7792 69.484 37.0047 69.9649 37.1578C70.4394 37.3 70.9224 37.3576 71.4138 37.3306C71.9096 37.2865 72.3625 37.1444 72.7724 36.9042Z" fill="white"/>
<path d="M77.792 31.9021C77.5408 31.3433 77.4851 30.7926 77.625 30.2499C77.7597 29.6958 78.0577 29.1849 78.5191 28.717C78.9867 28.2325 79.5912 27.8237 80.3324 27.4904C80.7657 27.2956 81.2316 27.1273 81.7299 26.9855C82.2282 26.8437 82.6905 26.7592 83.117 26.732L82.7786 25.9794C82.4402 25.2267 81.9487 24.728 81.304 24.4832C80.6593 24.2384 79.9435 24.2929 79.1567 24.6467C78.6777 24.862 78.2455 25.166 77.86 25.5587C77.4807 25.9348 77.1171 26.4068 76.7692 26.9745L75.9553 26.3534C76.3574 25.6927 76.7943 25.1399 77.2659 24.6948C77.7324 24.2383 78.2564 23.8793 78.838 23.6179C79.9328 23.1257 80.9404 23.0496 81.861 23.3897C82.7816 23.7298 83.4906 24.4529 83.9879 25.559L85.8413 29.6814C85.9131 29.8411 86.0012 29.9454 86.1055 29.9945C86.2047 30.0321 86.3309 30.0234 86.4843 29.9681L86.8996 30.8918C86.7793 30.9596 86.6761 31.0197 86.59 31.0721C86.5039 31.1245 86.4355 31.1553 86.3847 31.1644C86.0945 31.2812 85.8368 31.2874 85.6117 31.183C85.3865 31.0786 85.2247 30.932 85.1261 30.7433L84.8167 30.101C84.6483 30.7936 84.3089 31.426 83.7985 31.9982C83.2829 32.559 82.6945 32.9881 82.0331 33.2854C81.4629 33.5418 80.8902 33.6553 80.315 33.6261C79.746 33.5803 79.2381 33.4111 78.7913 33.1185C78.3507 32.8093 78.0176 32.4039 77.792 31.9021ZM84.0694 29.9023C84.1231 29.6863 84.1508 29.4887 84.1526 29.3097C84.1543 29.1307 84.1296 28.9842 84.0783 28.8702L83.4938 27.5702C83.0394 27.5962 82.5834 27.6642 82.1255 27.7741C81.6791 27.8788 81.2449 28.0261 80.823 28.2158C79.9905 28.59 79.3921 29.0579 79.0276 29.6193C78.6631 30.1807 78.6091 30.7465 78.8654 31.3167C79.0141 31.6474 79.2406 31.9226 79.545 32.1421C79.8442 32.3503 80.2028 32.477 80.6206 32.5222C81.0334 32.556 81.4621 32.4729 81.9068 32.2729C82.4656 32.0217 82.9358 31.6801 83.3173 31.2481C83.7102 30.8109 83.9609 30.3623 84.0694 29.9023Z" fill="white"/>
<path d="M88.6742 30.2094L85.553 20.9501L86.7615 20.5427L88.0975 24.5059L89.4837 24.0386L91.2579 19.027L92.6441 18.5598L90.6231 24.2483L96.2096 27.6693L94.7878 28.1485L89.8611 25.1583L88.4749 25.6255L89.8827 29.802L88.6742 30.2094Z" fill="white"/>
<path d="M100.035 26.7157L98.0324 18.3241L94.6393 19.1338L94.3737 18.021L102.4 16.1056L102.666 17.2184L99.2729 18.0281L101.275 26.4196L100.035 26.7157Z" fill="white"/>
<path d="M106.003 25.3189L104.655 15.6601L105.918 15.4838L107.028 23.4338L111.804 14.6434L112.937 14.4853L114.288 24.1627L113.025 24.339L111.933 16.519L107.229 25.1478L106.003 25.3189Z" fill="white"/>
<path d="M116.597 23.9467L116.22 14.1828L117.494 14.1336L117.656 18.3128L119.117 18.2563L122.236 13.9505L123.697 13.8941L120.151 18.7795L124.543 23.6399L123.044 23.6978L119.163 19.437L117.701 19.4934L117.871 23.8975L116.597 23.9467Z" fill="white"/>
<path d="M127.002 23.647L127.641 13.9155L128.914 13.9991L128.388 22.0088L134.847 14.37L135.989 14.445L135.349 24.1952L134.076 24.1116L134.594 16.2329L128.237 23.7281L127.002 23.647Z" fill="white"/>
<path d="M145.682 26.0972C144.985 25.9504 144.369 25.6866 143.836 25.306C143.318 24.9157 142.888 24.4418 142.545 23.8841C142.215 23.329 141.99 22.7259 141.872 22.0749C141.766 21.4264 141.783 20.7657 141.925 20.0928C142.116 19.1874 142.492 18.4041 143.053 17.7428C143.613 17.0815 144.301 16.6067 145.116 16.3182C145.93 16.0298 146.809 15.9848 147.751 16.1832C148.644 16.3713 149.389 16.7455 149.987 17.3058C150.587 17.8538 150.979 18.5113 151.162 19.2783L149.87 19.4086C149.704 18.8625 149.404 18.4033 148.972 18.0311C148.554 17.6492 148.051 17.3964 147.464 17.2727C146.828 17.1388 146.212 17.1815 145.616 17.4011C145.02 17.6206 144.503 17.9844 144.064 18.4924C143.637 19.0031 143.346 19.6254 143.191 20.3595C143.039 21.0814 143.061 21.7694 143.255 22.4237C143.449 23.0779 143.772 23.6379 144.224 24.1035C144.678 24.5568 145.223 24.8505 145.859 24.9845C146.275 25.0721 146.688 25.0824 147.098 25.0155C147.521 24.9511 147.898 24.8262 148.231 24.6408C148.579 24.4457 148.833 24.2117 148.992 23.9386L150.145 24.5646C149.878 24.9813 149.504 25.3306 149.023 25.6126C148.557 25.8849 148.033 26.0684 147.451 26.163C146.883 26.248 146.294 26.2261 145.682 26.0972Z" fill="white"/>
<path d="M155.187 28.3157L158.517 19.1292L159.716 19.5637L158.291 23.4958L159.666 23.9942L164.177 21.1805L165.552 21.679L160.426 24.8683L162.663 31.0252L161.253 30.514L159.263 25.1051L157.888 24.6066L156.386 28.7502L155.187 28.3157Z" fill="white"/>
<path d="M163.405 31.3015L163.909 30.2537C164.213 30.4001 164.521 30.4514 164.834 30.4075C165.152 30.3524 165.496 30.1711 165.866 29.8635C166.247 29.5613 166.659 29.0938 167.103 28.4607C167.552 27.8165 168.051 26.9673 168.6 25.9133L169.88 23.5117L175.592 26.2607L171.355 35.0653L170.206 34.5122L173.947 26.7385L170.398 25.0305L169.632 26.5352C169.002 27.7303 168.415 28.7038 167.873 29.4557C167.336 30.1964 166.819 30.7383 166.32 31.0813C165.834 31.4298 165.35 31.6132 164.869 31.6317C164.388 31.6501 163.9 31.5401 163.405 31.3015Z" fill="white"/>
<path d="M174.145 36.5261L179.289 28.2408L180.373 28.9135L176.139 35.733L185.434 32.0337L186.406 32.6371L181.251 40.9384L180.168 40.2657L184.333 33.5578L175.197 37.179L174.145 36.5261Z" fill="white"/>
<path d="M186.575 45.1303C186.023 44.7 185.591 44.1969 185.279 43.621C184.974 43.0352 184.791 42.4254 184.73 41.7915C184.677 41.1477 184.74 40.5074 184.919 39.8704C185.108 39.2411 185.418 38.6502 185.848 38.0978C186.409 37.3777 187.087 36.8436 187.881 36.4954C188.685 36.1549 189.516 36.0338 190.375 36.132C191.241 36.2203 192.044 36.5526 192.784 37.1288C193.543 37.7204 194.062 38.4176 194.34 39.2205C194.628 40.0311 194.7 40.864 194.557 41.7193C194.422 42.5647 194.077 43.3425 193.524 44.0527C193.463 44.1316 193.401 44.2105 193.34 44.2894C193.286 44.3585 193.239 44.4089 193.198 44.4407L186.599 39.3008C186.218 39.8916 185.987 40.5038 185.905 41.1376C185.841 41.7692 185.917 42.3746 186.131 42.9537C186.363 43.5307 186.726 44.0113 187.219 44.3954C187.722 44.7873 188.295 45.0278 188.939 45.1171C189.593 45.214 190.17 45.1245 190.67 44.8485L191.358 45.7652C190.916 46.0072 190.417 46.1494 189.861 46.1918C189.305 46.2342 188.74 46.1664 188.165 45.9883C187.608 45.8081 187.078 45.5221 186.575 45.1303ZM187.134 38.5527L192.831 42.9896C193.229 42.3966 193.461 41.7843 193.525 41.1527C193.598 40.5288 193.516 39.9333 193.276 39.3662C193.054 38.7969 192.691 38.3164 192.188 37.9245C191.685 37.5327 191.13 37.2987 190.524 37.2227C189.925 37.1367 189.323 37.207 188.719 37.4336C188.132 37.658 187.604 38.031 187.134 38.5527Z" fill="white"/>
<path d="M191.344 48.6945L198.101 41.6362L199.022 42.5182L196.117 45.5528L200.154 49.4177L203.06 46.383L203.981 47.2649L197.224 54.3232L196.303 53.4413L199.363 50.2441L195.326 46.3792L192.265 49.5764L191.344 48.6945Z" fill="white"/>
<path d="M200.466 57.9093L206.993 52.2681L204.712 49.6288L205.577 48.8807L210.973 55.1242L210.108 55.8723L207.827 53.233L201.3 58.8742L200.466 57.9093Z" fill="white"/>
<path d="M206.42 60.4874C206.919 60.1307 207.447 59.9672 208.007 59.9969C208.577 60.0194 209.137 60.2105 209.687 60.5703C210.254 60.9329 210.774 61.4445 211.247 62.1052C211.524 62.4915 211.781 62.9148 212.019 63.3752C212.256 63.8357 212.43 64.2722 212.542 64.6848L213.212 64.2043C213.883 63.7238 214.275 63.1433 214.387 62.4629C214.5 61.7826 214.305 61.0917 213.802 60.3903C213.497 59.9634 213.113 59.5999 212.652 59.2996C212.208 59.0022 211.674 58.7392 211.049 58.5103L211.496 57.5897C212.224 57.8533 212.852 58.1722 213.381 58.5465C213.921 58.9135 214.377 59.3562 214.748 59.8746C215.447 60.8503 215.721 61.8231 215.569 62.7927C215.418 63.7624 214.849 64.6004 213.864 65.3066L210.189 67.9386C210.047 68.0406 209.962 68.1475 209.934 68.2595C209.917 68.3641 209.951 68.4862 210.035 68.6256L209.212 69.2154C209.122 69.1108 209.042 69.0216 208.974 68.9475C208.905 68.8735 208.862 68.8125 208.843 68.7646C208.671 68.5032 208.614 68.2518 208.672 68.0104C208.73 67.7691 208.841 67.5814 209.007 67.4475L209.575 67.0172C208.863 66.9891 208.176 66.7815 207.514 66.3943C206.862 65.9998 206.325 65.5078 205.903 64.9183C205.539 64.41 205.315 63.8711 205.229 63.3015C205.162 62.7347 205.227 62.2034 205.426 61.7075C205.642 61.2145 205.973 60.8078 206.42 60.4874ZM209.622 66.2454C209.845 66.2553 210.044 66.2434 210.219 66.2097C210.395 66.176 210.534 66.1228 210.636 66.05L211.794 65.22C211.679 64.7797 211.522 64.3461 211.324 63.919C211.133 63.5021 210.903 63.1057 210.633 62.7296C210.102 61.9876 209.525 61.4934 208.903 61.2472C208.28 61.0009 207.715 61.0598 207.207 61.4239C206.912 61.635 206.687 61.9115 206.532 62.2532C206.387 62.5877 206.334 62.9642 206.372 63.3828C206.421 63.794 206.587 64.1979 206.871 64.5943C207.227 65.0924 207.655 65.4857 208.154 65.7743C208.66 66.073 209.15 66.23 209.622 66.2454Z" fill="white"/>
<path d="M210.243 70.6272L218.781 65.876L219.42 67.0232L215.424 73.6895L223.204 73.8244L223.815 74.9224L215.277 79.6736L214.684 78.6083L221.551 74.7873L214.494 74.6792L214.092 73.9582L217.702 67.8715L210.836 71.6925L210.243 70.6272Z" fill="white"/>
<path d="M216.605 82.4692L225.629 78.7711L226.113 79.9511L218.685 82.995L228.384 85.4452L228.818 86.5038L219.777 90.2091L219.293 89.029L226.599 86.0349L217.074 83.6146L216.605 82.4692Z" fill="white"/>
</g>
<circle opacity="0.4" cx="19.7626" cy="141.854" r="2.30948" fill="white"/>
<circle opacity="0.4" cx="230.388" cy="108.597" r="2.30948" fill="white"/>
<path d="M102.373 107.233V108.832H90.0719V90.5227H102.141V92.1216H91.8771V98.7232H100.825V100.245H91.8771V107.233H102.373ZM104.136 108.909V107.311C104.6 107.311 105.013 107.19 105.374 106.95C105.735 106.692 106.053 106.262 106.328 105.66C106.62 105.058 106.852 104.233 107.024 103.185C107.196 102.119 107.308 100.769 107.359 99.1358L107.514 95.3966H116.23V108.832H114.477V96.9697H109.061L109.01 99.2906C108.941 101.147 108.795 102.703 108.571 103.958C108.348 105.196 108.03 106.176 107.617 106.898C107.222 107.62 106.732 108.136 106.147 108.445C105.563 108.755 104.892 108.909 104.136 108.909ZM125.909 109.09C124.947 109.09 124.053 108.909 123.228 108.548C122.402 108.17 121.689 107.663 121.087 107.027C120.485 106.374 120.013 105.626 119.669 104.783C119.342 103.941 119.179 103.038 119.179 102.076C119.179 100.821 119.463 99.6688 120.03 98.6201C120.614 97.5714 121.414 96.7376 122.428 96.1187C123.442 95.4826 124.594 95.1645 125.884 95.1645C127.207 95.1645 128.359 95.4826 129.339 96.1187C130.336 96.7548 131.119 97.5972 131.686 98.6459C132.253 99.6774 132.537 100.812 132.537 102.05C132.537 102.187 132.537 102.325 132.537 102.462C132.537 102.583 132.528 102.677 132.511 102.746H121.01C121.096 103.709 121.362 104.568 121.809 105.325C122.273 106.064 122.866 106.657 123.589 107.104C124.328 107.534 125.127 107.749 125.987 107.749C126.864 107.749 127.689 107.525 128.462 107.078C129.253 106.631 129.803 106.047 130.113 105.325L131.634 105.738C131.359 106.374 130.938 106.95 130.371 107.465C129.803 107.981 129.133 108.385 128.359 108.677C127.603 108.952 126.786 109.09 125.909 109.09ZM120.958 101.483H130.886C130.818 100.503 130.551 99.643 130.087 98.9038C129.64 98.1645 129.047 97.5886 128.308 97.176C127.586 96.7462 126.786 96.5313 125.909 96.5313C125.033 96.5313 124.233 96.7462 123.511 97.176C122.789 97.5886 122.196 98.1731 121.732 98.9295C121.285 99.6688 121.027 100.52 120.958 101.483ZM135.217 108.832V95.3966H136.97V101.173H144.655V95.3966H146.408V108.832H144.655V102.746H136.97V108.832H135.217ZM149.194 104.964C149.194 104.121 149.434 103.399 149.916 102.798C150.397 102.179 151.059 101.706 151.901 101.379C152.761 101.036 153.75 100.864 154.867 100.864C155.52 100.864 156.199 100.915 156.904 101.018C157.609 101.121 158.237 101.276 158.787 101.483V100.348C158.787 99.2132 158.452 98.3106 157.781 97.6402C157.111 96.9697 156.182 96.6344 154.996 96.6344C154.274 96.6344 153.56 96.772 152.856 97.047C152.168 97.3049 151.446 97.6917 150.689 98.2075L150.019 96.9697C150.896 96.368 151.755 95.921 152.598 95.6287C153.44 95.3193 154.3 95.1645 155.176 95.1645C156.827 95.1645 158.133 95.6373 159.096 96.5829C160.059 97.5284 160.54 98.835 160.54 100.503V106.717C160.54 106.958 160.592 107.139 160.695 107.259C160.798 107.362 160.962 107.422 161.185 107.439V108.832C160.996 108.849 160.833 108.866 160.695 108.884C160.558 108.901 160.454 108.901 160.386 108.884C159.956 108.866 159.629 108.729 159.406 108.471C159.182 108.213 159.062 107.938 159.045 107.646L159.019 106.666C158.417 107.439 157.635 108.041 156.672 108.471C155.709 108.884 154.73 109.09 153.732 109.09C152.873 109.09 152.091 108.909 151.386 108.548C150.698 108.17 150.156 107.672 149.761 107.053C149.383 106.417 149.194 105.72 149.194 104.964ZM158.194 105.995C158.383 105.755 158.529 105.523 158.632 105.299C158.735 105.076 158.787 104.878 158.787 104.706V102.746C158.202 102.523 157.592 102.351 156.956 102.23C156.337 102.11 155.709 102.05 155.073 102.05C153.818 102.05 152.804 102.299 152.03 102.798C151.257 103.296 150.87 103.975 150.87 104.835C150.87 105.333 150.999 105.806 151.257 106.253C151.515 106.683 151.893 107.044 152.391 107.336C152.89 107.611 153.475 107.749 154.145 107.749C154.987 107.749 155.77 107.586 156.492 107.259C157.231 106.932 157.798 106.511 158.194 105.995ZM73.617 136.832V121.927L66.9896 133.505H65.8549L59.2017 121.927V136.832H57.3966V118.523H59.2533L66.3965 131.056L73.5913 118.523H75.4222V136.832H73.617ZM78.4412 132.964C78.4412 132.121 78.6818 131.399 79.1632 130.798C79.6446 130.179 80.3065 129.706 81.1489 129.379C82.0085 129.036 82.997 128.864 84.1145 128.864C84.7678 128.864 85.4468 128.915 86.1517 129.018C86.8566 129.121 87.4841 129.276 88.0342 129.483V128.348C88.0342 127.213 87.699 126.311 87.0285 125.64C86.358 124.97 85.4296 124.634 84.2434 124.634C83.5213 124.634 82.8079 124.772 82.103 125.047C81.4153 125.305 80.6933 125.692 79.9369 126.207L79.2664 124.97C80.1432 124.368 81.0027 123.921 81.8451 123.629C82.6875 123.319 83.5471 123.165 84.4239 123.165C86.0743 123.165 87.3809 123.637 88.3437 124.583C89.3064 125.528 89.7878 126.835 89.7878 128.503V134.717C89.7878 134.958 89.8393 135.139 89.9425 135.259C90.0456 135.362 90.209 135.422 90.4325 135.439V136.832C90.2433 136.849 90.08 136.866 89.9425 136.884C89.805 136.901 89.7018 136.901 89.633 136.884C89.2032 136.866 88.8766 136.729 88.6531 136.471C88.4296 136.213 88.3093 135.938 88.2921 135.646L88.2663 134.666C87.6646 135.439 86.8823 136.041 85.9196 136.471C84.9569 136.884 83.9769 137.09 82.9798 137.09C82.1202 137.09 81.338 136.909 80.6331 136.548C79.9454 136.17 79.4039 135.672 79.0085 135.053C78.6303 134.417 78.4412 133.72 78.4412 132.964ZM87.4411 133.995C87.6302 133.755 87.7763 133.523 87.8795 133.299C87.9826 133.076 88.0342 132.878 88.0342 132.706V130.746C87.4497 130.523 86.8394 130.351 86.2033 130.23C85.5844 130.11 84.9569 130.05 84.3208 130.05C83.0658 130.05 82.0514 130.299 81.2778 130.798C80.5042 131.296 80.1174 131.975 80.1174 132.835C80.1174 133.333 80.2463 133.806 80.5042 134.253C80.7621 134.683 81.1403 135.044 81.6388 135.336C82.1374 135.611 82.7219 135.749 83.3924 135.749C84.2348 135.749 85.017 135.586 85.7391 135.259C86.4783 134.932 87.0457 134.511 87.4411 133.995ZM93.5508 136.832V123.397H95.3043V129.147H97.3158L101.829 123.397H103.84L98.7083 129.921L104.485 136.832H102.422L97.3158 130.772H95.3043V136.832H93.5508ZM112.097 137.09C111.117 137.09 110.214 136.909 109.389 136.548C108.581 136.17 107.868 135.654 107.249 135.001C106.647 134.348 106.174 133.6 105.831 132.758C105.504 131.915 105.341 131.021 105.341 130.076C105.341 128.803 105.624 127.643 106.192 126.594C106.759 125.546 107.55 124.712 108.564 124.093C109.578 123.474 110.747 123.165 112.071 123.165C113.326 123.165 114.435 123.457 115.398 124.041C116.361 124.609 117.074 125.382 117.538 126.362L115.836 126.904C115.458 126.216 114.925 125.683 114.237 125.305C113.567 124.91 112.819 124.712 111.994 124.712C111.1 124.712 110.283 124.944 109.544 125.408C108.805 125.872 108.212 126.508 107.765 127.316C107.335 128.124 107.12 129.044 107.12 130.076C107.12 131.09 107.343 132.01 107.79 132.835C108.237 133.66 108.831 134.322 109.57 134.821C110.309 135.302 111.126 135.543 112.02 135.543C112.604 135.543 113.163 135.439 113.696 135.233C114.246 135.027 114.719 134.752 115.114 134.408C115.527 134.047 115.802 133.66 115.939 133.248L117.667 133.763C117.426 134.399 117.022 134.975 116.455 135.491C115.905 135.99 115.252 136.385 114.495 136.677C113.756 136.952 112.957 137.09 112.097 137.09ZM120.396 136.832V123.422H122.15V134.46L130.324 123.397H131.898V136.832H130.144V125.975L122.098 136.832H120.396ZM135.708 136.832V123.397H137.513L142.851 132.654L148.215 123.397H149.942V136.832H148.266V126.027L143.418 134.434H142.284L137.384 126.027V136.832H135.708ZM159.54 137.09C158.577 137.09 157.683 136.909 156.858 136.548C156.05 136.17 155.345 135.663 154.743 135.027C154.159 134.374 153.703 133.634 153.377 132.809C153.05 131.967 152.887 131.081 152.887 130.153C152.887 129.19 153.05 128.296 153.377 127.471C153.703 126.629 154.168 125.889 154.769 125.253C155.371 124.6 156.076 124.093 156.884 123.732C157.709 123.354 158.603 123.165 159.566 123.165C160.528 123.165 161.414 123.354 162.222 123.732C163.03 124.093 163.735 124.6 164.336 125.253C164.938 125.889 165.402 126.629 165.729 127.471C166.056 128.296 166.219 129.19 166.219 130.153C166.219 131.081 166.056 131.967 165.729 132.809C165.402 133.634 164.938 134.374 164.336 135.027C163.752 135.663 163.047 136.17 162.222 136.548C161.414 136.909 160.52 137.09 159.54 137.09ZM154.666 130.179C154.666 131.176 154.881 132.087 155.311 132.912C155.758 133.72 156.351 134.365 157.09 134.846C157.829 135.311 158.646 135.543 159.54 135.543C160.434 135.543 161.251 135.302 161.99 134.821C162.729 134.339 163.322 133.686 163.769 132.861C164.216 132.018 164.44 131.107 164.44 130.127C164.44 129.13 164.216 128.219 163.769 127.394C163.322 126.569 162.729 125.915 161.99 125.434C161.251 124.952 160.434 124.712 159.54 124.712C158.646 124.712 157.829 124.961 157.09 125.46C156.368 125.958 155.784 126.62 155.337 127.445C154.89 128.253 154.666 129.164 154.666 130.179ZM169.126 136.832V123.397H175.831C176.587 123.397 177.223 123.56 177.739 123.887C178.255 124.196 178.642 124.6 178.9 125.099C179.175 125.597 179.312 126.13 179.312 126.697C179.312 127.42 179.14 128.073 178.796 128.657C178.453 129.225 177.954 129.654 177.301 129.947C178.074 130.17 178.702 130.574 179.183 131.159C179.665 131.743 179.905 132.448 179.905 133.273C179.905 133.995 179.725 134.623 179.364 135.156C179.02 135.689 178.538 136.101 177.92 136.394C177.318 136.686 176.622 136.832 175.831 136.832H169.126ZM170.802 135.568H175.779C176.226 135.568 176.63 135.457 176.991 135.233C177.369 134.993 177.662 134.683 177.868 134.305C178.091 133.927 178.203 133.531 178.203 133.119C178.203 132.672 178.1 132.268 177.894 131.907C177.687 131.528 177.412 131.227 177.069 131.004C176.725 130.781 176.329 130.669 175.882 130.669H170.802V135.568ZM170.802 129.457H175.367C175.814 129.457 176.209 129.336 176.553 129.096C176.897 128.855 177.163 128.546 177.352 128.167C177.541 127.789 177.636 127.394 177.636 126.981C177.636 126.362 177.43 125.821 177.017 125.356C176.622 124.892 176.106 124.66 175.47 124.66H170.802V129.457ZM181.869 132.964C181.869 132.121 182.11 131.399 182.591 130.798C183.073 130.179 183.734 129.706 184.577 129.379C185.436 129.036 186.425 128.864 187.542 128.864C188.196 128.864 188.875 128.915 189.58 129.018C190.285 129.121 190.912 129.276 191.462 129.483V128.348C191.462 127.213 191.127 126.311 190.456 125.64C189.786 124.97 188.858 124.634 187.671 124.634C186.949 124.634 186.236 124.772 185.531 125.047C184.843 125.305 184.121 125.692 183.365 126.207L182.694 124.97C183.571 124.368 184.431 123.921 185.273 123.629C186.115 123.319 186.975 123.165 187.852 123.165C189.502 123.165 190.809 123.637 191.772 124.583C192.734 125.528 193.216 126.835 193.216 128.503V134.717C193.216 134.958 193.267 135.139 193.37 135.259C193.474 135.362 193.637 135.422 193.86 135.439V136.832C193.671 136.849 193.508 136.866 193.37 136.884C193.233 136.901 193.13 136.901 193.061 136.884C192.631 136.866 192.305 136.729 192.081 136.471C191.858 136.213 191.737 135.938 191.72 135.646L191.694 134.666C191.093 135.439 190.31 136.041 189.348 136.471C188.385 136.884 187.405 137.09 186.408 137.09C185.548 137.09 184.766 136.909 184.061 136.548C183.373 136.17 182.832 135.672 182.436 135.053C182.058 134.417 181.869 133.72 181.869 132.964ZM190.869 133.995C191.058 133.755 191.204 133.523 191.307 133.299C191.411 133.076 191.462 132.878 191.462 132.706V130.746C190.878 130.523 190.267 130.351 189.631 130.23C189.012 130.11 188.385 130.05 187.749 130.05C186.494 130.05 185.479 130.299 184.706 130.798C183.932 131.296 183.545 131.975 183.545 132.835C183.545 133.333 183.674 133.806 183.932 134.253C184.19 134.683 184.568 135.044 185.067 135.336C185.565 135.611 186.15 135.749 186.82 135.749C187.663 135.749 188.445 135.586 189.167 135.259C189.906 134.932 190.474 134.511 190.869 133.995Z" fill="white"/>
<path d="M92.3731 163.946C91.7057 163.946 91.1478 163.853 90.6992 163.667C90.2616 163.47 89.9389 163.197 89.731 162.847C89.5341 162.497 89.4575 162.081 89.5013 161.6C89.556 160.976 89.824 160.484 90.3054 160.123C90.7867 159.751 91.558 159.395 92.6192 159.056C93.1444 158.87 93.5601 158.7 93.8664 158.547C94.1727 158.394 94.397 158.219 94.5392 158.022C94.6815 157.814 94.769 157.579 94.8018 157.317C94.8346 156.868 94.7143 156.523 94.4408 156.283C94.1782 156.042 93.7844 155.922 93.2592 155.922C92.7888 155.922 92.3457 156.015 91.93 156.201C91.5252 156.387 91.2025 156.649 90.9618 156.988L90.1577 156.463C90.4859 156.026 90.929 155.686 91.4869 155.446C92.0558 155.194 92.7013 155.068 93.4233 155.068C94.2876 155.068 94.9331 155.271 95.3598 155.675C95.7974 156.069 95.9943 156.616 95.9505 157.317C95.8958 157.962 95.6278 158.471 95.1464 158.843C94.676 159.204 93.9703 159.537 93.0295 159.844C92.4496 160.03 91.9902 160.21 91.651 160.385C91.3119 160.549 91.0657 160.73 90.9125 160.927C90.7703 161.113 90.6828 161.348 90.65 161.632C90.5953 162.092 90.732 162.442 91.0602 162.683C91.3994 162.923 91.9026 163.044 92.57 163.044C93.0732 163.044 93.5437 162.951 93.9813 162.765C94.4189 162.579 94.7909 162.311 95.0972 161.961L95.8192 162.584C95.4145 163.011 94.9276 163.345 94.3587 163.585C93.7898 163.826 93.1279 163.946 92.3731 163.946ZM99.3697 163.946C98.0349 163.946 97.3676 163.213 97.3676 161.747C97.3676 161.529 97.384 161.299 97.4168 161.058C97.4496 160.806 97.4934 160.538 97.5481 160.254L98.6312 155.232H99.7307L98.7132 160.057C98.6038 160.549 98.5491 160.976 98.5491 161.337C98.5491 162.42 99.0196 162.962 99.9604 162.962C100.376 162.962 100.792 162.869 101.208 162.683C101.623 162.486 102.017 162.212 102.389 161.862C102.772 161.501 103.089 161.085 103.341 160.615L104.49 155.232H105.606L104.112 162.207C104.101 162.272 104.09 162.333 104.079 162.387C104.068 162.442 104.063 162.486 104.063 162.519C104.063 162.705 104.167 162.798 104.375 162.798L104.161 163.782C104.074 163.793 103.992 163.804 103.915 163.815C103.839 163.826 103.768 163.826 103.702 163.815C103.472 163.804 103.297 163.744 103.177 163.635C103.057 163.514 102.996 163.361 102.996 163.175C102.996 163.12 103.002 163.055 103.013 162.978C103.024 162.891 103.046 162.759 103.078 162.584C103.111 162.409 103.16 162.163 103.226 161.846C102.723 162.502 102.127 163.016 101.437 163.388C100.759 163.76 100.07 163.946 99.3697 163.946ZM106.382 163.782L108.188 155.232H115.047L113.226 163.782H112.11L113.734 156.119H109.107L107.498 163.782H106.382ZM115.597 163.782L117.402 155.232H118.518L117.714 158.958H122.621L123.392 155.232H124.508L122.703 163.782H121.587L122.424 159.844H117.534L116.713 163.782H115.597ZM129.089 163.946C128.268 163.946 127.568 163.744 126.988 163.339C126.409 162.923 125.982 162.382 125.708 161.715C125.446 161.047 125.369 160.32 125.479 159.532C125.566 158.919 125.747 158.35 126.02 157.825C126.305 157.289 126.666 156.819 127.103 156.414C127.541 155.998 128.033 155.675 128.58 155.446C129.138 155.205 129.724 155.085 130.336 155.085C131.157 155.085 131.857 155.293 132.437 155.708C133.017 156.113 133.443 156.649 133.717 157.317C133.99 157.984 134.072 158.722 133.963 159.532C133.886 160.123 133.706 160.686 133.421 161.222C133.148 161.747 132.792 162.218 132.355 162.634C131.928 163.038 131.436 163.361 130.878 163.602C130.32 163.831 129.724 163.946 129.089 163.946ZM129.22 163.011C129.647 163.011 130.057 162.918 130.451 162.732C130.856 162.546 131.222 162.289 131.551 161.961C131.879 161.632 132.152 161.26 132.371 160.845C132.601 160.418 132.748 159.975 132.814 159.516C132.913 158.87 132.858 158.285 132.65 157.76C132.442 157.224 132.125 156.802 131.698 156.496C131.282 156.179 130.785 156.02 130.205 156.02C129.778 156.02 129.368 156.113 128.974 156.299C128.58 156.485 128.214 156.737 127.875 157.054C127.546 157.371 127.273 157.743 127.054 158.17C126.835 158.597 126.693 159.056 126.627 159.548C126.54 160.183 126.6 160.768 126.808 161.304C127.016 161.829 127.328 162.245 127.743 162.551C128.17 162.858 128.662 163.011 129.22 163.011ZM134.512 163.782C135.004 162.349 135.677 160.91 136.531 159.466C137.384 158.011 138.467 156.6 139.78 155.232H140.896L142.176 163.782H141.011L140.042 156.299C139.495 156.901 138.998 157.519 138.549 158.153C138.1 158.777 137.696 159.406 137.335 160.041C136.985 160.675 136.662 161.31 136.366 161.944C136.082 162.568 135.83 163.181 135.612 163.782H134.512ZM147.775 163.946C146.954 163.946 146.254 163.744 145.674 163.339C145.095 162.923 144.668 162.382 144.394 161.715C144.132 161.047 144.055 160.32 144.165 159.532C144.252 158.919 144.433 158.35 144.706 157.825C144.991 157.289 145.352 156.819 145.789 156.414C146.227 155.998 146.719 155.675 147.266 155.446C147.824 155.205 148.41 155.085 149.022 155.085C149.843 155.085 150.543 155.293 151.123 155.708C151.703 156.113 152.129 156.649 152.403 157.317C152.676 157.984 152.758 158.722 152.649 159.532C152.572 160.123 152.392 160.686 152.107 161.222C151.834 161.747 151.478 162.218 151.041 162.634C150.614 163.038 150.122 163.361 149.564 163.602C149.006 163.831 148.41 163.946 147.775 163.946ZM147.906 163.011C148.333 163.011 148.743 162.918 149.137 162.732C149.542 162.546 149.908 162.289 150.237 161.961C150.565 161.632 150.838 161.26 151.057 160.845C151.287 160.418 151.435 159.975 151.5 159.516C151.599 158.87 151.544 158.285 151.336 157.76C151.128 157.224 150.811 156.802 150.384 156.496C149.969 156.179 149.471 156.02 148.891 156.02C148.464 156.02 148.054 156.113 147.66 156.299C147.266 156.485 146.9 156.737 146.561 157.054C146.232 157.371 145.959 157.743 145.74 158.17C145.521 158.597 145.379 159.056 145.313 159.548C145.226 160.183 145.286 160.768 145.494 161.304C145.702 161.829 146.014 162.245 146.429 162.551C146.856 162.858 147.348 163.011 147.906 163.011ZM156.989 163.946C156.322 163.946 155.764 163.853 155.315 163.667C154.877 163.47 154.555 163.197 154.347 162.847C154.15 162.497 154.073 162.081 154.117 161.6C154.172 160.976 154.44 160.484 154.921 160.123C155.403 159.751 156.174 159.395 157.235 159.056C157.76 158.87 158.176 158.7 158.482 158.547C158.789 158.394 159.013 158.219 159.155 158.022C159.297 157.814 159.385 157.579 159.418 157.317C159.45 156.868 159.33 156.523 159.057 156.283C158.794 156.042 158.4 155.922 157.875 155.922C157.405 155.922 156.962 156.015 156.546 156.201C156.141 156.387 155.818 156.649 155.578 156.988L154.774 156.463C155.102 156.026 155.545 155.686 156.103 155.446C156.672 155.194 157.317 155.068 158.039 155.068C158.903 155.068 159.549 155.271 159.976 155.675C160.413 156.069 160.61 156.616 160.566 157.317C160.512 157.962 160.244 158.471 159.762 158.843C159.292 159.204 158.586 159.537 157.645 159.844C157.066 160.03 156.606 160.21 156.267 160.385C155.928 160.549 155.682 160.73 155.528 160.927C155.386 161.113 155.299 161.348 155.266 161.632C155.211 162.092 155.348 162.442 155.676 162.683C156.015 162.923 156.519 163.044 157.186 163.044C157.689 163.044 158.16 162.951 158.597 162.765C159.035 162.579 159.407 162.311 159.713 161.961L160.435 162.584C160.03 163.011 159.543 163.345 158.975 163.585C158.406 163.826 157.744 163.946 156.989 163.946Z" fill="white"/>
<defs>
<linearGradient id="paint0_linear_674_976" x1="152.604" y1="0.975584" x2="160.989" y2="180.301" gradientUnits="userSpaceOnUse">
<stop stop-color="#58A4C3"/>
<stop offset="1" stop-color="#97CCE1"/>
</linearGradient>
</defs>
</svg>
