<svg xmlns="http://www.w3.org/2000/svg" width="72" height="12" viewBox="0 0 72 12" fill="none">
  <path d="M6.10526 0.302734L7.85804 3.49551L11.4362 4.17588L8.94131 6.82949L9.39995 10.4428L6.10526 8.89L2.81057 10.4428L3.26921 6.82949L0.774341 4.17588L4.35249 3.49551L6.10526 0.302734Z" fill="#FED84C"/>
  <path d="M35.9998 0.302734L37.7526 3.49551L41.3307 4.17588L38.8358 6.82949L39.2945 10.4428L35.9998 8.89L32.7051 10.4428L33.1637 6.82949L30.6689 4.17588L34.247 3.49551L35.9998 0.302734Z" fill="#FED84C"/>
  <path d="M21.0506 0.302734L22.8034 3.49551L26.3815 4.17588L23.8866 6.82949L24.3453 10.4428L21.0506 8.89L17.7559 10.4428L18.2145 6.82949L15.7197 4.17588L19.2978 3.49551L21.0506 0.302734Z" fill="#FED84C"/>
  <path d="M50.949 0.302734L52.7018 3.49551L56.2799 4.17588L53.7851 6.82949L54.2437 10.4428L50.949 8.89L47.6543 10.4428L48.113 6.82949L45.6181 4.17588L49.1962 3.49551L50.949 0.302734Z" fill="#FED84C"/>
  <path d="M65.8943 0.302734L67.6471 3.49551L71.2252 4.17588L68.7304 6.82949L69.189 10.4428L65.8943 8.89L62.5996 10.4428L63.0583 6.82949L60.5634 4.17588L64.1416 3.49551L65.8943 0.302734Z" fill="#FED84C"/>
</svg>