<svg xmlns="http://www.w3.org/2000/svg" width="17" height="17" viewBox="0 0 17 17" fill="none">
  <path d="M7.60326 1.16171C7.97008 0.418466 9.02992 0.418467 9.39674 1.16171L11.2063 4.8282C11.3519 5.12334 11.6335 5.32791 11.9592 5.37524L16.0054 5.96319C16.8256 6.08237 17.1531 7.09035 16.5596 7.66888L13.6318 10.5228C13.3961 10.7526 13.2885 11.0836 13.3442 11.408L14.0353 15.4378C14.1754 16.2547 13.318 16.8777 12.5844 16.492L8.96534 14.5894C8.67402 14.4362 8.32598 14.4362 8.03466 14.5894L4.41562 16.492C3.68199 16.8777 2.82456 16.2547 2.96467 15.4378L3.65585 11.408C3.71148 11.0836 3.60393 10.7526 3.36825 10.5228L0.440385 7.66888C-0.153133 7.09035 0.174378 6.08237 0.994598 5.96319L5.04081 5.37524C5.36652 5.32791 5.64808 5.12334 5.79374 4.8282L7.60326 1.16171Z" fill="white"/>
</svg>