<svg xmlns="http://www.w3.org/2000/svg" width="29" height="28" viewBox="0 0 29 28" fill="none">
  <path d="M13.7291 1.0561C14.0241 0.385201 14.9759 0.385202 15.2709 1.0561L18.6847 8.82083C18.807 9.09881 19.0694 9.28946 19.3715 9.3198L27.8111 10.1671C28.5404 10.2403 28.8345 11.1456 28.2876 11.6334L21.9578 17.2796C21.7312 17.4818 21.631 17.7903 21.6955 18.087L23.4976 26.3754C23.6533 27.0915 22.8833 27.651 22.2503 27.2816L14.9244 23.0064C14.6622 22.8534 14.3378 22.8534 14.0756 23.0064L6.7497 27.2816C6.11672 27.651 5.34667 27.0915 5.50238 26.3754L7.30451 18.087C7.36903 17.7903 7.2688 17.4818 7.04219 17.2796L0.712429 11.6334C0.165515 11.1456 0.45965 10.2403 1.18887 10.1671L9.6285 9.3198C9.93064 9.28946 10.193 9.09881 10.3153 8.82083L13.7291 1.0561Z" fill="#4E869F"/>
</svg>