<svg width="71" height="12" viewBox="0 0 71 12" fill="none" xmlns="http://www.w3.org/2000/svg">
<path d="M5.60526 0L7.35804 3.19277L10.9362 3.87314L8.44131 6.52675L8.89995 10.14L5.60526 8.58726L2.31057 10.14L2.76921 6.52675L0.274341 3.87314L3.85249 3.19277L5.60526 0Z" fill="#FED84C"/>
<path d="M35.4998 0L37.2526 3.19277L40.8307 3.87314L38.3358 6.52675L38.7945 10.14L35.4998 8.58726L32.2051 10.14L32.6637 6.52675L30.1689 3.87314L33.747 3.19277L35.4998 0Z" fill="#FED84C"/>
<path d="M20.5525 0L22.3053 3.19277L25.8835 3.87314L23.3886 6.52675L23.8472 10.14L20.5525 8.58726L17.2578 10.14L17.7165 6.52675L15.2216 3.87314L18.7998 3.19277L20.5525 0Z" fill="#FED84C"/>
<path d="M50.4471 0L52.1998 3.19277L55.778 3.87314L53.2831 6.52675L53.7418 10.14L50.4471 8.58726L47.1524 10.14L47.611 6.52675L45.1161 3.87314L48.6943 3.19277L50.4471 0Z" fill="#FED84C"/>
<path d="M65.3943 0L67.1471 3.19277L70.7252 3.87314L68.2304 6.52675L68.689 10.14L65.3943 8.58726L62.0996 10.14L62.5583 6.52675L60.0634 3.87314L63.6416 3.19277L65.3943 0Z" fill="#FED84C"/>
</svg>
