<svg xmlns="http://www.w3.org/2000/svg" width="31" height="31" viewBox="0 0 31 31" fill="none">
  <rect x="0.5" y="0.759766" width="30" height="30" rx="15" fill="#6C9165"/>
  <path d="M21.5001 12.039C21.0539 12.2348 20.5783 12.3645 20.0826 12.4275C20.5926 12.123 20.9819 11.6445 21.1649 11.0678C20.6894 11.3513 20.1643 11.5515 19.6048 11.6633C19.1533 11.1825 18.5098 10.8848 17.8078 10.8848C16.4458 10.8848 15.3493 11.9903 15.3493 13.3455C15.3493 13.5405 15.3658 13.728 15.4063 13.9065C13.361 13.8068 11.5513 12.8265 10.3355 11.3333C10.1233 11.7015 9.99875 12.123 9.99875 12.5768C9.99875 13.4288 10.4375 14.184 11.0915 14.6213C10.6963 14.6138 10.3085 14.499 9.98 14.3183C9.98 14.3258 9.98 14.3355 9.98 14.3453C9.98 15.5408 10.8328 16.5338 11.951 16.7626C11.7508 16.8173 11.5325 16.8436 11.306 16.8436C11.1485 16.8436 10.9895 16.8346 10.8403 16.8016C11.159 17.7758 12.0635 18.4921 13.139 18.5153C12.302 19.1701 11.2393 19.5646 10.0888 19.5646C9.887 19.5646 9.6935 19.5556 9.5 19.5308C10.5898 20.2336 11.8813 20.6349 13.274 20.6349C17.8011 20.6349 20.2761 16.8848 20.2761 13.6343C20.2761 13.5255 20.2723 13.4205 20.2671 13.3163C20.7554 12.9698 21.1656 12.537 21.5001 12.039Z" fill="white"/>
</svg>