<svg width="14" height="15" viewBox="0 0 14 15" fill="none" xmlns="http://www.w3.org/2000/svg">
<path d="M7.85856 8.28588V1.24877C7.85856 0.843364 7.52984 0.514648 7.12443 0.514648C6.71902 0.514648 6.39031 0.843364 6.39031 1.24877V8.28588L3.97294 5.86851C3.68617 5.58191 3.22145 5.58191 2.93468 5.86851C2.64808 6.15528 2.64808 6.62001 2.93468 6.90678L7.12443 11.0965L11.3142 6.90678C11.6008 6.62001 11.6008 6.15528 11.3142 5.86851C11.0274 5.58191 10.5627 5.58191 10.2759 5.86851L7.85856 8.28588Z" fill="white"/>
<path d="M1.2517 10.0581C1.65711 10.0581 1.98583 10.3868 1.98583 10.7922V11.9668C1.98583 12.5345 2.44598 12.9946 3.0136 12.9946H11.2358C11.8034 12.9946 12.2636 12.5345 12.2636 11.9668V10.7922C12.2636 10.3868 12.5923 10.0581 12.9977 10.0581C13.4031 10.0581 13.7318 10.3868 13.7318 10.7922V11.9668C13.7318 13.3454 12.6144 14.4629 11.2358 14.4629H3.0136C1.63517 14.4629 0.517578 13.3454 0.517578 11.9668V10.7922C0.517578 10.3868 0.846294 10.0581 1.2517 10.0581Z" fill="white"/>
</svg>
