<svg width="271" height="49" viewBox="0 0 271 49" fill="none" xmlns="http://www.w3.org/2000/svg">
<path d="M266.721 9.27943C266.708 9.0036 266.473 8.79052 266.198 8.80351L261.703 9.01518C261.427 9.02817 261.214 9.26231 261.227 9.53814C261.24 9.81398 261.474 10.0271 261.75 10.0141L265.745 9.82592L265.933 13.8215C265.946 14.0973 266.18 14.3104 266.456 14.2974C266.732 14.2844 266.945 14.0503 266.932 13.7745L266.721 9.27943ZM181.32 32.4705C182.41 32.8905 183.484 33.2936 184.542 33.6795L184.885 32.7401C183.832 32.3563 182.764 31.9553 181.68 31.5374L181.32 32.4705ZM191.053 35.8967C193.328 36.6119 195.531 37.2372 197.67 37.7712L197.913 36.801C195.795 36.2723 193.611 35.6526 191.353 34.9427L191.053 35.8967ZM204.417 39.1853C206.774 39.5774 209.056 39.8423 211.276 39.9777L211.336 38.9795C209.154 38.8465 206.907 38.5858 204.581 38.1988L204.417 39.1853ZM218.183 39.9661C220.521 39.8067 222.798 39.4842 225.033 38.9962L224.82 38.0192C222.634 38.4965 220.405 38.8122 218.115 38.9685L218.183 39.9661ZM231.662 37.02C233.775 36.2175 235.863 35.256 237.942 34.134L237.467 33.254C235.424 34.3564 233.376 35.2992 231.307 36.0852L231.662 37.02ZM243.826 30.5252C245.654 29.2715 247.488 27.8927 249.34 26.3878L248.71 25.6117C246.876 27.1015 245.064 28.4638 243.261 29.7006L243.826 30.5252ZM254.536 21.885C256.164 20.3911 257.813 18.8031 259.49 17.1202L258.782 16.4142C257.114 18.0879 255.476 19.6656 253.86 21.1483L254.536 21.885ZM264.259 12.1693C265.029 11.3449 265.806 10.5016 266.591 9.63949L265.851 8.96642C265.069 9.82557 264.295 10.6656 263.529 11.4867L264.259 12.1693ZM267.22 9.25592C267.194 8.70424 266.726 8.27808 266.174 8.30406L257.184 8.7274C256.632 8.75338 256.206 9.22166 256.232 9.77333C256.258 10.325 256.726 10.7512 257.278 10.7252L265.269 10.3489L265.646 18.34C265.672 18.8917 266.14 19.3179 266.691 19.2919C267.243 19.2659 267.669 18.7976 267.643 18.246L267.22 9.25592ZM181.14 32.937C182.233 33.3581 183.31 33.7622 184.371 34.1493L185.056 32.2703C184.007 31.8876 182.941 31.4878 181.86 31.0708L181.14 32.937ZM190.903 36.3737C193.187 37.0916 195.4 37.7197 197.549 38.2563L198.034 36.3159C195.927 35.7899 193.753 35.173 191.503 34.4658L190.903 36.3737ZM204.335 39.6785C206.708 40.0732 209.007 40.3402 211.245 40.4768L211.367 38.4805C209.203 38.3485 206.973 38.09 204.663 37.7056L204.335 39.6785ZM218.217 40.465C220.579 40.3039 222.88 39.9781 225.14 39.4847L224.713 37.5308C222.552 38.0027 220.347 38.315 218.081 38.4696L218.217 40.465ZM231.84 37.4874C233.974 36.6766 236.082 35.7058 238.18 34.5741L237.23 32.8139C235.205 33.9066 233.177 34.8401 231.13 35.6177L231.84 37.4874ZM244.109 30.9376C245.949 29.6754 247.794 28.2884 249.656 26.7758L248.394 25.2237C246.57 26.7058 244.769 28.0599 242.978 29.2882L244.109 30.9376ZM254.875 22.2534C256.508 20.7539 258.162 19.1607 259.845 17.4732L258.428 16.0612C256.764 17.7303 255.131 19.3028 253.522 20.78L254.875 22.2534ZM264.625 12.5105C265.396 11.6845 266.175 10.8396 266.961 9.97602L265.482 8.62989C264.701 9.48755 263.928 10.326 263.163 11.1455L264.625 12.5105Z" fill="#4E869F"/>
<path d="M38.3818 17.5195V8.14153H45.9238V17.5195H44.6998V9.23953H39.6058V17.5195H38.3818ZM52.6263 17.6995C51.9543 17.6995 51.3303 17.5735 50.7543 17.3215C50.1903 17.0575 49.6983 16.7035 49.2783 16.2595C48.8703 15.8035 48.5523 15.2875 48.3243 14.7115C48.0963 14.1235 47.9823 13.5055 47.9823 12.8575C47.9823 12.1855 48.0963 11.5615 48.3243 10.9855C48.5523 10.3975 48.8763 9.88153 49.2963 9.43753C49.7163 8.98153 50.2083 8.62753 50.7723 8.37553C51.3483 8.11153 51.9723 7.97953 52.6443 7.97953C53.3163 7.97953 53.9343 8.11153 54.4983 8.37553C55.0623 8.62753 55.5543 8.98153 55.9743 9.43753C56.3943 9.88153 56.7183 10.3975 56.9463 10.9855C57.1743 11.5615 57.2883 12.1855 57.2883 12.8575C57.2883 13.5055 57.1743 14.1235 56.9463 14.7115C56.7183 15.2875 56.3943 15.8035 55.9743 16.2595C55.5663 16.7035 55.0743 17.0575 54.4983 17.3215C53.9343 17.5735 53.3103 17.6995 52.6263 17.6995ZM49.2243 12.8755C49.2243 13.5715 49.3743 14.2075 49.6743 14.7835C49.9863 15.3475 50.4003 15.7975 50.9163 16.1335C51.4323 16.4575 52.0023 16.6195 52.6263 16.6195C53.2503 16.6195 53.8203 16.4515 54.3363 16.1155C54.8523 15.7795 55.2663 15.3235 55.5783 14.7475C55.8903 14.1595 56.0463 13.5235 56.0463 12.8395C56.0463 12.1435 55.8903 11.5075 55.5783 10.9315C55.2663 10.3555 54.8523 9.89953 54.3363 9.56353C53.8203 9.22753 53.2503 9.05953 52.6263 9.05953C52.0023 9.05953 51.4323 9.23353 50.9163 9.58153C50.4123 9.92953 50.0043 10.3915 49.6923 10.9675C49.3803 11.5315 49.2243 12.1675 49.2243 12.8755ZM58.4354 17.5735V16.4575C58.7594 16.4575 59.0474 16.3735 59.2994 16.2055C59.5514 16.0255 59.7734 15.7255 59.9654 15.3055C60.1694 14.8855 60.3314 14.3095 60.4514 13.5775C60.5714 12.8335 60.6494 11.8915 60.6854 10.7515L60.7934 8.14153H66.8774V17.5195H65.6534V9.23953H61.8734L61.8374 10.8595C61.7894 12.1555 61.6874 13.2415 61.5314 14.1175C61.3754 14.9815 61.1534 15.6655 60.8654 16.1695C60.5894 16.6735 60.2474 17.0335 59.8394 17.2495C59.4314 17.4655 58.9634 17.5735 58.4354 17.5735ZM69.5654 17.5195V8.14153H70.7894V11.4535H73.2194C74.2874 11.4535 75.0914 11.7295 75.6314 12.2815C76.1834 12.8215 76.4594 13.5355 76.4594 14.4235C76.4594 14.9995 76.3394 15.5215 76.0994 15.9895C75.8594 16.4575 75.5054 16.8295 75.0374 17.1055C74.5814 17.3815 74.0054 17.5195 73.3094 17.5195H69.5654ZM70.7894 16.5475H73.1474C73.6394 16.5475 74.0354 16.4515 74.3354 16.2595C74.6354 16.0555 74.8574 15.7975 75.0014 15.4855C75.1454 15.1615 75.2174 14.8135 75.2174 14.4415C75.2174 14.0815 75.1514 13.7515 75.0194 13.4515C74.8994 13.1395 74.6834 12.8935 74.3714 12.7135C74.0714 12.5215 73.6514 12.4255 73.1114 12.4255H70.7894V16.5475ZM81.0905 17.6275C80.2265 17.6275 79.4885 17.4655 78.8765 17.1415C78.2645 16.8055 77.7965 16.3375 77.4725 15.7375L78.4805 15.2875C78.7085 15.7075 79.0385 16.0375 79.4705 16.2775C79.9025 16.5055 80.4245 16.6195 81.0365 16.6195C81.7685 16.6195 82.3505 16.4515 82.7825 16.1155C83.2265 15.7795 83.4485 15.3295 83.4485 14.7655C83.4485 14.2495 83.2745 13.8355 82.9265 13.5235C82.5785 13.2115 82.0985 13.0495 81.4865 13.0375H80.5325V12.1915H81.5585C81.8225 12.1915 82.0625 12.1195 82.2785 11.9755C82.4945 11.8315 82.6625 11.6395 82.7825 11.3995C82.9025 11.1595 82.9625 10.8895 82.9625 10.5895C82.9625 10.1215 82.7945 9.74353 82.4585 9.45553C82.1345 9.16753 81.6545 9.02353 81.0185 9.02353C80.4905 9.02353 80.0465 9.13153 79.6865 9.34753C79.3385 9.55153 79.0565 9.85753 78.8405 10.2655L77.9045 9.76153C78.1805 9.20953 78.5885 8.77753 79.1285 8.46553C79.6805 8.15353 80.3225 7.99753 81.0545 7.99753C81.6545 7.99753 82.1765 8.09953 82.6205 8.30353C83.0765 8.49553 83.4305 8.77753 83.6825 9.14953C83.9465 9.50953 84.0785 9.94753 84.0785 10.4635C84.0785 10.9075 83.9705 11.3215 83.7545 11.7055C83.5385 12.0775 83.2385 12.3595 82.8545 12.5515C83.4065 12.7195 83.8325 13.0135 84.1325 13.4335C84.4445 13.8535 84.6005 14.3455 84.6005 14.9095C84.6005 15.4735 84.4505 15.9595 84.1505 16.3675C83.8505 16.7755 83.4365 17.0875 82.9085 17.3035C82.3805 17.5195 81.7745 17.6275 81.0905 17.6275ZM90.6478 17.6995C89.9758 17.6995 89.3518 17.5735 88.7758 17.3215C88.2118 17.0575 87.7198 16.7035 87.2998 16.2595C86.8918 15.8035 86.5738 15.2875 86.3458 14.7115C86.1178 14.1235 86.0038 13.5055 86.0038 12.8575C86.0038 12.1855 86.1178 11.5615 86.3458 10.9855C86.5738 10.3975 86.8978 9.88153 87.3178 9.43753C87.7378 8.98153 88.2298 8.62753 88.7938 8.37553C89.3698 8.11153 89.9938 7.97953 90.6658 7.97953C91.3378 7.97953 91.9558 8.11153 92.5198 8.37553C93.0838 8.62753 93.5758 8.98153 93.9958 9.43753C94.4158 9.88153 94.7398 10.3975 94.9678 10.9855C95.1958 11.5615 95.3098 12.1855 95.3098 12.8575C95.3098 13.5055 95.1958 14.1235 94.9678 14.7115C94.7398 15.2875 94.4158 15.8035 93.9958 16.2595C93.5878 16.7035 93.0958 17.0575 92.5198 17.3215C91.9558 17.5735 91.3318 17.6995 90.6478 17.6995ZM87.2458 12.8755C87.2458 13.5715 87.3958 14.2075 87.6958 14.7835C88.0078 15.3475 88.4218 15.7975 88.9378 16.1335C89.4538 16.4575 90.0238 16.6195 90.6478 16.6195C91.2718 16.6195 91.8418 16.4515 92.3578 16.1155C92.8738 15.7795 93.2878 15.3235 93.5998 14.7475C93.9118 14.1595 94.0678 13.5235 94.0678 12.8395C94.0678 12.1435 93.9118 11.5075 93.5998 10.9315C93.2878 10.3555 92.8738 9.89953 92.3578 9.56353C91.8418 9.22753 91.2718 9.05953 90.6478 9.05953C90.0238 9.05953 89.4538 9.23353 88.9378 9.58153C88.4338 9.92953 88.0258 10.3915 87.7138 10.9675C87.4018 11.5315 87.2458 12.1675 87.2458 12.8755ZM97.3388 17.5195V8.14153H102.019C102.547 8.14153 102.991 8.25553 103.351 8.48353C103.711 8.69953 103.981 8.98153 104.161 9.32953C104.353 9.67753 104.449 10.0495 104.449 10.4455C104.449 10.9495 104.329 11.4055 104.089 11.8135C103.849 12.2095 103.501 12.5095 103.045 12.7135C103.585 12.8695 104.023 13.1515 104.359 13.5595C104.695 13.9675 104.863 14.4595 104.863 15.0355C104.863 15.5395 104.737 15.9775 104.485 16.3495C104.245 16.7215 103.909 17.0095 103.477 17.2135C103.057 17.4175 102.571 17.5195 102.019 17.5195H97.3388ZM98.5088 16.6375H101.983C102.295 16.6375 102.577 16.5595 102.829 16.4035C103.093 16.2355 103.297 16.0195 103.441 15.7555C103.597 15.4915 103.675 15.2155 103.675 14.9275C103.675 14.6155 103.603 14.3335 103.459 14.0815C103.315 13.8175 103.123 13.6075 102.883 13.4515C102.643 13.2955 102.367 13.2175 102.055 13.2175H98.5088V16.6375ZM98.5088 12.3715H101.695C102.007 12.3715 102.283 12.2875 102.523 12.1195C102.763 11.9515 102.949 11.7355 103.081 11.4715C103.213 11.2075 103.279 10.9315 103.279 10.6435C103.279 10.2115 103.135 9.83353 102.847 9.50953C102.571 9.18553 102.211 9.02353 101.767 9.02353H98.5088V12.3715ZM106.234 14.8195C106.234 14.2315 106.402 13.7275 106.738 13.3075C107.074 12.8755 107.536 12.5455 108.124 12.3175C108.724 12.0775 109.414 11.9575 110.194 11.9575C110.65 11.9575 111.124 11.9935 111.616 12.0655C112.108 12.1375 112.546 12.2455 112.93 12.3895V11.5975C112.93 10.8055 112.696 10.1755 112.228 9.70753C111.76 9.23953 111.112 9.00553 110.284 9.00553C109.78 9.00553 109.282 9.10153 108.79 9.29353C108.31 9.47353 107.806 9.74353 107.278 10.1035L106.81 9.23953C107.422 8.81953 108.022 8.50753 108.61 8.30353C109.198 8.08753 109.798 7.97953 110.41 7.97953C111.562 7.97953 112.474 8.30953 113.146 8.96953C113.818 9.62953 114.154 10.5415 114.154 11.7055V16.0435C114.154 16.2115 114.19 16.3375 114.262 16.4215C114.334 16.4935 114.448 16.5355 114.604 16.5475V17.5195C114.472 17.5315 114.358 17.5435 114.262 17.5555C114.166 17.5675 114.094 17.5675 114.046 17.5555C113.746 17.5435 113.518 17.4475 113.362 17.2675C113.206 17.0875 113.122 16.8955 113.11 16.6915L113.092 16.0075C112.672 16.5475 112.126 16.9675 111.454 17.2675C110.782 17.5555 110.098 17.6995 109.402 17.6995C108.802 17.6995 108.256 17.5735 107.764 17.3215C107.284 17.0575 106.906 16.7095 106.63 16.2775C106.366 15.8335 106.234 15.3475 106.234 14.8195ZM112.516 15.5395C112.648 15.3715 112.75 15.2095 112.822 15.0535C112.894 14.8975 112.93 14.7595 112.93 14.6395V13.2715C112.522 13.1155 112.096 12.9955 111.652 12.9115C111.22 12.8275 110.782 12.7855 110.338 12.7855C109.462 12.7855 108.754 12.9595 108.214 13.3075C107.674 13.6555 107.404 14.1295 107.404 14.7295C107.404 15.0775 107.494 15.4075 107.674 15.7195C107.854 16.0195 108.118 16.2715 108.466 16.4755C108.814 16.6675 109.222 16.7635 109.69 16.7635C110.278 16.7635 110.824 16.6495 111.328 16.4215C111.844 16.1935 112.24 15.8995 112.516 15.5395ZM118.998 17.5195V9.23953H115.65V8.14153H123.57V9.23953H120.222V17.5195H118.998ZM129.286 17.6995C128.614 17.6995 127.99 17.5735 127.414 17.3215C126.838 17.0575 126.34 16.7035 125.92 16.2595C125.5 15.8035 125.17 15.2815 124.93 14.6935C124.702 14.1055 124.588 13.4755 124.588 12.8035C124.588 11.9275 124.786 11.1235 125.182 10.3915C125.59 9.65953 126.148 9.07753 126.856 8.64553C127.564 8.20153 128.368 7.97953 129.268 7.97953C130.192 7.97953 130.996 8.20153 131.68 8.64553C132.376 9.08953 132.922 9.67753 133.318 10.4095C133.714 11.1295 133.912 11.9215 133.912 12.7855C133.912 12.8815 133.912 12.9775 133.912 13.0735C133.912 13.1575 133.906 13.2235 133.894 13.2715H125.866C125.926 13.9435 126.112 14.5435 126.424 15.0715C126.748 15.5875 127.162 16.0015 127.666 16.3135C128.182 16.6135 128.74 16.7635 129.34 16.7635C129.952 16.7635 130.528 16.6075 131.068 16.2955C131.62 15.9835 132.004 15.5755 132.22 15.0715L133.282 15.3595C133.09 15.8035 132.796 16.2055 132.4 16.5655C132.004 16.9255 131.536 17.2075 130.996 17.4115C130.468 17.6035 129.898 17.6995 129.286 17.6995ZM125.83 12.3895H132.76C132.712 11.7055 132.526 11.1055 132.202 10.5895C131.89 10.0735 131.476 9.67153 130.96 9.38353C130.456 9.08353 129.898 8.93353 129.286 8.93353C128.674 8.93353 128.116 9.08353 127.612 9.38353C127.108 9.67153 126.694 10.0795 126.37 10.6075C126.058 11.1235 125.878 11.7175 125.83 12.3895ZM134.9 17.5735V16.4575C135.224 16.4575 135.512 16.3735 135.764 16.2055C136.016 16.0255 136.238 15.7255 136.43 15.3055C136.634 14.8855 136.796 14.3095 136.916 13.5775C137.036 12.8335 137.114 11.8915 137.15 10.7515L137.258 8.14153H143.342V17.5195H142.118V9.23953H138.338L138.302 10.8595C138.254 12.1555 138.152 13.2415 137.996 14.1175C137.84 14.9815 137.618 15.6655 137.33 16.1695C137.054 16.6735 136.712 17.0335 136.304 17.2495C135.896 17.4655 135.428 17.5735 134.9 17.5735ZM150.098 17.6995C149.426 17.6995 148.802 17.5735 148.226 17.3215C147.65 17.0575 147.152 16.7035 146.732 16.2595C146.312 15.8035 145.982 15.2815 145.742 14.6935C145.514 14.1055 145.4 13.4755 145.4 12.8035C145.4 11.9275 145.598 11.1235 145.994 10.3915C146.402 9.65953 146.96 9.07753 147.668 8.64553C148.376 8.20153 149.18 7.97953 150.08 7.97953C151.004 7.97953 151.808 8.20153 152.492 8.64553C153.188 9.08953 153.734 9.67753 154.13 10.4095C154.526 11.1295 154.724 11.9215 154.724 12.7855C154.724 12.8815 154.724 12.9775 154.724 13.0735C154.724 13.1575 154.718 13.2235 154.706 13.2715H146.678C146.738 13.9435 146.924 14.5435 147.236 15.0715C147.56 15.5875 147.974 16.0015 148.478 16.3135C148.994 16.6135 149.552 16.7635 150.152 16.7635C150.764 16.7635 151.34 16.6075 151.88 16.2955C152.432 15.9835 152.816 15.5755 153.032 15.0715L154.094 15.3595C153.902 15.8035 153.608 16.2055 153.212 16.5655C152.816 16.9255 152.348 17.2075 151.808 17.4115C151.28 17.6035 150.71 17.6995 150.098 17.6995ZM146.642 12.3895H153.572C153.524 11.7055 153.338 11.1055 153.014 10.5895C152.702 10.0735 152.288 9.67153 151.772 9.38353C151.268 9.08353 150.71 8.93353 150.098 8.93353C149.486 8.93353 148.928 9.08353 148.424 9.38353C147.92 9.67153 147.506 10.0795 147.182 10.6075C146.87 11.1235 146.69 11.7175 146.642 12.3895ZM156.595 17.5195V8.15953H157.819V15.8635L163.525 8.14153H164.623V17.5195H163.399V9.94153L157.783 17.5195H156.595ZM160.627 6.95353C159.811 6.95353 159.181 6.76153 158.737 6.37753C158.293 5.99353 158.071 5.50753 158.071 4.91953H158.971C158.971 5.27953 159.103 5.57953 159.367 5.81953C159.643 6.05953 160.063 6.17953 160.627 6.17953C161.179 6.17953 161.581 6.06553 161.833 5.83753C162.097 5.60953 162.247 5.30353 162.283 4.91953H163.165C163.165 5.50753 162.943 5.99353 162.499 6.37753C162.055 6.76153 161.431 6.95353 160.627 6.95353ZM48.7864 37.6995C48.0064 37.6995 47.3044 37.4955 46.6804 37.0875C46.0684 36.6795 45.5824 36.1755 45.2224 35.5755V41.3535H43.9984V28.1415H45.0964V29.9595C45.4684 29.3715 45.9664 28.8975 46.5904 28.5375C47.2144 28.1655 47.8804 27.9795 48.5884 27.9795C49.2364 27.9795 49.8304 28.1175 50.3704 28.3935C50.9104 28.6575 51.3784 29.0175 51.7744 29.4735C52.1704 29.9295 52.4764 30.4515 52.6924 31.0395C52.9204 31.6155 53.0344 32.2155 53.0344 32.8395C53.0344 33.7155 52.8544 34.5255 52.4944 35.2695C52.1464 36.0015 51.6544 36.5895 51.0184 37.0335C50.3824 37.4775 49.6384 37.6995 48.7864 37.6995ZM48.4444 36.6195C48.9604 36.6195 49.4224 36.5175 49.8304 36.3135C50.2384 36.0975 50.5864 35.8095 50.8744 35.4495C51.1744 35.0895 51.4024 34.6875 51.5584 34.2435C51.7144 33.7875 51.7924 33.3195 51.7924 32.8395C51.7924 32.3355 51.7024 31.8555 51.5224 31.3995C51.3544 30.9435 51.1084 30.5415 50.7844 30.1935C50.4604 29.8455 50.0884 29.5695 49.6684 29.3655C49.2484 29.1615 48.7924 29.0595 48.3004 29.0595C47.9884 29.0595 47.6644 29.1195 47.3284 29.2395C46.9924 29.3595 46.6684 29.5335 46.3564 29.7615C46.0564 29.9775 45.8044 30.2235 45.6004 30.4995C45.3964 30.7755 45.2704 31.0695 45.2224 31.3815V34.2615C45.4144 34.7055 45.6724 35.1075 45.9964 35.4675C46.3204 35.8155 46.6924 36.0975 47.1124 36.3135C47.5444 36.5175 47.9884 36.6195 48.4444 36.6195ZM59.1578 37.6995C58.4858 37.6995 57.8618 37.5735 57.2858 37.3215C56.7098 37.0575 56.2118 36.7035 55.7918 36.2595C55.3718 35.8035 55.0418 35.2815 54.8018 34.6935C54.5738 34.1055 54.4598 33.4755 54.4598 32.8035C54.4598 31.9275 54.6578 31.1235 55.0538 30.3915C55.4618 29.6595 56.0198 29.0775 56.7278 28.6455C57.4358 28.2015 58.2398 27.9795 59.1398 27.9795C60.0638 27.9795 60.8678 28.2015 61.5518 28.6455C62.2478 29.0895 62.7938 29.6775 63.1898 30.4095C63.5858 31.1295 63.7838 31.9215 63.7838 32.7855C63.7838 32.8815 63.7838 32.9775 63.7838 33.0735C63.7838 33.1575 63.7778 33.2235 63.7658 33.2715H55.7378C55.7978 33.9435 55.9838 34.5435 56.2958 35.0715C56.6198 35.5875 57.0338 36.0015 57.5378 36.3135C58.0538 36.6135 58.6118 36.7635 59.2118 36.7635C59.8238 36.7635 60.3998 36.6075 60.9398 36.2955C61.4918 35.9835 61.8758 35.5755 62.0918 35.0715L63.1538 35.3595C62.9618 35.8035 62.6678 36.2055 62.2718 36.5655C61.8758 36.9255 61.4078 37.2075 60.8678 37.4115C60.3398 37.6035 59.7698 37.6995 59.1578 37.6995ZM55.7018 32.3895H62.6318C62.5838 31.7055 62.3978 31.1055 62.0738 30.5895C61.7618 30.0735 61.3478 29.6715 60.8318 29.3835C60.3278 29.0835 59.7698 28.9335 59.1578 28.9335C58.5458 28.9335 57.9878 29.0835 57.4838 29.3835C56.9798 29.6715 56.5658 30.0795 56.2418 30.6075C55.9298 31.1235 55.7498 31.7175 55.7018 32.3895ZM65.6543 37.5195V28.1415H66.8783V32.1555H68.2823L71.4323 28.1415H72.8363L69.2543 32.6955L73.2863 37.5195H71.8463L68.2823 33.2895H66.8783V37.5195H65.6543ZM78.5276 37.6995C77.8556 37.6995 77.2316 37.5735 76.6556 37.3215C76.0916 37.0575 75.5996 36.7035 75.1796 36.2595C74.7716 35.8035 74.4536 35.2875 74.2256 34.7115C73.9976 34.1235 73.8836 33.5055 73.8836 32.8575C73.8836 32.1855 73.9976 31.5615 74.2256 30.9855C74.4536 30.3975 74.7776 29.8815 75.1976 29.4375C75.6176 28.9815 76.1096 28.6275 76.6736 28.3755C77.2496 28.1115 77.8736 27.9795 78.5456 27.9795C79.2176 27.9795 79.8356 28.1115 80.3996 28.3755C80.9636 28.6275 81.4556 28.9815 81.8756 29.4375C82.2956 29.8815 82.6196 30.3975 82.8476 30.9855C83.0756 31.5615 83.1896 32.1855 83.1896 32.8575C83.1896 33.5055 83.0756 34.1235 82.8476 34.7115C82.6196 35.2875 82.2956 35.8035 81.8756 36.2595C81.4676 36.7035 80.9756 37.0575 80.3996 37.3215C79.8356 37.5735 79.2116 37.6995 78.5276 37.6995ZM75.1256 32.8755C75.1256 33.5715 75.2756 34.2075 75.5756 34.7835C75.8876 35.3475 76.3016 35.7975 76.8176 36.1335C77.3336 36.4575 77.9036 36.6195 78.5276 36.6195C79.1516 36.6195 79.7216 36.4515 80.2376 36.1155C80.7536 35.7795 81.1676 35.3235 81.4796 34.7475C81.7916 34.1595 81.9476 33.5235 81.9476 32.8395C81.9476 32.1435 81.7916 31.5075 81.4796 30.9315C81.1676 30.3555 80.7536 29.8995 80.2376 29.5635C79.7216 29.2275 79.1516 29.0595 78.5276 29.0595C77.9036 29.0595 77.3336 29.2335 76.8176 29.5815C76.3136 29.9295 75.9056 30.3915 75.5936 30.9675C75.2816 31.5315 75.1256 32.1675 75.1256 32.8755ZM85.2187 37.5195V28.1415H86.4787L90.2047 34.6035L93.9487 28.1415H95.1547V37.5195H93.9847V29.9775L90.6007 35.8455H89.8087L86.3887 29.9775V37.5195H85.2187ZM101.908 37.6995C101.236 37.6995 100.612 37.5735 100.036 37.3215C99.4598 37.0575 98.9618 36.7035 98.5418 36.2595C98.1218 35.8035 97.7918 35.2815 97.5518 34.6935C97.3238 34.1055 97.2098 33.4755 97.2098 32.8035C97.2098 31.9275 97.4078 31.1235 97.8038 30.3915C98.2118 29.6595 98.7698 29.0775 99.4778 28.6455C100.186 28.2015 100.99 27.9795 101.89 27.9795C102.814 27.9795 103.618 28.2015 104.302 28.6455C104.998 29.0895 105.544 29.6775 105.94 30.4095C106.336 31.1295 106.534 31.9215 106.534 32.7855C106.534 32.8815 106.534 32.9775 106.534 33.0735C106.534 33.1575 106.528 33.2235 106.516 33.2715H98.4878C98.5478 33.9435 98.7338 34.5435 99.0458 35.0715C99.3698 35.5875 99.7838 36.0015 100.288 36.3135C100.804 36.6135 101.362 36.7635 101.962 36.7635C102.574 36.7635 103.15 36.6075 103.69 36.2955C104.242 35.9835 104.626 35.5755 104.842 35.0715L105.904 35.3595C105.712 35.8035 105.418 36.2055 105.022 36.5655C104.626 36.9255 104.158 37.2075 103.618 37.4115C103.09 37.6035 102.52 37.6995 101.908 37.6995ZM98.4518 32.3895H105.382C105.334 31.7055 105.148 31.1055 104.824 30.5895C104.512 30.0735 104.098 29.6715 103.582 29.3835C103.078 29.0835 102.52 28.9335 101.908 28.9335C101.296 28.9335 100.738 29.0835 100.234 29.3835C99.7298 29.6715 99.3158 30.0795 98.9918 30.6075C98.6798 31.1235 98.4998 31.7175 98.4518 32.3895ZM108.404 37.5195V28.1415H109.628V32.1735H114.992V28.1415H116.216V37.5195H114.992V33.2715H109.628V37.5195H108.404ZM117.872 39.6975V36.4215H118.034C118.31 36.4215 118.562 36.3375 118.79 36.1695C119.018 36.0015 119.222 35.7075 119.402 35.2875C119.582 34.8675 119.726 34.2915 119.834 33.5595C119.942 32.8155 120.014 31.8795 120.05 30.7515L120.14 28.1415H126.242V36.4215H127.502V39.6975H126.404V37.5195H118.952V39.6975H117.872ZM119.888 36.4215H125.018V29.2395H121.238L121.184 30.8595C121.148 31.9755 121.07 32.9115 120.95 33.6675C120.842 34.4115 120.698 35.0055 120.518 35.4495C120.35 35.8815 120.14 36.2055 119.888 36.4215ZM130.384 41.4435C130.18 41.4435 129.97 41.4075 129.754 41.3355C129.55 41.2755 129.34 41.1855 129.124 41.0655L129.574 40.2015C129.706 40.2735 129.826 40.3335 129.934 40.3815C130.054 40.4295 130.18 40.4535 130.312 40.4535C130.624 40.4535 130.918 40.2975 131.194 39.9855C131.47 39.6735 131.734 39.2175 131.986 38.6175L132.454 37.4475L128.278 28.1415H129.574L133.012 36.2595L136.18 28.1415H137.404L132.94 38.9955C132.7 39.5595 132.448 40.0215 132.184 40.3815C131.92 40.7415 131.638 41.0055 131.338 41.1735C131.038 41.3535 130.72 41.4435 130.384 41.4435ZM146.548 37.6995C145.732 37.6995 145.006 37.5135 144.37 37.1415C143.746 36.7695 143.242 36.2595 142.858 35.6115C142.486 34.9515 142.27 34.2075 142.21 33.3795H140.338V37.5195H139.114V28.1415H140.338V32.2995H142.21C142.282 31.4355 142.51 30.6795 142.894 30.0315C143.278 29.3835 143.782 28.8795 144.406 28.5195C145.042 28.1595 145.756 27.9795 146.548 27.9795C147.472 27.9795 148.27 28.1955 148.942 28.6275C149.614 29.0595 150.136 29.6415 150.508 30.3735C150.88 31.1055 151.066 31.9335 151.066 32.8575C151.066 33.8055 150.874 34.6455 150.49 35.3775C150.118 36.0975 149.59 36.6675 148.906 37.0875C148.234 37.4955 147.448 37.6995 146.548 37.6995ZM146.548 36.6195C147.196 36.6195 147.766 36.4575 148.258 36.1335C148.75 35.8095 149.128 35.3655 149.392 34.8015C149.668 34.2375 149.806 33.5895 149.806 32.8575C149.806 32.0775 149.662 31.4055 149.374 30.8415C149.098 30.2775 148.714 29.8395 148.222 29.5275C147.73 29.2155 147.172 29.0595 146.548 29.0595C145.936 29.0595 145.39 29.2215 144.91 29.5455C144.43 29.8575 144.058 30.3015 143.794 30.8775C143.53 31.4415 143.398 32.1015 143.398 32.8575C143.398 33.6135 143.53 34.2795 143.794 34.8555C144.07 35.4195 144.448 35.8575 144.928 36.1695C145.408 36.4695 145.948 36.6195 146.548 36.6195ZM155.463 37.5195V29.2395H152.115V28.1415H160.035V29.2395H156.687V37.5195H155.463Z" fill="#676767"/>
</svg>
