<svg xmlns="http://www.w3.org/2000/svg" width="31" height="31" viewBox="0 0 31 31" fill="none">
  <rect x="0.5" y="0.759766" width="30" height="30" rx="15" fill="#6C9165"/>
  <path fill-rule="evenodd" clip-rule="evenodd" d="M20.5488 16.8364C21.0132 17.2898 21.5034 17.7164 21.9199 18.2155C22.1039 18.4373 22.2781 18.6662 22.4113 18.9236C22.6001 19.2895 22.4291 19.6921 22.101 19.714L20.0615 19.7131C19.5355 19.7567 19.1158 19.545 18.763 19.1853C18.4806 18.8977 18.2191 18.5916 17.9476 18.2942C17.8363 18.1727 17.7198 18.0584 17.5806 17.968C17.3021 17.7873 17.0605 17.8426 16.9014 18.133C16.7393 18.4283 16.7026 18.7554 16.6867 19.0845C16.6648 19.5648 16.5196 19.691 16.0372 19.713C15.0062 19.7617 14.0278 19.6057 13.1188 19.0856C12.3174 18.6271 11.696 17.9798 11.1551 17.247C10.102 15.8201 9.29553 14.2522 8.5707 12.6404C8.40755 12.2772 8.52687 12.0823 8.92755 12.0754C9.59291 12.0624 10.2582 12.0634 10.9243 12.0744C11.1947 12.0784 11.3737 12.2335 11.4782 12.489C11.8381 13.3741 12.2786 14.2162 12.8315 14.9968C12.9787 15.2046 13.1289 15.4124 13.3427 15.5587C13.5792 15.7207 13.7593 15.667 13.8705 15.4035C13.9411 15.2365 13.9721 15.0565 13.988 14.8776C14.0407 14.262 14.0476 13.6475 13.9552 13.034C13.8984 12.6512 13.6828 12.4034 13.3008 12.3309C13.1058 12.294 13.1349 12.2215 13.2292 12.1102C13.3932 11.9183 13.5474 11.7988 13.8547 11.7988H16.1597C16.5226 11.8704 16.6032 12.0335 16.6528 12.3986L16.6548 14.959C16.6509 15.1003 16.7254 15.5198 16.98 15.6133C17.1838 15.6799 17.3181 15.5169 17.4404 15.3877C17.9922 14.802 18.3861 14.1097 18.738 13.393C18.8942 13.0778 19.0284 12.7505 19.1586 12.4234C19.255 12.1807 19.4063 12.0613 19.6796 12.0666L21.898 12.0686C21.9638 12.0686 22.0304 12.0696 22.0941 12.0805C22.4679 12.1442 22.5703 12.305 22.4549 12.67C22.273 13.2427 21.919 13.72 21.5729 14.1995C21.203 14.7114 20.8073 15.2058 20.4404 15.7207C20.1034 16.191 20.1301 16.428 20.5488 16.8364Z" fill="white"/>
</svg>