<svg xmlns="http://www.w3.org/2000/svg" width="100" height="99" viewBox="0 0 100 99" fill="none">
  <g filter="url(#filter0_d_488_55912)">
    <circle cx="49.9563" cy="43.4543" r="34.1516" fill="white"/>
  </g>
  <path d="M49.751 26.2715C40.7527 26.2715 33.457 33.5671 33.457 42.5654C33.457 45.6222 34.3156 48.4721 35.7802 50.9166L33.6029 58.8594L41.7154 56.7298C44.088 58.0787 46.8269 58.8594 49.751 58.8594C58.7493 58.8594 66.0449 51.5638 66.0449 42.5654C66.0449 33.5671 58.7493 26.2715 49.751 26.2715ZM44.1738 34.9648C44.4386 34.9648 44.7106 34.9632 44.9455 34.9754C45.2361 34.9822 45.5524 35.0035 45.8552 35.6729C46.215 36.4686 46.9985 38.4647 47.099 38.667C47.1995 38.8693 47.2707 39.1076 47.1308 39.3724C46.9977 39.644 46.9285 39.8083 46.733 40.0487C46.5307 40.2822 46.309 40.5723 46.1257 40.7488C45.9234 40.9511 45.7145 41.173 45.948 41.5762C46.1816 41.9795 46.9926 43.3016 48.1916 44.3688C49.7327 45.7457 51.033 46.1688 51.4377 46.3711C51.8423 46.5734 52.0766 46.5419 52.3102 46.2703C52.5505 46.0055 53.3195 45.097 53.5911 44.6924C53.8559 44.2877 54.1262 44.3577 54.4928 44.4908C54.8648 44.6239 56.8489 45.6012 57.2535 45.8035C57.6582 46.0059 57.9234 46.106 58.0253 46.2703C58.1298 46.44 58.1299 47.248 57.7945 48.1904C57.4592 49.1313 55.8122 50.0413 55.0736 50.1051C54.3281 50.1744 53.6324 50.4402 50.2284 49.1C46.1223 47.4828 43.5328 43.2772 43.3305 43.0057C43.1282 42.7409 41.6862 40.8191 41.6862 38.8367C41.6862 36.8475 42.7292 35.8733 43.0944 35.4687C43.4665 35.064 43.9022 34.9648 44.1738 34.9648Z" fill="#6C9165"/>
  <defs>
    <filter id="filter0_d_488_55912" x="0.804688" y="0.302734" width="98.3047" height="98.3027" filterUnits="userSpaceOnUse" color-interpolation-filters="sRGB">
      <feFlood flood-opacity="0" result="BackgroundImageFix"/>
      <feColorMatrix in="SourceAlpha" type="matrix" values="0 0 0 0 0 0 0 0 0 0 0 0 0 0 0 0 0 0 127 0" result="hardAlpha"/>
      <feOffset dy="6"/>
      <feGaussianBlur stdDeviation="7.5"/>
      <feComposite in2="hardAlpha" operator="out"/>
      <feColorMatrix type="matrix" values="0 0 0 0 0 0 0 0 0 0 0 0 0 0 0 0 0 0 0.1 0"/>
      <feBlend mode="normal" in2="BackgroundImageFix" result="effect1_dropShadow_488_55912"/>
      <feBlend mode="normal" in="SourceGraphic" in2="effect1_dropShadow_488_55912" result="shape"/>
    </filter>
  </defs>
</svg>