<svg xmlns="http://www.w3.org/2000/svg" width="31" height="31" viewBox="0 0 31 31" fill="none">
  <rect x="0.5" y="0.759766" width="30" height="30" rx="15" fill="#6C9165"/>
  <path d="M21.5307 16.0152C21.4577 15.6833 21.2959 15.405 21.0457 15.1802C20.7954 14.9554 20.5073 14.8232 20.181 14.7838C19.1465 14.6714 17.5862 14.6152 15.5 14.6152C13.4138 14.6152 11.8563 14.6714 10.8273 14.7838C10.4956 14.8232 10.2061 14.9554 9.95855 15.1802C9.71111 15.4051 9.54804 15.6834 9.46929 16.0152C9.32312 16.6675 9.25 17.6515 9.25 18.9673C9.25 20.3055 9.32312 21.2895 9.46929 21.9194C9.54249 22.251 9.70417 22.5295 9.95439 22.7542C10.2046 22.9792 10.4928 23.1085 10.8189 23.1422C11.8536 23.2603 13.414 23.3194 15.5 23.3194C17.5859 23.3194 19.1467 23.2603 20.181 23.1422C20.5072 23.1085 20.7939 22.9792 21.0414 22.7542C21.2889 22.5295 21.452 22.251 21.5306 21.9194C21.6768 21.267 21.75 20.283 21.75 18.9673C21.75 17.629 21.6768 16.645 21.5307 16.0152ZM12.818 16.8672H11.9156V21.6662H11.0722V16.8672H10.1865V16.0744H12.8181L12.818 16.8672ZM15.0952 21.6662H14.3446V21.2107C14.041 21.5538 13.7541 21.7252 13.4842 21.7252C13.2256 21.7252 13.0625 21.6211 12.9951 21.4132C12.9502 21.2782 12.9276 21.0729 12.9276 20.7974V17.4997H13.6782V20.5697C13.6782 20.7496 13.6811 20.848 13.6867 20.8649C13.7036 20.983 13.7626 21.042 13.8639 21.042C14.0156 21.042 14.176 20.924 14.3446 20.6878V17.4997H15.0953L15.0952 21.6662ZM17.9629 20.4179C17.9629 20.8283 17.9377 21.1097 17.8873 21.2615C17.7915 21.5706 17.592 21.7252 17.2884 21.7252C17.0185 21.7252 16.7571 21.5706 16.5039 21.2615V21.6663H15.7534V16.0744H16.5039V17.9046C16.7458 17.6012 17.0072 17.4493 17.2884 17.4493C17.592 17.4493 17.7915 17.6068 17.8873 17.9216C17.9376 18.0678 17.9629 18.3461 17.9629 18.7566V20.4179ZM20.8137 19.7264H19.304V20.4602C19.304 20.8482 19.4333 21.042 19.692 21.042C19.8775 21.042 19.99 20.9409 20.0293 20.7384C20.0404 20.6822 20.0462 20.5107 20.0462 20.224H20.8137V20.3336C20.8137 20.6092 20.808 20.7722 20.7968 20.8229C20.7801 20.9745 20.7212 21.1264 20.6197 21.2782C20.4173 21.5762 20.1134 21.7252 19.7086 21.7252C19.3208 21.7252 19.0171 21.5818 18.7978 21.2952C18.6348 21.0871 18.5533 20.761 18.5533 20.3168V18.8575C18.5533 18.4133 18.6319 18.0872 18.7893 17.8791C19.0087 17.5924 19.3095 17.4491 19.692 17.4491C20.0688 17.4491 20.367 17.5924 20.586 17.8791C20.738 18.0872 20.8137 18.4133 20.8137 18.8575V19.7264Z" fill="white"/>
  <path d="M16.8832 18.132C16.7538 18.132 16.6274 18.194 16.5037 18.3176V20.8562C16.6274 20.9799 16.7538 21.0417 16.8832 21.0417C17.1024 21.0417 17.2123 20.8535 17.2123 20.4766V18.6971C17.2122 18.3203 17.1026 18.132 16.8832 18.132Z" fill="white"/>
  <path d="M19.6834 18.132C19.4304 18.132 19.3039 18.3233 19.3039 18.7054V19.0934H20.0629V18.7054C20.0629 18.3231 19.9364 18.132 19.6834 18.132Z" fill="white"/>
  <path d="M12.3295 11.5704V13.8561H13.1728V11.5704L14.1932 8.20508H13.333L12.7595 10.4233L12.1607 8.20508H11.2667C11.4241 8.67745 11.6069 9.20314 11.8149 9.78233C12.0792 10.5582 12.2506 11.1544 12.3295 11.5704Z" fill="white"/>
  <path d="M15.3228 13.9148C15.7108 13.9148 16.0087 13.7714 16.2167 13.4846C16.3743 13.2765 16.4529 12.9448 16.4529 12.4894V11.0133C16.4529 10.5635 16.3741 10.2345 16.2167 10.0264C16.0087 9.73969 15.7108 9.59629 15.3228 9.59629C14.9459 9.59629 14.6507 9.73969 14.4371 10.0264C14.2797 10.2345 14.201 10.5635 14.201 11.0133V12.4894C14.201 12.9391 14.2796 13.2709 14.4371 13.4846C14.6508 13.7714 14.9459 13.9148 15.3228 13.9148ZM14.96 10.8615C14.96 10.4735 15.0809 10.2795 15.3228 10.2795C15.5646 10.2795 15.6854 10.4735 15.6854 10.8615V12.6326C15.6854 13.0264 15.5646 13.223 15.3228 13.223C15.0809 13.223 14.96 13.0262 14.96 12.6326V10.8615Z" fill="white"/>
  <path d="M17.6422 13.915C17.9235 13.915 18.2132 13.7407 18.5111 13.392V13.8559H19.2786V9.64721H18.5111V12.8607C18.3424 13.1025 18.1822 13.2233 18.0302 13.2233C17.9289 13.2233 17.8698 13.1614 17.8531 13.0378C17.8474 13.0265 17.8446 12.928 17.8446 12.7425V9.64721H17.0771V12.9704C17.0771 13.2571 17.0997 13.4679 17.1446 13.6029C17.2178 13.811 17.3836 13.915 17.6422 13.915Z" fill="white"/>
</svg>